<?xml version="1.0" encoding="utf-8"?>
<!-- Generator: Adobe Illustrator 24.0.1, SVG Export Plug-In . SVG Version: 6.00 Build 0)  -->
<svg version="1.1" id="Layer_1" xmlns="http://www.w3.org/2000/svg" xmlns:xlink="http://www.w3.org/1999/xlink" x="0px" y="0px"
	 viewBox="0 0 1953.2 1000" style="enable-background:new 0 0 1953.2 1000;" xml:space="preserve">
<style type="text/css">
	.st0{fill-rule:evenodd;clip-rule:evenodd;fill:#FFFFFF;}
</style>
<g>
	<path class="st0" d="M94.25,682.47c0-121.86,0-243.47,0-365.88c1.67,0,3.42,0,5.17,0c38.5,0,77-0.18,115.5,0.05
		c34.21,0.21,67.32,6.08,98.14,21.61c52.1,26.25,81.51,69.17,90.81,126.13c6.07,37.15,3.57,73.88-10.32,109.13
		c-21.03,53.37-61.05,85.54-115.45,100.9c-20.47,5.78-41.45,8.26-62.71,8.26c-39,0.01-78,0.01-117,0
		C97.1,682.68,95.8,682.55,94.25,682.47z M170.7,606.59c11.52,0,22.64-0.11,33.76,0.03c15.86,0.2,31.64-0.41,47.15-4.1
		c28.27-6.72,51.46-20.64,65.75-46.9c11.29-20.73,13.78-43.23,12.48-66.34c-2.67-47.53-29.98-80.37-76.15-91.88
		c-27.06-6.74-54.6-4.47-82.02-4.54c-0.25,0-0.51,0.38-0.98,0.75C170.7,464.2,170.7,534.96,170.7,606.59z"/>
	<path class="st0" d="M1674.41,316.56c102.42,0,184.57,81.96,184.53,184.12c-0.03,101.07-82.73,182.84-184.86,182.8
		c-101.72-0.04-184.09-82.22-184.06-183.63C1490.05,398.54,1572.52,316.56,1674.41,316.56z M1784.72,499.89
		c-0.1-60.41-49.35-109.39-110.07-109.45c-60.95-0.06-110.42,49.13-110.32,109.69c0.1,60.64,49.58,109.62,110.56,109.45
		C1735.58,609.41,1784.81,560.24,1784.72,499.89z"/>
	<path class="st0" d="M774.27,536.85c-49.16,0-97.42,0-145.97,0c0-25.39,0-50.32,0-75.84c48.45,0,96.85,0,145.78,0
		c0-48.32,0-96.06,0-144.14c25.73,0,50.94,0,76.67,0c0,47.92,0,95.66,0,144.01c48.92,0,97.31,0,145.95,0c0,25.53,0,50.44,0,75.97
		c-48.58,0-96.96,0-145.85,0c0,48.7,0,96.78,0,145.23c-25.7,0-50.89,0-76.58,0C774.27,633.77,774.27,585.68,774.27,536.85z"/>
	<path class="st0" d="M1417.56,536.95c-48.57,0-96.97,0-145.88,0c0,48.67,0,96.76,0,145.17c-25.58,0-50.65,0-76.39,0
		c0-48.23,0-96.44,0-145.09c-48.94,0-97.21,0-145.88,0c0-25.47,0-50.5,0-75.97c48.36,0,96.63,0,145.61,0c0-48.28,0-96.13,0-144.27
		c25.79,0,50.88,0,76.5,0c0,47.78,0,95.53,0,143.89c48.91,0,97.29,0,146.05,0C1417.56,486.33,1417.56,511.35,1417.56,536.95z"/>
	<path class="st0" d="M556.38,682.32c-25.32,0-50.27,0-75.62,0c0-121.79,0-243.46,0-365.46c25.11,0,50.17,0,75.62,0
		C556.38,438.45,556.38,560.11,556.38,682.32z"/>
</g>
</svg>
