<?xml version="1.0" encoding="UTF-8"?>
<svg id="Layer_1" data-name="Layer 1" xmlns="http://www.w3.org/2000/svg" viewBox="0 0 1328.45 426.84">
  <defs>
    <style>
      .cls-1 {
        fill: #f64780;
        stroke-width: 0px;
      }
    </style>
  </defs>
  <path class="cls-1" d="m89.58,21.08c60.2,0,126.74,24.13,126.74,109v26.7c.09,77.37-58.09,105.09-114.54,108.84h-15.67v136.96c0,1.76-1.43,3.19-3.19,3.19H3.19c-1.76,0-3.19-1.43-3.19-3.19V24.26c0-1.76,1.43-3.19,3.19-3.19h86.4Zm42.94,120.05c0-27.26-14.3-36.87-29.28-36.87h-13.94c-1.76,0-3.19,1.43-3.19,3.19v71.87c0,1.76,1.43,3.19,3.19,3.19h13.94c14.48,0,29.28-9.36,29.28-36.87v-4.5Z"/>
  <path class="cls-1" d="m1101.13,149.07c0-101.69,58.41-133.02,113.38-133.02s113.93,30.78,113.93,133.02v128.08c0,102.24-60.06,133.02-113.93,133.02s-113.38-31.33-113.38-133.02v-128.08Zm138.86,3.15c0-34.55-7.93-52.49-25.47-52.49s-24.93,17.94-24.93,52.49v121.31c0,35.03,6.75,52.96,24.93,52.96s25.47-17.94,25.47-52.96v-121.31Z"/>
  <g>
    <ellipse class="cls-1" cx="618.29" cy="213.42" rx="36.88" ry="213.42"/>
    <ellipse class="cls-1" cx="676.64" cy="213.42" rx="25.17" ry="192.67"/>
    <ellipse class="cls-1" cx="725.79" cy="213.42" rx="19.22" ry="172.11"/>
    <ellipse class="cls-1" cx="770.88" cy="213.42" rx="13.83" ry="123.84"/>
    <ellipse class="cls-1" cx="804.85" cy="213.42" rx="6.91" ry="61.92"/>
    <ellipse class="cls-1" cx="559.94" cy="213.83" rx="25.17" ry="192.67"/>
    <ellipse class="cls-1" cx="510.79" cy="213.83" rx="19.22" ry="172.11"/>
    <ellipse class="cls-1" cx="465.7" cy="213.83" rx="13.83" ry="123.84"/>
    <ellipse class="cls-1" cx="431.72" cy="213.83" rx="6.91" ry="61.92"/>
  </g>
  <path class="cls-1" d="m981.54,23.44l-45.84,191.17c-.39,1.63-2.71,1.63-3.1,0l-45.84-191.18c-.34-1.43-1.62-2.44-3.1-2.44h-70.11c-11.56,0-19.31,11.94-14.53,22.46,14.01,30.86,44.57,82.39,44.57,169.97,0,106.53-56.6,165.33-63.5,188.32-.61,2.02.97,4.03,3.07,4.03h84.31v-169.23c0-1.9,2.73-2.2,3.15-.35l37.24,167.08c.32,1.46,1.62,2.49,3.11,2.49h46.34c1.49,0,2.79-1.04,3.11-2.49l37.24-167.07c.41-1.86,3.15-1.56,3.15.35v166.03c0,1.76,1.43,3.19,3.19,3.19h81.7c1.76,0,3.19-1.43,3.19-3.19V24.18c0-1.76-1.43-3.19-3.19-3.19h-101.07c-1.47,0-2.75,1.01-3.1,2.44Z"/>
  <path class="cls-1" d="m391.89,212.87h0c0-108.61,40.97-115.46,25.07-152.37-17.5-40.61-62.1-39.42-98.56-39.42h-87.19c-1.76,0-3.19,1.43-3.19,3.19v378.32c0,1.76,1.43,3.19,3.19,3.19h82.93v-137.76c0-1.76,1.43-3.19,3.19-3.19h10.35c1.48,0,2.77,1.02,3.1,2.46l32.28,138.49h90.6c0-20.24-61.77-76.57-61.77-192.9Zm-30.55-68.04c0,27.6-14.8,36.87-29.28,36.87h-14.74c-1.76,0-3.19-1.43-3.19-3.19v-71.07c0-1.76,1.43-3.19,3.19-3.19h14.74c14.98,0,29.28,9.53,29.28,36.87v3.7Z"/>
</svg>