<svg xmlns="http://www.w3.org/2000/svg" viewBox="0 0 819.28 122.43"><defs><style>.a{fill:#28ace4;}</style></defs><path class="a" d="M119.05,136.44H89.14L86.51,113H44.41L31,136.44h-31L68.83,21.56h34.25Zm-34.71-44-4.69-41-23.52,41Z" transform="translate(0.06 -16.39)"/><path class="a" d="M187.48,138.67q-23.29,0-35.95-11.45T138.88,94.39a80.53,80.53,0,0,1,5.59-30.63A73.12,73.12,0,0,1,159.86,40a67.92,67.92,0,0,1,23-15.2,73.52,73.52,0,0,1,28.12-5.47A94.91,94.91,0,0,1,233,21.76a68.63,68.63,0,0,1,18.36,7.13l-6.79,27.85h-3.39A54.28,54.28,0,0,0,226.6,45.17a37,37,0,0,0-17-3.7q-17.2,0-28.35,13.81T170.05,90.46q0,13.73,6.17,19.9t18.05,6.17a47.39,47.39,0,0,0,20-4.28,84.84,84.84,0,0,0,17.67-10.92H235l-6.72,27.47c-2.31.93-5,2-8.1,3.36a80.82,80.82,0,0,1-8.87,3.2A98.91,98.91,0,0,1,201,137.83,83.18,83.18,0,0,1,187.48,138.67Z" transform="translate(0.06 -16.39)"/><path class="a" d="M364.08,50.49q0,13.82-8.42,23.23T332.82,87.91l26.55,48.53H326.3L304.66,94.31H288l-9.76,42.13H248.66L275.17,21.56H320q21.06,0,32.57,7.14T364.08,50.49Zm-31.94,5q0-6.93-4.44-9.82t-13.08-2.88H300l-7.15,30.86h14.57q11.81,0,18.28-4.81A15.7,15.7,0,0,0,332.14,55.48Z" transform="translate(0.06 -16.39)"/><path class="a" d="M424.67,138.52q-21.81,0-34.22-11.3T378,95.16a89.4,89.4,0,0,1,4.78-29.62,73.11,73.11,0,0,1,13.72-24.07,63.32,63.32,0,0,1,21.82-16.09,69,69,0,0,1,28.91-5.9,70.87,70.87,0,0,1,18.81,2.43,80.83,80.83,0,0,1,18.19,7.68L480.8,46.87h-1.15q-2.55-2.55-5.13-4.75a41,41,0,0,0-7.75-4.82,46.23,46.23,0,0,0-10.09-3.74,52.2,52.2,0,0,0-12.95-1.5,43.6,43.6,0,0,0-19.81,4.51A47.57,47.57,0,0,0,408.27,49.2a58.51,58.51,0,0,0-10.18,19.15,76.64,76.64,0,0,0-3.69,24q0,15.9,8.24,24.74t23.82,8.84a56.69,56.69,0,0,0,13.91-1.66,65,65,0,0,0,12-4.23,76.27,76.27,0,0,0,9-5q4-2.62,6.86-4.88h1.08l-3.63,17.74a120.47,120.47,0,0,1-18.61,7.37A74.77,74.77,0,0,1,424.67,138.52Z" transform="translate(0.06 -16.39)"/><path class="a" d="M524.74,16.39,497,136.44H482.5l27.75-120Z" transform="translate(0.06 -16.39)"/><path class="a" d="M610.41,80.74A69.62,69.62,0,0,1,606.86,103a57.23,57.23,0,0,1-10,18.52,49.77,49.77,0,0,1-15.5,12.77,43.8,43.8,0,0,1-20.53,4.59q-15.34,0-23.95-8.76t-8.6-24.18a69.12,69.12,0,0,1,3.51-22.07A59.18,59.18,0,0,1,541.9,65.15a47.79,47.79,0,0,1,15.7-12.57,44.36,44.36,0,0,1,20.33-4.71q14.9,0,23.69,8.49T610.41,80.74ZM586.8,113.29A47.55,47.55,0,0,0,593.17,99a65.37,65.37,0,0,0,2.2-17.13q0-10.8-5.17-16.35T575.62,60a25.49,25.49,0,0,0-13.43,3.59,33.51,33.51,0,0,0-10.26,9.84,47.21,47.21,0,0,0-6.4,14.27,64.08,64.08,0,0,0-2.24,17q0,10.65,5.17,16.36t14.66,5.71a26,26,0,0,0,13.42-3.55A31.83,31.83,0,0,0,586.8,113.29Z" transform="translate(0.06 -16.39)"/><path class="a" d="M712.81,50.26,693,136.44H678.53l2.19-9.54a100.16,100.16,0,0,1-15.37,8.77,36.92,36.92,0,0,1-15.07,3.16q-11.1,0-17.35-5.59t-6.24-16.32a35.17,35.17,0,0,1,.35-5.09q.35-2.47,1-5.64l12.85-55.93h14.48L644.06,99.33c-.46,2-.9,4.29-1.31,6.86a41.36,41.36,0,0,0-.62,6.1q0,6.63,3.35,9.95t11.43,3.32q5.7,0,13.05-3.32a88.34,88.34,0,0,0,13.58-7.59l14.79-64.39Z" transform="translate(0.06 -16.39)"/><path class="a" d="M819.21,16.39,791.46,136.44H777l2.09-9q-9.79,6.72-15.78,9.07a35.38,35.38,0,0,1-13,2.35q-12.19,0-19.33-7.72t-7.13-22.45a70.91,70.91,0,0,1,3.85-23.49,65.36,65.36,0,0,1,10.5-19.4,49.94,49.94,0,0,1,15.5-13.08,39.45,39.45,0,0,1,19-4.82,51.24,51.24,0,0,1,12.65,1.47,41.25,41.25,0,0,1,10.8,4.39l8.63-37.34Zm-25.9,49.37a47.47,47.47,0,0,0-10.14-4,42.61,42.61,0,0,0-10.61-1.28,26.81,26.81,0,0,0-14.3,3.86A34.81,34.81,0,0,0,747.5,75a47.37,47.37,0,0,0-6.29,14.66A66.86,66.86,0,0,0,739,106.19q0,9.42,4,14.39t13.15,5a30.35,30.35,0,0,0,13.21-3.24,98.65,98.65,0,0,0,12.45-7.08Z" transform="translate(0.06 -16.39)"/></svg>