<svg id="Component_108_2" data-name="Component 108 – 2" xmlns="http://www.w3.org/2000/svg" width="50" height="50" viewBox="0 0 50 50">
  <rect id="Rectangle_990" data-name="Rectangle 990" width="50" height="50" rx="10" fill="#28ace4"/>
  <g id="ACR_Cloud_Logo_1_" data-name="ACR_Cloud_Logo (1)" transform="translate(3.831 22.142)">
    <path id="Path_9688" data-name="Path 9688" d="M6.135,27.48H4.594l-.136-1.208H2.289L1.6,27.48H0l3.547-5.92H5.312ZM4.346,25.213,4.1,23.1,2.893,25.213Z" transform="translate(0.06 -21.294)" fill="#fff"/>
    <path id="Path_9689" data-name="Path 9689" d="M141.377,25.478a2.667,2.667,0,0,1-1.853-.59,2.163,2.163,0,0,1-.652-1.692,4.151,4.151,0,0,1,.288-1.578,3.769,3.769,0,0,1,.793-1.224,3.5,3.5,0,0,1,1.185-.783,3.789,3.789,0,0,1,1.449-.282,4.892,4.892,0,0,1,1.135.125,3.537,3.537,0,0,1,.946.367l-.35,1.435h-.175a2.8,2.8,0,0,0-.751-.6,1.907,1.907,0,0,0-.876-.191,1.8,1.8,0,0,0-1.461.712,2.8,2.8,0,0,0-.577,1.813,1.407,1.407,0,0,0,.318,1.026,1.261,1.261,0,0,0,.93.318,2.442,2.442,0,0,0,1.031-.221,4.373,4.373,0,0,0,.911-.563h.158l-.346,1.416c-.119.048-.258.1-.417.173a4.161,4.161,0,0,1-.457.165,5.1,5.1,0,0,1-.531.127A4.286,4.286,0,0,1,141.377,25.478Z" transform="translate(-131.655 -19.176)" fill="#fff"/>
    <path id="Path_9690" data-name="Path 9690" d="M254.608,23.051a1.73,1.73,0,0,1-.434,1.2,2.664,2.664,0,0,1-1.177.731l1.368,2.5h-1.7l-1.115-2.171h-.859l-.5,2.171H248.66l1.366-5.92h2.31a3.192,3.192,0,0,1,1.678.368A1.231,1.231,0,0,1,254.608,23.051Zm-1.646.258a.558.558,0,0,0-.229-.506,1.241,1.241,0,0,0-.674-.148h-.753l-.368,1.59h.751A1.555,1.555,0,0,0,252.63,24a.809.809,0,0,0,.332-.688Z" transform="translate(-235.785 -21.294)" fill="#fff"/>
    <path id="Path_9691" data-name="Path 9691" d="M380.4,25.608a2.522,2.522,0,0,1-1.763-.582A2.127,2.127,0,0,1,378,23.374a4.606,4.606,0,0,1,.246-1.526,3.766,3.766,0,0,1,.707-1.24,3.263,3.263,0,0,1,1.124-.829,3.556,3.556,0,0,1,1.49-.3,3.652,3.652,0,0,1,.969.125,4.165,4.165,0,0,1,.937.4l-.177.891h-.059q-.131-.131-.264-.245a2.116,2.116,0,0,0-.4-.248,2.385,2.385,0,0,0-.52-.193,2.691,2.691,0,0,0-.667-.077,2.247,2.247,0,0,0-1.021.232,2.453,2.453,0,0,0-.807.651,3.017,3.017,0,0,0-.525.987,3.951,3.951,0,0,0-.19,1.237,1.8,1.8,0,0,0,.425,1.275,1.6,1.6,0,0,0,1.228.456,2.922,2.922,0,0,0,.717-.086,3.351,3.351,0,0,0,.618-.218,3.924,3.924,0,0,0,.464-.258q.206-.135.354-.251h.056l-.187.914a6.208,6.208,0,0,1-.959.38A3.853,3.853,0,0,1,380.4,25.608Z" transform="translate(-358.457 -19.314)" fill="#fff"/>
    <path id="Path_9692" data-name="Path 9692" d="M484.677,16.39l-1.43,6.187H482.5l1.43-6.184Z" transform="translate(-457.575 -16.39)" fill="#fff"/>
    <path id="Path_9693" data-name="Path 9693" d="M532.512,49.562a3.588,3.588,0,0,1-.183,1.147,2.952,2.952,0,0,1-.515.954,2.565,2.565,0,0,1-.8.658,2.257,2.257,0,0,1-1.058.237,1.652,1.652,0,0,1-1.234-.451,1.7,1.7,0,0,1-.443-1.246,3.56,3.56,0,0,1,.181-1.137,3.05,3.05,0,0,1,.521-.965,2.46,2.46,0,0,1,.809-.648,2.286,2.286,0,0,1,1.048-.243,1.683,1.683,0,0,1,1.221.438A1.667,1.667,0,0,1,532.512,49.562Zm-1.217,1.677a2.451,2.451,0,0,0,.328-.736,3.372,3.372,0,0,0,.113-.883,1.194,1.194,0,0,0-.266-.843.971.971,0,0,0-.751-.284,1.313,1.313,0,0,0-.692.185,1.728,1.728,0,0,0-.529.507,2.435,2.435,0,0,0-.33.735,3.307,3.307,0,0,0-.115.876,1.214,1.214,0,0,0,.266.843.967.967,0,0,0,.755.294,1.339,1.339,0,0,0,.692-.183A1.638,1.638,0,0,0,531.295,51.239Z" transform="translate(-500.995 -46.246)" fill="#fff"/>
    <path id="Path_9694" data-name="Path 9694" d="M631.128,50.26,630.107,54.7h-.746l.113-.492a5.164,5.164,0,0,1-.792.452,1.9,1.9,0,0,1-.777.163,1.294,1.294,0,0,1-.894-.288,1.068,1.068,0,0,1-.322-.841,1.831,1.831,0,0,1,.018-.262q.018-.127.052-.291l.662-2.882h.746l-.583,2.529q-.036.155-.068.354a2.139,2.139,0,0,0-.032.314.693.693,0,0,0,.173.513.821.821,0,0,0,.589.171,1.667,1.667,0,0,0,.672-.171,4.55,4.55,0,0,0,.7-.391l.762-3.318Z" transform="translate(-594.334 -48.515)" fill="#fff"/>
    <path id="Path_9695" data-name="Path 9695" d="M728.763,16.39l-1.43,6.187h-.745l.108-.464a4.409,4.409,0,0,1-.813.467,1.823,1.823,0,0,1-.67.121,1.291,1.291,0,0,1-1-.4,1.645,1.645,0,0,1-.368-1.157,3.659,3.659,0,0,1,.2-1.211,3.37,3.37,0,0,1,.541-1,2.575,2.575,0,0,1,.8-.674,2.034,2.034,0,0,1,.979-.248,2.64,2.64,0,0,1,.652.076,2.124,2.124,0,0,1,.557.226l.445-1.924Zm-1.335,2.544a2.442,2.442,0,0,0-.523-.206,2.2,2.2,0,0,0-.547-.066,1.382,1.382,0,0,0-.737.2,1.8,1.8,0,0,0-.555.549,2.446,2.446,0,0,0-.324.755,3.448,3.448,0,0,0-.114.852,1.159,1.159,0,0,0,.206.742.824.824,0,0,0,.678.258,1.565,1.565,0,0,0,.681-.167,5.1,5.1,0,0,0,.642-.365Z" transform="translate(-686.485 -16.39)" fill="#fff"/>
  </g>
</svg>
