<svg id="Component_123_2" data-name="Component 123 – 2" xmlns="http://www.w3.org/2000/svg" xmlns:xlink="http://www.w3.org/1999/xlink" width="50" height="50" viewBox="0 0 50 50">
  <defs>
    <clipPath id="clip-path">
      <rect id="Rectangle_1039" data-name="Rectangle 1039" width="36.913" height="11.48" fill="none"/>
    </clipPath>
  </defs>
  <rect id="Rectangle_1038" data-name="Rectangle 1038" width="50" height="50" rx="10" fill="#feb800"/>
  <g id="Group_4466" data-name="Group 4466" transform="translate(6.543 19.26)">
    <g id="Group_4465" data-name="Group 4465" clip-path="url(#clip-path)">
      <path id="Path_9752" data-name="Path 9752" d="M22.234,11.48c-.011-.009-.021-.023-.034-.027a.748.748,0,0,1-.484-.691c0-.242,0-.483,0-.725q0-.958,0-1.915a.077.077,0,0,0-.06-.088c-.267-.09-.534-.182-.8-.274a.193.193,0,0,0-.03,0c0,.024,0,.044,0,.064,0,.176.007.354-.011.528a.86.86,0,0,1-.47.683,4.447,4.447,0,0,1-1.084.41,5.948,5.948,0,0,1-1.713.182,4,4,0,0,1-1.5-.335,2.492,2.492,0,0,1-1.119-.952.079.079,0,0,0-.114-.039q-.3.108-.606.2a2.541,2.541,0,0,0-.573.259,6.333,6.333,0,0,1-1.61.7,4.307,4.307,0,0,1-1.171.169A4.182,4.182,0,0,1,9.13,9.262c-.153-.07-.3-.155-.448-.234l-.9-.473L6.727,8c-.165-.086-.33-.171-.5-.259,0,.021,0,.04,0,.06,0,.172,0,.345-.009.517a.864.864,0,0,1-.511.738,5.175,5.175,0,0,1-1.483.481,5.476,5.476,0,0,1-1.389.08A4.173,4.173,0,0,1,1.8,9.43,2.684,2.684,0,0,1,.366,8.4,2.093,2.093,0,0,1,0,7.344,2.053,2.053,0,0,1,.9,5.48,2.7,2.7,0,0,1,2.1,5a4.061,4.061,0,0,1,1.3.014,3.5,3.5,0,0,1,1.146.417c.04.022.082.041.123.062l.013,0c0-.018,0-.037,0-.057,0-.276,0-.552-.013-.828a.8.8,0,0,0-.537-.754,2.338,2.338,0,0,0-.823-.15,4.718,4.718,0,0,0-1.552.208.6.6,0,0,1-.7-.3.632.632,0,0,1,0-.68.6.6,0,0,1,.316-.238,5.14,5.14,0,0,1,1.171-.263c.294-.029.59-.052.885-.054a4.229,4.229,0,0,1,1.229.167A1.945,1.945,0,0,1,6.071,3.917a3.27,3.27,0,0,1,.14.894q.007.713.01,1.426a.086.086,0,0,0,.073.1c.274.08.547.166.82.249,0,0,.007,0,.014,0-.007-.1-.017-.193-.022-.29A4.027,4.027,0,0,1,7.53,4.213a3.267,3.267,0,0,1,2.1-1.694,3.779,3.779,0,0,1,1.1-.146,2.873,2.873,0,0,1,1.313.323c.077.041.15.09.232.139,0-.04,0-.072,0-.1,0-.671,0-1.342,0-2.013A.726.726,0,0,1,13.009,0a.9.9,0,0,1,.444.071.739.739,0,0,1,.427.69c0,.888,0,1.775,0,2.663V7.179l.233-.039c.142-.023.284-.046.427-.067.045-.007.065-.02.07-.074A1.993,1.993,0,0,1,15,5.976a2.446,2.446,0,0,1,1.429-.915A3.813,3.813,0,0,1,17.884,5a3.149,3.149,0,0,1,1.3.47c.029.018.06.033.1.054,0-.045,0-.08,0-.115,0-.238,0-.475,0-.713a1,1,0,0,0-.092-.441.826.826,0,0,0-.428-.392,2.111,2.111,0,0,0-.69-.146,4.5,4.5,0,0,0-1.679.19.607.607,0,0,1-.756-.353.664.664,0,0,1-.054-.474.583.583,0,0,1,.4-.394,6.341,6.341,0,0,1,2.081-.313,4.36,4.36,0,0,1,1.194.167,2.1,2.1,0,0,1,.969.573,2.037,2.037,0,0,1,.447.814,3.971,3.971,0,0,1,.148,1.09c.007.447,0,.893,0,1.34,0,.039.008.065.049.078l.807.271a.143.143,0,0,0,.033,0V6.6c0-.953,0-1.906,0-2.859a.885.885,0,0,1,.574-.876,5.814,5.814,0,0,1,1.041-.331,8.154,8.154,0,0,1,1.722-.172c1.521.008,3.041,0,4.562,0,.118,0,.117,0,.117-.114,0-.495,0-.989,0-1.484a.735.735,0,0,1,.745-.751.838.838,0,0,1,.561.172.739.739,0,0,1,.3.608c0,.514,0,1.028,0,1.541,0,.049.015.06.062.06.384,0,.769,0,1.154,0a.614.614,0,0,1,.625.616.7.7,0,0,1-.081.376.57.57,0,0,1-.5.3c-.394.007-.788,0-1.182,0h-.078c0,.062,0,.117,0,.172q0,2.171,0,4.343c0,.057.021.065.07.065.484,0,.969,0,1.453,0,.1,0,.1,0,.1-.1q0-.984,0-1.967a3.86,3.86,0,0,1,.278-1.446A3.909,3.909,0,0,1,35.3,2.624a3.377,3.377,0,0,1,.984-.292.579.579,0,0,1,.63.568c-.01.128,0,.257,0,.385a.6.6,0,0,1-.108.334.829.829,0,0,1-.486.325,2.369,2.369,0,0,0-1.706,1.778,2.289,2.289,0,0,0-.056.576c0,.8,0,1.591,0,2.387a.871.871,0,0,1-.434.771.969.969,0,0,1-.534.136H31.741c-.363,0-.727,0-1.09,0a.883.883,0,0,1-.917-.9q0-1.887,0-3.773c0-.378,0-.755,0-1.133,0-.049-.015-.062-.061-.061h-1.9c.026.039.049.077.075.113A3.349,3.349,0,0,1,28.372,5a4.266,4.266,0,0,1,.072,1.57,3.918,3.918,0,0,1-.455,1.389,3.173,3.173,0,0,1-2.954,1.661,3,3,0,0,1-1.326-.408c-.132-.074-.256-.16-.389-.244,0,.018,0,.039,0,.06,0,.581,0,1.162,0,1.743a.711.711,0,0,1-.406.659l-.087.048h-.588M12.278,6.124h0c0-.542-.009-1.085.005-1.627a.381.381,0,0,0-.189-.359l-.014-.01a2.263,2.263,0,0,0-1.614-.4,1.715,1.715,0,0,0-1.331.888,2.714,2.714,0,0,0-.349,1.278,2.556,2.556,0,0,0,.171,1.115,2.012,2.012,0,0,0,1.378,1.22,2.532,2.532,0,0,0,.887.056,2.265,2.265,0,0,0,1-.309.1.1,0,0,0,.054-.1q0-.877,0-1.754m11.04-.272h0q0,.385,0,.771c0,.332,0,.663,0,1a.082.082,0,0,0,.028.061q.244.147.491.288a2.464,2.464,0,0,0,1.142.318A1.576,1.576,0,0,0,26.2,7.758a1.914,1.914,0,0,0,.432-.72A3.126,3.126,0,0,0,26.8,5.926a2.5,2.5,0,0,0-.231-1.041,1.931,1.931,0,0,0-1.246-1.073,2.75,2.75,0,0,0-1.177-.057A2.144,2.144,0,0,0,23.381,4a.109.109,0,0,0-.064.109q0,.871,0,1.743M4.688,7.383h0c0-.153-.011-.308,0-.46a.241.241,0,0,0-.128-.244,2.637,2.637,0,0,0-1.445-.473,1.749,1.749,0,0,0-.788.131,1.034,1.034,0,0,0-.624.671.883.883,0,0,0,.107.759,1.169,1.169,0,0,0,.63.468,2.52,2.52,0,0,0,.967.106,2.76,2.76,0,0,0,1.212-.323.108.108,0,0,0,.067-.107c0-.176,0-.353,0-.529m14.593.011h0c0-.171-.006-.341,0-.512a.171.171,0,0,0-.078-.17c-.018-.012-.033-.026-.051-.038a2.5,2.5,0,0,0-1.013-.417,2.323,2.323,0,0,0-.915-.011,1.175,1.175,0,0,0-.837.57.881.881,0,0,0,0,.913,1.2,1.2,0,0,0,.8.55,2.646,2.646,0,0,0,.852.061,2.848,2.848,0,0,0,1.179-.319.086.086,0,0,0,.054-.088c0-.18,0-.36,0-.54" transform="translate(0 0)" fill="#161615"/>
    </g>
  </g>
</svg>
