<svg id="Component_117_16" data-name="Component 117 – 16" xmlns="http://www.w3.org/2000/svg" xmlns:xlink="http://www.w3.org/1999/xlink" width="50" height="50" viewBox="0 0 50 50">
  <defs>
    <linearGradient id="linear-gradient" x1="1" y1="0.147" x2="0.5" y2="1" gradientUnits="objectBoundingBox">
      <stop offset="0" stop-color="#fff"/>
      <stop offset="1" stop-color="#fafafa"/>
    </linearGradient>
    <clipPath id="clip-path">
      <rect id="Rectangle_1007" data-name="Rectangle 1007" width="40" height="18.491"/>
    </clipPath>
  </defs>
  <g id="Rectangle_1006" data-name="Rectangle 1006" stroke="#dedede" stroke-width="0.7" fill="url(#linear-gradient)">
    <rect width="50" height="50" rx="10" stroke="none"/>
    <rect x="0.35" y="0.35" width="49.3" height="49.3" rx="9.65" fill="none"/>
  </g>
  <g id="Group_4431" data-name="Group 4431" transform="translate(4.747 16.024)">
    <g id="Group_4430" data-name="Group 4430" clip-path="url(#clip-path)">
      <path id="Path_9630" data-name="Path 9630" d="M11.774,11.543c-.018.125-.045.25-.053.376-.01.153-.008.308,0,.461,0,.032.036.064.055.1l.033.051.059-.05.2-.2.047-.055.042-.042.01-.012.245-.369.014-.016.059-.126.068-.111L13.7,9.577c.18-.309.362-.618.541-.928.1-.174.19-.353.294-.524.122-.2.258-.39.382-.588.2-.312.385-.629.584-.939.174-.27.356-.534.54-.8.216-.31.433-.619.659-.922.134-.179.286-.346.435-.514a4.345,4.345,0,0,1,.311-.329,3.435,3.435,0,0,1,.438-.365,1.519,1.519,0,0,1,.534-.262.626.626,0,0,1,.664.265,2.543,2.543,0,0,1,.214.43,3.412,3.412,0,0,1,.164.849,5.351,5.351,0,0,1,.035,1.1c-.01.125-.031.25-.034.375a5.3,5.3,0,0,1-.074.664c-.021.144-.035.288-.056.432q-.043.3-.093.593c-.041.244-.083.488-.126.731s-.089.479-.126.72-.06.468-.094.7-.073.44-.105.66c-.023.156-.043.313-.056.471-.017.206-.032.414-.036.621a1.781,1.781,0,0,0,.036.331c.019.111.093.145.187.08a.99.99,0,0,0,.237-.211c.235-.319.467-.64.686-.97.261-.395.506-.8.76-1.2.215-.338.433-.673.649-1.01l.018-.018c.109-.171.215-.344.329-.511.175-.257.35-.514.534-.765.166-.226.343-.444.515-.667.038-.049.071-.1.106-.153l.034-.033.114-.13.029-.041.5-.507h.014l.02-.013.216-.169.021-.014.143-.1.021-.013c.174-.081.344-.172.523-.239a2.426,2.426,0,0,1,.372-.079l.292.018.073,0,.128.021.018.026.018-.026h.036l.036.033h.019l.1.065.077.028.021.013.162.078.012.014.389.4.067.051.189.281a.017.017,0,0,0,.006.011.014.014,0,0,1,.009.014l.028.041.194.291.01.017.136.226a.014.014,0,0,0,.012.011l.006.019.023.055.233.42.061.129.141.28a.01.01,0,0,0,.007.008l.04.1.039.1.041.1.033.053.058.152v.009c.047.107.1.213.14.321.014.034.013.075.029.108a.512.512,0,0,0,.069.087.089.089,0,0,0,0,.012l.054.144h0a.1.1,0,0,0,0,.026l.146.352a.01.01,0,0,0,0,.008l.214.517a.016.016,0,0,0,.011.013c.034.1.064.209.1.31.067.167.14.331.211.5.011.026.026.052.04.077a.012.012,0,0,0,.007.009c.055.13.11.26.166.39.032.074.067.147.1.221l.049.084c.058.127.113.255.175.38.042.085.094.166.142.249a.014.014,0,0,0,.011.009l.243.388a.085.085,0,0,1,0,.011,4.13,4.13,0,0,0,.713.791,4.23,4.23,0,0,0,.42.254l.014.014.333.124.291.061c.174.006.349.019.523.016a2.011,2.011,0,0,0,.391-.04c.213-.046.425-.1.632-.167.167-.053.328-.127.49-.193a.85.85,0,0,0,.1-.057l.074-.032.271-.132.02-.011.02-.007.017-.013.071-.042.02-.012.2-.117.02-.012.126-.078.02-.011.071-.043.021-.013.071-.042.02-.012L34.466,13l.021-.013.034-.024.021-.013.035-.024.019-.012.035-.025.02-.013.053-.042.02-.013c.1-.082.191-.164.287-.244s.195-.151.288-.231c.116-.1.227-.207.341-.311l.017-.016c.039-.03.079-.058.116-.09.139-.122.276-.246.414-.369l.036-.034.146-.112.055-.039c.031-.033.061-.068.094-.1.109-.1.219-.2.329-.3l.016-.016c.046-.038.093-.074.137-.113q.253-.226.5-.454h.016l.036-.028c.046-.044.09-.088.137-.131l.468-.423h0c.058-.043.119-.083.174-.131.115-.1.221-.207.339-.3a1.887,1.887,0,0,1,.721-.482,1.489,1.489,0,0,1,.294-.01L39.872,9l.1.158.032.1v.214l-.013.092-.131.219-.018.015c-.377.378-.751.758-1.131,1.133-.263.26-.533.514-.8.77q-.144.138-.293.272a.29.29,0,0,1-.061.033l-.028.033-.274.271-.172.17-.035.035c-.076.061-.153.12-.226.184-.052.045-.1.1-.146.146a.013.013,0,0,0-.01.01l-.411.353c-.041.035-.08.072-.12.108l-.038.052c-.069.051-.14.1-.208.152l-.849.647c-.014.01-.032.028-.044.025-.082-.017-.1.043-.121.1v.007c-.171.1-.339.215-.515.31-.269.144-.541.281-.817.41a5.943,5.943,0,0,1-.594.235c-.176.06-.357.1-.538.146-.157.038-.316.071-.475.1-.084.016-.171.021-.256.031l-.146.018c-.156-.007-.313,0-.467-.025a.7.7,0,0,1-.377-.088l-.014-.014a1.366,1.366,0,0,1-.237-.025c-.124-.035-.244-.085-.365-.129l-.037-.014c-.125-.073-.252-.143-.374-.221a3.49,3.49,0,0,1-.627-.49,4.667,4.667,0,0,1-.349-.343,8.7,8.7,0,0,1-.519-.724c-.242-.382-.469-.774-.7-1.164-.052-.088-.088-.186-.132-.28l-.025-.043-.031-.076-.038-.105c-.032-.059-.065-.117-.1-.176s-.058-.126-.087-.189l-.015-.017c-.2-.486-.41-.969-.607-1.457a14.867,14.867,0,0,0-.806-1.839C25.505,7.9,25.35,7.7,25.21,7.5l-.216-.221-.182-.112-.147-.048a.851.851,0,0,0-.493.07l-.132.091-.016.012-.294.278c-.065.083-.137.162-.194.251q-.743,1.148-1.481,2.3c-.271.422-.539.847-.808,1.271-.013.02-.024.041-.036.062l-.02.034h0a.156.156,0,0,0-.026.025c-.332.5-.658,1.012-1,1.512-.187.275-.4.535-.6.8l-.136.161-.651.638-.1.073-.031.008-.021.013-.326.167a.675.675,0,0,1-.414.031c-.033-.01-.064-.024-.1-.037l-.018-.018-.074-.035a1.274,1.274,0,0,1-.329-.438l-.017-.056-.032-.054-.022-.038a.05.05,0,0,0,0-.016l-.11-.492-.01-.074-.025-.034-.014-.055.016-.037-.015-.055-.024-.328c0-.012,0-.024,0-.037l.006-.018a.131.131,0,0,0-.018-.2l0-.237q0-.027,0-.055v-.346c.006-.14.013-.279.018-.419,0-.012-.01-.025-.015-.037l.019-.09.016-.036c.012-.118.02-.236.036-.353.024-.176.054-.351.082-.526l.083-.525.015-.055c.026-.14.053-.279.077-.419.044-.254.087-.509.128-.764.027-.17.049-.341.073-.512l.014-.037c.007-.062.012-.124.022-.185q.069-.444.139-.888l.025-.294.032-.2,0-.055V6.821l.036-.31c0-.024,0-.049,0-.073q0-.064,0-.128l.015-.073q0-.046,0-.091V5.833l-.012-.015-.019-.128L17.875,5.6l-.011-.037-.022-.037-.134-.066-.037.013-.164.111-.192.215c-.274.4-.571.779-.819,1.191-.57.944-1.12,1.9-1.67,2.856-.36.625-.707,1.258-1.059,1.888-.189.338-.373.679-.563,1.016-.16.285-.326.567-.489.851l-.011.019-.456.712-.058.092c-.082.11-.162.221-.245.33-.061.08-.126.158-.189.236l-.078.091-.014.015-.094.112-.128.12-.091.08-.089.055-.256.153-.018.012a.783.783,0,0,1-.395.076.151.151,0,0,1-.141-.058l-.012-.014a.228.228,0,0,1-.2-.124c-.067-.1-.125-.2-.187-.3,0-.007,0-.013,0-.02L9.968,15.1l.018-.053v-.057l-.006-.035-.034-.273-.015-.018q0-.046,0-.091l-.015-.055-.006-.055v-.073c0-.018,0-.036,0-.055s0-.024,0-.036v-.547l0-.11L9.9,13.6l.017-.346.049-.023-.03-.032.073-.6.031-.031-.03-.024.017-.073.014-.037c.007-.045.014-.089.02-.134a1.2,1.2,0,0,1,.041-.277.588.588,0,0,0,.047-.245l.055-.273.025-.182.018-.035q.07-.327.141-.654c.037-.168.073-.337.112-.5.044-.192.092-.384.138-.576l.008-.019c.062-.249.124-.5.184-.746.044-.182.085-.364.128-.546L11,8.079l.093-.4a.159.159,0,0,0,0-.017.207.207,0,0,0,.031-.05c.04-.147.073-.3.117-.44.027-.089.011-.191.083-.265l.021-.076c.012-.049.023-.1.036-.146.1-.363.194-.726.29-1.089.028-.107.052-.214.078-.322a.142.142,0,0,0,0-.017l.021-.058L11.8,5.18l-.026-.018,0-.036.037-.037.172-.638.011-.019-.014-.053.043-.016-.029-.021.077-.255.026-.018-.026-.018c0-.013-.013-.028-.009-.037a.743.743,0,0,0,.061-.124c.064-.285.13-.569.18-.856a3.683,3.683,0,0,0,.054-.561.287.287,0,0,0-.14-.3.3.3,0,0,0-.3.053l-.064.041a4.8,4.8,0,0,0-.461.472q-.646.863-1.263,1.747c-.481.692-.951,1.391-1.417,2.093-.659.992-1.31,1.989-1.964,2.984a.112.112,0,0,0-.009.025c-.106.159-.213.318-.317.478q-.435.666-.868,1.333-.654,1.01-1.3,2.021c-.183.284-.364.57-.545.855l-.032.051c-.1.159-.211.317-.315.477-.152.236-.3.473-.452.709l-.036.055c-.106.159-.212.317-.316.477q-.309.474-.615.949c-.237.352-.471.706-.713,1.055-.088.127-.193.243-.29.364l-.164.075-.054,0H.692l-.038,0H.563l-.128-.022a.8.8,0,0,1-.388-.287l-.013-.043L0,18.086q0-.164,0-.329l.011-.019,0-.035.026-.033a1.27,1.27,0,0,1,.082-.193c.155-.245.314-.488.473-.731l.408-.627a.4.4,0,0,0,.02-.039l.029-.034L1.83,14.86l.048-.077.438-.679.479-.739.051-.072c.208-.323.415-.647.625-.968.132-.2.269-.4.4-.6l.05-.077.413-.636c.123-.189.245-.38.369-.568.136-.206.274-.41.411-.615l.064-.092.08-.127.031-.05c.134-.21.266-.421.4-.629.161-.245.326-.487.489-.731q.379-.566.757-1.133c.106-.159.206-.322.309-.483l.031-.036.1-.146.05-.076.095-.161.05-.07.241-.368.031-.037.116-.182.051-.063.1-.155.05-.062.1-.157.05-.062.5-.732Q9.2,3.7,9.586,3.121c.078-.116.143-.242.224-.355.149-.207.3-.41.46-.613.136-.176.276-.349.414-.523a.183.183,0,0,0,.018-.04l.086-.072.134-.148.012-.017c.095-.1.19-.191.284-.289s.156-.174.238-.256S11.6.672,11.68.6L11.7.591l.163-.133.02-.012A1.782,1.782,0,0,1,13.16.006a.568.568,0,0,1,.255.076.941.941,0,0,1,.35.321,1.324,1.324,0,0,1,.111.217c.026.086.052.172.069.259s.021.184.039.274a.812.812,0,0,1-.02.359,1.2,1.2,0,0,0,0,.3l-.017.036c-.027.164-.052.329-.082.493,0,.025-.031.046-.038.057a1.413,1.413,0,0,1-.011.187c-.032.165-.069.329-.106.494-.049.216-.1.431-.148.647-.073.323-.144.646-.22.968-.089.377-.182.752-.273,1.128-.031.126-.061.252-.092.378a.14.14,0,0,1-.023.037c-.016.025-.043.049-.047.076-.012.091-.016.184-.023.276v.038c-.032.121-.064.243-.095.364-.036.139-.071.279-.106.418L12.67,7.5c-.049.191-.1.382-.148.574-.027.109-.051.219-.077.328q-.162.679-.324,1.358c-.008.032-.01.065-.015.1l-.027.138-.072.385-.015.018c-.049.231-.1.462-.145.694-.028.144-.049.29-.073.435v.021" transform="translate(0 0)"/>
      <path id="Path_9631" data-name="Path 9631" d="M110.476,117.175a.688.688,0,0,1-.311.54c-.137.105-.294.187-.441.278l-.036,0c-.075.011-.15.026-.226.033a.415.415,0,0,1-.435-.284c-.02-.044-.036-.09-.054-.134l-.02-.128a.85.85,0,0,1,.1-.4.832.832,0,0,0,.032-.091l.151-.2a.694.694,0,0,1,.3-.237.594.594,0,0,1,.317-.009.992.992,0,0,1,.572.447l.009.034.036.146" transform="translate(-100.982 -108.002)"/>
    </g>
  </g>
</svg>
