<svg id="Component_106_2" data-name="Component 106 – 2" xmlns="http://www.w3.org/2000/svg" width="50" height="50" viewBox="0 0 50 50">
  <rect id="Rectangle_989" data-name="Rectangle 989" width="50" height="50" rx="10" fill="#25d1da"/>
  <g id="g923" transform="translate(6.466 -4)">
    <path id="path844" d="M54.4,31.1a1.878,1.878,0,0,1-1.033.278,6.409,6.409,0,0,1-1.946-.278,2.015,2.015,0,0,0-.357-.079c-.119,0-.159.079-.159.238v.4a.574.574,0,0,0,.079.278.611.611,0,0,0,.238.159,5.3,5.3,0,0,0,2.145.4,3.112,3.112,0,0,0,1.986-.6A1.87,1.87,0,0,0,56.1,30.3a1.812,1.812,0,0,0-.357-1.152,2.8,2.8,0,0,0-1.192-.755l-1.112-.437a2.106,2.106,0,0,1-.874-.477.749.749,0,0,1-.238-.6c0-.6.437-.914,1.35-.914a4.8,4.8,0,0,1,1.509.238c.159.04.278.079.318.079.119,0,.2-.079.2-.238v-.4a.574.574,0,0,0-.079-.278.365.365,0,0,0-.238-.159A5.654,5.654,0,0,0,53.6,24.9a3.065,3.065,0,0,0-1.867.556,1.771,1.771,0,0,0-.715,1.47,2.074,2.074,0,0,0,1.549,1.986l1.192.437a2.337,2.337,0,0,1,.794.437.692.692,0,0,1,.2.556A.872.872,0,0,1,54.4,31.1Z" transform="translate(-29.934 -4.159)" fill="#14191a"/>
    <path id="path855" d="M36.947,25.678v5.283a3.736,3.736,0,0,1-2.026.675,1.173,1.173,0,0,1-.953-.357,1.7,1.7,0,0,1-.278-1.112V25.678c0-.2-.079-.278-.278-.278h-.834c-.2,0-.278.079-.278.278V30.6a2.191,2.191,0,0,0,.516,1.589,2.105,2.105,0,0,0,1.549.556,4.571,4.571,0,0,0,2.7-.953l.079.477a.183.183,0,0,0,.119.2c.04.04.119.04.238.04h.6c.2,0,.278-.079.278-.278V25.678c0-.2-.079-.278-.278-.278h-.834C37.026,25.4,36.947,25.519,36.947,25.678Z" transform="translate(-18.871 -4.461)" fill="#14191a"/>
    <path id="path866" d="M10.713,32.248h.834c.2,0,.278-.079.278-.278V27.005a2.09,2.09,0,0,0-.516-1.549A2.009,2.009,0,0,0,9.8,24.9a4.674,4.674,0,0,0-2.78.993A1.777,1.777,0,0,0,5.232,24.9a4.659,4.659,0,0,0-2.621.914l-.079-.437a.183.183,0,0,0-.119-.2.3.3,0,0,0-.2-.04H1.578c-.2,0-.278.079-.278.278V32.01c0,.2.079.278.278.278h.834c.2,0,.278-.079.278-.278V26.648a4.048,4.048,0,0,1,2.065-.635.928.928,0,0,1,.834.357A1.781,1.781,0,0,1,5.868,27.4V31.97c0,.2.079.278.278.278H6.98c.2,0,.278-.079.278-.278V26.648a3.9,3.9,0,0,1,2.065-.635.928.928,0,0,1,.834.357,1.781,1.781,0,0,1,.278,1.033V31.97c0,.2.079.278.278.278Z" transform="translate(-0.462 -4.159)" fill="#14191a"/>
    <path id="path877" d="M32.525,53.686a36.36,36.36,0,0,1-13.612,2.741A36.327,36.327,0,0,1,1.088,51.779.584.584,0,0,0,.844,51.7c-.284,0-.446.318-.162.6a26.706,26.706,0,0,0,17.825,6.673A26.066,26.066,0,0,0,33.092,54.6C33.781,54.123,33.214,53.408,32.525,53.686Z" transform="translate(0 -19.939)" fill="#14191a"/>
    <path id="path888" d="M76.186,26.748a2.173,2.173,0,0,1,1.708-.6,3.672,3.672,0,0,1,1.152.159.59.59,0,0,0,.238.04c.119,0,.2-.079.2-.278v-.4A.463.463,0,0,0,79.4,25.4a.867.867,0,0,0-.2-.159A7,7,0,0,0,77.7,25a3.324,3.324,0,0,0-2.582.993,3.971,3.971,0,0,0-.914,2.78,3.854,3.854,0,0,0,.874,2.741,3.3,3.3,0,0,0,2.542.953,3.918,3.918,0,0,0,1.589-.278.365.365,0,0,0,.238-.159c.04-.04.04-.159.04-.278v-.4c0-.2-.079-.278-.2-.278a.432.432,0,0,0-.2.04,4.959,4.959,0,0,1-1.271.2,2.136,2.136,0,0,1-1.668-.6,2.758,2.758,0,0,1-.516-1.867v-.2A3.025,3.025,0,0,1,76.186,26.748Z" transform="translate(-43.763 -4.22)" fill="#14191a"/>
    <path id="path899" d="M77.139,56.395c2.065-1.748,2.621-5.362,2.185-5.918A4.141,4.141,0,0,0,76.981,50a7.089,7.089,0,0,0-3.932,1.072c-.357.238-.278.556.079.516,1.231-.159,4.012-.477,4.528.159.477.635-.556,3.257-1.033,4.409C76.5,56.514,76.782,56.633,77.139,56.395Z" transform="translate(-42.929 -18.914)" fill="#14191a"/>
    <path id="path910" d="M68.112,25.4h-.834c-.2,0-.278.079-.278.278v6.593c0,.2.079.278.278.278h.834c.2,0,.278-.079.278-.278V25.678A.251.251,0,0,0,68.112,25.4Z" transform="translate(-39.566 -4.461)" fill="#14191a"/>
    <path id="path921" d="M68.049,18.238A.934.934,0,0,0,67.374,18a.839.839,0,0,0-.635.238.808.808,0,0,0-.238.6.749.749,0,0,0,.238.6.966.966,0,0,0,1.271,0,.808.808,0,0,0,.238-.6A.73.73,0,0,0,68.049,18.238Z" transform="translate(-39.263)" fill="#14191a"/>
  </g>
</svg>
