<svg id="Component_129_1" data-name="Component 129 – 1" xmlns="http://www.w3.org/2000/svg" xmlns:xlink="http://www.w3.org/1999/xlink" width="50" height="50" viewBox="0 0 50 50">
  <defs>
    <clipPath id="clip-path">
      <rect id="Rectangle_1046" data-name="Rectangle 1046" width="39.965" height="15.964" fill="none"/>
    </clipPath>
  </defs>
  <rect id="Rectangle_1045" data-name="Rectangle 1045" width="50" height="50" rx="10" fill="#1f1f1f"/>
  <g id="Group_4473" data-name="Group 4473" transform="translate(5 16.636)">
    <g id="Group_4472" data-name="Group 4472" clip-path="url(#clip-path)">
      <path id="Path_9764" data-name="Path 9764" d="M753.887,236.774h-3.245c.006-.058.007-.105.017-.151q.383-1.8.768-3.6c.252-1.189.508-2.378.749-3.569a4.9,4.9,0,0,0,.087-.878,1.5,1.5,0,0,0-.1-.509.787.787,0,0,0-.523-.49,2.381,2.381,0,0,0-.649-.139c-.674-.02-1.35-.011-2.025-.012a.336.336,0,0,0-.06.017l-1.986,9.331h-3.264c.66-3.113,1.326-6.217,1.988-9.338h-3.538l-1.987,9.342h-3.262c.275-1.329.56-2.643.839-3.958s.559-2.638.839-3.956.562-2.635.846-3.962c.06,0,.112-.011.165-.011q6.3,0,12.6.006a6.1,6.1,0,0,1,1.608.2,2.371,2.371,0,0,1,1.809,2.01,5.144,5.144,0,0,1-.055,2.028q-.767,3.648-1.543,7.295c-.024.111-.051.222-.079.342" transform="translate(-723.531 -220.822)" fill="#fff"/>
      <path id="Path_9765" data-name="Path 9765" d="M2.5,227.044h.192q2.92,0,5.841,0,.75,0,1.5.04a4.959,4.959,0,0,1,1.329.242,2.453,2.453,0,0,1,1.721,1.919,4.906,4.906,0,0,1,.055,1.671c-.109.88-.326,1.739-.507,2.6-.327,1.561-.662,3.12-.994,4.68-.049.229-.1.457-.152.7h-.191q-3.951,0-7.9,0a7.3,7.3,0,0,1-1.616-.152,2.127,2.127,0,0,1-1.713-1.829,3.783,3.783,0,0,1,.18-1.974,4.856,4.856,0,0,1,1.568-2.253,3.733,3.733,0,0,1,1.693-.723,10.711,10.711,0,0,1,2.033-.153q2.061,0,4.123,0H9.8c.141,0,.141,0,.177-.143a3.023,3.023,0,0,0,.1-1.144,1.146,1.146,0,0,0-.722-.962,2.777,2.777,0,0,0-.933-.195c-.252-.016-.506-.019-.759-.02q-2.712,0-5.425,0H2.01l.489-2.3m6.436,9.544.525-2.482h-.2q-2.159,0-4.318,0a2.742,2.742,0,0,0-.413.033,1.542,1.542,0,0,0-1.307,1.293A.856.856,0,0,0,3.9,236.5a2.617,2.617,0,0,0,.624.085c1.421.009,2.843.007,4.264.007.041,0,.083-.006.142-.01" transform="translate(0 -222.938)" fill="#fff"/>
      <path id="Path_9766" data-name="Path 9766" d="M1778.062,223.029h3.062l-2.53,11.916h-3.067l2.535-11.916" transform="translate(-1743.418 -218.996)" fill="#fff"/>
      <path id="Path_9767" data-name="Path 9767" d="M1934.988,0h3.065l-.63,2.952h-3.059c.2-.988.416-1.963.624-2.952" transform="translate(-1899.383)" fill="#fff"/>
      <path id="Path_9768" data-name="Path 9768" d="M2108.663,799.386c-.016-.225-.033-.434-.044-.644a4.2,4.2,0,0,0-.061-.623l-.4,1.247h-.318l-.378-1.249a1.345,1.345,0,0,0-.043.4c-.008.138-.02.276-.029.414s-.016.287-.025.451l-.278.013c.032-.517.063-1.018.114-1.535.129,0,.249,0,.368,0,.081,0,.1.055.116.114l.294.89c.01.028.017.057.037.123l.384-1.12h.427c.052.5.09,1,.119,1.515Z" transform="translate(-2068.982 -783.435)" fill="#fff"/>
      <path id="Path_9769" data-name="Path 9769" d="M2017.975,798.445h1.253v.229h-.471v1.281h-.3v-1.278h-.479Z" transform="translate(-1981.482 -784.006)" fill="#fff"/>
    </g>
  </g>
</svg>
