<svg id="Component_104_4" data-name="Component 104 – 4" xmlns="http://www.w3.org/2000/svg" xmlns:xlink="http://www.w3.org/1999/xlink" width="50" height="50" viewBox="0 0 50 50">
  <defs>
    <clipPath id="clip-path">
      <rect id="Rectangle_1022" data-name="Rectangle 1022" width="32" height="32.024" fill="none"/>
    </clipPath>
  </defs>
  <rect id="Rectangle_1021" data-name="Rectangle 1021" width="50" height="50" rx="10" fill="#121212"/>
  <g id="Group_4448" data-name="Group 4448" transform="translate(9.018 9.004)">
    <g id="Group_4447" data-name="Group 4447" clip-path="url(#clip-path)">
      <path id="Path_9681" data-name="Path 9681" d="M17.724,0l-.617.07,0,.021a1.761,1.761,0,0,0,.209.024,11.016,11.016,0,0,1,2.972.493,15.611,15.611,0,0,1,6.228,3.377,15.888,15.888,0,0,1,5.18,8.97,15.605,15.605,0,0,1,.3,3.1q0,7.148,0,14.3c0,.212,0,.214-.206.178-.512-.09-1.023-.188-1.536-.272-.152-.025-.159-.113-.158-.232q0-6.325,0-12.651c0-.614.011-1.229,0-1.842a13.441,13.441,0,0,0-.844-4.366A14.2,14.2,0,0,0,18.825,2.18a14.21,14.21,0,0,0-3.777-.249A13.541,13.541,0,0,0,9.74,3.358a14.015,14.015,0,0,0-7.062,7.963,13.332,13.332,0,0,0-.8,4.278A14.156,14.156,0,0,0,9.994,28.8a13.613,13.613,0,0,0,3.785,1.163,13.323,13.323,0,0,0,4.208.02c.738-.12,1.463-.318,2.2-.474a.951.951,0,0,1,.355-.016c.905.161,1.809.332,2.713.5a2.435,2.435,0,0,1,.338.073A13.478,13.478,0,0,1,19.7,31.578a15.685,15.685,0,0,1-10.158-.923A15.992,15.992,0,0,1,.1,14.157,15.622,15.622,0,0,1,2.663,7.193,15.779,15.779,0,0,1,8.1,2.111a14.584,14.584,0,0,1,7.1-2.023L14.533,0Z" transform="translate(0)" fill="#cccb00"/>
      <path id="Path_9682" data-name="Path 9682" d="M260.6,263.107l-.615-.116c-.36-.067-.72-.137-1.082-.2-.12-.021-.16-.076-.16-.2q0-6.4,0-12.8a13.067,13.067,0,0,0-.435-3.757,11.081,11.081,0,0,0-4.393-6.127,10.806,10.806,0,0,0-4.7-1.884,11.211,11.211,0,0,0-11.789,6.228,11.209,11.209,0,0,0,7.8,15.805,11.116,11.116,0,0,0,6.423-.547c.065-.025.132-.043.215-.069a1.1,1.1,0,0,1,.019.138c0,.548,0,1.1,0,1.645a.246.246,0,0,1-.2.279,13.673,13.673,0,0,1-3.838.663A12.635,12.635,0,0,1,241,260.42a12.991,12.991,0,0,1-5.924-7.338,12.468,12.468,0,0,1-.611-4.519,13.137,13.137,0,0,1,10.111-12.206,12.561,12.561,0,0,1,4.081-.289,13.083,13.083,0,0,1,11.95,13.089q0,6.934,0,13.868c0,.021,0,.042-.007.082" transform="translate(-231.537 -233.082)" fill="#3a9825"/>
      <path id="Path_9683" data-name="Path 9683" d="M483.609,488.188a.763.763,0,0,1,.018.1q0,.946,0,1.892a.2.2,0,0,1-.144.2,10.85,10.85,0,0,1-2.67.785,10.126,10.126,0,0,1-2.114.091,10.122,10.122,0,0,1-6.539-2.894,10.244,10.244,0,0,1-2.471-3.873,9.7,9.7,0,0,1-.581-3.449,10.039,10.039,0,0,1,2.6-6.7,10.123,10.123,0,0,1,14.4-.74,10.075,10.075,0,0,1,3.138,5.536,10.926,10.926,0,0,1,.2,2.223q0,6.407,0,12.814c0,.393,0,.4-.387.33-.447-.078-.893-.166-1.341-.243-.112-.019-.163-.065-.16-.182,0-.186,0-.373,0-.559,0-4.068-.005-8.137.006-12.205a8.272,8.272,0,0,0-1.709-5.24,7.932,7.932,0,0,0-5.2-3.123,8.051,8.051,0,0,0-8.022,3.208,7.518,7.518,0,0,0-1.59,3.977,8.126,8.126,0,0,0,3.378,7.685,7.719,7.719,0,0,0,3.741,1.5,8.236,8.236,0,0,0,5.158-.963c.09-.05.175-.109.282-.177" transform="translate(-463.283 -465.102)" fill="#00a7c9"/>
      <path id="Path_9684" data-name="Path 9684" d="M715.188,715.275q0,.227,0,.454c0,.614-.007,1.228.007,1.842a.465.465,0,0,1-.234.454,7.247,7.247,0,0,1-2.9,1.176,7.262,7.262,0,0,1-8.4-6.095,7.21,7.21,0,0,1,5.4-8.071,7.27,7.27,0,0,1,9.019,7.072q.008,6.349,0,12.7c0,.048-.006.1-.011.166-.246-.044-.476-.084-.705-.127-.323-.06-.644-.137-.969-.175-.182-.021-.218-.088-.218-.256q.006-6.226,0-12.452a5.1,5.1,0,0,0-1.4-3.547,5.162,5.162,0,0,0-2.9-1.63,5.3,5.3,0,0,0-5.935,3.058,5.179,5.179,0,0,0,.729,5.6,5.049,5.049,0,0,0,3.651,1.948,5.292,5.292,0,0,0,4.667-1.926c.056-.065.1-.138.155-.207l.041.011" transform="translate(-694.84 -696.039)" fill="#963584"/>
    </g>
  </g>
</svg>
