<svg xmlns="http://www.w3.org/2000/svg" xmlns:xlink="http://www.w3.org/1999/xlink" width="313.394" height="80.651" viewBox="0 0 313.394 80.651">
  <defs>
    <clipPath id="clip-path">
      <rect id="Rectangle_1023" data-name="Rectangle 1023" width="313.394" height="80.651" transform="translate(0 0)" fill="none"/>
    </clipPath>
  </defs>
  <g id="Group_4450" data-name="Group 4450" transform="translate(0 -0.001)">
    <g id="Group_4449" data-name="Group 4449" transform="translate(0 0.001)" clip-path="url(#clip-path)">
      <path id="Path_9685" data-name="Path 9685" d="M5991.173,278.347a5.434,5.434,0,0,1-5.273-5.406,5.545,5.545,0,0,1,5.472-5.4,5.672,5.672,0,0,1,5.312,5.451,5.511,5.511,0,0,1-5.511,5.357" transform="translate(-5683.289 -254.012)" fill="#161615"/>
      <path id="Path_9686" data-name="Path 9686" d="M1832.107,511.537l.352,1.3a19.627,19.627,0,0,1,.333-2.565,14.986,14.986,0,0,1,6.023-8.622,15.482,15.482,0,0,1,24.028,9.081,19.22,19.22,0,0,1,.5,4.182c.068,4.7.031,9.392.063,14.088,0,.617-.171.793-.8.782q-3.706-.062-7.413-.009c-.638.009-.853-.129-.847-.808.042-4.448.043-8.9.047-13.346a15.265,15.265,0,0,0-.089-2.22,6.657,6.657,0,0,0-13.234.939,6.656,6.656,0,0,0,9.9,5.871c.19-.107.379-.216.65-.37.021.27.05.474.051.678,0,2.669-.036,5.339.023,8.007.018.816-.243,1.106-1.017,1.259a15.529,15.529,0,0,1-16.345-7.509,9.508,9.508,0,0,1-1.645-5.808,5.07,5.07,0,0,0-.04-.682l-.54,1.836Z" transform="translate(-1739.487 -473.579)" fill="#161615"/>
      <path id="Path_9687" data-name="Path 9687" d="M5105.761,519.955c0,2.941-.019,5.882.014,8.822.008.717-.154.99-.941.973-2.42-.055-4.843-.042-7.264,0-.647.01-.832-.148-.828-.822.032-5.609.047-11.219.008-16.829a4.326,4.326,0,0,0-4.373-4.3,3.99,3.99,0,0,0-4.1,4.054q-.015,8.378,0,16.755c0,1.106,0,1.107-1.125,1.111-2.372.008-4.745-.006-7.116.034-.622.01-.787-.175-.78-.793.059-5.189.1-10.378.1-15.567a8.646,8.646,0,0,0-.413-2.756,4.346,4.346,0,0,0-4.762-2.831,4.163,4.163,0,0,0-3.4,4.034c-.071,1.256-.024,2.519-.024,3.779,0,4.4-.013,8.8.024,13.2.006.767-.238.952-.975.938-2.445-.045-4.893-.029-7.338,0-.538.005-.725-.13-.722-.7q.04-7.97.026-15.939a14.627,14.627,0,0,1,2.777-9.105,13.049,13.049,0,0,1,18.1-2.745,6.315,6.315,0,0,1,.59.447c.407.376.743.3,1.158-.038a12.863,12.863,0,0,1,10.13-2.758c5.353.694,10.369,5.555,10.923,10.916.348,3.357.3,6.754.434,10.134l-.118,0" transform="translate(-4805.854 -473.552)" fill="#161615"/>
      <path id="Path_9688" data-name="Path 9688" d="M3125.6,528.422c-.528.185-.96.343-1.4.488a15.369,15.369,0,0,1-13.062-1.221,15.634,15.634,0,0,1,4.085-28.68,15.566,15.566,0,0,1,19.043,12.564,25.265,25.265,0,0,1,.289,3.686c.034,4.25.043,8.5.005,12.749a15.861,15.861,0,0,1-5.252,12.062,15.4,15.4,0,0,1-9.363,3.985c-.623.052-.876-.087-.865-.787.039-2.519.019-5.039,0-7.559,0-.456.108-.63.606-.688a6.583,6.583,0,0,0,5.91-6.6m-6.667-20.875a6.628,6.628,0,1,0,6.676,6.607,6.7,6.7,0,0,0-6.676-6.607" transform="translate(-2946.466 -473.344)" fill="#161615"/>
      <path id="Path_9689" data-name="Path 9689" d="M3794.629,335.078c.869-.177,1.629-.386,2.4-.481a13.119,13.119,0,0,1,14.745,10.792,15.26,15.26,0,0,1,.22,2.728c.02,5.461,0,10.922.023,16.384,0,.688-.149.941-.9.927-2.322-.044-4.645,0-6.967,0-1.353,0-1.16.129-1.153-1.2.028-5.337.052-10.674.1-16.011a4.4,4.4,0,0,0-1.816-3.845,4.055,4.055,0,0,0-4.324-.533,3.783,3.783,0,0,0-2.352,3.639c.007,5.683.012,11.367.062,17.05.007.774-.22.94-.96.924-2.42-.053-4.843-.049-7.263-.011-.649.01-.84-.15-.839-.817q.042-17.94.039-35.881c0-.815,0-1.631-.033-2.446-.017-.414.13-.584.545-.583q3.965.013,7.931,0c.542,0,.569.312.566.726-.019,2.52-.025,5.041-.035,7.561,0,.339,0,.678,0,1.073" transform="translate(-3594.238 -309.248)" fill="#161615"/>
      <path id="Path_9690" data-name="Path 9690" d="M4391.911,519.511c0,.727,0,1.359,0,1.992,0,2.273-.017,4.546,0,6.819.006.617-.182.882-.835,1.025a15.625,15.625,0,1,1,12.11-18.072,19.734,19.734,0,0,1,.291,3.315c.032,4.62,0,9.241.029,13.861,0,.741-.188.963-.951.949-2.445-.047-4.892-.023-7.337.014-.583.009-.761-.148-.753-.747.061-4.521.07-9.042.129-13.563a7.645,7.645,0,0,0-1.912-5.664,6.651,6.651,0,1,0-1.451,10.386c.186-.1.386-.181.676-.315" transform="translate(-4151.322 -473.219)" fill="#161615"/>
      <path id="Path_9691" data-name="Path 9691" d="M2524.475,529.043c-.015-.331-.036-.572-.036-.813,0-5.56-.019-11.12,0-16.679a13.316,13.316,0,0,1,10.524-13.21,13.162,13.162,0,0,1,15.706,11.229c.206,1.936.241,3.895.26,5.844.043,4.274.013,8.55.046,12.824,0,.641-.149.844-.824.832q-3.7-.072-7.412-.009c-.675.011-.824-.2-.82-.836q.046-8.006.02-16.012a7.941,7.941,0,0,0-.31-2.258c-.624-2.047-2.324-3.042-4.688-2.845a4.073,4.073,0,0,0-3.508,3.575,10.54,10.54,0,0,0-.084,1.477c.023,5.337.043,10.674.1,16.011.007.689-.2.892-.879.884-2.667-.033-5.333-.013-8.1-.013" transform="translate(-2396.812 -472.868)" fill="#161615"/>
      <path id="Path_9692" data-name="Path 9692" d="M6003.319,527.7h1.8c2.076,0,4.152.033,6.227-.018.745-.018.962.179.959.941-.034,7.266-.029,14.532-.032,21.8,0,2.027-.005,4.054.027,6.08.009.556-.165.71-.723.7q-3.78-.051-7.561-.008c-.575.007-.771-.129-.77-.734q.039-14.014.038-28.027c0-.216.022-.433.039-.734" transform="translate(-5699.755 -501.003)" fill="#161615"/>
      <path id="Path_9693" data-name="Path 9693" d="M44.228,0,42.689.178l0,.052a4.363,4.363,0,0,0,.522.06,27.259,27.259,0,0,1,7.416,1.241,38.849,38.849,0,0,1,15.542,8.5A40.1,40.1,0,0,1,79.09,32.627a39.649,39.649,0,0,1,.76,7.816q0,18,0,36c0,.534,0,.539-.514.447-1.277-.228-2.552-.473-3.832-.684-.38-.063-.4-.284-.4-.585q.007-15.93.006-31.86c0-1.547.027-3.094-.01-4.64a34.127,34.127,0,0,0-2.106-11A35.05,35.05,0,0,0,37.551,4.866,33.547,33.547,0,0,0,24.307,8.459,35.191,35.191,0,0,0,6.684,28.515,33.854,33.854,0,0,0,4.69,39.288,35.662,35.662,0,0,0,24.939,72.535a33.74,33.74,0,0,0,9.444,2.929,32.943,32.943,0,0,0,10.5.05c1.842-.3,3.651-.8,5.479-1.195a2.349,2.349,0,0,1,.887-.039c2.259.406,4.513.836,6.77,1.256a6.03,6.03,0,0,1,.844.183,33.447,33.447,0,0,1-9.706,3.811,38.809,38.809,0,0,1-25.349-2.324A40.338,40.338,0,0,1,.262,35.656,40.429,40.429,0,0,1,20.224,5.317,36.142,36.142,0,0,1,37.943.223L36.265,0Z" transform="translate(0 -0.001)" fill="#cccb00"/>
      <path id="Path_9694" data-name="Path 9694" d="M209.026,214.306c-.525-.1-1.029-.2-1.534-.292-.9-.169-1.8-.344-2.7-.5-.3-.052-.4-.192-.4-.5q.011-16.116.005-32.233a33.2,33.2,0,0,0-1.085-9.463,27.9,27.9,0,0,0-10.963-15.432,26.826,26.826,0,0,0-11.722-4.745,28.2,28.2,0,1,0,6.073,54.113c.161-.063.33-.107.535-.173a2.761,2.761,0,0,1,.048.348c0,1.381-.01,2.762,0,4.143a.62.62,0,0,1-.51.7,33.829,33.829,0,0,1-9.577,1.67,31.3,31.3,0,0,1-17.086-4.4,32.66,32.66,0,0,1-14.782-18.481,31.673,31.673,0,0,1-1.525-11.382,32.516,32.516,0,0,1,8.222-20.487,32.107,32.107,0,0,1,17.01-10.253,31.062,31.062,0,0,1,10.184-.728,31.852,31.852,0,0,1,18.638,8.038,33.022,33.022,0,0,1,11.181,24.927q-.008,17.463,0,34.926c0,.053-.009.105-.018.206" transform="translate(-136.505 -138.689)" fill="#3a9825"/>
      <path id="Path_9695" data-name="Path 9695" d="M323.855,334.886a1.955,1.955,0,0,1,.046.263q.007,2.382.01,4.764a.5.5,0,0,1-.36.515,26.886,26.886,0,0,1-6.663,1.977,25.034,25.034,0,0,1-5.275.23,25.137,25.137,0,0,1-16.317-7.29,25.829,25.829,0,0,1-6.166-9.755,24.645,24.645,0,0,1-1.45-8.685,25.415,25.415,0,0,1,6.484-16.864,25.1,25.1,0,0,1,35.931-1.864,25.431,25.431,0,0,1,7.831,13.941,27.766,27.766,0,0,1,.511,5.6q.012,16.136,0,32.272c0,.99-.009,1-.965.83-1.116-.2-2.229-.417-3.346-.611-.279-.048-.406-.163-.4-.457.012-.469-.006-.939-.006-1.408,0-10.246-.013-20.493.014-30.739a20.962,20.962,0,0,0-4.264-13.2,19.765,19.765,0,0,0-12.966-7.866c-8.182-1.259-14.905,1.484-20.018,8.079a19.032,19.032,0,0,0-3.967,10.016c-.75,8,2.059,14.5,8.429,19.355a19.163,19.163,0,0,0,9.334,3.766,20.392,20.392,0,0,0,12.87-2.426c.225-.126.437-.275.7-.445" transform="translate(-273.133 -276.746)" fill="#00a7c9"/>
      <path id="Path_9696" data-name="Path 9696" d="M460.426,462.6q0,.572,0,1.143c0,1.547-.017,3.094.017,4.64a1.174,1.174,0,0,1-.583,1.144,18,18,0,0,1-7.234,2.96,17.429,17.429,0,0,1-12.723-2.575,17.825,17.825,0,0,1-8.238-12.774,18.155,18.155,0,0,1,13.477-20.327,17.252,17.252,0,0,1,17.246,4.88,17.651,17.651,0,0,1,5.259,12.931q.021,15.991,0,31.982c0,.12-.015.239-.027.419-.615-.111-1.188-.212-1.76-.319-.806-.15-1.606-.345-2.418-.44-.453-.053-.544-.223-.543-.645q.016-15.68.012-31.361a13.413,13.413,0,0,0-10.742-13.04,13.523,13.523,0,0,0-12.991,21.818,12.568,12.568,0,0,0,9.111,4.906,13.148,13.148,0,0,0,11.645-4.851c.14-.163.258-.347.386-.521l.1.028" transform="translate(-409.65 -414.158)" fill="#963584"/>
    </g>
  </g>
</svg>
