<svg xmlns="http://www.w3.org/2000/svg" xmlns:xlink="http://www.w3.org/1999/xlink"><symbol viewBox="0 0 21.5 19.935" id="all--AddToQueue" xmlns="http://www.w3.org/2000/svg"><path data-name="Path 22055" d="M.745 5.207h10.261a.745.745 0 000-1.489H.745a.745.745 0 100 1.489z"/><path data-name="Path 22056" d="M.744 12.571h20.011a.745.745 0 000-1.489H.744a.745.745 0 000 1.489z"/><path data-name="Path 22057" d="M20.756 18.445H.745a.745.745 0 100 1.489h20.011a.745.745 0 000-1.489z"/><path data-name="Path 22058" d="M13.938 7.814a1.267 1.267 0 00.788.576 1.285 1.285 0 00.3.037 1.267 1.267 0 00.651-.18c.337-.192.673-.39 1-.582l.493-.291 1.794-1.055.5-.295c.4-.235.82-.479 1.228-.726a1.259 1.259 0 000-2.161c-.32-.2-.647-.387-.962-.571l-.308-.18c-.6-.348-1.2-.7-1.793-1.051l-.7-.414C16.52.68 16.098.43 15.68.186a1.258 1.258 0 00-1.544.179 1.283 1.283 0 00-.383 1v5.721a1.269 1.269 0 00.185.728zm1.192-2.635V1.454c.369.216.742.436 1.1.649l.7.415c.593.351 1.2.706 1.8 1.054l.307.18c.259.151.525.307.785.464-.35.21-.707.418-1.054.621l-.506.3-1.793 1.054-.5.293c-.278.164-.563.333-.849.5.015-.608.012-1.216.01-1.805z"/></symbol><symbol viewBox="0 0 20.401 20.384" id="all--AddToSong" xmlns="http://www.w3.org/2000/svg"><path d="M20.398.801a.738.738 0 00-.668-.8.712.712 0 00-.162 0L8.347 1.388l-.365.123v.069a.869.869 0 00-.31.607v11.365a5.062 5.062 0 00-3.992-.447c-2.483.647-4.094 2.772-3.587 4.747a3.824 3.824 0 003.582 2.527c.113 0 .227 0 .342-.015a6.961 6.961 0 001.565-.2c2.175-.6 3.721-2.326 3.677-4.085V2.852l9.562-1.19v10.479a5.06 5.06 0 00-3.994-.446c-2.478.679-4.089 2.816-3.584 4.792a3.884 3.884 0 003.922 2.509 6.867 6.867 0 001.558-.2c2.174-.6 3.721-2.323 3.678-4.085zM16.314 17.23a3.938 3.938 0 01-1.182.145 2.234 2.234 0 01-2.331-1.323 1.6 1.6 0 01.208-1.236 3.663 3.663 0 012.269-1.554 4.315 4.315 0 011.144-.145h.038a2.237 2.237 0 012.33 1.32c.271 1.066-.863 2.346-2.476 2.793zM5.182 18.652l-.014-.051a4.1 4.1 0 01-1.182.151 2.238 2.238 0 01-2.334-1.324 1.6 1.6 0 01.208-1.236 3.663 3.663 0 012.269-1.554 4.316 4.316 0 011.144-.145h.037a2.234 2.234 0 012.33 1.318c.272 1.1-.859 2.384-2.471 2.794z"/></symbol><symbol viewBox="0 0 12.71 12.63" id="all--QRCode" xmlns="http://www.w3.org/2000/svg"><defs><clipPath id="a" transform="translate(-1.25 -2.4)"><path d="M10.15 4.42h1.78a.4.4 0 01.4.41.4.4 0 01-.4.4h-1.78a.4.4 0 01-.41-.4.38.38 0 01.41-.41z" fill="none"/></clipPath><clipPath id="b" transform="translate(-1.25 -2.4)"><path d="M8.53 6h3.72a.41.41 0 01.41.41.41.41 0 01-.41.4H8.53a.41.41 0 01-.41-.4.38.38 0 01.41-.41z" fill="none"/></clipPath><clipPath id="c" transform="translate(-1.25 -2.4)"><path d="M8.53 8.63h3.72a.41.41 0 01.41.4.42.42 0 01-.41.41H8.53A.42.42 0 018.12 9a.38.38 0 01.41-.37z" fill="none"/></clipPath><clipPath id="d" transform="translate(-1.25 -2.4)"><path d="M7.76 10.24h1.78a.41.41 0 01.4.41.4.4 0 01-.4.4H7.76a.41.41 0 01-.41-.4.39.39 0 01.41-.41z" fill="none"/></clipPath><clipPath id="e" transform="translate(-1.25 -2.4)"><path d="M6.6 12.5h3.07a.41.41 0 01.41.41.4.4 0 01-.41.4H6.6a.4.4 0 01-.41-.4.38.38 0 01.41-.41z" fill="none"/></clipPath><clipPath id="f" transform="translate(-1.25 -2.4)"><path d="M8.12 6.3V4.52a.41.41 0 01.41-.41.41.41 0 01.4.41V6.3a.4.4 0 01-.4.4.38.38 0 01-.41-.4z" fill="none"/></clipPath><clipPath id="g" transform="translate(-1.25 -2.4)"><path d="M3.27 12.9V9.84a.41.41 0 01.41-.41.4.4 0 01.4.41v3.07a.41.41 0 01-.4.41.38.38 0 01-.41-.41z" fill="none"/></clipPath><clipPath id="h" transform="translate(-1.25 -2.4)"><path d="M10.7 7.74V6.56a.4.4 0 01.41-.4.4.4 0 01.4.4v1.18a.4.4 0 01-.4.4.38.38 0 01-.41-.4z" fill="none"/></clipPath></defs><path d="M3.8 6.92h1.3a.4.4 0 01.4.41.4.4 0 01-.4.4H3.8a.4.4 0 01-.4-.4.38.38 0 01.4-.41zM2.5 8.86h1.4a.41.41 0 01.41.41.4.4 0 01-.41.4H2.5a.41.41 0 01-.41-.4.39.39 0 01.41-.41zm7.74-.64a.4.4 0 01.4.4v1.58a.41.41 0 01-.4.41.41.41 0 01-.4-.41V8.6a.43.43 0 01.4-.38zm-2.84.04a.4.4 0 01.4.4v.53a.4.4 0 01-.4.4.4.4 0 01-.41-.4v-.53a.43.43 0 01.41-.4zM3.75 3.32h.2a.39.39 0 01.41.4v.2a.39.39 0 01-.41.41h-.2a.39.39 0 01-.41-.41v-.2a.39.39 0 01.41-.4z"/><path d="M3.92 4.33h-.17a.39.39 0 01-.41-.41v-.2a.39.39 0 01.41-.4h.2a.39.39 0 01.41.4v.2a.39.39 0 01-.44.41zm4.98-2.3h1.78a.4.4 0 01.4.41.4.4 0 01-.4.4H8.9a.4.4 0 01-.41-.4.38.38 0 01.41-.41z"/><g clip-path="url(#a)"><path d="M8.5 1.98h2.6v.85H8.5z"/></g><path d="M7.28 3.6H11a.41.41 0 01.41.41.41.41 0 01-.41.4H7.28a.41.41 0 01-.41-.4.38.38 0 01.41-.41z"/><g clip-path="url(#b)"><path d="M6.87 3.5h4.53v.85H6.87z"/></g><path d="M7.28 6.23H11a.41.41 0 01.41.4.42.42 0 01-.41.41H7.28a.42.42 0 01-.41-.44.38.38 0 01.41-.37z"/><g clip-path="url(#c)"><path d="M6.87 6.2h4.53v.85H6.87z"/></g><path d="M6.5 7.84h1.8a.41.41 0 01.4.41.4.4 0 01-.4.4H6.5a.41.41 0 01-.41-.4.39.39 0 01.41-.41z"/><g clip-path="url(#d)"><path d="M6.1 7.8h2.6v.85H6.1z"/></g><path d="M5.34 10.1H8.4a.41.41 0 01.41.41.4.4 0 01-.41.4H5.34a.4.4 0 01-.41-.4.38.38 0 01.41-.41z"/><g clip-path="url(#e)"><path d="M4.93 10.07h3.9v.85h-3.9z"/></g><path d="M6.87 3.9V2.12a.41.41 0 01.41-.41.41.41 0 01.4.41V3.9a.4.4 0 01-.4.4.38.38 0 01-.41-.4z"/><g clip-path="url(#f)"><path d="M5.98 2.56h2.6v.85h-2.6z"/></g><path d="M2.02 10.5V7.44a.41.41 0 01.41-.41.4.4 0 01.4.41v3.07a.41.41 0 01-.4.41.38.38 0 01-.41-.41z"/><g clip-path="url(#g)"><path d="M.48 8.53h3.9v.85H.48z"/></g><path d="M9.46 5.34V4.16a.4.4 0 01.41-.4.4.4 0 01.4.4v1.18a.4.4 0 01-.4.4.38.38 0 01-.41-.4z"/><g clip-path="url(#h)"><path d="M8.9 4.33h1.94v.85H8.9z"/></g><path d="M.4 4.4A.38.38 0 010 4V.4A.38.38 0 01.4 0H4a.38.38 0 01.4.4.38.38 0 01-.4.41H.8V4a.38.38 0 01-.41.4zm11.9 8.2H8.75a.41.41 0 010-.81h3.2V8.6a.41.41 0 01.8 0v3.6a.41.41 0 01-.45.4zm0-8.2a.38.38 0 01-.4-.4V.8H8.75a.38.38 0 01-.4-.41.38.38 0 01.4-.4h3.6a.38.38 0 01.41.4V4a.4.4 0 01-.46.4zM4 12.6H.4a.38.38 0 01-.4-.41V8.6a.38.38 0 01.4-.4.38.38 0 01.41.4v3.2H4a.41.41 0 010 .81zm1.02-6.37H2.9a1.18 1.18 0 01-1.16-1.21V2.9a1.18 1.18 0 011.17-1.2H5a1.19 1.19 0 011.21 1.21V5A1.24 1.24 0 015 6.21zM2.9 2.5a.38.38 0 00-.4.4V5a.38.38 0 00.4.4H5a.38.38 0 00.4-.4V2.9a.38.38 0 00-.4-.4z"/></symbol><symbol viewBox="0 0 20 20" id="all--add-playlist-plus" xmlns="http://www.w3.org/2000/svg"><path d="M17 8.75h-6.25V2.5a.75.75 0 00-1.5 0v6.25H3a.75.75 0 000 1.5h6.25v6.25a.75.75 0 001.5 0v-6.25H17a.75.75 0 000-1.5z"/></symbol><symbol viewBox="0 0 15.906 10.879" id="all--add_to_playlist" xmlns="http://www.w3.org/2000/svg"><g data-name="ContextAndroidIcon_add to playlist"><path data-name="Path 852" d="M12.828 1.917h-1.09v3.1H8.651v1.091h3.087v3.078h1.091V6.112h3.078V4.995h-3.079z"/><path data-name="Path 853" d="M9.109 9.929H.481a.475.475 0 00.009.95h8.584a.484.484 0 00.492-.466.475.475 0 00-.466-.484zm0 0z"/><path data-name="Path 854" d="M.464 5.902h5.505a.484.484 0 00.343-.132.475.475 0 000-.668.484.484 0 00-.361-.15H.49a.492.492 0 00-.343.132.475.475 0 00.317.818zm0 0z"/><path data-name="Path 855" d="M.464.923h9.621a.484.484 0 00.51-.457.466.466 0 00-.15-.317.51.51 0 00-.361-.15H.49a.484.484 0 00-.334.15.475.475 0 00.308.818z"/></g></symbol><symbol viewBox="0 0 14.239 14.239" id="all--album-inbox-up-icon" xmlns="http://www.w3.org/2000/svg"><g data-name="Group 11960"><g data-name="Group 11924"><rect data-name="Rectangle 4892" width="14.239" height="14.239" rx="2" fill="#df4ee5"/></g><g data-name="Group 11925"><g data-name="Group 11921" fill="#fff"><path data-name="Path 26280" d="M9.861 4.093H4.199a.263.263 0 000 .527H9.86a.283.283 0 01.263.263v5.661a.263.263 0 00.527 0v-5.53c0-.658-.263-.921-.789-.921z"/><path data-name="Path 26281" d="M11.046 3.171H5.384a.263.263 0 000 .527h5.661a.283.283 0 01.263.263v5.661a.263.263 0 00.527 0V3.961a.693.693 0 00-.789-.79z"/></g><g data-name="Group 11919"><g data-name="Group 11922"><path data-name="Path 26282" d="M8.423 5.146h-4.74A.969.969 0 002.63 6.199v4.74a.969.969 0 001.053 1.053h4.608a1.406 1.406 0 001.185-.922V6.199a1.038 1.038 0 00-1.053-1.053z" fill="#fff"/></g></g></g></g></symbol><symbol viewBox="0 0 17 17.082" id="all--albums" xmlns="http://www.w3.org/2000/svg"><path data-name="Path 19596" d="M13.55 1.851H2.941a.543.543 0 00-.5.5.543.543 0 00.5.5h10.6a.4.4 0 01.421.421v10.6a.505.505 0 001.01 0V3.366a1.391 1.391 0 00-1.422-1.515z"/><path data-name="Path 19597" d="M15.569 0H4.96a.543.543 0 00-.5.5.543.543 0 00.5.5h10.6a.4.4 0 01.421.421v10.6a.505.505 0 001.01 0V1.431A1.418 1.418 0 0015.569 0z"/><g data-name="Group 8680"><path data-name="Path 19598" d="M11.53 17.082H1.683A1.688 1.688 0 010 15.399V5.552a1.688 1.688 0 011.683-1.683h9.847a1.688 1.688 0 011.683 1.683v9.847a1.688 1.688 0 01-1.683 1.683zm-9.847-12.2a.664.664 0 00-.673.673v9.844a.6.6 0 00.673.589h9.847a.65.65 0 00.673-.589V5.552a.664.664 0 00-.673-.673z"/></g></symbol><symbol viewBox="0 0 8.928 5.057" id="all--arrow-down" xmlns="http://www.w3.org/2000/svg"><path data-name="Path 101" d="M4.5 0h4.429L6.716 2.528 4.5 5.057 2.212 2.528 0 0z"/></symbol><symbol viewBox="0 0 5.792 10.208" id="all--arrow-left" xmlns="http://www.w3.org/2000/svg"><path data-name="Path 3208" d="M4.625 9.998a.681.681 0 00.481.209.636.636 0 00.481-.209.67.67 0 000-.963L1.653 5.101l3.935-3.934a.67.67 0 000-.963.67.67 0 00-.963 0L.209 4.62A.681.681 0 000 5.101a.606.606 0 00.209.481zm0 0"/></symbol><symbol viewBox="0 0 17 19.608" id="all--artist" xmlns="http://www.w3.org/2000/svg"><path data-name="Path 20002" d="M15.606 1.342a4.856 4.856 0 00-6.787.084 4.7 4.7 0 00-1.424 3.352v.423L.943 12.826a1.753 1.753 0 00-.335.5 1.634 1.634 0 000 1.257c0 .084.084.168.084.251a2.889 2.889 0 00-.67 1.341 1.806 1.806 0 00.419 1.424c1.508 1.76 3.519.168 4.357-.5a2.732 2.732 0 012.262-.67c.838.251 1.592 1.173 2.095 2.765a.531.531 0 00.5.419.541.541 0 00.5-.5v-.168c-.67-2.011-1.676-3.184-2.849-3.519a3.5 3.5 0 00-3.184.922c-1.76 1.341-2.43 1.257-2.933.67a.555.555 0 01-.168-.587.848.848 0 01.335-.587c.084 0 .084.084.168.084a2.231 2.231 0 001.006.251 1.063 1.063 0 00.5-.084h.084l7.877-6.536a4.079 4.079 0 001.005.084 4.558 4.558 0 003.352-1.424l.084-.084a4.641 4.641 0 00.174-6.793zM2.786 15.084A1.242 1.242 0 012.199 15h-.084a.858.858 0 01-.419-.5v-.084a.633.633 0 01.084-.67l5.782-6.871a3.5 3.5 0 00.922 1.257 4.974 4.974 0 001.508 1.089zm12.15-7.709l-.084.084a3.831 3.831 0 01-2.6 1.089 1.634 1.634 0 01-.67-.084l-.419-.084a3.5 3.5 0 01-.838-.335 3.8 3.8 0 01-1.843-3.268 4.035 4.035 0 011.089-2.681 3.756 3.756 0 012.6-1.173h.084a3.36 3.36 0 012.6 1.089 3.82 3.82 0 01.081 5.363z"/></symbol><symbol id="all--artist-inbox-up-icon" viewBox="0 0 14.2 14.2" xml:space="preserve" xmlns="http://www.w3.org/2000/svg"><style>.st0{fill:#0099f5}.st1{fill:#fff}</style><path id="Rectangle_4892" class="st0" d="M2 0h10.2c1.1 0 2 .9 2 2v10.2c0 1.1-.9 2-2 2H2c-1.1 0-2-.9-2-2V2C0 .9.9 0 2 0z"/><path class="st1" d="M4.5 10c.3 0 .6-.1.8-.2l3-2.5c-.7-.3-1.2-.6-1.6-1.1-.3-.4-.4-.8-.5-1.3l-2.6 3c-.1.2-.1.3-.2.4-.1.3-.1.5 0 .8 0 .1.1.2.2.3-.2.2-.3.4-.4.7 0 .3 0 .5.2.7.5.5 1.2.5 1.7.2l.3-.2c.4-.3.8-.3 1.2-.2.3.1.5.5.7 1 0 .1.2.2.3.2.2 0 .3-.2.3-.3v-.1c-.2-.6-.6-1.1-1.1-1.4-.5-.1-1.2 0-1.7.3l-.2.1c-.5.2-.7.2-1 0-.1-.1-.1-.2-.1-.2 0-.2.1-.3.2-.4.2.1.3.2.5.2z"/><path class="st1" d="M9.2 1.9C7.8 1.9 6.6 3 6.6 4.4S7.8 7 9.2 7c1.4 0 2.5-1.1 2.5-2.5 0-1.5-1.1-2.6-2.5-2.6z"/></symbol><symbol viewBox="0 0 22.3 22.2" id="all--broadcaster-chat" xmlns="http://www.w3.org/2000/svg"><path d="M21.7 8c-.1-.2-.1-.4-.2-.5-2-5.8-8.4-8.8-14.1-6.8C2.2 2.5-.9 8 .3 13.5c.5 2.5 2 4.8 4 6.4h.1c.1.1.3.2.5.2H5c.2 0 .4-.1.5-.3.1-.2.2-.4.1-.6 0-.2-.2-.4-.4-.5C2.8 16.9 1.5 14 1.5 11v-.4c0-.4.1-.8.2-1.2 0-.2.1-.4.1-.6C3.1 3.7 8.3.7 13.4 2c5 1.3 8.1 6.5 6.8 11.5-.5 2-1.7 3.9-3.3 5.1 0 0-.1 0-.1.1-.2.1-.3.3-.3.5s0 .4.2.6c.3.3.8.3 1.1 0C21.5 17 23 12.4 21.7 8z"/><path d="M17.6 9.8v-.2c-.8-3.5-4.4-5.7-7.9-4.9-3.5.8-5.7 4.2-5 7.7.3 1.4 1 2.7 2.1 3.7.1.1.2.2.4.2h.2c.1 0 .3 0 .4-.1.2-.1.3-.3.3-.5.1-.3-.1-.6-.3-.8-1.1-1-1.7-2.3-1.7-3.8v-.2-.4-.3c.5-2.7 3.1-4.5 5.8-4 .1 0 .2 0 .3.1 1.3.3 2.4 1.1 3.1 2.2.7 1.1.9 2.5.6 3.8-.2 1-.8 1.9-1.6 2.6-.3.3-.3.8 0 1.1.1.2.3.2.6.2.2 0 .4-.1.6-.2 1.8-1.5 2.6-3.9 2.1-6.2z"/><path d="M11.4 9.1c-1-.1-2 .4-2.3 1.4-.3 1 .1 2.1 1.1 2.5.1 0 .1.1.1.2V21.7c.1.2.2.4.4.5.1.1.3.1.4.1h.2c.4-.1.6-.5.6-.9v-8.1c0-.1 0-.2.1-.2.7-.3 1.2-1 1.2-1.8 0-1.2-.7-2.1-1.8-2.2z"/></symbol><symbol viewBox="0 0 22.57 20.098" id="all--broadcaster-comment" xmlns="http://www.w3.org/2000/svg"><path data-name="Union 141" d="M22.312 19.859a.771.771 0 00.188-.893l-1.986-4.352a8.071 8.071 0 002.056-5.325c0-5.122-5.063-9.291-11.285-9.291S0 4.167 0 9.289a7.3 7.3 0 00.133 1.383c.465 4.468 5.237 7.981 10.732 7.981a5.487 5.487 0 001.265-.142 13.208 13.208 0 003.532-.7l5.684 2.223a.938.938 0 00.342.064.92.92 0 00.624-.239z"/></symbol><symbol viewBox="0 0 36 36" id="all--chats" xmlns="http://www.w3.org/2000/svg"><path d="M4.7 31.64c-.3-.1-.5-.4-.6-.6-.1-.4-.2-.9-.2-1.3l.6-3.6c-2.1-1.7-3.4-4.2-3.4-6.8v-5.7c0-4.7 3.7-8.6 8.4-8.6h17c4.7 0 8.5 3.9 8.4 8.6v5.7c0 4.7-3.7 8.5-8.4 8.6H12.6l-3.4 1.8c-1 .5-3.7 1.8-3.9 1.8-.2.1-.6.1-.6.1zm5.6-13c-.5 0-.9.3-1 .8.1.5.5.8 1 .8h13.9c.5 0 .9-.3 1-.8-.1-.5-.5-.8-1-.8H10.3zm-.3-5.7c-.4 0-.8.3-.8.7v.1c0 .4.3.8.7.8H16.3c.4 0 .8-.3.8-.7v-.1c0-.4-.3-.8-.7-.8H10z"/></symbol><symbol viewBox="0 0 21.5 15.7" id="all--check" xmlns="http://www.w3.org/2000/svg"><path data-name="Path 19235" d="M21.2.3a1.088 1.088 0 00-1.5 0L6.8 13.2l-5-5A1.061 1.061 0 00.3 9.7L6 15.4a1.088 1.088 0 001.5 0L21.2 1.7a.965.965 0 000-1.4z"/></symbol><symbol id="all--claps" viewBox="0 0 24.6 24.7" xml:space="preserve" xmlns="http://www.w3.org/2000/svg"><style>.st0{opacity:.3002}</style><path class="st0" d="M18.9 22.6c-2.9 2.9-7.6 2.9-10.5 0L.3 14.5c-.2-.2-.3-.5-.3-.9 0-.2 0-.3.1-.4.2-.5.6-.8 1.1-.8.3 0 .6.1.9.4l4 4c.1.1.4.1.5 0s.1-.4 0-.5L.4 10.1C0 9.8-.1 9.3.1 8.9c0 0 .1-.1.1-.2.3-.6 1-.8 1.6-.6l.3.3.7.7 5.5 5.5c.1.1.4.1.5 0 .1-.1.1-.4 0-.5L3.3 8.6l-.7-.7-1.5-1.5c-.5-.4-.4-1.2 0-1.7.5-.4 1.2-.4 1.7 0l2.6 2.6 5.1 5.1c.1.1.4.1.5 0s.1-.4 0-.5L5.5 6.4C5 6 5 5.2 5.5 4.7s1.2-.5 1.7 0l5.5 5.5 3.3 3.3c.1.1.4.1.5 0 .1-.1.1-.4 0-.5l-2.6-2.6-.7-.7c-.7-.7-.7-1.8 0-2.4.3-.3.7-.3 1 0l4.8 4.8c2.8 2.9 2.8 7.6-.1 10.5z"/><path d="M18.1.7c0-.1-.1-.2-.2-.2L16.2.1c-.1 0-.2 0-.3.1-.1.1-.1.2-.1.3l.3 2.5c0 .1.1.2.2.3h.1c.1 0 .2 0 .2-.1L18.1 1c.1-.1.1-.2 0-.3zM20.2 3l-1-1.6c-.1-.1-.1-.1-.3-.1-.1 0-.2.1-.3.1l-1.2 1.9c-.1.1-.1.2 0 .3.1.1.2.1.3.1l2.3-.3c.1 0 .2-.1.2-.2V3zM14.8.2h-.3l-1.4.8c-.1 0-.1.1-.1.2s0 .2.1.3L14.7 3H15c.1-.1.2-.2.2-.3L14.9.5c0-.1 0-.2-.1-.3zM22.4 21.4c-2.9 2.9-7.6 2.9-10.5 0l-8.1-8.1c-.2-.2-.4-.5-.4-.9 0-.2 0-.3.1-.4.2-.5.6-.8 1.1-.8.3 0 .6.1.9.4l4 4c.1.1.4.1.5 0 .1-.1.1-.4 0-.5L3.8 8.9c-.3-.3-.4-.7-.3-1.2 0 0 .1-.1.1-.2.3-.5 1-.8 1.6-.5.1.1.2.1.3.2l.8.8 5.5 5.5c.1.1.4.1.5 0s.1-.4 0-.5L6.7 7.5 6 6.7 4.5 5.3c-.4-.5-.4-1.3.1-1.7.5-.4 1.2-.4 1.7 0l2.6 2.6 5.1 5.1c.1.1.4.1.5 0 .1-.1.1-.4 0-.5L8.9 5.3c-.4-.5-.4-1.3 0-1.7.5-.5 1.2-.5 1.7 0l5.5 5.5 3.3 3.3c.1.1.4.1.5 0 .1-.1.1-.4 0-.5l-2.6-2.6-.7-.7c-.7-.7-.7-1.8 0-2.4.3-.3.7-.3 1 0l4.8 4.8c2.9 2.8 2.9 7.5 0 10.4z"/></symbol><symbol viewBox="0 0 11.038 11.038" id="all--close" xmlns="http://www.w3.org/2000/svg"><g data-name="Group 2711"><g data-name="Group 2712"><path data-name="Path 3219" d="M10.775 9.407l-3.913-3.9 3.913-3.9A.949.949 0 009.432.267l-3.913 3.9-3.913-3.9a.949.949 0 10-1.383 1.3l.04.04 3.913 3.9-3.913 3.9a.985.985 0 000 1.34.854.854 0 001.285 0l3.913-3.9 3.913 3.9a.854.854 0 001.285 0 .894.894 0 00.116-1.34z"/></g></g></symbol><symbol viewBox="0 0 20.111 18.914" id="all--connect-device" xmlns="http://www.w3.org/2000/svg"><g data-name="Group 9259"><g data-name="Group 9258"><path data-name="Path 903" d="M6.335 18.909a.867.867 0 010-1.734H7.4v-2.559H1.511A1.51 1.51 0 010 13.106V1.511A1.51 1.51 0 011.511 0H18.6a1.513 1.513 0 011.511 1.511V4.26a3.429 3.429 0 00-1.048-.351v-2.4a.463.463 0 00-.463-.463H1.511a.463.463 0 00-.463.463v11.6a.463.463 0 00.463.463h8.955v3.713a3.236 3.236 0 00.441 1.628H6.335z"/><path data-name="Path 905" d="M13.286 18.728a1.188 1.188 0 01-1.184-1.184V6.86a1.188 1.188 0 011.184-1.184h5.64A1.188 1.188 0 0120.11 6.86v10.684a1.188 1.188 0 01-1.184 1.184zm2.82-1.654a.606.606 0 00-.606.606.6.6 0 00.2.443.625.625 0 00.407.163.582.582 0 00.407-.163.6.6 0 00-.407-1.049zm-2.8-.416h5.6V6.876h-5.6z"/></g></g></symbol><symbol viewBox="0 0 21.771 20.108" id="all--copy-link" xmlns="http://www.w3.org/2000/svg"><path d="M4.03 19.921a4.931 4.931 0 01-3.62-2.8 4.219 4.219 0 011.005-4.954 110.795 110.795 0 014.927-4.581 5.452 5.452 0 016.234-.561 1.147 1.147 0 01.7 1.028 1.3 1.3 0 01-.6 1.122 1.623 1.623 0 01-1.81.28 1.927 1.927 0 00-1.609-.187 3.251 3.251 0 00-1.006.467c-1.609 1.4-3.117 2.9-4.626 4.3a1.785 1.785 0 00-.6 1.309 1.785 1.785 0 00.6 1.309 2.062 2.062 0 001.408.561 2.061 2.061 0 001.408-.561l2.212-2.057c.1-.094.2-.187.3-.094a6.833 6.833 0 003.62.467l-.2.187-3.821 3.552a5.315 5.315 0 01-3.52 1.4c-.399-.097-.701-.097-1.002-.187zm5.028-6.637c-.2-.093-.4-.28-.6-.374a.9.9 0 01-.4-1.028 1.506 1.506 0 01.9-1.122 2.1 2.1 0 011.508 0 2.139 2.139 0 002.715-.374l4.726-4.393a1.646 1.646 0 00.6-1.589A1.683 1.683 0 0017.4 3.095a1.935 1.935 0 00-2.212.374l-2.413 2.244c-.1.093-.3.187-.4.093a6.471 6.471 0 00-3.519-.467l.2-.187 4.022-3.739a5.21 5.21 0 013.821-1.4 4.933 4.933 0 014.827 4.206 4.379 4.379 0 01-1.307 3.739l-5.128 4.767a5.233 5.233 0 01-3.519 1.309 7.03 7.03 0 01-2.715-.748z" fill="#615b65" data-name="Group 14819"/></symbol><symbol viewBox="0 0 50 50" id="all--coverart-overlay-pause" xmlns="http://www.w3.org/2000/svg"><g data-name="Group 18004" transform="translate(-362 -330)"><circle data-name="Ellipse 1242" cx="25" cy="25" r="25" transform="translate(362 330)" fill="#fcfcfc"/><rect data-name="Rectangle 7884" width="4.412" height="19.118" rx="1" transform="translate(380.382 345.441)"/><rect data-name="Rectangle 7885" width="4.412" height="19.118" rx="1" transform="translate(389.206 345.441)"/></g></symbol><symbol viewBox="0 0 46 46" id="all--coverart-overlay-play" xmlns="http://www.w3.org/2000/svg"><g data-name="Group 18005" transform="translate(-364 -332)"><circle data-name="Ellipse 1242" cx="23" cy="23" r="23" transform="translate(364 332)" fill="#fff"/><g data-name="Exclusion 72"><path data-name="Path 30335" d="M381.985 344.627a.871.871 0 00-.871.872v19.172a.871.871 0 00.871.872.857.857 0 00.542-.206l.008.011 15.685-9.586v-.01a.835.835 0 00.163-1.171.864.864 0 00-.163-.163v-.01l-15.685-9.586-.008.01a.856.856 0 00-.542-.205z" fill="#131415"/></g></g></symbol><symbol viewBox="0 0 15.575 15.208" id="all--darkmode" xmlns="http://www.w3.org/2000/svg"><path data-name="Path 3189" d="M14.529 7.463a3.8 3.8 0 01-.989.113A4.02 4.02 0 0110.6.791L11.335 0l-1.074.057A7.628 7.628 0 009.1.226a5.138 5.138 0 00-3.192 2.488 5.269 5.269 0 00-.65 3.392 3.863 3.863 0 00-.537-.057A3.788 3.788 0 00.933 9.837a1.612 1.612 0 00.028.367 2.863 2.863 0 001.894 5h7.887a2.866 2.866 0 001.866-5.032 5.314 5.314 0 002.4-2.064l.565-.9zM1.668 10.742l.226-.17-.057-.254a3.148 3.148 0 01-.057-.481A2.938 2.938 0 014.721 6.9a3.165 3.165 0 01.989.17c.085.028.141.057.226.085l.057-.113-.028.141a2.108 2.108 0 01.339.2c.057.028.085.057.141.085a.39.39 0 01.113.085c.057.057.141.113.2.17l.085.085c.057.057.113.141.17.2l.057.085c.085.113.141.2.2.283l.226.4.4-.254a1.656 1.656 0 012.12.226 1.759 1.759 0 01.509 1.216v.4l.4.028c.085 0 .17.028.254.028.085.028.17.028.226.057l.085.028h.01a1.986 1.986 0 01-.763 3.816H2.855a2.009 2.009 0 01-2.007-1.996 2.1 2.1 0 01.82-1.583zm7.123-5.908a4.9 4.9 0 004.721 3.618h.088a4.652 4.652 0 01-1.979 1.159.1.1 0 00-.085.028.665.665 0 00-.226-.057 2.8 2.8 0 00-.452-1.131l-.028-.028c0-.028-.028-.028-.028-.057l-.057-.085c-.028-.028-.057-.085-.085-.113l-.028-.028c-.028-.057-.085-.085-.141-.141a2.55 2.55 0 00-.565-.4h-.032a4.394 4.394 0 00-.65-.226 2.785 2.785 0 00-.481-.057 2.675 2.675 0 00-1.046.226 1.416 1.416 0 00-.2-.226l-.057-.057-.252-.249-.085-.085a1.568 1.568 0 00-.226-.17c-.057-.028-.113-.085-.17-.113a.709.709 0 00-.2-.113l-.17-.085c-.028-.028-.085-.028-.141-.057a.285.285 0 00-.085-.028A4.429 4.429 0 019.243 1.1a5.152 5.152 0 00-.452 3.734z"/></symbol><symbol id="all--default-inbox-up-icon" viewBox="0 0 14.2 14.2" xml:space="preserve" xmlns="http://www.w3.org/2000/svg"><style>.st0{fill:#8d00f2}.st1{fill:#fff}</style><path id="Rectangle_4891" class="st0" d="M2 0h10.2c1.1 0 2 .9 2 2v10.2c0 1.1-.9 2-2 2H2c-1.1 0-2-.9-2-2V2C0 .9.9 0 2 0z"/><path class="st1" d="M7 4.2c-.2 0-.3.2-.4.3v5.1c0 .3.2.4.4.4s.4-.2.4-.3V4.6c-.1-.2-.2-.4-.4-.4zM5.5 4.2c-.3 0-.4.1-.6.3-.3.3-.5.7-.5 1.1 0 .4.2.8.5 1.1l.4.4-.4.4c-.3.3-.5.7-.5 1.2 0 .4.2.8.5 1.1.2.2.3.3.6.3h.2c.1 0 .2 0 .3-.1 0 0 .1-.1.1-.3V4.6c0-.1-.1-.3-.2-.4-.1-.1-.3-.1-.4 0zM9.5 6.6c-.2 0-.3.2-.3.3v.4c0 .2.2.4.3.4.2 0 .3-.2.3-.3v-.5c.1-.2-.1-.3-.3-.3zM8.3 5.4c-.1 0-.1 0 0 0-.2 0-.3.2-.3.3v2.8c0 .2.2.4.3.4.2 0 .3-.2.3-.3V5.8c0-.2-.2-.4-.3-.4z"/><path class="st1" d="M7.1 1.4C4 1.4 1.4 4 1.4 7.1s2.6 5.8 5.8 5.8c3.2 0 5.8-2.6 5.8-5.8-.1-3.1-2.7-5.7-5.9-5.7zm0 10.6c-2.7 0-4.9-2.2-4.9-4.9s2.2-4.9 4.9-4.9S12 4.4 12 7.1 9.8 12 7.1 12z"/></symbol><symbol viewBox="0 0 18.849 22.054" id="all--delete" xmlns="http://www.w3.org/2000/svg"><path data-name="Union 38" d="M3.975 21.925a2.52 2.52 0 01-2.436-2.436V5.641h-.9a.606.606 0 01-.641-.569.616.616 0 010-.072.606.606 0 01.569-.641.59.59 0 01.072 0h4.872v-.513A3.858 3.858 0 019.358 0a3.98 3.98 0 012.821 1.154 3.77 3.77 0 011.154 2.821v.513h4.872a.606.606 0 01.641.569.62.62 0 010 .072.605.605 0 01-.567.641.63.63 0 01-.074 0h-.9v13.848a2.52 2.52 0 01-2.436 2.436h-10.9zM2.821 19.49a1.149 1.149 0 001.144 1.154h10.91a1.149 1.149 0 001.154-1.144V5.641H2.822v13.848zM6.796 3.974v.513h5.257v-.513A2.71 2.71 0 009.36 1.281a2.776 2.776 0 00-2.564 2.693zm3.847 12.566v-5.642a.718.718 0 01.641-.769.718.718 0 01.641.77v5.641a.718.718 0 01-.641.77.718.718 0 01-.641-.77zm-3.462 0v-5.642a.718.718 0 01.641-.769.718.718 0 01.641.77v5.641c0 .256 0 .385-.128.513s-.256.256-.385.256c-.513 0-.9-.385-.769-.769z"/></symbol><symbol viewBox="0 0 20.111 16.697" id="all--desktop" xmlns="http://www.w3.org/2000/svg"><path d="M18.24 0H1.87A1.882 1.882 0 00-.01 1.88v9.891a1.883 1.883 0 001.88 1.881h7.584v1.852H5.889a.6.6 0 000 1.2v-.007h8.332a.6.6 0 000-1.2h-3.565v-1.845h7.584a1.883 1.883 0 001.88-1.88V1.88A1.883 1.883 0 0018.24 0zm.58 11.771a.58.58 0 01-.58.58H1.87a.58.58 0 01-.58-.58v-9.89a.581.581 0 01.58-.581h16.37a.58.58 0 01.58.58z"/></symbol><symbol viewBox="0 0 16.7 16.7" id="all--dialog-edit-name" xmlns="http://www.w3.org/2000/svg"><path d="M13.8 8.4c-.3 0-.6.3-.6.6v6c0 .3-.3.6-.6.6H1.8c-.3 0-.6-.3-.6-.6V3c0-.3.3-.6.6-.6H9c.3 0 .6-.3.6-.6s-.3-.6-.6-.6H1.8C.8 1.2 0 2 0 3v12c0 1 .8 1.8 1.8 1.8h10.8c1 0 1.8-.8 1.8-1.8V9c0-.4-.3-.6-.6-.6z"/><path d="M16.1.7c-.9-.9-2.3-.9-3.2 0L5 8.5c-.1.1-.2.2-.2.3l-1.2 3.6c-.1.3.1.6.4.7h.4L8 11.9c.1 0 .2-.1.2-.1l7.9-7.9c.9-.9.9-2.3 0-3.2z"/></symbol><symbol viewBox="0 0 16.002 16.002" id="all--dislike-icon" xmlns="http://www.w3.org/2000/svg"><defs><clipPath id="clip-path"><path id="Path_19677" data-name="Path 19677" d="M8.2.1a8 8 0 108 8 8.033 8.033 0 00-8-8zm-6.886 8A6.885 6.885 0 018.2 1.215a7.029 7.029 0 014.526 1.705l-9.378 10.1A7.115 7.115 0 011.315 8.1zM8.2 14.987a6.507 6.507 0 01-4-1.312l9.313-9.969A6.9 6.9 0 018.2 14.987z" transform="translate(-.2 -.1)"/></clipPath><style>.cls-2{clip-path:url(#clip-path)}</style></defs><g id="dislike-icon" transform="translate(-.2 -.1)"><path id="Path_19675" data-name="Path 19675" d="M8.2.1a8 8 0 108 8 8.033 8.033 0 00-8-8zm-6.886 8A6.885 6.885 0 018.2 1.215a7.029 7.029 0 014.526 1.705l-9.378 10.1A7.115 7.115 0 011.315 8.1zM8.2 14.987a6.507 6.507 0 01-4-1.312l9.313-9.969A6.9 6.9 0 018.2 14.987z"/><g id="Group_8768" data-name="Group 8768" class="cls-2" transform="translate(.2 .1)"><path id="Like" d="M3.6 4.728L3.4 4.4z" transform="translate(-1.301 -1.58)"/></g></g></symbol><symbol viewBox="0 0 21.106 15.014" id="all--download" xmlns="http://www.w3.org/2000/svg"><path d="M17.755 5.795A5.984 5.984 0 0011.847 0h-.004A5.823 5.823 0 006.88 2.802a1.955 1.955 0 00-.892-.139H5.91a3.649 3.649 0 00-3.389 2.453A5.103 5.103 0 00.003 9.79a5.075 5.075 0 004.84 5.225l11.644.004.157-.002a4.615 4.615 0 004.459-4.766 4.625 4.625 0 00-3.348-4.455zm-.512.924a3.615 3.615 0 012.923 3.532A3.694 3.694 0 0116.564 14H4.925a4.128 4.128 0 01-3.833-4.213A4.12 4.12 0 013.2 5.947l.25-.166v-.248a2.559 2.559 0 012.455-1.857h.158a1.987 1.987 0 01.895.22l.42.172.252-.42a4.664 4.664 0 014.187-2.635h.032a4.968 4.968 0 014.897 4.896v.728z"/><path d="M13.392 8.224a.52.52 0 00-.591.085l-1.741 1.74V5.753a.543.543 0 00-.507-.503l-.162.001a.531.531 0 00-.422.506v4.361L8.153 8.302a.522.522 0 00-.59-.083.573.573 0 00-.25.75l2.815 2.825h-.015l.098.087a.39.39 0 00.26.1.395.395 0 00.266-.102l2.743-2.738.152-.153.01-.013a.572.572 0 00-.25-.751z"/></symbol><symbol viewBox="0 0 48.81 34.013" id="all--download-paused" xmlns="http://www.w3.org/2000/svg"><path data-name="Subtraction 1" d="M38.827 34.013H10.543a11.219 11.219 0 01-7.626-3.58A11.059 11.059 0 01.005 22.55c0-4.041 1.829-8.865 5.916-10.535a7.564 7.564 0 017.394-5.547 7.464 7.464 0 012.773.554 13.151 13.151 0 014.76-5.105 12.833 12.833 0 0115.945 1.965 13.186 13.186 0 013.883 9.244v.739a9.8 9.8 0 016.285 4.09A11.371 11.371 0 0148.81 24.4a10.12 10.12 0 01-9.983 9.611zm-12.355-21.5a.557.557 0 00-.589.589v12.943a.557.557 0 00.589.589H30a.557.557 0 00.588-.589V13.1a.557.557 0 00-.588-.585zm-7.06 0a.557.557 0 00-.589.589v12.943a.557.557 0 00.589.589h3.53a.557.557 0 00.589-.589V13.1a.557.557 0 00-.589-.589z"/></symbol><symbol viewBox="0 0 18.014 18.014" id="all--downloaded" xmlns="http://www.w3.org/2000/svg"><path d="M17.331 9.5a3.617 3.617 0 00-2.319-1.51v-.273a4.866 4.866 0 00-1.433-3.411 4.736 4.736 0 00-5.884-.725 4.855 4.855 0 00-1.758 1.88 2.755 2.755 0 00-1.023-.2 2.792 2.792 0 00-2.729 2.046A4.13 4.13 0 000 11.196a4.081 4.081 0 001.077 2.908 4.144 4.144 0 002.814 1.322H14.33l-.001.001a3.735 3.735 0 003.684-3.548 4.265 4.265 0 00-.682-2.379zm-5.437.914l-.14.14-2.322 2.317-.07.07-.07.07a.308.308 0 01-.41 0h.004l-.07-.07-.07-.07-2.318-2.318-.14-.14a.469.469 0 01.205-.615.42.42 0 01.478.07l1.707 1.707V7.548a.433.433 0 01.345-.41h.14a.44.44 0 01.409.41v3.96l1.639-1.638a.42.42 0 01.478-.07.469.469 0 01.205.614z"/></symbol><symbol viewBox="0 0 16.426 16.325" id="all--edit" xmlns="http://www.w3.org/2000/svg"><path data-name="Path 19230" d="M16.126 2.625l-2.4-2.4a.561.561 0 00-.9 0l-11.8 11.8c-.1.1-.1.2-.2.3l-.8 3.2a.618.618 0 00.5.8h.4l3.2-.8c.1 0 .2-.1.3-.2l11.8-11.8a.764.764 0 00.2-.5c-.2-.1-.2-.3-.3-.4zm-3.4 2.4l-9.2 9.2-2 .5.5-2 9.2-9.2zm1.9-2l-1 1-1.5-1.5 1-1z"/></symbol><symbol viewBox="0 0 33.3 23.5" id="all--embed-icon-new" xmlns="http://www.w3.org/2000/svg"><g fill="#625c66"><path d="M8.6 20.4c-.4 0-.9-.2-1.2-.5l-6.3-7.7c-.5-.6-.5-1.4 0-1.9l6.4-7.8c.5-.6 1.5-.7 2.1-.2.6.6.7 1.5.2 2.2l-5.6 6.7 5.6 6.7c.5.6.4 1.6-.2 2.1-.3.2-.6.4-1 .4zM24.7 20.4c-.3 0-.7-.1-1-.3-.6-.6-.7-1.6-.2-2.2l5.6-6.7-5.6-6.7c-.5-.7-.4-1.6.2-2.2.7-.5 1.6-.4 2.2.2l6.3 7.7c.5.6.5 1.4 0 1.9l-6.3 7.7c-.3.4-.8.6-1.2.6zM13.5 20.9c-.2 0-.4 0-.5-.1-.8-.3-1.2-1.2-.9-1.9l6.2-16c.3-.8 1.2-1.2 1.9-.9.8.3 1.2 1.2.9 1.9l-6.2 16c-.3.7-.8 1-1.4 1z"/></g></symbol><symbol viewBox="0 0 24.64 24.64" id="all--expand" xmlns="http://www.w3.org/2000/svg"><path d="M23.59 14.44a1.08 1.08 0 00-1.1 1.1v5.2l-7.13-7.13a1.05 1.05 0 00-1.53 0 1.09 1.09 0 000 1.53l7.31 7.31h-5.61a1.1 1.1 0 000 2.19h8a1.08 1.08 0 001.1-1.1v-8a1 1 0 00-1.04-1.1zM3.94 2.19h5.21a1.08 1.08 0 001.09-1.1A1.08 1.08 0 009.15 0H1.09A1.08 1.08 0 000 1.09v8a1.08 1.08 0 001.09 1.1 1.08 1.08 0 001.1-1.1V3.54l7.26 7.27a1.16 1.16 0 001.58 0 1.07 1.07 0 000-1.53z"/></symbol><symbol viewBox="0 0 55.004 55.004" id="all--facebook" xmlns="http://www.w3.org/2000/svg"><path d="M34.729 28.507l.785-5.942h-5.663v-4.134a2.082 2.082 0 012.076-2.088h3.681V11h-5.137a6.567 6.567 0 00-6.562 6.572v4.993H19v5.942h4.909v14.551h5.942V28.507z"/></symbol><symbol viewBox="0 0 15 15" id="all--falling" xmlns="http://www.w3.org/2000/svg"><path d="M8.773 8.008a.618.618 0 01.069-.1c.247-.25.493-.5.746-.747a1.309 1.309 0 011.856 1.846c-.22.229-.448.451-.673.676l-2.39 2.393a1.3 1.3 0 01-1.944 0Q4.92 10.559 3.406 9.04a1.255 1.255 0 01-.335-1.344 1.243 1.243 0 011.056-.9 1.258 1.258 0 011.126.381q.374.372.745.748a.601.601 0 01.067.1l.046-.029V4.327a1.307 1.307 0 012.613-.073v.009c.007.76 0 .089 0 .85v2.856L8.767 8"/></symbol><symbol viewBox="0 0 36 36" id="all--friends-icon" xmlns="http://www.w3.org/2000/svg"><g transform="translate(-199.184 -556.528)"><ellipse cx="212.3" cy="565.9" rx="6.6" ry="7.3"/><ellipse cx="227.1" cy="568.4" rx="4.6" ry="5.2"/><path d="M223.7 575.8c-2.7.1 3.1 2.6 1.7 10 0 0 7.1.7 8.8-2.3s.2-7.7-4.4-7.7c-4.9 0-3.5-.1-6.1 0zM222.4 579.8c-.6-1.8-2.4-2.9-4-3.5-1.4-.5-2.9-.7-4.3-.7H210c-1.5 0-2.9.2-4.3.7-1.6.6-3.4 1.6-4 3.5-1.2 3.7-2.6 9.6 5.6 9.4h9.6c8.1.1 6.7-5.7 5.5-9.4z"/></g></symbol><symbol viewBox="0 0 17.188 13.52" id="all--friends-on" xmlns="http://www.w3.org/2000/svg"><path data-name="Union 130" d="M0 13.519v-2.242a4 4 0 012.921-3.8 3.9 3.9 0 004.348 0 3.933 3.933 0 012.853 3.8v2.242zm11.006-2.242v-.476A4.865 4.865 0 008.9 6.793a3.492 3.492 0 011.7-1.087 3.384 3.384 0 001.971.611 3.536 3.536 0 001.969-.611 3.589 3.589 0 012.651 3.532v2.039zM2.173 4.144a2.989 2.989 0 012.922-2.921 2.9 2.9 0 012.921 2.921 2.9 2.9 0 01-2.921 2.921 2.9 2.9 0 01-2.922-2.921zm7.746-1.495a2.653 2.653 0 012.649-2.65 2.653 2.653 0 012.649 2.65 2.652 2.652 0 01-2.649 2.65 2.652 2.652 0 01-2.649-2.65z"/></symbol><symbol viewBox="0 0 20.271 21.398" id="all--gift" xmlns="http://www.w3.org/2000/svg"><path d="M18.71 4.948h-3.596c.037-.026.078-.05.113-.077a3.24 3.24 0 001.371-2.505 2.321 2.321 0 00-2.271-2.37c-.072 0-.142 0-.16.004-1.858 0-2.84 1.597-3.559 2.765-.12.198-.248.44-.377.687l-.11.21-.032-.07a8.733 8.733 0 00-.426-.828c-.673-1.1-1.69-2.762-3.5-2.762h-.002a2.328 2.328 0 00-2.483 2.15 2.356 2.356 0 00-.005.234 3.222 3.222 0 001.35 2.469c.042.032.092.062.137.093H1.562A1.55 1.55 0 00.027 6.51v2.137a1.55 1.55 0 001.535 1.562h.565v9.505a1.732 1.732 0 001.716 1.744h12.585a1.732 1.732 0 001.716-1.744v-9.505h.565a1.55 1.55 0 001.535-1.562V6.51a1.55 1.55 0 00-1.535-1.562zm-7.149-.802c.112-.215.222-.426.326-.598.714-1.16 1.335-2.048 2.28-2.048l.128-.003a.817.817 0 01.576.252.807.807 0 01.228.566 1.74 1.74 0 01-.755 1.343 2.996 2.996 0 01-.42.266 11.763 11.763 0 01-2.544.565c.06-.11.12-.225.181-.343zM6.036 1.498c.024 0 .047 0 .07.002.95 0 1.568.887 2.28 2.05a7.352 7.352 0 01.346.681l.124.261a11.228 11.228 0 01-2.465-.546 3.122 3.122 0 01-.487-.304 1.737 1.737 0 01-.73-1.384.832.832 0 01.862-.76zM16.67 19.714a.243.243 0 01-.24.244H3.842a.243.243 0 01-.241-.244v-9.505h13.067zM1.562 8.709v-2.26L18.7 6.51l.01 2.199z"/></symbol><symbol viewBox="0 0 33 33" id="all--glide-arrow-next" xmlns="http://www.w3.org/2000/svg"><defs><clipPath id="a"><path data-name="Rectangle 7675" stroke-width="2" d="M0 0h33v33H0z"/></clipPath></defs><g data-name="Group 17155" clip-path="url(#a)"><g data-name="Arrow"><g data-name="Path 30006"><path data-name="Path 30455" d="M14.928 25.883a1.1 1.1 0 01-.777-1.875l7.427-7.428-7.427-7.428a1.1 1.1 0 011.553-1.553l8.2 8.2a1.1 1.1 0 010 1.554l-8.2 8.2a1.1 1.1 0 01-.776.33z"/></g></g></g></symbol><symbol viewBox="0 0 33 33" id="all--glide-arrow-previous" xmlns="http://www.w3.org/2000/svg"><defs><clipPath id="a"><path data-name="Rectangle 7675" stroke-width="2" d="M0 0h33v33H0z"/></clipPath></defs><g data-name="Group 17155" transform="rotate(180 16.5 16.5)" clip-path="url(#a)"><g data-name="Arrow"><g data-name="Path 30006"><path data-name="Path 30455" d="M14.928 25.883a1.1 1.1 0 01-.777-1.875l7.427-7.428-7.427-7.428a1.1 1.1 0 011.553-1.553l8.2 8.2a1.1 1.1 0 010 1.554l-8.2 8.2a1.1 1.1 0 01-.776.33z"/></g></g></g></symbol><symbol viewBox="0 0 24.639 24.639" id="all--help" xmlns="http://www.w3.org/2000/svg"><g data-name="Group 9108"><path data-name="Union 52" d="M.1 12.32a12.219 12.219 0 1112.22 12.219A12.227 12.227 0 01.1 12.32zm1.54 0A10.7 10.7 0 1012.32 1.64 10.709 10.709 0 001.64 12.32zm9.187 5.357a1.29 1.29 0 111.291 1.291 1.315 1.315 0 01-1.291-1.291zm.347-3.325a3.375 3.375 0 011.191-2.729c.1-.1.249-.2.347-.3a2.624 2.624 0 001.34-1.936c0-.893-.695-1.438-1.836-1.438a1.927 1.927 0 00-1.835.942c-.2.3-.347.5-.695.5a.943.943 0 01-.993-.942c.1-.943 1.24-2.333 3.622-2.333 2.282 0 3.822 1.191 3.822 2.927a4.414 4.414 0 01-2.037 3.325 2.514 2.514 0 00-1.093 2.48c0 .149 0 .6-.942.6-.642-.004-.891-.148-.891-1.096z"/></g></symbol><symbol viewBox="0 0 59.049 59.049" id="all--hide" xmlns="http://www.w3.org/2000/svg"><path d="M11.285 41.39a1 1 0 001.247-1.564 27.366 27.366 0 01-2.305-2.06l-7.398-7.398 7.629-7.629c7.334-7.333 18.003-9.836 27.839-6.534a1.004 1.004 0 001.267-.63 1.002 1.002 0 00-.63-1.267c-10.562-3.545-22.016-.857-29.89 7.016L0 30.368l8.812 8.812a29.52 29.52 0 002.473 2.21zM50.237 21.325a29.373 29.373 0 00-4.394-3.616 1 1 0 00-1.115 1.661 27.342 27.342 0 014.094 3.369l7.398 7.398-7.629 7.629c-7.385 7.385-18.513 9.882-28.352 6.356a1 1 0 10-.675 1.883 28.97 28.97 0 009.776 1.693c7.621 0 15.124-2.977 20.665-8.518l9.043-9.043z"/><path d="M30.539 41.774c-2.153 0-4.251-.598-6.07-1.73a1 1 0 10-1.056 1.698 13.463 13.463 0 007.126 2.032c7.444 0 13.5-6.056 13.5-13.5a13.44 13.44 0 00-2.275-7.502 1 1 0 00-1.662 1.112 11.447 11.447 0 011.937 6.39c0 6.342-5.159 11.5-11.5 11.5zM30.539 18.774c2.065 0 4.089.553 5.855 1.6a1 1 0 001.019-1.721 13.49 13.49 0 00-6.875-1.879c-7.444 0-13.5 6.056-13.5 13.5 0 2.084.462 4.083 1.374 5.941a1 1 0 001.796-.88 11.392 11.392 0 01-1.17-5.06c.001-6.342 5.16-11.501 11.501-11.501zM54.621 5.567a.999.999 0 00-1.414 0l-46.5 46.5a.999.999 0 101.414 1.414l46.5-46.5a.999.999 0 000-1.414z"/></symbol><symbol viewBox="0 0 32.006 26.257" id="all--install" xmlns="http://www.w3.org/2000/svg"><path fill="none" d="M4.8 23.056H1.067v.4c0 2.059 1.675 1.733 3.734 1.733h22.4c2.059 0 3.733.325 3.733-1.733v-.4H4.8zM24.926 14a7 7 0 01-7-7c0-.532.064-1.049.177-1.547H5.2a1.606 1.606 0 00-1.6 1.608v14.928h24.805v-8.921a6.953 6.953 0 01-3.479.932zM28.405 21.989h1.066v.001h-1.066z"/><path d="M31.474 21.989h-2.002v.001h-1.066v-.001H3.6V7.061a1.606 1.606 0 011.6-1.608h12.902A7.04 7.04 0 0017.926 7a7 7 0 007 7 6.95 6.95 0 003.479-.932v8.921h1.066v-9.672A6.981 6.981 0 0031.925 7a6.998 6.998 0 00-13.49-2.614H5.2a2.674 2.674 0 00-2.667 2.675V21.99h-2a.533.533 0 00-.533.533v.934c0 2.646 2.153 2.801 4.8 2.801h22.406c2.646 0 4.8-.153 4.8-2.801v-.934-.001a.533.533 0 00-.532-.533zM21.593 7.733a.5.5 0 01.707 0l2.189 2.189v-6.4a.5.5 0 011 0v6.401l2.189-2.189a.5.5 0 01.707.707l-3.042 3.042a.52.52 0 01-.354.147.51.51 0 01-.354-.147L21.593 8.44a.499.499 0 010-.707zm9.342 15.724c0 2.059-1.675 1.733-3.733 1.733h-22.4c-2.059 0-3.734.325-3.734-1.733v-.4h29.867v.4z"/></symbol><symbol viewBox="0 0 28 28" id="all--invitepeople" xmlns="http://www.w3.org/2000/svg"><defs><clipPath id="a"><path d="M0 0h28v28H0z"/></clipPath></defs><g clip-path="url(#a)"><g data-name="Group 17336" transform="translate(220.914 53.883)"><circle data-name="Ellipse 948" cx="4.693" cy="4.693" r="4.693" transform="translate(-215.916 -49.883)"/><path data-name="Path 30600" d="M-208.627-36.045a7.945 7.945 0 011.185-4.174c-.089-.04-.17-.092-.261-.128a6.827 6.827 0 01-7.171-.081 7.8 7.8 0 00-5.04 7.29v2.432a1.246 1.246 0 001.24 1.245h13.508a7.988 7.988 0 01-3.461-6.584z"/><path data-name="Path 30601" d="M-200.627-42.629a6.584 6.584 0 00-6.584 6.584 6.584 6.584 0 006.584 6.584 6.584 6.584 0 006.584-6.584 6.584 6.584 0 00-6.584-6.584zm3.9 7a.843.843 0 01-.582.294h-2.412v2.569a.894.894 0 01-.295.673.849.849 0 01-.553.2h-.066a.846.846 0 01-.581-.293.849.849 0 01-.2-.619v-2.531h-2.484a.857.857 0 01-.822-.786.847.847 0 01.2-.619.847.847 0 01.582-.294h2.518v-2.281a.9.9 0 01.295-.672.845.845 0 01.619-.2.844.844 0 01.581.293.845.845 0 01.2.619v2.244h2.41a.849.849 0 01.784.782.854.854 0 01-.197.617z"/></g></g></symbol><symbol viewBox="0 0 17 15.67" id="all--like" xmlns="http://www.w3.org/2000/svg"><path data-name="Path 19592" d="M8.5 15.67l-.517-.517a34.053 34.053 0 00-1.7-1.33C3.77 12.048 0 9.387 0 5.174A5.189 5.189 0 015.174 0 5.033 5.033 0 018.5 1.257 5.033 5.033 0 0111.826 0 5.189 5.189 0 0117 5.174c0 4.213-3.77 6.874-6.283 8.648-.591.443-1.183.887-1.7 1.33zM5.174.961A4.211 4.211 0 00.961 5.174c0 3.7 3.548 6.209 5.913 7.909.591.37 1.109.813 1.7 1.257a14.429 14.429 0 011.7-1.257c2.365-1.626 5.839-4.139 5.839-7.835A4.259 4.259 0 0011.9 1.035a4.313 4.313 0 00-3.03 1.257l-.37.3-.3-.37A4.313 4.313 0 005.174.961z"/></symbol><symbol viewBox="0 0 17.498 17.498" id="all--liked" xmlns="http://www.w3.org/2000/svg"><path d="M12.169 1.26a5.182 5.182 0 00-3.36 1.19 5.343 5.343 0 00-7.069.28A5.244 5.244 0 00.2 6.44c0 4.27 3.85 6.929 6.369 8.749a10.815 10.815 0 011.68 1.33l.56.56.49-.56a16.435 16.435 0 011.75-1.33c2.52-1.82 6.369-4.48 6.369-8.749a5.228 5.228 0 00-5.249-5.18z"/></symbol><symbol viewBox="0 0 92.82 92.82" id="all--listener-arrow" xmlns="http://www.w3.org/2000/svg"><path d="M46.41 0a46.41 46.41 0 1046.41 46.41A46.41 46.41 0 0046.41 0zm0 85.33a38.92 38.92 0 1138.92-38.92 38.93 38.93 0 01-38.92 38.92z"/><path d="M39.99 46.41l15.42-16.32a3.75 3.75 0 00-5.45-5.15L32.6 43.3a2.36 2.36 0 00-.42.36 3.64 3.64 0 00-.87 1.4 4.73 4.73 0 00-.24 1.35 3.71 3.71 0 001.17 2.75l.36.3 17.3 18.27a3.75 3.75 0 105.51-5.09z"/></symbol><symbol viewBox="0 0 24 24" id="all--live-radio-block" xmlns="http://www.w3.org/2000/svg"><defs><clipPath id="a"><path d="M0 0h24v24H0z"/></clipPath></defs><g data-name="Group 17237" clip-path="url(#a)"><path data-name="Union 276" d="M12.003 21.813a9.4 9.4 0 11.188 0zm5.064-3.16l-.037-.035L5.667 7.255a1.169 1.169 0 01-.238-.344 8.2 8.2 0 00-1.7 5.09 8.328 8.328 0 0013.342 6.652zM7.333 5.594l11.359 11.363.025.027A8.314 8.314 0 0012.002 3.72a8.189 8.189 0 00-5 1.639 1.177 1.177 0 01.331.235z"/></g></symbol><symbol viewBox="0 0 24 24" id="all--live-radio-kick" xmlns="http://www.w3.org/2000/svg"><defs><clipPath id="a"><path d="M0 0h24v24H0z"/></clipPath></defs><g data-name="Group 17238" clip-path="url(#a)"><path data-name="Path 30153" d="M7.074 13.161h.01a1.307 1.307 0 00.011-2.613h-.014a1.306 1.306 0 00-.021 2.612z"/><path data-name="Path 30154" d="M21.846 9.748a.623.623 0 00-.735-.151L17.68 11.23l-1.4-2.607a.623.623 0 00-1.167.215l-.25 1.964-1.6-.582a.622.622 0 00-.781.839l.851 1.889a.623.623 0 001.137-.508l-.244-.547.95.346a.623.623 0 00.83-.507l.1-.8.756 1.412a.622.622 0 00.816.268l1.993-.949-1.412 2.2a.622.622 0 00.2.87l.727.44-1.95.565a.625.625 0 10.347 1.2l3.314-.96a.622.622 0 00.149-1.13l-1.4-.844 2.249-3.5a.625.625 0 00-.049-.756z"/><path data-name="Path 30155" d="M17.238 13.957a1.34 1.34 0 00-.777-.745l-.02-.009a2.146 2.146 0 00-2.817 1.03l-.022.031a1.45 1.45 0 01-.2-.036 22.2 22.2 0 00-2.254-.875c-.305-.106-.62-.216-.893-.318V3.492a.623.623 0 00-.623-.623H2.399a.623.623 0 000 1.245h6.61v15.772h-6.61a.623.623 0 000 1.245h7.233a.623.623 0 00.623-.623v-2.812l.8.311.1.038c.941.365 1.914.742 2.566 1.025a1.483 1.483 0 00.585.134 1.165 1.165 0 001.058-.771c.344-.7.707-1.406 1.063-2.1q.319-.62.635-1.241a1.449 1.449 0 00.176-1.135zm-6.984.4l.484.17a20.5 20.5 0 012.19.853l.062.026.078.021a1.344 1.344 0 001.636-.575l.034-.064a.9.9 0 011.2-.449l.079.04a2.133 2.133 0 01-.068.147q-.313.619-.631 1.235c-.354.688-.72 1.4-1.074 2.12l-.023.046h-.007a82.435 82.435 0 00-2.619-1.046l-.026-.004c-.474-.184-.927-.36-1.316-.514zm1.241 2.706z"/></g></symbol><symbol viewBox="0 0 24 24" id="all--live-radio-leave" xmlns="http://www.w3.org/2000/svg"><defs><clipPath id="a"><path d="M0 0h24v24H0z"/></clipPath></defs><g data-name="Group 17232" clip-path="url(#a)"><path data-name="Path 30159" d="M14.05 6.878a1.029 1.029 0 00-.224.716 1.006 1.006 0 00.335.671l3.154 2.818H8.721a1.063 1.063 0 100 2.125h8.661l-3.22 2.885a1.006 1.006 0 00-.335.671 1.029 1.029 0 00.224.716.917.917 0 001.364.112l5.188-4.653a1.051 1.051 0 000-1.521l-5.189-4.652a.917.917 0 00-.693-.248.939.939 0 00-.649.358"/><path data-name="Path 30160" d="M14.518 20.203a1 1 0 00-1.051-.947H5.349a.514.514 0 01-.224-.04V4.824a.514.514 0 01.224-.04h8.118a1.014 1.014 0 001.062-.958 1.014 1.014 0 00-1.062-.957H5.349a2.157 2.157 0 00-2.348 1.875v14.512a2.143 2.143 0 002.348 1.875h8.118a1.006 1.006 0 001.051-.928"/></g></symbol><symbol style="margin:auto" viewBox="0 0 100 100" preserveAspectRatio="xMidYMid" display="block" id="all--loading-ellipsis" xmlns="http://www.w3.org/2000/svg"><circle cx="84" cy="50" r="10" fill="#fff"><animate attributeName="r" repeatCount="indefinite" dur="0.5555555555555556s" calcMode="spline" keyTimes="0;1" values="10;0" keySplines="0 0.5 0.5 1" begin="0s"/><animate attributeName="fill" repeatCount="indefinite" dur="2.2222222222222223s" calcMode="discrete" keyTimes="0;0.25;0.5;0.75;1" values="#ffffff;#ffffff;#ffffff;#ffffff;#ffffff" begin="0s"/></circle><circle cx="16" cy="50" r="10" fill="#fff"><animate attributeName="r" repeatCount="indefinite" dur="2.2222222222222223s" calcMode="spline" keyTimes="0;0.25;0.5;0.75;1" values="0;0;10;10;10" keySplines="0 0.5 0.5 1;0 0.5 0.5 1;0 0.5 0.5 1;0 0.5 0.5 1" begin="0s"/><animate attributeName="cx" repeatCount="indefinite" dur="2.2222222222222223s" calcMode="spline" keyTimes="0;0.25;0.5;0.75;1" values="16;16;16;50;84" keySplines="0 0.5 0.5 1;0 0.5 0.5 1;0 0.5 0.5 1;0 0.5 0.5 1" begin="0s"/></circle><circle cx="50" cy="50" r="10" fill="#fff"><animate attributeName="r" repeatCount="indefinite" dur="2.2222222222222223s" calcMode="spline" keyTimes="0;0.25;0.5;0.75;1" values="0;0;10;10;10" keySplines="0 0.5 0.5 1;0 0.5 0.5 1;0 0.5 0.5 1;0 0.5 0.5 1" begin="-0.5555555555555556s"/><animate attributeName="cx" repeatCount="indefinite" dur="2.2222222222222223s" calcMode="spline" keyTimes="0;0.25;0.5;0.75;1" values="16;16;16;50;84" keySplines="0 0.5 0.5 1;0 0.5 0.5 1;0 0.5 0.5 1;0 0.5 0.5 1" begin="-0.5555555555555556s"/></circle><circle cx="84" cy="50" r="10" fill="#fff"><animate attributeName="r" repeatCount="indefinite" dur="2.2222222222222223s" calcMode="spline" keyTimes="0;0.25;0.5;0.75;1" values="0;0;10;10;10" keySplines="0 0.5 0.5 1;0 0.5 0.5 1;0 0.5 0.5 1;0 0.5 0.5 1" begin="-1.1111111111111112s"/><animate attributeName="cx" repeatCount="indefinite" dur="2.2222222222222223s" calcMode="spline" keyTimes="0;0.25;0.5;0.75;1" values="16;16;16;50;84" keySplines="0 0.5 0.5 1;0 0.5 0.5 1;0 0.5 0.5 1;0 0.5 0.5 1" begin="-1.1111111111111112s"/></circle><circle cx="16" cy="50" r="10" fill="#fff"><animate attributeName="r" repeatCount="indefinite" dur="2.2222222222222223s" calcMode="spline" keyTimes="0;0.25;0.5;0.75;1" values="0;0;10;10;10" keySplines="0 0.5 0.5 1;0 0.5 0.5 1;0 0.5 0.5 1;0 0.5 0.5 1" begin="-1.6666666666666665s"/><animate attributeName="cx" repeatCount="indefinite" dur="2.2222222222222223s" calcMode="spline" keyTimes="0;0.25;0.5;0.75;1" values="16;16;16;50;84" keySplines="0 0.5 0.5 1;0 0.5 0.5 1;0 0.5 0.5 1;0 0.5 0.5 1" begin="-1.6666666666666665s"/></circle></symbol><symbol style="margin:auto;background:0 0" viewBox="0 0 100 100" preserveAspectRatio="xMidYMid" display="block" id="all--loading-search" xmlns="http://www.w3.org/2000/svg"><path d="M27.07 84.836A40 40 0 0069.54 17.04a44 40 32.064 01-42.47 67.796" fill="rgba(NaN, NaN, NaN, 0)"><animateTransform attributeName="transform" type="rotate" dur="1s" repeatCount="indefinite" keyTimes="0;1" values="0 50 52;360 50 52"/></path></symbol><symbol viewBox="0 0 12.699 16.017" id="all--lock" xmlns="http://www.w3.org/2000/svg"><g data-name="Group 6"><path data-name="Path 1" d="M1.755 16.017A1.758 1.758 0 010 14.263v-6.51A1.758 1.758 0 011.755 6h1.308V3.216a3.287 3.287 0 016.573 0V6h1.308A1.758 1.758 0 0112.7 7.753v6.509a1.758 1.758 0 01-1.755 1.755zm0-9.062a.8.8 0 00-.8.8v6.509a.8.8 0 00.8.8h9.189a.8.8 0 00.8-.8V7.753a.8.8 0 00-.8-.8zm4.595-6a2.3 2.3 0 00-2.33 2.261V6h4.659V3.216A2.3 2.3 0 006.35.957z"/><path data-name="Path 2" d="M6.35 13.018a.478.478 0 01-.479-.477v-1.489l-.073-.048a1.021 1.021 0 111.1 0l-.073.048v1.487a.48.48 0 01-.475.479z"/></g></symbol><symbol viewBox="0 0 13.684 14.591" id="all--logout" xmlns="http://www.w3.org/2000/svg"><g data-name="Group 9077"><path data-name="Path 19750" d="M10.003 10.99a.484.484 0 01-.373-.16.527.527 0 01-.16-.373.484.484 0 01.16-.373l2.214-2.214h-8.59a.533.533 0 010-1.067h8.589L9.629 4.536a.527.527 0 01-.16-.373.484.484 0 01.16-.373.527.527 0 01.373-.16.484.484 0 01.373.16l3.146 3.146a.527.527 0 01.16.373.484.484 0 01-.16.373l-3.145 3.146a.527.527 0 01-.373.162z"/><path data-name="Path 19751" d="M.533 14.591A.535.535 0 010 14.057V.533A.535.535 0 01.533 0H6.4a.533.533 0 010 1.067H1.094V13.5H6.4a.533.533 0 010 1.067H.533z"/></g></symbol><symbol viewBox="0 0 13.835 14.211" id="all--lyrics" xmlns="http://www.w3.org/2000/svg"><g data-name="Group 8581"><path data-name="Union 39" d="M.336 14.211c-.186 0-.336-.226-.336-.45 0-.262.15-.488.336-.488H13.5c.188 0 .339.189.339.45s-.151.488-.339.488zM3 11.55c-.187 0-.338-.151-.338-.451s.151-.486.338-.486h7.8c.187 0 .338.187.338.45 0 .3-.15.488-.338.488zM.336 8.887C.15 8.887 0 8.7 0 8.437s.15-.488.336-.488H13.5c.188 0 .339.188.339.45s-.151.488-.339.488zm0-2.625C.15 6.262 0 6.037 0 5.814c0-.264.15-.489.336-.489H13.5c.188 0 .339.188.339.451s-.151.486-.339.486zM3 3.6c-.187 0-.338-.226-.338-.451 0-.262.151-.487.338-.487h7.8c.187 0 .338.187.338.45s-.15.488-.338.488zM3 .938c-.187 0-.338-.187-.338-.45S2.812 0 3 0h7.8c.187 0 .338.187.338.451s-.15.487-.338.487z"/></g></symbol><symbol viewBox="0 0 55.004 55.004" id="all--mail" xmlns="http://www.w3.org/2000/svg"><path d="M27.67 31.155l-3.574-3.064-10.213 8.68a3.63 3.63 0 001.532.512h24.511a1.95 1.95 0 001.277-.511l-9.958-8.681z"/><path d="M41.202 17.368a1.95 1.95 0 00-1.276-.511h-24.51a1.95 1.95 0 00-1.278.511L27.67 29.112zM13.372 18.644v16.851l9.958-8.425-9.958-8.426zM32.011 27.325l9.958 8.426V18.644l-9.958 8.681z"/></symbol><symbol viewBox="0 0 13.5 23.746" id="all--mobile" xmlns="http://www.w3.org/2000/svg"><path data-name="Path 682" d="M8.354 2.431H5.145a.431.431 0 00-.4.4.431.431 0 00.4.4h3.208a.431.431 0 00.4-.4.431.431 0 00-.399-.4z"/><path data-name="Path 683" d="M0 21.006v.468a2.175 2.175 0 002.072 2.272h9.356a2.175 2.175 0 002.072-2.273V2.272A2.175 2.175 0 0011.428 0H2.072A2.175 2.175 0 000 2.272v13.387M3.074 0h.735M6.75 22.275a.617.617 0 01-.6-.668.659.659 0 01.6-.668.672.672 0 010 1.337zm5.881-8.709V19.6H.735V2.272A1.411 1.411 0 012 .8h9.356a1.365 1.365 0 011.27 1.47v11.296z"/></symbol><symbol viewBox="0 0 13.882 3.47" id="all--more" xmlns="http://www.w3.org/2000/svg"><g data-name="Group 8484"><circle data-name="Ellipse 112" cx="1.735" cy="1.735" r="1.735"/><circle data-name="Ellipse 113" cx="1.735" cy="1.735" r="1.735" transform="translate(5.206)"/><circle data-name="Ellipse 114" cx="1.735" cy="1.735" r="1.735" transform="translate(10.411)"/></g></symbol><symbol viewBox="0 0 21.1 17.399" id="all--music-videos" xmlns="http://www.w3.org/2000/svg"><path data-name="Path 19190" d="M13.9 9.6L9.5 6.9c-.1-.1-.2-.1-.4-.1a.773.773 0 00-.8.7v5.4a.713.713 0 00.8.7.367.367 0 00.3-.1l4.4-2.7a.67.67 0 00.4-.7c.1-.2-.1-.4-.3-.5zm-4.5 2.8V8l3.6 2.2z"/><path data-name="Path 19191" d="M19.3 0H1.8A1.792 1.792 0 000 1.8v13.8a1.792 1.792 0 001.8 1.8h17.5a1.792 1.792 0 001.8-1.8V1.8A1.859 1.859 0 0019.3 0zm-16 1.3h1.9L7 3.1H4.9zm5.3 0h1.9l1.8 1.8h-2.1zm5.4 0h1.9l1.8 1.8h-2.1zm-12.4 15a.43.43 0 01-.4-.4V4.4H20v11.5a.43.43 0 01-.4.4z"/></symbol><symbol viewBox="0 0 24 24" id="all--mute" xmlns="http://www.w3.org/2000/svg"><defs><clipPath id="a"><path d="M0 0h24v24H0z"/></clipPath></defs><g data-name="Group 17263" fill="#fff" clip-path="url(#a)"><path data-name="Path 29932" d="M19.839 12.042a.843.843 0 00-.843-.843h-.042a.843.843 0 00-.843.843 6.111 6.111 0 01-12.222 0 .843.843 0 00-.843-.843h-.042a.843.843 0 00-.843.843 7.785 7.785 0 00.308 2.174.843.843 0 00.12.25 7.824 7.824 0 002.5 3.632l-.02.02a7.725 7.725 0 004.092 1.681v1.3H8.586a.843.843 0 100 1.686h6.827a.843.843 0 000-1.686h-2.57v-1.3a7.725 7.725 0 004.082-1.681l-.02-.02a7.824 7.824 0 002.5-3.632.843.843 0 00.12-.25 7.785 7.785 0 00.314-2.174z"/><path data-name="Path 29933" d="M7.578 12.042a4.424 4.424 0 001.926 3.649 4.387 4.387 0 001.59.679l.032.007.086.016.07.012.1.015.093.012.055.006.135.013h.021l.132.007H12.198l.132-.007h.021l.135-.013.055-.006.093-.012.1-.015.07-.012.086-.016.032-.007a4.387 4.387 0 001.59-.679 4.424 4.424 0 001.925-3.649V5.636a4.4 4.4 0 00-.39-1.816.84.84 0 00-.084-.257 4.394 4.394 0 00-3.7-2.345h-.508a4.394 4.394 0 00-3.7 2.345.839.839 0 00-.084.257 4.4 4.4 0 00-.393 1.816v5.184z"/></g></symbol><symbol viewBox="0 0 34 34" id="all--muted" xmlns="http://www.w3.org/2000/svg"><defs><clipPath id="a"><path d="M0 0h34v34H0z"/></clipPath></defs><g data-name="Group 17323" clip-path="url(#a)"><g data-name="Group 17250" fill="#fff"><path data-name="Path 30593" d="M26.859 20.679c.042-.113.1-.219.137-.334a1.144 1.144 0 00.161-.345 10.731 10.731 0 00.418-3 1.164 1.164 0 00-1.164-1.164h-.058A1.164 1.164 0 0025.189 17a8.391 8.391 0 01-.173 1.695z"/><path data-name="Path 30594" d="M21.468 29.506h-3.551v-1.8a10.657 10.657 0 004.954-1.84l-1.631-1.755a8.382 8.382 0 01-4.5 1.318 8.437 8.437 0 01-8.423-8.431 1.164 1.164 0 00-1.164-1.164h-.058a1.164 1.164 0 00-1.164 1.164 10.8 10.8 0 00.426 3 1.144 1.144 0 00.161.345 10.8 10.8 0 003.459 5.014l-.027.027a10.665 10.665 0 005.64 2.322v1.8h-3.548a1.163 1.163 0 00-1.206 1.121 1.164 1.164 0 001.119 1.206.781.781 0 00.087 0h9.427a1.165 1.165 0 001.121-1.206 1.165 1.165 0 00-1.122-1.121z"/></g><g data-name="Line 840"><path data-name="Path 30595" d="M27.577 27.804a1.6 1.6 0 01-1.181-.514L5.431 4.711a1.615 1.615 0 01.082-2.28 1.612 1.612 0 012.279.085l20.966 22.579a1.613 1.613 0 01-.082 2.279 1.608 1.608 0 01-1.099.43z" fill="#fff"/></g><g data-name="Group 17251" fill="#fff"><path data-name="Path 30596" d="M22.855 16.367V8.155a6.048 6.048 0 00-.539-2.506 1.146 1.146 0 00-.116-.355 6.069 6.069 0 00-5.1-3.24h-.077l-.084-.01H16.4a6.068 6.068 0 00-4.583 2.434z"/><path data-name="Path 30597" d="M10.648 12.701v4.3a6.109 6.109 0 002.663 5.036 6.044 6.044 0 002.179.94l.044.01.118.023.1.016.135.021.129.018.076.008.187.018h.029l.182.01h.523l.182-.01h.029l.187-.018.076-.008.129-.018.135-.021.1-.016.118-.023.044-.01a5.98 5.98 0 001.614-.618z"/></g></g></symbol><symbol viewBox="0 0 18.518 18.41" id="all--mymusic-selected" xmlns="http://www.w3.org/2000/svg"><path d="M18.517.76a.749.749 0 00-.282-.595.76.76 0 00-.641-.145L6.97 2.54a.75.75 0 00-.577.73v9.16c-.092-.048-.175-.093-.277-.144l-.026-.012a4.546 4.546 0 00-2.94-.186c-2.108.57-3.457 2.412-3 4.139a3.306 3.306 0 003.092 2.196c.09 0 .18-.003.271-.01a4.673 4.673 0 001.243-.168 3.867 3.867 0 003.056-3.062.735.735 0 00.081-.326v-.484V3.862l9.11-2.16-.112 9.213c-.09-.047-.174-.092-.275-.143l-.025-.011a4.54 4.54 0 00-2.942-.187c-2.107.57-3.457 2.412-2.998 4.139a3.305 3.305 0 003.09 2.196c.09 0 .18-.003.272-.01a4.71 4.71 0 001.242-.168 3.88 3.88 0 003.126-3.457 4.023 4.023 0 00-.01-.76z"/></symbol><symbol viewBox="0 0 46 46" id="all--nav-explore" xmlns="http://www.w3.org/2000/svg"><g data-name="Group 17275"><g data-name="Explore Tab - light"><g data-name="Group 15365"><path data-name="Ellipse 533" d="M22.977 6.805a16.217 16.217 0 1016.217 16.217A16.235 16.235 0 0022.977 6.805m0-2.76A18.977 18.977 0 114 23.022 18.977 18.977 0 0122.977 4.045z"/><g data-name="Group 15093"><g data-name="Group 15092"><path data-name="Path 26584" d="M29.02 18.292l-12.865 1.68a.528.528 0 00-.143 1.006l6.174 2.521.002 6.633a.528.528 0 00.987.245l6.373-11.295a.528.528 0 00-.528-.782z"/><path data-name="Path 26584 - Outline" d="M15.157 18.913a1.918 1.918 0 01.818-.311l12.864-1.681a1.908 1.908 0 011.908 2.829l-6.372 11.303a1.908 1.908 0 01-3.566-.887l-.001-.04-.003-5.7-5.342-2.186a1.908 1.908 0 01-.306-3.327zm12.353.967l-7.982 1.042 4.037 1.65.002 4.298z"/></g></g></g></g><path data-name="Rectangle 7711" fill="none" d="M0 0h46v46H0z"/></g></symbol><symbol viewBox="0 0 46 46" id="all--nav-library" xmlns="http://www.w3.org/2000/svg"><defs><clipPath id="a"><path data-name="Rectangle 7609" d="M0 0h46v46H0z"/></clipPath></defs><g data-name="Group 17232"><g data-name="Group 16984" clip-path="url(#a)"><g data-name="Group 16983"><path data-name="Path 30328" d="M39.923 10.752L21.006 6.246a2.428 2.428 0 00-2.913 1.8l-1.454 6.1h12.3a4.045 4.045 0 014.036 4.037v15.9l1.323.316a2.566 2.566 0 00.563.066 2.424 2.424 0 002.36-1.865l4.5-18.923a2.43 2.43 0 00-1.798-2.925z"/><path data-name="Path 30329" d="M28.929 15.983H9.484a2.2 2.2 0 00-2.2 2.2v19.444a2.2 2.2 0 002.2 2.2h19.445a2.2 2.2 0 002.2-2.2V18.18a2.2 2.2 0 00-2.2-2.197z"/></g></g></g></symbol><symbol viewBox="0 0 46 46" id="all--nav-mood" xmlns="http://www.w3.org/2000/svg"><defs><clipPath id="a"><path data-name="Rectangle 7610" d="M0 0h46v46H0z"/></clipPath></defs><g data-name="Group 17231"><g data-name="Group 16986" clip-path="url(#a)"><path data-name="Path 30330" d="M35.066 13.946a16.243 16.243 0 00-11.578-4.942h-1.783a16.243 16.243 0 00-11.445 4.948c-5.168 5.609-5.351 14.011-5.19 17.361l.008 4.1a4.122 4.122 0 004.049 4.2h.981a4.124 4.124 0 004.12-4.041v-6.745a4.125 4.125 0 00-4.047-4.2h-.92a4.207 4.207 0 00-1.545.331 19.34 19.34 0 014.234-9.462 13.753 13.753 0 0110.288-4.2 14.583 14.583 0 0111.119 4.305 18.771 18.771 0 014.388 9.407 4.639 4.639 0 00-1.432-.262h-.837a4.126 4.126 0 00-4.12 4.041v6.621a4.125 4.125 0 004.047 4.2h.981a4.129 4.129 0 004.122-4.053v-4.287c.079-7.344-1.853-13.493-5.44-17.322z"/></g></g></symbol><symbol viewBox="0 0 46 46" id="all--nav-podcast" xmlns="http://www.w3.org/2000/svg"><defs><clipPath id="a"><path data-name="Rectangle 7607" d="M0 0h46v46H0z"/></clipPath></defs><g data-name="Group 17234"><g data-name="Group 16977" clip-path="url(#a)"><g data-name="Group 16976"><path data-name="Path 30324" d="M18.774 30.011a7.345 7.345 0 003.843 1.061 1.271 1.271 0 00.187 0h.032a7.89 7.89 0 007.889-7.866V12.55a7.918 7.918 0 00-15.835 0v10.6a7.764 7.764 0 002.224 5.562 8.838 8.838 0 001.66 1.299z"/><path data-name="Path 30325" d="M33.505 16.691h-.1a1.059 1.059 0 00-1.1 1.015v5.562a9.473 9.473 0 01-9.451 9.489 9.575 9.575 0 01-9.538-9.489v-5.47a1.077 1.077 0 00-.28-.765 1.052 1.052 0 00-.738-.338h-.216a1.341 1.341 0 00-1.322 1.143v5.323a11.727 11.727 0 0010.4 11.708l.2.025v5.785h-3.91a1.11 1.11 0 000 2.219h10.6a1.11 1.11 0 100-2.219h-4.132v-5.793l.208-.023a11.608 11.608 0 0010.4-11.7v-5.365a1.071 1.071 0 00-1.021-1.107z"/></g></g></g></symbol><symbol viewBox="0 0 36 36" id="all--navBar_upload_default" xmlns="http://www.w3.org/2000/svg"><path d="M10.8 12.3c.3 0 .6-.1.9-.4l5.2-5.4v20.8c0 .7.6 1.2 1.3 1.1.7 0 1.2-.6 1.1-1.3V6.6l5.1 5.4c.2.3.5.4.9.4.3 0 .6-.1.9-.4.2-.2.4-.6.4-.9 0-.3-.1-.7-.4-.9L19 2.6c-.2-.3-.5-.4-.9-.4-.3 0-.6.1-.9.4L10 10.2c-.2.2-.4.6-.4.9 0 .3.1.7.4.9.1.2.5.3.8.3z"/><path d="M35 18.8v-.1c0-.7-.6-1.2-1.3-1.2-.7 0-1.2.6-1.2 1.3v12.8H3.3V18.8v-.1c0-.7-.6-1.2-1.3-1.2-.7 0-1.2.6-1.2 1.3V33c0 .7.6 1.3 1.3 1.3h31.7c.3 0 .6-.1.9-.4.2-.2.3-.6.3-.9V18.8z"/></symbol><symbol viewBox="0 0 65.46 100" id="all--new-arrow" xmlns="http://www.w3.org/2000/svg"><g data-name="Layer 2"><path d="M65.43 49.4a7.43 7.43 0 00-2.64-5.23L12.33 1.75A7.5 7.5 0 000 8.14a7.43 7.43 0 002.65 5.1L46.41 50 2.68 86.75a7.5 7.5 0 109.65 11.49l50.46-42.42a7.48 7.48 0 002.64-6.42z" data-name="Layer 1"/></g></symbol><symbol viewBox="0 0 13.6 13.6" id="all--new-explicit-icon-filled" xmlns="http://www.w3.org/2000/svg"><g data-name="Group 17493"><path d="M10.2 12.6H3.4A2.433 2.433 0 011 10.2V3.4A2.433 2.433 0 013.4 1h6.8a2.433 2.433 0 012.4 2.4v6.8a2.5 2.5 0 01-2.4 2.4z"/><path data-name="explicit-2 - Outline" d="M10.2 12.6a2.5 2.5 0 002.4-2.4V3.4A2.433 2.433 0 0010.2 1H3.4A2.433 2.433 0 001 3.4v6.8a2.433 2.433 0 002.4 2.4h6.8m0 1H3.4A3.446 3.446 0 010 10.2V3.4A3.446 3.446 0 013.4 0h6.8a3.446 3.446 0 013.4 3.4v6.877a3.722 3.722 0 01-1.03 2.308A3.282 3.282 0 0110.2 13.6z" fill="#fff"/><path data-name="explicit-2" d="M4.1 3v7.8h5.4V9.2H6.1V7.6h3.1V6.2H6.1V4.6h3.3V3z" fill="#fff"/></g></symbol><symbol viewBox="0 0 89.14 89.14" id="all--new-live-badge" xmlns="http://www.w3.org/2000/svg"><path d="M44.57 0C19.99 0 0 20.41 0 45.5a45.71 45.71 0 0016.56 35.4 3.001 3.001 0 103.82-4.63A39.71 39.71 0 016 45.5C6 23.72 23.3 6 44.57 6S83.1 23.72 83.1 45.5a39.52 39.52 0 01-15.35 31.57 3 3 0 103.66 4.75A45.46 45.46 0 0089.1 45.5C89.1 20.41 69.1 0 44.57 0z"/><path d="M44.64 18.24c-14.54 0-26.35 11.43-26.35 25.47a25 25 0 0010.54 20.37 3 3 0 003.52-4.86 19.06 19.06 0 01-8.06-15.51c0-10.74 9.13-19.47 20.35-19.47S65 32.97 65 43.71a19.24 19.24 0 01-8.68 15.94A3 3 0 0058 65.14a2.92 2.92 0 001.66-.51A25.24 25.24 0 0071 43.71c0-14.04-11.82-25.47-26.36-25.47z"/><path d="M44.85 37.14a8.5 8.5 0 00-3 16.45v32.55a3 3 0 006 0V53.59a8.5 8.5 0 00-3-16.45z"/></symbol><symbol viewBox="0 0 23 15" id="all--newentry" xmlns="http://www.w3.org/2000/svg"><path d="M1.62 11V4.335h1.358l2.553 3.72h.064v-3.72h1.611V11H5.858L3.295 7.235h-.059V11zM13.012 11H8.446V4.335h4.566v1.372H10.18v1.318h2.651v1.26H10.18v1.343h2.832zM15.15 11l-1.69-6.665h1.822l.796 4.336h.073l1.05-4.336h1.397l1.05 4.336h.078l.786-4.336h1.821L20.643 11h-1.635l-1.08-4.058h-.058L16.786 11z"/></symbol><symbol viewBox="0 0 11.117 13.473" id="all--next" xmlns="http://www.w3.org/2000/svg"><path data-name="Union 87" d="M.885.135L8.502 5.32V1.334a1.308 1.308 0 112.615 0v10.831a1.308 1.308 0 11-2.615 0V8.152L.885 13.336a.461.461 0 01-.339.137.482.482 0 01-.545-.544V.544A.481.481 0 01.546 0a.456.456 0 01.339.135z"/></symbol><symbol viewBox="0 0 15 15" id="all--nochange" xmlns="http://www.w3.org/2000/svg"><path d="M8.008 6.037a.617.617 0 01-.1-.069c-.25-.247-.5-.493-.747-.746a1.309 1.309 0 011.846-1.856c.229.22.451.448.676.673l2.393 2.39a1.3 1.3 0 010 1.944Q10.559 9.89 9.04 11.404a1.255 1.255 0 01-1.344.335 1.243 1.243 0 01-.9-1.056 1.258 1.258 0 01.381-1.126q.372-.374.748-.745a.601.601 0 01.1-.067l-.029-.046H4.327a1.307 1.307 0 01-.073-2.613h.009c.76-.007.089 0 .85 0h2.856L8 6.043"/></symbol><symbol viewBox="0 0 36 36" id="all--notification" xmlns="http://www.w3.org/2000/svg"><path d="M30.2 25.6c-.2-.4-.4-.7-.7-.9-1-1.4-1.4-2.8-1.4-4.3V16c0-2.7-1.1-5.2-3-7.1-1.2-1.2-2.8-2.1-4.4-2.5v-.1c0-.7-.3-1.4-.8-1.9s-1.2-.8-2-.8c-.7 0-1.4.3-1.9.8s-.8 1.2-.8 2v.1c-4.3 1.3-7.3 5.2-7.2 9.7v4.4c0 1.4-.5 2.9-1.4 4.2-.6.5-1 1.2-1 2 0 .9.9 1.7 1.8 1.7h21.3c1 0 1.7-.8 1.7-1.8 0-.5-.1-.8-.2-1.1zM15.3 29.5h-.8c.1.7.4 1.4 1 2 .3.3.7.6 1.2.8.4.1.8.2 1.2.2h.3c.9 0 1.7-.4 2.4-1 .5-.5.9-1.2.9-2h-6.2z"/></symbol><symbol viewBox="0 0 41 41" id="all--pause-shape" xmlns="http://www.w3.org/2000/svg"><g data-name="Group 9896"><path data-name="Path 21746" d="M18.13 10.796h-3.745c-.325-.026-.604.295-.624.716a.99.99 0 000 .092v17.8a.72.72 0 00.553.81.455.455 0 00.071 0h3.746c.325.025.604-.295.624-.717a.99.99 0 000-.093v-17.8a.72.72 0 00-.553-.809.455.455 0 00-.071 0"/><path data-name="Path 21747" d="M26.788 10.796h-3.745c-.325-.026-.605.295-.625.716a.984.984 0 000 .092v17.8a.72.72 0 00.553.81.455.455 0 00.072 0h3.745c.325.025.604-.295.624-.717a.99.99 0 000-.093v-17.8a.72.72 0 00-.552-.809.455.455 0 00-.072 0"/></g></symbol><symbol viewBox="0 0 40.845 40.819" id="all--pausehover-2" xmlns="http://www.w3.org/2000/svg"><path fill="#FFF" data-name="Path 30573" d="M39.22 12.5a21.5 21.5 0 00-4.381-6.469 19.009 19.009 0 00-6.448-4.4 20.407 20.407 0 10-7.885 39.19 20.153 20.153 0 007.885-1.633 21.37 21.37 0 006.448-4.4 19.1 19.1 0 004.381-6.469 20.066 20.066 0 000-15.829zM18.532 29.719a.7.7 0 01-.608.743h-3.988a.75.75 0 01-.572-.842V11.1a.7.7 0 01.608-.741h3.988a.745.745 0 01.572.838zm8.968-.1a.418.418 0 010 .1.706.706 0 01-.608.743h-3.986a.76.76 0 01-.576-.842V11.1a.706.706 0 01.61-.741h3.99a.74.74 0 01.569.838z"/></symbol><symbol viewBox="0 0 16.4 13.6" id="all--people" xmlns="http://www.w3.org/2000/svg"><path d="M9.5 13.532H.7c-.1 0-.3-.1-.4-.2-.1 0-.2-.2-.2-.3v-1.9c0-1.8 1.1-3.3 2.8-3.8l.2-.1.2.1c.5.3 1 .5 1.6.5.6 0 1.1-.2 1.5-.5l.1-.2.3.1c1.3.4 2.8 1.4 3.1 5.8 0 .2-.2.5-.4.5zm-4.6-6.4h-.2c-1.4 0-2.6-1.1-2.6-2.5v-.1c0-1.4 1.1-2.6 2.6-2.7 1.4 0 2.6 1.1 2.7 2.6v.1c0 .7-.2 1.3-.7 1.8-.5.5-1.1.8-1.8.8zM16.3 10.732h-5.7s0-2.7-1.9-3.7c-.1 0-.2-.1-.2-.2 0 0 0-.1-.1-.1l-.2-.3.2-.3c.5-.5 1.1-.8 1.7-1l.3-.1.1.1c.4.3.9.5 1.4.5.5 0 1-.1 1.4-.4l.2-.2.3.1c1.6.4 2.6 1.9 2.7 3.5v1.7c-.1.1-.1.3-.2.4zm-4.5-5.7c-.6 0-1.2-.3-1.6-.7-.4-.5-.7-1.1-.7-1.8v-.3c0-.6.3-1.1.7-1.5.5-.5 1.1-.7 1.8-.7.6 0 1.2.2 1.7.7.5.4.7 1.1.7 1.7v.2c0 .7-.3 1.3-.7 1.8-.5.3-1.1.6-1.9.6z"/></symbol><symbol viewBox="0 0 41 41.001" id="all--play" xmlns="http://www.w3.org/2000/svg"><path data-name="Exclusion 51" d="M20.5 41a20.41 20.41 0 117.964-1.612A20.306 20.306 0 0120.5 41zm-4.655-30.606a.861.861 0 00-.859.86v18.913a.86.86 0 00.859.86.848.848 0 00.534-.2l.008.01 15.474-9.457-.008-.009a.825.825 0 000-1.315l.008-.01-15.474-9.459-.008.01a.842.842 0 00-.534-.203z"/></symbol><symbol viewBox="0 0 25.8 30.9" id="all--play-shape" xmlns="http://www.w3.org/2000/svg"><path d="M8.6 7c-.4 0-.7.3-.7.7v15.5c0 .4.3.7.7.7.2 0 .3-.1.4-.2L21.7 16c.3-.2.4-.6.1-.9l-.1-.1L9 7.2c-.1-.1-.3-.2-.4-.2z"/></symbol><symbol viewBox="0 0 26 26" id="all--player-forward-30" xmlns="http://www.w3.org/2000/svg"><defs><clipPath id="a"><path d="M0 0h26v26H0z"/></clipPath></defs><g clip-path="url(#a)"><path data-name="Union 142" d="M1.05 13.115A12.01 12.01 0 0113 1.072a11.818 11.818 0 017.582 2.733V1.79a.942.942 0 111.885 0v4.977h-4.942a.947.947 0 010-1.893h1.725A10.169 10.169 0 0013 2.744a10.37 10.37 0 000 20.74 10.184 10.184 0 007.144-2.919 10.349 10.349 0 003.131-7.08v-.044l.011-.043a1.717 1.717 0 00.041-.349c.014-.355.112-.693.733-.769h.054a.836.836 0 01.833.837 11.95 11.95 0 11-23.9 0zm12.857 2.787a2.476 2.476 0 01-.648-1.769v-1.674a2.476 2.476 0 01.648-1.769 2.363 2.363 0 013.335 0 2.468 2.468 0 01.653 1.769v1.674a2.475 2.475 0 01-.657 1.773 2.191 2.191 0 01-1.665.684 2.184 2.184 0 01-1.666-.688zm.707-4.531a1.547 1.547 0 00-.365 1.089v1.674a1.547 1.547 0 00.365 1.089 1.369 1.369 0 001.926 0 1.547 1.547 0 00.365-1.089v-1.675a1.547 1.547 0 00-.365-1.089 1.369 1.369 0 00-1.926 0zM8.55 16.014a1.958 1.958 0 01-.688-1.521h.988a1.109 1.109 0 00.41.819 1.4 1.4 0 00.922.306 1.249 1.249 0 00.814-.261 1 1 0 000-1.481 1.437 1.437 0 00-.9-.256h-.5v-.846h.5a1.1 1.1 0 00.76-.252.867.867 0 00.293-.657.809.809 0 00-.288-.644 1.056 1.056 0 00-.711-.247 1.219 1.219 0 00-.837.292 1.006 1.006 0 00-.333.8h-1a1.9 1.9 0 01.635-1.5 2.231 2.231 0 011.535-.564 2.064 2.064 0 011.444.5 1.673 1.673 0 01.554 1.3 1.555 1.555 0 01-.225.814 1.627 1.627 0 01-.558.571 1.565 1.565 0 01.7.585 1.648 1.648 0 01.261.927 1.733 1.733 0 01-.6 1.363 2.252 2.252 0 01-1.543.527 2.417 2.417 0 01-1.633-.575z"/></g></symbol><symbol viewBox="0 0 26 26" id="all--player-rewind-15" xmlns="http://www.w3.org/2000/svg"><defs><clipPath id="a"><path d="M0 0h26v26H0z"/></clipPath></defs><g clip-path="url(#a)"><path data-name="Union 143" d="M1.05 13.115a.836.836 0 01.833-.837h.054c.621.076.719.414.733.769a1.665 1.665 0 00.042.349l.01.043v.044a10.35 10.35 0 003.132 7.08 10.18 10.18 0 007.143 2.919 10.37 10.37 0 000-20.74 10.164 10.164 0 00-6.242 2.132h1.72a.947.947 0 010 1.893H3.534V1.79a.942.942 0 111.884 0v2.015a11.82 11.82 0 017.581-2.733 12.043 12.043 0 010 24.085A12.009 12.009 0 011.05 13.115zm12.046 2.929a1.732 1.732 0 01-.675-1.332h1.017a1.145 1.145 0 00.428.657 1.212 1.212 0 00.76.252 1.144 1.144 0 00.864-.347 1.247 1.247 0 000-1.692 1.124 1.124 0 00-.84-.338 1.164 1.164 0 00-1.116.657l-.891-.279.684-3.51h3.042v.963h-2.265l-.3 1.53a1.69 1.69 0 011-.279 1.869 1.869 0 011.458.621 2.282 2.282 0 01.558 1.584 1.946 1.946 0 01-.616 1.481 2.212 2.212 0 01-1.58.581 2.311 2.311 0 01-1.528-.549zm-2.763.459v-5.412H9.05l.756-.981h1.521v6.39z"/></g></symbol><symbol viewBox="0 0 17 15.2" id="all--playlist" xmlns="http://www.w3.org/2000/svg"><path d="M16.5 0c-.3 0-.5.2-.5.4V10c-.6-.5-1.5-.8-2.4-.8-.4 0-.8.1-1.3.2-2.1.6-3.4 2.3-3 3.9.3 1.2 1.6 2 3.2 2 .4 0 .9-.1 1.3-.2 1.7-.5 3.1-1.8 3.1-3.2.1-.2.1-.7.1-.8V.4c0-.2-.2-.4-.5-.4zm-3.1 14c-.3.1-.5.1-.8.1h-.4c-.9-.1-1.6-.6-1.8-1.3-.1-.5.1-1 .5-1.4.4-.5 1-.8 1.7-.9.3-.1.6-.1.9-.1 1.2 0 2.1.5 2.2 1.3.2.8-.8 2-2.3 2.3zM.6 1.7h12.8c.3 0 .6-.3.6-.6s-.3-.6-.6-.6H.6c-.3.1-.6.3-.6.7s.3.5.6.5z"/><path d="M.6 6.2h12.8c.3 0 .6-.3.6-.6s-.3-.6-.6-.6H.6c-.3.1-.6.3-.6.6s.3.6.6.6zM7.2 9.5H.6c-.3 0-.6.3-.6.6s.3.6.6.6h6.6c.3 0 .6-.3.6-.6s-.3-.6-.6-.6zM7.2 14H.6c-.3 0-.6.3-.6.6s.3.6.6.6h6.6c.3 0 .6-.3.6-.6s-.3-.6-.6-.6z"/></symbol><symbol viewBox="0 0 14.239 14.239" id="all--playlist-inbox-up-icon" xmlns="http://www.w3.org/2000/svg"><g data-name="Group 11959"><g data-name="Group 11891"><g data-name="Group 7567"><rect data-name="Rectangle 4892" width="14.239" height="14.239" rx="2" fill="#5c5cff"/></g></g><g data-name="playlist"><path data-name="Rectangle 244" fill="none" d="M1.664 2.448h10.534v10.534H1.664z"/><g data-name="Playlist"><g data-name="Group 91"><path data-name="Path 142" d="M2.795 3.726a.473.473 0 01-.111-.308.472.472 0 01.111-.308.328.328 0 01.258-.136h7.124q.345 0 .345.444t-.345.444H3.053a.327.327 0 01-.258-.136zm-.111 2.132a.472.472 0 01.111-.308.327.327 0 01.258-.136h7.124q.345 0 .345.444 0 .42-.345.419H3.053q-.369 0-.369-.419zm4.412 2.12a.652.652 0 01.074.3.7.7 0 01-.074.321.242.242 0 01-.222.123H2.98a.241.241 0 01-.222-.123.477.477 0 01-.074-.321.426.426 0 01.074-.3.242.242 0 01.222-.123h3.894a.242.242 0 01.222.123zm0 2.44a.652.652 0 01.074.3.652.652 0 01-.074.3.21.21 0 01-.222.148H2.98a.209.209 0 01-.222-.148.656.656 0 01-.074-.3.655.655 0 01.074-.3.209.209 0 01.222-.148h3.894a.21.21 0 01.222.148zm5.1-7.444v5.842a3 3 0 01-.049.468 1.654 1.654 0 01-.531 1.084 2.659 2.659 0 01-1.245.715 2.516 2.516 0 01-.739.1 2.229 2.229 0 01-1.22-.321 1.35 1.35 0 01-.629-.863 1.453 1.453 0 01.308-1.343 2.571 2.571 0 011.392-.9 2.289 2.289 0 011.874.2V2.977q0-.32.419-.321t.422.318z" fill="#fff"/></g></g></g></g></symbol><symbol viewBox="0 0 18.263 18.252" id="all--playnext" xmlns="http://www.w3.org/2000/svg"><path d="M15.507 1.7a1.5 1.5 0 011.096.482.94.94 0 01.249.731l-.006.057v11.805a1.338 1.338 0 01-2.675 0V3.04A1.342 1.342 0 0115.507 1.7m-14.101.413l10.878 6.2-.063.043-.208.142-.329.225-.436.298-.53.363-.612.418-.677.463-.731.5-.77.526-.796.544-.808.552-.806.55-.791.542-.763.52-.72.493-.663.453-.594.406-.51.349-.071.048V2.113M.804.483A.645.645 0 00.47.576a.642.642 0 00-.265.554v15.44a.853.853 0 00.353.724.657.657 0 00.342.109h.024a.603.603 0 00.336-.102l.178-.122.302-.206.413-.283.51-.348.594-.406.664-.454.72-.492.762-.52.791-.542.806-.55.808-.553.796-.544.77-.526.73-.5.678-.463.611-.417.531-.363.437-.298.328-.225.208-.142.073-.05v5.479a2.538 2.538 0 002.538 2.537 2.538 2.538 0 002.538-2.538V3.027a2.14 2.14 0 00-.567-1.664A2.693 2.693 0 0015.51.5a2.54 2.54 0 00-2.54 2.537v4.287L1.204.616 1.175.6A.71.71 0 00.857.486Q.83.483.804.483z"/></symbol><symbol viewBox="0 0 11.33 13.732" id="all--previous" xmlns="http://www.w3.org/2000/svg"><path data-name="Union 88" d="M10.428 13.595L2.665 8.31v4.063a1.332 1.332 0 01-2.665 0V1.333a1.332 1.332 0 112.665 0v4.09L10.428.14a.472.472 0 01.347-.14.491.491 0 01.555.555v12.623a.49.49 0 01-.555.554.47.47 0 01-.347-.137z"/></symbol><symbol id="all--profile-inbox-up-icon" viewBox="0 0 14.2 14.2" xml:space="preserve" xmlns="http://www.w3.org/2000/svg"><style>.st0{fill:#27d398}.st1{fill:#fff}</style><g id="Group_7567" transform="translate(34.035 520.712)"><path id="Rectangle_4892" class="st0" d="M-32-520.7h10.2c1.1 0 2 .9 2 2v10.2c0 1.1-.9 2-2 2H-32c-1.1 0-2-.9-2-2v-10.2c0-1.1.9-2 2-2z"/></g><path class="st1" d="M8.8 6.8c.7-.4 1.1-1.2 1.1-2.1 0-1.4-1.1-2.5-2.5-2.5S4.9 3.3 4.9 4.7c0 .8.4 1.6 1.1 2-1.6.6-2.3 2.1-2.3 3.6.1 2.1 7.4 1.9 7.4 0V10c0-1.4-.9-2.6-2.3-3.2z"/></symbol><symbol viewBox="0 0 15.5 16.5" id="all--queue" xmlns="http://www.w3.org/2000/svg"><path d="M15.3 2.2l-.9-.6-1.3-.8c-.5-.3-.9-.6-1.4-.8-.2 0-.4 0-.5.1-.1.1-.2.2-.2.4v4.2c0 .1 0 .2.1.2.1.2.4.3.6.1.4-.2.7-.4 1.1-.6l1.2-.8c.4-.2.8-.5 1.2-.7.1 0 .1-.1.1-.1.2-.3.2-.5 0-.6zM13.8 15H.6c-.3 0-.6.4-.6.8s.3.7.6.7h13.2c.3 0 .6-.3.6-.7-.1-.4-.3-.8-.6-.8zM13.8 9.5H.6c-.3 0-.6.4-.6.8s.3.7.6.7h13.2c.3 0 .6-.3.6-.7-.1-.4-.3-.8-.6-.8zM.6 5.5h7.8c.3 0 .6-.3.6-.7 0-.4-.3-.8-.6-.8H.6c-.3 0-.6.3-.6.8s.3.7.6.7z"/></symbol><symbol viewBox="0 0 22 20.841" id="all--radio" xmlns="http://www.w3.org/2000/svg"><path d="M20 4.832h-2.6l-6.9-4.7a.66.66 0 00-.6-.1.85.85 0 00-.5.3.775.775 0 00.2 1l5.1 3.4H2a2.006 2.006 0 00-2 2v12a2.006 2.006 0 002 2h18a2.006 2.006 0 002-2v-12a1.988 1.988 0 00-2-1.9zm.5 2v12a.472.472 0 01-.442.5.48.48 0 01-.058 0H2a.472.472 0 01-.5-.442.48.48 0 010-.058v-12a.472.472 0 01.442-.5.48.48 0 01.058 0h18a.472.472 0 01.5.442.48.48 0 010 .058z"/><path d="M8.265 9.732h-3.9a.736.736 0 00-.8.8v.022a.789.789 0 00.8.778H8.287a.789.789 0 00.778-.8v-.022a.789.789 0 00-.8-.778zM8.265 12.232h-3.9a.736.736 0 00-.8.8v.022a.789.789 0 00.8.778H8.287a.789.789 0 00.778-.8v-.022a.789.789 0 00-.8-.778zM8.265 14.732h-3.9a.736.736 0 00-.8.8v.022a.789.789 0 00.8.778H8.287a.789.789 0 00.778-.8v-.022a.789.789 0 00-.8-.778zM15 8.832a4 4 0 104 4 4.012 4.012 0 00-4-4zm2.5 4.048a2.476 2.476 0 01-2.5 2.452h-.048a2.476 2.476 0 01-2.452-2.5v-.048a2.476 2.476 0 012.5-2.452h.048a2.476 2.476 0 012.452 2.5v.048z"/></symbol><symbol viewBox="0 0 18.4 11.4" id="all--rearrange" xmlns="http://www.w3.org/2000/svg"><path d="M17.7 10H.7a.7.7 0 100 1.4h17a.7.7 0 100-1.4zM.7 1.4h17a.7.7 0 100-1.4H.7a.7.7 0 100 1.4zM17.7 5H.7a.7.7 0 100 1.4h17a.7.7 0 100-1.4z"/></symbol><symbol viewBox="0 0 13.321 14.321" id="all--recent-search" xmlns="http://www.w3.org/2000/svg"><path d="M5.708 2.625a.381.381 0 10-.761.04v2.662a.381.381 0 00.381.381h2.663a.373.373 0 00.039 0 .381.381 0 00-.039-.761H5.708V2.664a.38.38 0 000-.039z"/><path d="M12.968 13.26l-4-4c-.01-.009-.022-.012-.032-.02a5.332 5.332 0 10-7.414-7.66V.38a.381.381 0 10-.761 0v2.283a.381.381 0 00.381.38h2.283l-.003-.002a.381.381 0 100-.761h-1.51A4.518 4.518 0 11.76 5.327a.381.381 0 00-.761 0 5.334 5.334 0 005.327 5.328l-.001.001a5.323 5.323 0 002.838-.834.494.494 0 00.097.146l4 4a.5.5 0 00.707-.707z"/></symbol><symbol viewBox="0 0 512 512" id="all--refresh-stories-icon" xmlns="http://www.w3.org/2000/svg"><path d="M384 352l96-109.3h-66.1C407.1 141.8 325 64 223.2 64 117.8 64 32 150.1 32 256s85.8 192 191.2 192c43.1 0 83.8-14.1 117.7-40.7l7.5-5.9-43.2-46.2-6.2 4.6c-22.1 16.3-48.3 24.9-75.8 24.9-70.6 0-128.1-57.7-128.1-128.7 0-71 57.5-128.7 128.1-128.7 66.4 0 120.7 50 127.4 115.3h-74.1L384 352z"/></symbol><symbol id="all--remove" viewBox="0 0 39.6 39.6" xml:space="preserve" xmlns="http://www.w3.org/2000/svg"><style>.st0{fill:none}</style><g id="Ellipse_688"><circle class="st0" cx="-712.2" cy="-335.2" r="17.2" transform="translate(732 355)"/><path d="M-712.2-315.4c-10.8 0-19.8-8.9-19.8-19.8 0-10.8 8.9-19.8 19.8-19.8s19.8 8.9 19.8 19.8c0 10.8-9 19.8-19.8 19.8zm0-37c-9.5 0-17.2 7.7-17.2 17.2s7.7 17.2 17.2 17.2 17.2-7.7 17.2-17.2-7.7-17.2-17.2-17.2z" transform="translate(732 355)"/></g><path d="M21.7 19.8l5.5-5.3c.5-.5.5-1.4 0-1.9s-1.4-.5-1.9 0l-5.5 5.3-5.3-5.3c-.5-.5-1.4-.5-1.9 0s-.5 1.4 0 1.9l5.3 5.3-5.5 5.3c-.5.5-.5 1.4 0 1.9.2.4.5.4.9.4s.7-.2.9-.4l5.5-5.3L25 27c.2.2.5.4.9.4s.7-.2.9-.4c.5-.5.5-1.4 0-1.9l-5.1-5.3z"/></symbol><symbol viewBox="0 0 14.7 10.6" id="all--repeat" xmlns="http://www.w3.org/2000/svg"><path d="M10.9 1.6h-.1C8.7 1.6 7 3.2 7 5.3c0 1.7-1.4 3-3 3h-.2c-1.6 0-3-1.3-3-3s1.4-3 3-3h2.1l-.9.9c-.1.1-.1.2-.1.3 0 .1 0 .2.1.3.1.1.2.1.3.1.1 0 .2-.1.3-.1l1.6-1.5c0-.2.1-.3.1-.4 0-.1-.1-.2-.1-.3L5.6.1C5.5 0 5.4 0 5.3 0c-.1 0-.2.1-.3.1-.1.1-.1.2-.1.3 0 .1.1.2.1.3l.9.9h-2-.1C1.7 1.6 0 3.2 0 5.3.1 7.4 1.7 9 3.8 9h.1C6 9 7.7 7.4 7.7 5.3c0-1.6 1.4-3 3-3h.1c1.6 0 3 1.3 3 3s-1.4 3-3 3h-2l.9-.9c.1-.1.1-.2.1-.3 0-.1 0-.2-.1-.3-.1-.1-.4-.2-.5 0L7.6 8.4c-.1.1-.1.1-.1.3 0 .1.1.2.1.3l1.5 1.5c.1.1.2.1.3.1.1 0 .2 0 .3-.1.1-.1.1-.2.1-.3 0-.1 0-.2-.1-.3L8.8 9h2.1c2.1 0 3.8-1.7 3.8-3.8 0-2-1.7-3.6-3.8-3.6z"/></symbol><symbol viewBox="0 0 19.997 24.188" id="all--report-problem" xmlns="http://www.w3.org/2000/svg"><path d="M19.255-.005H5.865a.218.218 0 00-.06.01l-.033.003a.773.773 0 00-.335.177L2.823 2.829.22 5.407l-.048.047a.752.752 0 00-.16.332l-.004.026A.23.23 0 000 5.865v17.581a.742.742 0 00.742.742h.002l18.512-.006a.745.745 0 00.742-.744V.738a.743.743 0 00-.743-.743zM2.566 5.187l2.621-2.621v2.612zm15.934-3.7v21.224H1.49V6.678l4.426-.02a.744.744 0 00.742-.743l.019-4.428z"/><path d="M10.002 16.244h.002a.934.934 0 00.934-.935v-7.15a.934.934 0 000-.215.947.947 0 00-1.883.204v7.15a.947.947 0 00.947.946zM9.998 18.908h.006a1.007 1.007 0 000-2.014H10a1.007 1.007 0 00-.002 2.014z"/></symbol><symbol viewBox="0 0 15 15" id="all--rising" xmlns="http://www.w3.org/2000/svg"><path d="M6.037 7.504a.618.618 0 01-.069.1c-.247.25-.493.5-.746.747a1.309 1.309 0 01-1.856-1.846c.22-.229.448-.451.673-.676l2.39-2.393a1.3 1.3 0 011.944 0q1.517 1.517 3.031 3.036a1.255 1.255 0 01.335 1.344 1.243 1.243 0 01-1.056.9 1.258 1.258 0 01-1.126-.381q-.374-.372-.745-.748a.6.6 0 01-.067-.1l-.046.029v3.669a1.307 1.307 0 01-2.613.073v-.009c-.007-.76 0-.089 0-.85V7.543l-.043-.031"/></symbol><symbol viewBox="0 0 16 10.4" id="all--scrub" xmlns="http://www.w3.org/2000/svg"><path d="M14.6 2.5l-1 1c-.1.1-.1.2-.1.3 0 .2.2.4.4.4.1 0 .2 0 .3-.1l1.7-1.7c.1-.2.1-.4 0-.6L14.2.1c-.1 0-.2-.1-.3-.1-.2 0-.4.2-.4.4 0 .1 0 .2.1.3l1 1h-4.1c-.1 0-.2 0-.3.1l-4.9 6H.4c-.1 0-.2 0-.3.1-.1.2-.1.5 0 .7.1.1.2.1.3.1h5c.1 0 .2 0 .3-.1l4.9-6h4z"/><path d="M.4 2.5h4.9l1.5 1.8.5-.6-1.5-1.9c-.1-.1-.3-.1-.4-.1h-5c-.1 0-.2 0-.3.1-.1.1-.1.2-.1.3 0 .2.2.4.4.4zM14.2 6.3c-.1-.1-.2-.1-.3-.1-.1 0-.2.1-.3.1-.2.2-.2.4 0 .6l1 1h-3.9L9.2 6l-.5.6 1.5 1.9c.1.1.2.1.3.1h4l-1 1c-.1.2-.1.4 0 .6.1.1.2.1.3.1.1 0 .2 0 .3-.1l1.7-1.7c.2-.1.2-.3.1-.5l-1.7-1.7z"/></symbol><symbol viewBox="0 0 13.141 14.398" id="all--search" xmlns="http://www.w3.org/2000/svg"><path data-name="Path 144" d="M12.634 14.3a.4.4 0 01-.3-.129l-3.58-3.926-.223.172a5.152 5.152 0 01-3.068 1.029A5.546 5.546 0 01.1 5.762 5.513 5.513 0 015.463.1a5.513 5.513 0 015.363 5.662 5.889 5.889 0 01-1.26 3.646l-.183.236 3.535 3.882a.486.486 0 010 .643.391.391 0 01-.284.131zM5.463 1a4.657 4.657 0 00-4.51 4.762 4.643 4.643 0 004.51 4.761 4.644 4.644 0 004.51-4.761A4.644 4.644 0 005.463 1z"/></symbol><symbol viewBox="0 0 71.794 73.495" id="all--search-icon" xmlns="http://www.w3.org/2000/svg"><g data-name="Group 15394"><g data-name="Group 17136"><path data-name="Path 30437" d="M23.511 46.431l-18.46 18.46a2.64 2.64 0 000 3.736 2.64 2.64 0 003.737 0l18.46-18.458a2.641 2.641 0 000-3.738 2.642 2.642 0 00-3.737 0z"/></g><path data-name="Path 30438" d="M1.434 68.628l21.317-21.316a28.054 28.054 0 113.788 3.444L5.052 72.246a2.558 2.558 0 01-3.618-3.618zm64.745-40.171a22.844 22.844 0 10-22.844 22.844 22.871 22.871 0 0022.844-22.844z"/></g></symbol><symbol viewBox="0 0 20 20" id="all--search_filter_album" xmlns="http://www.w3.org/2000/svg"><path data-name="Rectangle 8037" fill="none" d="M0 0h20v20H0z"/><g data-name="Group 18323"><path data-name="Path 30303" d="M14.638 3.756h-9.67a.588.588 0 00-.544.551.652.652 0 00.552.624h9.654a.345.345 0 01.322.314v9.663a.549.549 0 00.178.383.549.549 0 00.373.145h.025a.55.55 0 00.528-.533V5.468a1.7 1.7 0 00-.34-1.329 1.411 1.411 0 00-1.078-.383z"/><path data-name="Path 30304" d="M17.034 2.037a1.306 1.306 0 00-.381-.011h-9.66a.553.553 0 00-.527.575.549.549 0 00.533.528h9.654a.347.347 0 01.323.315v9.658a.553.553 0 00.528.575h.024a.553.553 0 00.551-.53V3.535a1.289 1.289 0 00-1.045-1.498z"/><path data-name="Path 30305" d="M12.991 5.699h-9.89a1.228 1.228 0 00-1.2 1.2v9.882a1.229 1.229 0 001.2 1.2h9.882a1.229 1.229 0 001.2-1.2V6.899a1.284 1.284 0 00-1.192-1.2z"/></g></symbol><symbol viewBox="0 0 20 20" id="all--search_filter_artist" xmlns="http://www.w3.org/2000/svg"><path data-name="Rectangle 8037" fill="none" d="M0 0h20v20H0z"/><g data-name="goToArtist Fill"><g data-name="Group 16548"><g data-name="Path 29958"><path data-name="Path 30306" d="M9.261 4.887v-.07l-6.01 7.024a2.968 2.968 0 00-.366.659 1.878 1.878 0 000 1.537c.073.219.219.439.293.659a2.577 2.577 0 00-.73 1.389 1.621 1.621 0 00.439 1.391c1.025 1.317 2.561.659 3.293.293l.659-.293a2.848 2.848 0 012.344-.439c.586.219 1.025.878 1.391 1.9a.558.558 0 00.586.439.656.656 0 00.659-.652v-.007a.269.269 0 00-.073-.219 3.961 3.961 0 00-2.2-2.635c-1.391-.586-2.707.219-3.439.439l-.439.219c-.951.366-1.391.439-1.829 0-.219-.219-.219-.293-.219-.366a1.245 1.245 0 01.439-.732 3.876 3.876 0 00.951.366 2.506 2.506 0 001.6-.438l6.879-5.854-.036-.041a4.594 4.594 0 01-4.192-4.569z"/></g><g data-name="Path 29959"><path data-name="Path 30307" d="M13.851 1.133a3.758 3.758 0 00-3.753 3.754 3.7 3.7 0 00.108.856 3.756 3.756 0 002.316 2.642 3.715 3.715 0 001.329.251 3.754 3.754 0 003.809-3.7 3.754 3.754 0 00-3.7-3.809h-.111z"/></g></g></g></symbol><symbol viewBox="0 0 20 20" id="all--search_filter_playlist" xmlns="http://www.w3.org/2000/svg"><path data-name="Rectangle 8037" fill="none" d="M0 0h20v20H0z"/><g data-name="Group 18320"><path data-name="Path 30503" d="M2.21 4.757h11.907a.724.724 0 00.724-.724.724.724 0 00-.724-.723H2.21a.723.723 0 00-.724.723.723.723 0 00.724.724z"/><path data-name="Path 30504" d="M2.21 8.911h11.907a.724.724 0 00.724-.724.724.724 0 00-.724-.724H2.21a.723.723 0 00-.724.724.724.724 0 00.724.724z"/><path data-name="Path 30505" d="M9.12 11.614H2.21a.723.723 0 00-.724.724.723.723 0 00.724.724h6.91a.724.724 0 00.724-.724.724.724 0 00-.724-.724z"/><path data-name="Path 30506" d="M9.12 15.771H2.21a.723.723 0 00-.724.724.723.723 0 00.724.724h6.91a.724.724 0 00.724-.724.724.724 0 00-.724-.724z"/><path data-name="Path 30507" d="M18.514 3.267a.724.724 0 00-.724-.723.724.724 0 00-.724.723v8.67a3.816 3.816 0 00-3.191-.315 4.3 4.3 0 00-2.37 1.549 2.515 2.515 0 00-.546 2.279 2.345 2.345 0 001.116 1.458 3.877 3.877 0 002.074.547 5.86 5.86 0 001.231-.136 4.428 4.428 0 002.142-1.208 2.887 2.887 0 00.892-1.78.7.7 0 00.1-.346z"/></g></symbol><symbol viewBox="0 0 20 20" id="all--search_filter_podcast" xmlns="http://www.w3.org/2000/svg"><path data-name="Rectangle 8037" fill="none" d="M0 0h20v20H0z"/><g data-name="Group 18321"><path data-name="Path 30324" d="M8.304 12.738a3.221 3.221 0 001.685.465.556.556 0 00.082 0h.014a3.46 3.46 0 003.46-3.45V5.08a3.473 3.473 0 00-6.945 0v4.65a3.405 3.405 0 00.975 2.439 3.88 3.88 0 00.729.569z"/><path data-name="Path 30325" d="M14.766 6.897h-.046a.464.464 0 00-.483.445v2.439a4.155 4.155 0 01-4.145 4.162 4.2 4.2 0 01-4.183-4.162v-2.4a.472.472 0 00-.123-.336.461.461 0 00-.324-.148h-.095a.588.588 0 00-.58.5v2.335a5.144 5.144 0 004.561 5.135l.089.011v2.537H7.723a.487.487 0 100 .973h4.65a.487.487 0 100-.973h-1.812v-2.541l.091-.01a5.091 5.091 0 004.56-5.134V7.384a.47.47 0 00-.446-.487z"/></g></symbol><symbol viewBox="0 0 20 20" id="all--search_filter_profile" xmlns="http://www.w3.org/2000/svg"><path data-name="Rectangle 8037" fill="none" d="M0 0h20v20H0z"/><g data-name="Group 16550"><g data-name="Ellipse 686"><ellipse data-name="Ellipse 815" cx="3.247" cy="3.634" rx="3.247" ry="3.634" transform="translate(4.002 2.429)"/></g><g data-name="Ellipse 687"><ellipse data-name="Ellipse 816" cx="2.292" cy="2.565" rx="2.292" ry="2.565" transform="translate(12.295 4.723)"/></g><g data-name="Path 29499"><path data-name="Path 30319" d="M12.895 10.962c-1.325.041 1.536 1.3.855 4.946 0 0 3.508.352 4.352-1.149a2.5 2.5 0 00-2.2-3.8c-2.396.003-1.682-.041-3.007.003z"/></g><g data-name="Path 29500"><path data-name="Path 30320" d="M12.271 12.927a3.025 3.025 0 00-1.987-1.717 6.37 6.37 0 00-2.143-.346H6.128a6.359 6.359 0 00-2.142.346 3.024 3.024 0 00-1.988 1.717c-.608 1.829-1.312 4.737 2.767 4.642h4.737c4.081.096 3.379-2.81 2.769-4.642z"/></g></g></symbol><symbol viewBox="0 0 20 20" id="all--search_filter_song" xmlns="http://www.w3.org/2000/svg"><path data-name="Rectangle 8037" fill="none" d="M0 0h20v20H0z"/><g data-name="song Fill"><g data-name="Path 29960"><path data-name="Path 30313" d="M18.054 2.383a.633.633 0 00-.627-.636.962.962 0 00-.141.014l-.159.036c-.013 0-.024-.008-.038-.008a.962.962 0 00-.141.014L8.209 3.746a.627.627 0 00-.495.617l.012 8.059-.105-.056-.036-.017a4.264 4.264 0 00-2.745-.174c-1.983.54-3.243 2.319-2.806 3.974a3.172 3.172 0 002.948 2.1c.087 0 .174 0 .246-.01h.01a4.313 4.313 0 001.126-.151 3.682 3.682 0 002.953-3.271c.011-.17.016-.324.012-.473v-.328l-.011-8.865 7.127-1.583-.052 7.527-.124-.066-.036-.016a4.257 4.257 0 00-2.745-.174c-1.983.536-3.243 2.314-2.806 3.974a3.176 3.176 0 002.951 2.1 1.9 1.9 0 00.245-.01h.01a4.31 4.31 0 001.126-.151 3.68 3.68 0 002.951-3.27 4.355 4.355 0 00.009-.512l.081-10.266v-.328z"/></g></g></symbol><symbol viewBox="0 0 20 20" id="all--search_filter_songs_by_lyrics" xmlns="http://www.w3.org/2000/svg"><path data-name="Rectangle 8037" fill="none" d="M0 0h20v20H0z"/><g data-name="Group 18322"><path data-name="Union 148" d="M7.478 16.652a.792.792 0 01-.791-.792.791.791 0 01.791-.791h5.4a.792.792 0 01.792.791.793.793 0 01-.792.792zm-4.724-3.067a.792.792 0 01-.792-.791.793.793 0 01.792-.792h14.847a.793.793 0 01.792.792.793.793 0 01-.792.791zM4.44 10.5a.792.792 0 01-.791-.792.792.792 0 01.791-.791h11.473a.793.793 0 01.792.791.793.793 0 01-.792.792zM2.754 7.417a.793.793 0 01-.792-.792.792.792 0 01.792-.791h14.847a.793.793 0 01.792.791.793.793 0 01-.792.792zm3.711-3.069a.791.791 0 01-.791-.791.791.791 0 01.791-.792h7.424a.792.792 0 01.791.792.792.792 0 01-.791.791z"/></g></symbol><symbol viewBox="0 0 20 20" id="all--search_filter_top" xmlns="http://www.w3.org/2000/svg"><path data-name="Polygon 2" d="M9.091 2.981a1 1 0 011.818 0L12.567 6.6a1 1 0 00.8.576l3.957.454a1 1 0 01.561 1.731l-2.928 2.679a1 1 0 00-.305.937l.789 3.886a1 1 0 01-1.47 1.071l-3.481-1.959a1 1 0 00-.98 0l-3.476 1.954a1 1 0 01-1.47-1.071l.789-3.886a1 1 0 00-.305-.937L2.119 9.357a1 1 0 01.561-1.731l3.957-.454a1 1 0 00.8-.576z"/><path data-name="Rectangle 8037" fill="none" d="M0 0h20v20H0z"/></symbol><symbol viewBox="0 0 43 42" id="all--send" xmlns="http://www.w3.org/2000/svg"><g data-name="Group 14781" transform="translate(.498 -.267)"><ellipse data-name="Ellipse 573" cx="21.5" cy="21" rx="21.5" ry="21" transform="translate(-.498 .267)" fill="#0099f5"/><g data-name="send (2)"><g data-name="Group 8815"><g data-name="Group 8814"><path data-name="Path 19692" d="M31.592 15.261a.383.383 0 00.008-.064.425.425 0 00-.004-.072c-.002-.013 0-.026-.003-.039a.251.251 0 00-.01-.023.424.424 0 00-.027-.064.4.4 0 00-.035-.06c-.007-.003-.007-.015-.012-.022s-.02-.016-.03-.024a.425.425 0 00-.055-.048.43.43 0 00-.052-.033.419.419 0 00-.069-.023.367.367 0 00-.063-.01.376.376 0 00-.042-.007l-18.997.024a.408.408 0 00-.26.723l6.917 5.756.737 9.121a.409.409 0 00.276.354l.02.006a.409.409 0 00.44-.15l11.194-15.184a.306.306 0 00.018-.035.386.386 0 00.03-.061.407.407 0 00.019-.065zm-18.261.349l16.11-.023-10.134 5zm6.989 13.632l-.64-7.926 10.19-5.027z" fill="#fff" stroke="#fff" stroke-width=".5"/></g></g></g></g></symbol><symbol viewBox="0 0 15.646 15.686" id="all--settings" xmlns="http://www.w3.org/2000/svg"><path data-name="Path 19748" d="M15.411 6.66a.027.027 0 01-.028-.028l-1.9-.55a5.97 5.97 0 00-.413-.963l.963-1.734a.085.085 0 01.028-.055.481.481 0 00-.083-.468l-1.154-1.156a.415.415 0 00-.468-.083c-.028 0-.028 0-.055.028l-1.734.963A7.243 7.243 0 009.6 2.2L9.054.3V.275A.414.414 0 008.669 0H7.017a.414.414 0 00-.385.275A.027.027 0 016.6.3l-.55 1.926a4.28 4.28 0 00-.908.385l-1.757-.96a.027.027 0 01-.028-.028.469.469 0 00-.468.083l-1.21 1.211a.415.415 0 00-.083.468c0 .028 0 .028.028.055l.963 1.76a7.925 7.925 0 00-.358.853L.33 6.6c-.03 0-.03 0-.055.032A.414.414 0 000 7.018v1.706a.414.414 0 00.275.385.1.1 0 00.055.028l1.9.55a5.628 5.628 0 00.358.853l-.964 1.76a.027.027 0 01-.028.028.469.469 0 00.083.468l1.211 1.212a.415.415 0 00.468.083.027.027 0 00.028-.028l1.733-.963a7.109 7.109 0 00.853.358l.55 1.9c0 .028 0 .028.028.055a.414.414 0 00.385.275h1.706a.414.414 0 00.385-.275.1.1 0 00.028-.055l.55-1.9a6.41 6.41 0 00.908-.385l1.734.963a.085.085 0 01.055.028.349.349 0 00.165.028.577.577 0 00.3-.11l1.156-1.156a.415.415 0 00.083-.468c0-.028 0-.028-.028-.055l-.963-1.734a5.97 5.97 0 00.416-.969l1.9-.55h.028a.414.414 0 00.275-.385V7.018a.286.286 0 00-.22-.358m-.578 1.706l-1.954.55a.215.215 0 00-.11.11 5.82 5.82 0 01-.605 1.486.123.123 0 000 .138l.991 1.789-.716.716-1.789-.991a.123.123 0 00-.138 0 4.972 4.972 0 01-1.431.605.215.215 0 00-.11.11l-.578 1.981H7.348l-.578-1.981a.215.215 0 00-.11-.11 4.455 4.455 0 01-1.4-.578.123.123 0 00-.138 0l-1.822.991-.743-.743.991-1.816a.123.123 0 000-.138 4.455 4.455 0 01-.578-1.4.215.215 0 00-.11-.11L.881 8.394V7.348l1.981-.578a.215.215 0 00.11-.11 4.455 4.455 0 01.578-1.4.123.123 0 000-.138L2.559 3.3l.741-.741 1.816.991a.123.123 0 00.138 0 5.459 5.459 0 011.431-.605.215.215 0 00.11-.11L7.348.881h1.018l.55 1.954a.215.215 0 00.11.11 4.974 4.974 0 011.486.605.123.123 0 00.138 0l1.789-.991.716.716-.991 1.789a.123.123 0 000 .138 4.449 4.449 0 01.605 1.486.215.215 0 00.11.11l1.954.55z"/><path data-name="Path 19749" d="M7.844 4.981a2.89 2.89 0 102.89 2.89 2.889 2.889 0 00-2.89-2.89m0 4.926A2.036 2.036 0 119.88 7.871a2.032 2.032 0 01-2.036 2.036"/></symbol><symbol viewBox="0 0 15.034 15.949" id="all--share" xmlns="http://www.w3.org/2000/svg"><path data-name="Path 19760" d="M12.175 10.242a2.861 2.861 0 00-2.259 1.113L5.537 8.91a2.861 2.861 0 000-1.883l4.374-2.442a2.865 2.865 0 10-.426-.79L5.111 6.236A2.848 2.848 0 105.119 9.7L9.5 12.146a2.806 2.806 0 00-.166.952 2.851 2.851 0 102.843-2.855zm0-9.344a1.957 1.957 0 11-1.953 1.957A1.959 1.959 0 0112.175.9zm-9.32 9.025a1.957 1.957 0 111.958-1.957 1.959 1.959 0 01-1.958 1.957zm9.319 5.123a1.957 1.957 0 111.957-1.957 1.959 1.959 0 01-1.957 1.957zm0 0"/></symbol><symbol viewBox="0 0 41.938 41.938" id="all--shortcuts-pause-icon" xmlns="http://www.w3.org/2000/svg"><path d="M20.993 41.437h-.04a20.474 20.474 0 01-7.947-39.33A20.343 20.343 0 0120.97.5h.015a20.469 20.469 0 017.955 39.322 20.237 20.237 0 01-7.947 1.615zm3.2-30.32a1 1 0 00-1 1v18a1 1 0 001 1h3a1 1 0 001-1v-18a1 1 0 00-1-1zm-9 0a1 1 0 00-1 1v18a1 1 0 001 1h3a1 1 0 001-1v-18a1 1 0 00-1-1z" stroke="rgba(0,0,0,0)" stroke-miterlimit="10"/></symbol><symbol viewBox="0 0 40.938 40.938" id="all--shortcuts-play-icon" xmlns="http://www.w3.org/2000/svg"><path data-name="Path 30335" d="M20.453 40.938a20.469 20.469 0 117.987-1.616 20.468 20.468 0 01-7.987 1.616zm-4.669-30.7a.862.862 0 00-.862.862v18.971a.862.862 0 00.862.862.848.848 0 00.536-.2l.008.011 15.52-9.485v-.01a.827.827 0 00.161-1.158.854.854 0 00-.161-.162v-.01l-15.52-9.485-.008.01a.848.848 0 00-.536-.202z"/></symbol><symbol viewBox="0 0 16 10.4" id="all--shuffle" xmlns="http://www.w3.org/2000/svg"><path d="M14.6 2.5l-1 1c-.1.1-.1.2-.1.3 0 .2.2.4.4.4.1 0 .2 0 .3-.1l1.7-1.7c.1-.2.1-.4 0-.6L14.2.1c-.1 0-.2-.1-.3-.1-.2 0-.4.2-.4.4 0 .1 0 .2.1.3l1 1h-4.1c-.1 0-.2 0-.3.1l-4.9 6H.4c-.1 0-.2 0-.3.1-.1.2-.1.5 0 .7.1.1.2.1.3.1h5c.1 0 .2 0 .3-.1l4.9-6h4z"/><path d="M.4 2.5h4.9l1.5 1.8.5-.6-1.5-1.9c-.1-.1-.3-.1-.4-.1h-5c-.1 0-.2 0-.3.1-.1.1-.1.2-.1.3 0 .2.2.4.4.4zM14.2 6.3c-.1-.1-.2-.1-.3-.1-.1 0-.2.1-.3.1-.2.2-.2.4 0 .6l1 1h-3.9L9.2 6l-.5.6 1.5 1.9c.1.1.2.1.3.1h4l-1 1c-.1.2-.1.4 0 .6.1.1.2.1.3.1.1 0 .2 0 .3-.1l1.7-1.7c.2-.1.2-.3.1-.5l-1.7-1.7z"/></symbol><symbol viewBox="0 0 18.263 18.252" id="all--song" xmlns="http://www.w3.org/2000/svg"><path d="M18.262.58a.576.576 0 00-.7-.566L7.533 2.243a.576.576 0 00-.45.562l.014 9.384c-.21-.125-.441-.252-.723-.393l-.038-.017a4.731 4.731 0 00-3.053-.193c-2.2.596-3.605 2.534-3.117 4.366a3.478 3.478 0 003.244 2.314q.14 0 .282-.012a4.793 4.793 0 001.275-.17 4.054 4.054 0 003.267-3.616c.013-.191.018-.363.014-.52l.002-.012-.016-10.67 8.871-1.973-.073 9.374a11.335 11.335 0 00-.732-.398l-.036-.016a4.727 4.727 0 00-3.054-.193c-2.2.593-3.604 2.532-3.117 4.366a3.48 3.48 0 003.245 2.313c.093 0 .187-.004.281-.011a4.844 4.844 0 001.276-.17 4.052 4.052 0 003.265-3.617 4.995 4.995 0 00.01-.577zM7.087 14.376a2.917 2.917 0 01-2.38 2.59 4.028 4.028 0 01-1.064.14 2.317 2.317 0 01-2.38-1.495c-.312-1.176.73-2.484 2.322-2.916a3.551 3.551 0 01.938-.126 3.59 3.59 0 011.355.265c.935.468 1.18.606 1.221.996v.107c0 .01.005.017.006.025 0 .116-.006.246-.018.414zm7.548 1.063a4.033 4.033 0 01-1.066.14 2.335 2.335 0 01-2.38-1.493c-.311-1.179.73-2.486 2.324-2.917a3.58 3.58 0 012.292.139c.905.453 1.161.6 1.214.96l-.002.354c0 .017.007.03.009.047l-.011.18a2.915 2.915 0 01-2.38 2.59z"/></symbol><symbol viewBox="0 0 14.239 14.239" id="all--song-inbox-up-icon" xmlns="http://www.w3.org/2000/svg"><g data-name="Group 11918"><rect data-name="Rectangle 4892" width="14.239" height="14.239" rx="2" fill="#d03150"/><path d="M10.864 3.178a.048.048 0 00-.049-.049c-.049-.1-.148-.1-.246-.1h-.049L5.796 4.063a.328.328 0 00-.246.344v4.38c-.049 0-.049-.049-.1-.049-.049-.049-.1-.049-.2-.1a2.532 2.532 0 00-1.476-.1 1.892 1.892 0 00-1.526 2.116 1.71 1.71 0 001.579 1.086h.148a2.47 2.47 0 00.591-.1 2.044 2.044 0 001.575-1.772V4.605l4.134-.886L10.226 8c-.049 0-.049-.049-.1-.049-.049-.049-.1-.049-.2-.1a2.532 2.532 0 00-1.476-.1 1.892 1.892 0 00-1.526 2.116 1.686 1.686 0 001.575 1.132h.148a2.47 2.47 0 00.591-.1 2.044 2.044 0 001.577-1.769l.049-.148v-.1l.1-5.561c-.001-.045-.05-.091-.1-.143z" fill="#fff"/></g></symbol><symbol viewBox="0 0 55.004 55.004" id="all--twitter" xmlns="http://www.w3.org/2000/svg"><g data-name="Group 9994"><g data-name="Group 9974"><path data-name="Path 21913" d="M12.887 37.238A17.115 17.115 0 0039.15 22.78c0-.24 0-.469-.011-.709a13.7 13.7 0 002.978-3.054 14.271 14.271 0 01-3.4.883h-.011l.011-.011c.153-.109 2.323-1.581 2.618-3.337a21.009 21.009 0 01-2.912 1.211c-.284.1-.578.185-.883.273a6.011 6.011 0 00-10.394 4.1 6.218 6.218 0 00.153 1.363 18.1 18.1 0 01-12.324-6.228s-2.873 3.917 1.712 7.952a6.145 6.145 0 01-2.6-.774 5.721 5.721 0 004.744 5.966 5.573 5.573 0 01-2.65.109 5.931 5.931 0 005.519 4.2 11.591 11.591 0 01-8.813 2.514z"/></g></g></symbol><symbol viewBox="0 0 34 34" id="all--unmuted" xmlns="http://www.w3.org/2000/svg"><defs><clipPath id="a"><path d="M0 0h34v34H0z"/></clipPath></defs><g data-name="Group 17324" fill="#fff" clip-path="url(#a)"><path data-name="Path 29932" d="M27.8 17.059a1.172 1.172 0 00-1.175-1.172h-.059a1.172 1.172 0 00-1.172 1.172 8.5 8.5 0 01-16.992 0 1.172 1.172 0 00-1.172-1.172h-.059A1.172 1.172 0 006 17.059a10.825 10.825 0 00.429 3.022 1.172 1.172 0 00.167.347 10.877 10.877 0 003.483 5.049l-.027.027a10.74 10.74 0 005.676 2.337v1.814h-3.576a1.172 1.172 0 100 2.344h9.492a1.172 1.172 0 100-2.344H18.07v-1.814a10.74 10.74 0 005.676-2.337l-.027-.027a10.878 10.878 0 003.483-5.049 1.172 1.172 0 00.167-.347 10.823 10.823 0 00.431-3.022z"/><path data-name="Path 29933" d="M10.75 17.059a6.15 6.15 0 002.677 5.074 6.1 6.1 0 002.21.944l.044.009.119.023.1.017.136.021.129.017.076.009a5.7 5.7 0 00.188.018h.03c.061 0 .122.008.184.01h.528c.062 0 .123-.006.184-.01h.03c.063 0 .125-.011.188-.018l.076-.009.129-.017.136-.021.1-.017.119-.023.044-.009a6.1 6.1 0 002.21-.944 6.15 6.15 0 002.677-5.074V8.152a6.117 6.117 0 00-.542-2.524 1.168 1.168 0 00-.116-.358 6.109 6.109 0 00-5.156-3.26H16.543a6.109 6.109 0 00-5.14 3.26 1.167 1.167 0 00-.116.357 6.116 6.116 0 00-.537 2.525v7.207z"/></g></symbol><symbol viewBox="0 0 30 30" id="all--up-arrow" xmlns="http://www.w3.org/2000/svg"><path d="M15.2 11c-.3 0-.7.1-.9.4l-4.9 5.1c-.5.5-.5 1.3 0 1.7s1.3.5 1.7 0l4.1-4.2 4.2 4.1c.5.5 1.3.5 1.7 0 .5-.5.5-1.3 0-1.7L16 11.5c-.2-.4-.5-.5-.8-.5z"/></symbol><symbol viewBox="0 0 14.239 14.239" id="all--video-inbox-up-icon" xmlns="http://www.w3.org/2000/svg"><g data-name="Group 7567"><rect data-name="Rectangle 4892" width="14.239" height="14.239" rx="2" fill="#ff972b"/></g><g data-name="Group 11940" fill="#fff"><path data-name="Path 26283" d="M11.55 5.672H2.7v4.649a.784.784 0 00.787.787h7.652a.784.784 0 00.787-.787V5.672zM6.22 6.886a.306.306 0 01.318-.281.483.483 0 01.252.1l1.617.987a.311.311 0 01.2.253c0 .12-.06.2-.224.29L6.75 9.22a.483.483 0 01-.212.092h-.04a.27.27 0 01-.279-.279z"/><path data-name="Path 26284" d="M11.926 4.287a.779.779 0 00-.229-.558.781.781 0 00-.557-.229H3.487a.774.774 0 00-.558.229.779.779 0 00-.229.558v.885h9.226zm-6.026.4a.25.25 0 01-.231.153h-.485a.249.249 0 01-.18-.076l-.484-.5a.25.25 0 01-.051-.271.25.25 0 01.23-.153h.485a.252.252 0 01.179.076l.486.5a.251.251 0 01.051.275zm2 0a.25.25 0 01-.231.153h-.485a.249.249 0 01-.18-.076l-.484-.5a.25.25 0 01-.051-.271.25.25 0 01.23-.153h.485a.252.252 0 01.179.076l.486.5a.251.251 0 01.051.275zm2 0a.25.25 0 01-.231.153h-.485a.249.249 0 01-.18-.076l-.484-.5a.25.25 0 01-.051-.271.25.25 0 01.23-.153h.485a.252.252 0 01.179.076l.486.5a.251.251 0 01.051.275z"/></g></symbol><symbol viewBox="0 0 49.231 40.596" id="all--videoicon" xmlns="http://www.w3.org/2000/svg"><path d="M45.031-.001H4.2A4.182 4.182 0 000 4.163V36.4a4.182 4.182 0 004.164 4.2H45.03a4.182 4.182 0 004.2-4.163V4.199a4.337 4.337 0 00-4.2-4.2zM37.1 3.032l4.2 4.2h-4.9l-3.734-4.2zm-12.601 0l4.2 4.2h-4.9l-3.733-4.2zm-12.366 0l4.2 4.2h-4.9L7.7 3.032zm34.533 34.066a1 1 0 01-.933.934h-42a1 1 0 01-.932-.934v-26.83h43.865z"/><path d="M19.873 32.062a1 1 0 001.015-.027l11.699-7.324a1 1 0 00-.006-1.7l-11.7-7.199a1 1 0 00-1.524.852v14.523a1.001 1.001 0 00.516.875z"/></symbol><symbol viewBox="0 0 30 30" id="all--volume-off" xmlns="http://www.w3.org/2000/svg"><path d="M23.4 15l2.8-2.8c.4-.4.4-1 0-1.4s-1-.4-1.4 0L22 13.6l-2.8-2.8c-.4-.4-1-.4-1.4 0s-.4 1 0 1.4l2.8 2.8-2.8 2.8c-.4.4-.4 1 0 1.4.2.2.5.3.7.3s.5-.1.7-.3l2.8-2.8 2.8 2.8c.2.2.5.3.7.3s.5-.1.7-.3c.4-.4.4-1 0-1.4L23.4 15zM13.7 5.2c-.5 0-.9.1-1.4.5L8 10H6.9c-1.5 0-2.6 1.2-2.6 2.6v4.8c0 1.5 1.2 2.6 2.6 2.6H8l4.3 4.3.1.1c.4.3.8.4 1.3.4h.4c.6-.1 1.1-.4 1.5-.9.3-.4.4-.8.4-1.3V7.4c0-1.2-1.1-2.2-2.3-2.2zm.7 17.5c0 .1 0 .3-.1.4-.1.1-.3.2-.4.3-.2 0-.3 0-.4-.1L9 18.8c-.1-.1-.4-.2-.6-.2H6.9c-.6 0-1-.5-1-1v-4.8c0-.6.5-1 1-1h1.4c.2 0 .4-.1.6-.2L13 7.2l.3-.3c.1-.1.2-.1.4-.1.4 0 .6.3.6.6v15.3z"/></symbol><symbol viewBox="0 0 30 30" id="all--volume1" xmlns="http://www.w3.org/2000/svg"><path d="M17.964 18.568c.3.3.8.3 1.1 0 1.8-1.9 1.8-4.9 0-6.9-.3-.3-.8-.3-1.1 0-.3.3-.3.8 0 1.1 1.2 1.3 1.2 3.4 0 4.7-.3.3-.3.8 0 1.1zM13.646 24.9c-.5 0-.9-.1-1.3-.4l-.1-.1-4.3-4.3h-1.1c-1.5 0-2.6-1.2-2.6-2.6v-4.8c0-1.5 1.2-2.7 2.6-2.7h1.1l4.4-4.4c.4-.3.9-.5 1.3-.5 1.2 0 2.2 1 2.2 2.2v15.2c0 .5-.1.9-.4 1.3-.3.5-.9.8-1.5.9 0 .2-.1.2-.3.2zm-.3-1.7c.1.1.3.1.4.1.2 0 .3-.1.4-.3.1-.1.1-.2.1-.4V7.4c0-.4-.3-.6-.6-.6-.1 0-.3 0-.4.1l-.2.3-4.2 4.2c-.1.1-.3.2-.5.2h-1.5c-.6 0-1 .5-1 1v4.8c0 .6.5 1 1 1h1.4c.2 0 .4.1.6.2l4.5 4.6z"/></symbol><symbol viewBox="0 0 30 30" id="all--volume2" xmlns="http://www.w3.org/2000/svg"><path d="M19.1 11.6c-.3-.3-.8-.3-1.1 0-.3.3-.3.8 0 1.1 1.2 1.3 1.2 3.4 0 4.7-.3.3-.3.8 0 1.1.3.3.8.3 1.1 0 1.8-1.9 1.8-4.9 0-6.9z"/><path d="M21.2 9.2c-.3-.3-.8-.3-1.1 0-.3.3-.3.8 0 1.1 2.6 2.6 2.6 6.8 0 9.4-.3.3-.3.8 0 1.1.2.2.4.2.6.2.2 0 .4-.1.6-.2 3.1-3.1 3.1-8.3-.1-11.6zM13.7 5.2c-.5 0-.9.1-1.4.5L8 10H6.9c-1.5 0-2.6 1.2-2.6 2.6v4.8c0 1.5 1.2 2.6 2.6 2.6H8l4.3 4.3.1.1c.4.3.8.4 1.3.4h.4c.6-.1 1.1-.4 1.5-.9.3-.4.4-.8.4-1.3V7.4c0-1.2-1.1-2.2-2.3-2.2zm.7 17.5c0 .1 0 .3-.1.4-.1.1-.3.2-.4.3-.2 0-.3 0-.4-.1L9 18.8c-.1-.1-.4-.2-.6-.2H6.9c-.6 0-1-.5-1-1v-4.8c0-.6.5-1 1-1h1.4c.2 0 .4-.1.6-.2L13 7.2l.3-.3c.1-.1.2-.1.4-.1.4 0 .6.3.6.6v15.3z"/></symbol><symbol viewBox="0 0 30 30" id="all--volume3" xmlns="http://www.w3.org/2000/svg"><path d="M13.7 5.2c-.5 0-.9.1-1.4.5L8 10H6.9c-1.5 0-2.6 1.2-2.6 2.6v4.8c0 1.5 1.2 2.6 2.6 2.6H8l4.3 4.3.1.1c.4.3.8.4 1.3.4h.4c.6-.1 1.1-.4 1.5-.9.3-.4.4-.8.4-1.3V7.4c0-1.2-1.1-2.2-2.3-2.2zm.7 17.5c0 .1 0 .3-.1.4-.1.1-.3.2-.4.3-.2 0-.3 0-.4-.1L9 18.8c-.1-.1-.4-.2-.6-.2H6.9c-.6 0-1-.5-1-1v-4.8c0-.6.5-1 1-1h1.4c.2 0 .4-.1.6-.2L13 7.2l.3-.3c.1-.1.2-.1.4-.1.4 0 .6.3.6.6v15.3zM19.1 11.6c-.3-.3-.8-.3-1.1 0-.3.3-.3.8 0 1.1 1.2 1.3 1.2 3.4 0 4.7-.3.3-.3.8 0 1.1.3.3.8.3 1.1 0 1.8-1.9 1.8-4.9 0-6.9z"/><path d="M21.2 9.2c-.3-.3-.8-.3-1.1 0-.3.3-.3.8 0 1.1 2.6 2.6 2.6 6.8 0 9.4-.3.3-.3.8 0 1.1.2.2.4.2.6.2.2 0 .4-.1.6-.2 3.1-3.1 3.1-8.3-.1-11.6z"/><path d="M23.8 7.1c-.2-.2-.4-.2-.6-.2-.2 0-.4.1-.5.2-.1.1-.2.3-.2.6 0 .2.1.4.2.5 3.8 3.8 3.8 10 0 13.8-.2.2-.2.4-.2.6 0 .2.1.4.2.5.1.1.3.2.5.2s.4-.1.6-.2c4.4-4.4 4.4-11.6 0-16z"/></symbol><symbol viewBox="0 0 20.307 19.887" id="all--warning" xmlns="http://www.w3.org/2000/svg"><g data-name="Group 12520"><g data-name="Group 12519"><path data-name="Path 20711" d="M1.244 19.886A1.087 1.087 0 01.2 18.16L9.257.712c.492-.949 1.3-.949 1.792 0l9.062 17.448a1.086 1.086 0 01-1.048 1.726z" fill="#d5454b"/><path data-name="Path 20712" d="M8.858 5.76a1.2 1.2 0 011.3-1.224 1.22 1.22 0 011.3 1.224v6.931a1.221 1.221 0 01-1.3 1.224 1.2 1.2 0 01-1.3-1.224zM8.75 16.38a1.4 1.4 0 111.4 1.4 1.406 1.406 0 01-1.4-1.4" fill="#fff"/></g></g></symbol></svg>