<svg id="Component_101_1" data-name="Component 101 – 1" xmlns="http://www.w3.org/2000/svg" xmlns:xlink="http://www.w3.org/1999/xlink" width="50" height="49.999" viewBox="0 0 50 49.999">
  <defs>
    <linearGradient id="linear-gradient" x1="0.5" y1="0.996" x2="0.5" y2="0.022" gradientUnits="objectBoundingBox">
      <stop offset="0" stop-color="#fa233b"/>
      <stop offset="1" stop-color="#fb5c74"/>
    </linearGradient>
  </defs>
  <g id="Group_4377" data-name="Group 4377">
    <path id="Path_3179" data-name="Path 3179" d="M50,15.64q0-.9,0-1.792c0-.5-.008-1.006-.022-1.508a21.88,21.88,0,0,0-.289-3.283,11.094,11.094,0,0,0-1.029-3.124,10.506,10.506,0,0,0-4.592-4.59A11.121,11.121,0,0,0,40.944.314,21.9,21.9,0,0,0,37.66.025C37.157.011,36.654.006,36.151,0q-.9,0-1.792,0H15.64q-.9,0-1.792,0c-.5,0-1.006.008-1.508.022a21.9,21.9,0,0,0-3.285.29A11.062,11.062,0,0,0,5.935,1.344a10.506,10.506,0,0,0-4.592,4.59A11.094,11.094,0,0,0,.314,9.058a21.9,21.9,0,0,0-.289,3.283c-.014.5-.019,1.006-.022,1.508q0,.894,0,1.79V34.358q0,.9,0,1.792c0,.5.008,1.006.022,1.508a21.88,21.88,0,0,0,.289,3.283,11.094,11.094,0,0,0,1.029,3.124,10.506,10.506,0,0,0,4.592,4.59,11.121,11.121,0,0,0,3.121,1.029,21.9,21.9,0,0,0,3.285.289c.5.014,1.006.019,1.508.022.6,0,1.194,0,1.792,0H34.358q.9,0,1.792,0c.5,0,1.006-.008,1.508-.022a21.9,21.9,0,0,0,3.285-.289,11.062,11.062,0,0,0,3.121-1.029,10.506,10.506,0,0,0,4.592-4.59,11.094,11.094,0,0,0,1.029-3.124,21.9,21.9,0,0,0,.289-3.283c.014-.5.019-1.006.022-1.508,0-.6,0-1.194,0-1.792V15.64Z" fill-rule="evenodd" fill="url(#linear-gradient)"/>
  </g>
  <g id="Glyph_2_">
    <g id="Group_4378" data-name="Group 4378">
      <path id="Path_3180" data-name="Path 3180" d="M35.347,7.639c-.121.011-1.194.2-1.324.228l-14.861,3h-.006a2.072,2.072,0,0,0-.926.417,1.512,1.512,0,0,0-.5.965,3.388,3.388,0,0,0-.033.5v18.6a1.8,1.8,0,0,1-.329,1.217,1.686,1.686,0,0,1-1.085.554l-.971.2a16.948,16.948,0,0,0-2.75.7,4.316,4.316,0,0,0-1.622,1.043,3.956,3.956,0,0,0,.2,5.583,3.744,3.744,0,0,0,1.8.925,6.64,6.64,0,0,0,2.682-.136,5.456,5.456,0,0,0,1.736-.64,4.362,4.362,0,0,0,1.368-1.265,4.622,4.622,0,0,0,.728-1.715,8.615,8.615,0,0,0,.165-1.842V19.835c0-.864.244-1.092.942-1.261,0,0,12.353-2.492,12.929-2.6.8-.154,1.183.075,1.183.918V27.9a1.825,1.825,0,0,1-.3,1.239,1.686,1.686,0,0,1-1.085.554l-.971.2a16.948,16.948,0,0,0-2.75.7,4.316,4.316,0,0,0-1.622,1.043,3.887,3.887,0,0,0,.2,5.583,3.744,3.744,0,0,0,1.8.917,6.665,6.665,0,0,0,2.682-.136,5.439,5.439,0,0,0,1.736-.632,4.362,4.362,0,0,0,1.368-1.265,4.622,4.622,0,0,0,.728-1.715,8.583,8.583,0,0,0,.139-1.842V8.953C36.6,8.1,36.151,7.569,35.347,7.639Z" fill="#fff" fill-rule="evenodd"/>
    </g>
  </g>
</svg>
