<svg id="Component_130_1" data-name="Component 130 – 1" xmlns="http://www.w3.org/2000/svg" width="50" height="50" viewBox="0 0 50 50">
  <g id="Rectangle_1047" data-name="Rectangle 1047" fill="#fff" stroke="#e6e6e6" stroke-width="0.7">
    <rect width="50" height="50" rx="10" stroke="none"/>
    <rect x="0.35" y="0.35" width="49.3" height="49.3" rx="9.65" fill="none"/>
  </g>
  <g id="default---square-logos" transform="translate(2.5 -15.503)">
    <g id="awa" transform="translate(1 33)">
      <g id="Page-1" transform="translate(0 0)">
        <path id="Fill-1" d="M32,15H29.5l-5-15h3l3.1,9.732.348-.027L33.753,0h3L39.89,9.786l.316-.026L43,0h3l-4.75,15h-2.5L35.4,4.876l-.317.048L32,15" transform="translate(-13.753)" fill="#414141" fill-rule="evenodd"/>
        <path id="Fill-3" d="M77.091,8.263,76,4.9l-1,3.363ZM74.84,0h2.5l5,14.978-3,.022-1.375-4.038H74.114L72.84,15H70.09Z" transform="translate(-39.34)" fill="#414141" fill-rule="evenodd"/>
        <path id="Fill-6" d="M7,8.277,5.907,4.913l-1,3.363ZM4.75.013h2.5l5,14.978-3,.022L7.875,10.976H4.024L2.75,15.013H0Z" transform="translate(0 -0.008)" fill="#414141" fill-rule="evenodd"/>
      </g>
    </g>
  </g>
</svg>
