<?xml version="1.0" encoding="utf-8"?>
<!-- Generator: Adobe Illustrator 27.3.1, SVG Export Plug-In . SVG Version: 6.00 Build 0)  -->
<svg version="1.1" id="Layer_1" xmlns="http://www.w3.org/2000/svg" xmlns:xlink="http://www.w3.org/1999/xlink" x="0px" y="0px"
	 viewBox="0 0 1424 432" style="enable-background:new 0 0 1424 432;" xml:space="preserve">
<style type="text/css">
	.st0{fill:#000100;}
	.st1{fill:#00FFFF;}
</style>
<g id="UxnZ8L.tif">
	<g>
		<path class="st0" d="M211.5,26c3.5,0,7,0,10.5,0c0.1,0.1,0.2,0.2,0.3,0.2c1.5,0.1,3.1,0.1,4.6,0.3c3.7,0.3,7.4,0.6,11.1,0.9
			c2.6,0.2,5.1,0.5,7.7,0.9c4.6,0.8,9.3,1.5,13.9,2.7c7.1,1.9,14.2,3.9,21.2,6.2c5.1,1.7,10.1,3.9,15,6.1c4.6,2.1,9,4.6,13.4,6.9
			c5.6,3,11,6.4,16.2,10.2c3.9,2.9,7.9,5.8,11.7,8.8c3,2.4,6,5,8.8,7.7c3,2.8,6,5.8,8.8,8.8c2.6,2.8,5.1,5.7,7.5,8.7
			c2,2.3,3.9,4.6,5.7,7.1c2.8,3.8,5.5,7.7,8.1,11.6c2.4,3.7,4.7,7.6,6.9,11.5c2,3.6,3.8,7.3,5.5,11.1c2.1,4.6,4.2,9.2,5.9,14
			c2,5.5,3.9,11.1,5.3,16.7c1.6,6.1,2.7,12.4,3.9,18.6c0.8,4.2,1.3,8.5,1.8,12.7c0.4,3.2,0.6,6.3,0.7,9.5c0.2,7.2,0.3,14.4-0.4,21.6
			c-0.3,2.5-0.4,5-0.7,7.5c-0.5,3.8-0.9,7.6-1.6,11.3c-0.8,4.6-1.6,9.3-2.8,13.8c-1.8,6.6-3.7,13.1-6,19.5
			c-2.5,7.1-5.6,14.1-9.1,20.7c-2.1,3.9-4.1,7.9-6.4,11.6c-2.6,4.3-5.4,8.4-8.3,12.6c-2,2.9-4.2,5.7-6.4,8.5
			c-1.7,2.1-3.5,4.1-5.3,6.2c-1.9,2.2-3.8,4.4-5.9,6.5c-2.1,2.2-4.3,4.2-6.5,6.3c-2.2,2.1-4.5,4.2-6.8,6.2c-3,2.5-6,4.9-9.1,7.3
			c-5,4-10.4,7.6-15.9,10.8c-4.4,2.5-8.7,5.1-13.2,7.4c-3.9,2-7.9,3.7-11.9,5.4c-3.5,1.5-7.1,2.9-10.7,4.1c-4.4,1.5-8.8,2.9-13.3,4
			c-5.4,1.4-10.9,2.6-16.4,3.6c-5,0.9-10.1,1.5-15.2,2c-3.5,0.4-7,0.6-10.5,0.7c-5.4,0.1-10.8,0-16.2-0.2c-3.1-0.1-6.2-0.3-9.2-0.7
			c-4-0.4-8.1-0.9-12-1.6c-4.6-0.8-9.2-1.7-13.7-2.7c-14.8-3.6-28.9-8.9-42.4-15.9c-16.2-8.4-30.8-18.9-44-31.5
			c-7.4-7.1-14.1-14.7-20.2-22.8c-7.8-10.3-14.5-21.4-20-33.1c-6.3-13.2-10.9-27-13.9-41.3c-0.7-3.2-1.4-6.4-1.9-9.7
			c-0.6-3.9-1-7.8-1.4-11.7c-0.4-3.8-0.8-7.5-0.8-11.3c-0.1-5.2,0-10.4,0.2-15.5c0.1-3.3,0.4-6.5,0.7-9.8c0.4-3.7,0.8-7.5,1.4-11.2
			c0.5-3.2,1-6.5,1.8-9.7c1.6-6.6,3.2-13.2,5.3-19.6c7.3-22.8,18.7-43.4,33.9-61.8c9.1-11.1,19.5-21,30.9-29.8
			c17.3-13.2,36.3-23.3,57-29.9c7.6-2.4,15.3-4.5,23.1-5.8c6.2-1,12.4-1.9,18.6-2.6c3.4-0.4,6.8-0.4,10.2-0.5
			C211,26.2,211.2,26.1,211.5,26z M207.1,153.8c0,0-0.1-0.1-0.2-0.1c-1.1-0.1-2.2-0.3-3.2-0.4c-2.5-0.4-5.1-0.7-7.6-1.1
			c-1.9-0.3-3.8-0.5-5.7-0.7c-2.6-0.3-5.1-0.7-7.6-1.1c-1.9-0.3-3.8-0.5-5.7-0.7c-2.5-0.3-5-0.7-7.5-1.1c-1.9-0.3-3.9-0.4-5.8-0.8
			c-1.1-0.2-1.5,0-1.7,1c-0.6,2.4-1.2,4.9-1.7,7.3c-1,4.2-1.9,8.5-2.9,12.7c-0.7,3.3-1.5,6.6-2.3,9.9c-1,4.4-1.9,8.7-2.9,13.1
			c-0.6,2.5-1.2,5.1-1.8,7.6c-1.1,4.9-2.2,9.9-3.3,14.8c-0.6,2.7-1.2,5.4-1.8,8.2c-0.2,1.1,0.4,1.8,1.4,1.9c2.2,0.2,4.4,0.5,6.7,0.8
			c1.8,0.2,3.5,0.5,5.3,0.8c2.5,0.3,5,0.6,7.5,0.9c2.5,0.3,5,0.7,7.5,1.1c2.5,0.3,5,0.6,7.5,0.9c2.5,0.3,5,0.8,7.5,1.1
			c2.8,0.4,5.5,0.7,8.3,1c2.3,0.3,4.6,0.7,6.8,1c2.8,0.4,5.5,0.7,8.3,1c2.3,0.3,4.5,0.8,6.8,1c3.7,0.3,7.3,1.1,10.8,2.5
			c7.3,3,12.8,7.9,15.8,15.3c1.6,4,2.2,8.1,1.4,12.4c-0.4,2.4-0.9,4.9-1.8,7.2c-1.5,3.9-3.9,7.2-7.2,9.9c-2.5,2.1-5.3,3.8-8.4,5
			c-4.5,1.7-9.1,2.1-13.7,1.4c-3.1-0.5-6-1.6-8.7-3.2c-3.1-1.8-5.8-4.1-8-7.1c-1.8-2.4-3.1-5-4.1-7.8c-0.9-2.5-1.4-5.1-1.4-7.7
			c0-1.8,0.1-3.6,0.5-5.3c0.5-2.3,1.2-4.6,2.1-6.7c0.8-1.8,1.9-3.5,2.9-5.2c-2.1-0.2-4.1-0.5-6.2-0.7c-1.3-0.2-2.6-0.3-3.9-0.5
			c-2-0.3-4-0.6-6-0.9c-2-0.3-3.9-0.5-5.9-0.8c-2-0.3-3.9-0.5-5.9-0.8c-1.4-0.2-2.8-0.3-4.2-0.5c-1.9-0.3-3.9-0.6-5.8-0.8
			c-1.9-0.2-3.9-0.4-5.8-0.7c-2-0.3-4-0.6-6-0.9c-1.9-0.3-3.9-0.4-5.8-0.7c-1.2-0.2-1.5,0-1.8,1.2c-0.8,3.8-1.7,7.6-2.6,11.5
			c-0.8,3.3-1.6,6.6-2.3,10c-1,4.4-1.9,8.7-2.9,13.1c-0.7,3.2-1.5,6.4-2.2,9.6c-1,4.3-1.9,8.6-2.9,13c-0.6,2.6-0.9,5.3-0.5,8
			c0.7,5.3,3,9.7,6.9,13.3c4,3.7,8.6,5.7,14.1,5.7c31.7,0,63.4,0,95.1,0c4.1,0,8.2-0.2,12.3-0.9c4.9-0.8,9.6-2.3,14.1-4.4
			c8.5-4,15.6-9.7,21.4-17.1c5.7-7.5,9.6-15.8,11.1-25.1c0.7-4.2,1.3-8.4,0.9-12.6c-0.2-2-0.2-4-0.5-5.9c-0.5-2.9-1-5.9-1.8-8.8
			c-2-7.2-5.4-13.7-10-19.5c-3-3.9-6.5-7.3-10.4-10.2c-4.2-3.2-8.8-5.7-13.7-7.6c-5.2-2.1-10.6-3.4-16.3-3.7c-0.3,0-0.7-0.2-1-0.3
			c1.2-0.2,2.3-0.2,3.4-0.4c3.4-0.8,6.9-1.5,10.2-2.7c5.8-2,11-5.3,15.5-9.5c1.7-1.6,3.3-3.5,4.8-5.3c3.3-3.8,5.6-8.2,7.5-12.8
			c2-5,3-10.2,3.4-15.6c0.2-3.8-0.1-7.6-0.8-11.4c-0.8-4.6-2.2-8.9-4.3-13.1c-1.7-3.5-3.7-6.9-6.5-9.7c-2.4-2.5-4.9-5.1-7.6-7.3
			c-3.3-2.7-7.2-4.7-11.1-6.3c-5.4-2.2-11-3.4-16.8-3.6c-4.1-0.2-8.2-0.1-12.3-0.1c-9.2,0-18.3,0.1-27.5,0.1c-5.1,0-10.2,0-15.3,0
			c-5.4,0-10.8-0.1-16.2,0.1c-3.1,0.1-5.6,1.8-6.7,4.7c-1,2.6-1.4,5.3-2.1,8c-1,4-1.9,8-2.8,12c-0.2,0.8,0.2,1.6,1.1,1.8
			c1.2,0.2,2.4,0.3,3.6,0.5c2.5,0.3,5.1,0.6,7.6,0.9c3.6,0.5,7.2,1.1,10.8,1.5c3.1,0.4,6.1,0.7,9.2,1.1c3,0.4,6,0.9,9,1.3
			c2.6,0.3,5.1,0.6,7.7,0.9c3,0.4,6,0.9,9,1.3c2.5,0.4,5,0.6,7.5,1.1c6.1,1.3,11.2,4.4,14.6,9.6c3.5,5.5,4.3,11.5,2.6,17.9
			c-1.5,5.2-4.4,9.4-8.9,12.4c-4.7,3.1-9.8,4.4-15.5,3.7c-4.2-0.5-7.9-2.1-11-4.8c-4.1-3.6-7-7.9-7.9-13.5c-0.5-2.9-0.5-5.8,0.2-8.7
			C205.4,158.2,206.3,156.1,207.1,153.8z"/>
		<path class="st1" d="M207.1,153.8c-0.8,2.2-1.7,4.4-2.3,6.6c-0.7,2.8-0.7,5.7-0.2,8.7c0.9,5.6,3.8,9.9,7.9,13.5
			c3.1,2.7,6.9,4.3,11,4.8c5.6,0.7,10.8-0.6,15.5-3.7c4.5-3,7.5-7.2,8.9-12.4c1.8-6.4,0.9-12.4-2.6-17.9c-3.4-5.3-8.5-8.3-14.6-9.6
			c-2.5-0.5-5-0.8-7.5-1.1c-3-0.4-6-0.9-9-1.3c-2.6-0.3-5.1-0.6-7.7-0.9c-3-0.4-6-0.9-9-1.3c-3.1-0.4-6.1-0.7-9.2-1.1
			c-3.6-0.5-7.2-1-10.8-1.5c-2.5-0.3-5.1-0.6-7.6-0.9c-1.2-0.1-2.4-0.2-3.6-0.5c-0.9-0.2-1.2-0.9-1.1-1.8c0.9-4,1.8-8,2.8-12
			c0.6-2.7,1.1-5.4,2.1-8c1.1-2.9,3.6-4.6,6.7-4.7c5.4-0.2,10.8-0.1,16.2-0.1c5.1,0,10.2,0,15.3,0c9.2,0,18.3-0.1,27.5-0.1
			c4.1,0,8.2-0.1,12.3,0.1c5.8,0.3,11.4,1.4,16.8,3.6c4,1.6,7.8,3.6,11.1,6.3c2.7,2.2,5.2,4.8,7.6,7.3c2.7,2.8,4.7,6.2,6.5,9.7
			c2.1,4.1,3.5,8.5,4.3,13.1c0.7,3.8,1.1,7.6,0.8,11.4c-0.3,5.3-1.4,10.6-3.4,15.6c-1.9,4.7-4.2,9-7.5,12.8
			c-1.5,1.8-3.1,3.6-4.8,5.3c-4.5,4.2-9.7,7.5-15.5,9.5c-3.3,1.1-6.8,1.9-10.2,2.7c-1.1,0.3-2.3,0.2-3.4,0.4c0.3,0.1,0.7,0.2,1,0.3
			c5.6,0.3,11.1,1.6,16.3,3.7c4.9,2,9.5,4.4,13.7,7.6c3.9,3,7.3,6.4,10.4,10.2c4.6,5.9,8,12.3,10,19.5c0.8,2.9,1.3,5.8,1.8,8.8
			c0.3,1.9,0.3,3.9,0.5,5.9c0.5,4.3-0.2,8.4-0.9,12.6c-1.5,9.3-5.4,17.7-11.1,25.1c-5.7,7.5-12.9,13.1-21.4,17.1
			c-4.5,2.1-9.2,3.6-14.1,4.4c-4.1,0.7-8.2,0.9-12.3,0.9c-31.7,0-63.4,0-95.1,0c-5.4,0-10.1-2-14.1-5.7c-3.9-3.6-6.1-8-6.9-13.3
			c-0.4-2.7-0.1-5.4,0.5-8c1-4.3,1.9-8.6,2.9-13c0.7-3.2,1.5-6.4,2.2-9.6c1-4.4,1.9-8.7,2.9-13.1c0.7-3.3,1.5-6.6,2.3-10
			c0.9-3.8,1.7-7.6,2.6-11.5c0.3-1.2,0.6-1.4,1.8-1.2c1.9,0.3,3.9,0.4,5.8,0.7c2,0.3,4,0.6,6,0.9c1.9,0.3,3.9,0.4,5.8,0.7
			c1.9,0.2,3.9,0.6,5.8,0.8c1.4,0.2,2.8,0.3,4.2,0.5c2,0.3,3.9,0.5,5.9,0.8c2,0.3,3.9,0.5,5.9,0.8c2,0.3,4,0.6,6,0.9
			c1.3,0.2,2.6,0.4,3.9,0.5c2.1,0.3,4.2,0.5,6.2,0.7c-1,1.7-2.1,3.4-2.9,5.2c-0.9,2.2-1.6,4.4-2.1,6.7c-0.4,1.7-0.5,3.6-0.5,5.3
			c0,2.6,0.6,5.2,1.4,7.7c1,2.8,2.3,5.4,4.1,7.8c2.2,2.9,4.9,5.2,8,7.1c2.7,1.6,5.7,2.7,8.7,3.2c4.7,0.7,9.3,0.4,13.7-1.4
			c3.1-1.2,5.8-2.9,8.4-5c3.2-2.7,5.6-6.1,7.2-9.9c0.9-2.3,1.4-4.8,1.8-7.2c0.8-4.2,0.1-8.4-1.4-12.4c-2.9-7.4-8.5-12.3-15.8-15.3
			c-3.4-1.4-7.1-2.1-10.8-2.5c-2.3-0.2-4.5-0.7-6.8-1c-2.8-0.4-5.5-0.7-8.3-1c-2.3-0.3-4.6-0.7-6.8-1c-2.8-0.4-5.5-0.6-8.3-1
			c-2.5-0.3-5-0.8-7.5-1.1c-2.5-0.3-5-0.6-7.5-0.9c-2.5-0.3-5-0.7-7.5-1.1c-2.5-0.3-5-0.6-7.5-0.9c-1.8-0.2-3.5-0.5-5.3-0.8
			c-2.2-0.3-4.4-0.5-6.7-0.8c-1-0.1-1.6-0.8-1.4-1.9c0.6-2.7,1.2-5.4,1.8-8.2c1.1-4.9,2.2-9.9,3.3-14.8c0.6-2.5,1.2-5.1,1.8-7.6
			c1-4.4,1.9-8.7,2.9-13.1c0.7-3.3,1.5-6.6,2.3-9.9c1-4.2,1.9-8.5,2.9-12.7c0.6-2.4,1.2-4.9,1.7-7.3c0.2-1,0.7-1.2,1.7-1
			c1.9,0.4,3.9,0.5,5.8,0.8c2.5,0.3,5,0.7,7.5,1.1c1.9,0.3,3.8,0.5,5.7,0.7c2.6,0.3,5.1,0.7,7.6,1.1c1.9,0.3,3.8,0.4,5.7,0.7
			c2.5,0.3,5.1,0.7,7.6,1.1c1.1,0.2,2.2,0.3,3.2,0.4C207,153.8,207.1,153.8,207.1,153.8z"/>
	</g>
</g>
<g id="jYxdJ8.tif">
	<g>
		<path d="M550.2,124.6c1.3,0.1,2.6,0.2,4,0.3c9.8,0.6,19.2,2.8,27.3,8.5c7.7,5.4,12.4,12.8,13.1,22.2c0.7,9.6-2.2,18.2-8.3,25.7
			c-5,6.1-11.2,10.3-18.7,12.6c-0.2,0.1-0.3,0.2-0.4,0.2c2.6,0.8,5.4,1.4,7.8,2.5c9.5,4.2,15.1,11.8,17.2,21.8
			c3.4,15.6-3.6,36.9-25.1,45.1c-6.7,2.5-13.5,4-20.6,4.9c-8.9,1.1-17.8,1.2-26.8,1.2c-15.9,0-31.7,0-47.6,0c-3.4,0-5.1-2.1-4.4-5.5
			c3.5-16.6,6.9-33.2,10.4-49.9c4-18.9,7.9-37.7,11.9-56.6c2-9.4,3.9-18.7,5.8-28.1c0.6-2.9,2.3-4.5,5.1-5
			C517.3,124.6,533.8,124.6,550.2,124.6z M508,240.5c0.6,0.1,1,0.1,1.4,0.1c8.8,0,17.6,0,26.4,0c0.9,0,1.9-0.1,2.8-0.3
			c7.6-1.8,13.2-8.5,13.8-16.3c0.6-8.6-6.5-14.2-12.9-13.9c-7.9,0.4-15.8,0.1-23.7,0.1c-0.5,0-1.1,0-1.6,0
			C512.1,220.3,510,230.3,508,240.5z M520.3,181.9c0.8,0,1.3,0,1.8,0c7.4,0,14.8,0,22.2,0c9.7,0,17.3-8.9,15.8-18.4
			c-0.8-5-5.3-9.2-10.3-9.3c-7.5-0.1-15.1-0.1-22.6-0.2c-1,0-1.2,0.3-1.4,1.2c-1.2,6.2-2.5,12.4-3.8,18.6
			C521.4,176.4,520.9,179,520.3,181.9z"/>
		<path d="M977.5,308.6c2-9.1,3.9-18.2,5.9-27.3c3.5-16.4,7.1-32.9,10.6-49.3c3.7-17,7.4-34.1,11-51.1c0.8-3.8,1.6-7.6,2.5-11.4
			c0.6-2.7,2.3-4.4,5.1-4.4c9-0.1,17.9,0,27,0c-1.2,5.8-2.4,11.5-3.7,17.6c2.1-2.3,3.8-4.3,5.7-6.1c6.3-6.3,13.6-10.7,22.5-12.2
			c11-1.9,21.4-0.8,30.3,6.8c6.3,5.4,10.2,12.3,11.9,20.3c3.2,15,1.1,29.5-5.5,43.3c-5,10.4-11.9,19.1-21.4,25.7
			c-8.7,6-18.3,9.1-28.9,8.5c-6.7-0.4-13-2.2-17.9-7.1c-2.9-2.9-4.5-6.4-5.5-10.3c-0.1-0.3-0.2-0.7-0.3-1c0-0.1-0.1-0.3-0.3-0.8
			c-0.6,2.5-1.1,4.7-1.6,6.9c-3.3,15-6.5,30-9.8,44.9c-0.5,2.4-1.1,4.8-1.6,7.1C1001.5,308.6,989.5,308.6,977.5,308.6z
			 M1031.7,220.9c0.2,1.7,0.4,3.6,0.8,5.4c2.3,10.3,11.7,15,21.3,10.8c11.4-5,18.8-20.6,15.4-32.6c-3-10.5-12.8-14.8-22.3-9.5
			C1036.8,200.6,1032.5,209.6,1031.7,220.9z"/>
		<path d="M1274.8,308.6c-1.3-0.2-2.6-0.4-4.1-0.6c1.9-9.2,3.8-18.3,5.7-27.3c2.6-0.1,5.1-0.1,7.5-0.4c8.6-0.9,15.8-4.5,21.7-10.9
			c3.7-4,3.6-4,2.8-9.7c-1.2-8.2-2.2-16.4-3.3-24.6c-0.9-6.5-1.8-12.9-2.6-19.4c-0.8-6.4-1.6-12.9-2.5-19.3
			c-0.8-5.7-1.5-11.5-2.3-17.2c-0.6-4.8-1.3-9.6-1.9-14.4c0-0.4,0-0.8,0-1.2c11.1,0,22.1,0,33.2,0c1.5,21.3,3,42.7,4.4,64
			c0.1,0,0.2,0.1,0.3,0.1c0.7-1.3,1.4-2.7,2.1-4c9.8-19.2,18.8-38.9,27.1-58.8c0.4-1,0.9-1.4,2-1.4c10.3,0,20.5,0,30.8,0
			c0.4,0,0.9,0,1.5,0c-1.8,3.6-3.5,7-5.2,10.3c-11.3,21.4-22.4,42.9-34,64.1c-7.7,14.1-15.9,27.9-24.3,41.7
			c-9.4,15.4-23.4,24.2-41,27.4c-3.3,0.6-6.6,0.8-9.9,1.2c-0.3,0-0.6,0.2-1,0.3C1279.6,308.6,1277.2,308.6,1274.8,308.6z"/>
		<path d="M1169.4,124.6c-2.3,11.1-4.7,22.1-7,33.2c-3,13.9-5.9,27.7-8.9,41.6c-2,9.2-3.9,18.4-5.9,27.6c-0.5,2.5-1,5.1-0.2,7.7
			c0.9,3.1,3.3,5,6.5,4.9c1.7,0,3.4-0.2,5-0.5c1.6-0.3,3.2-1,5-1.5c-0.4,2.2-0.8,4.3-1.3,6.4c-1.4,6.4-2.7,12.8-4.2,19.1
			c-0.1,0.5-0.6,1.2-1.1,1.4c-7.3,3.5-15,5.1-23.1,5.2c-5.4,0-10.7-0.2-15.7-2.4c-6.1-2.7-9.5-7.3-10.5-13.9
			c-0.8-5.5,0.1-10.9,1.3-16.3c3.4-15.5,6.7-31,10.1-46.5c3.5-16,6.9-32,10.4-48c0.9-3.9,1.8-7.9,2.5-11.8c0.5-3.1,1.7-5.5,5.1-6.1
			C1148.1,124.6,1158.7,124.6,1169.4,124.6z"/>
		<path d="M870,165.2c-1.2,5.6-2.4,11.2-3.7,16.8c0.1,0,0.1,0.1,0.2,0.1c0.3-0.3,0.6-0.7,0.9-1c7.5-9.3,17.4-14.4,29-16.6
			c6.5-1.2,13-1.5,19.5,0c8.2,1.9,12.4,7.1,13.5,15.5c0.1,0.6,0.1,1.2,0.2,2.1c0.6-0.6,1-1,1.3-1.4c7.4-8.7,17-13.8,28-16.2
			c6-1.3,12-1.4,18-0.1c7.8,1.7,12.1,6.6,13.7,14.3c1.3,6.5,0.6,12.9-0.8,19.2c-4.8,22.3-9.7,44.7-14.6,67c-0.1,0.4-0.2,0.7-0.4,1.1
			c-12,0-23.9,0-35.9,0c1-4.4,1.9-8.8,2.9-13.1c3.1-14.4,6.3-28.9,9.4-43.3c0.8-4,0.3-7.9-2.3-11.2c-2.9-3.6-7.7-4.6-12.4-2.5
			c-5.8,2.7-9.3,7.4-10.7,13.5c-4.1,18.5-8.1,37.1-12.1,55.6c-0.2,0.8-0.4,1.2-1.4,1.2c-11.4,0-22.7,0-34.1,0c-0.2,0-0.4,0-0.8-0.1
			c0.6-2.9,1.2-5.7,1.8-8.5c3.5-16.2,7-32.4,10.5-48.6c0.6-2.6,0.2-5.3-0.8-7.8c-2.5-6-9-8.1-15.1-4.7c-5.8,3.2-8.7,8.4-10,14.7
			c-3.4,16-6.9,32-10.4,48c-0.5,2.2-1,4.5-1.4,6.8c-12.1,0-24.1,0-36.3,0c0.6-2.8,1.2-5.6,1.8-8.3c2.8-13.1,5.7-26.2,8.5-39.3
			c3.2-14.6,6.3-29.2,9.5-43.8c0.4-1.7,0.7-3.4,1.1-5.1c0.6-2.6,2.5-4.3,5-4.3c9.2,0,18.3,0,27.5,0
			C869.4,165.1,869.7,165.2,870,165.2z"/>
		<path d="M1258.8,181.6c0.7-3.7,1.5-7.2,2.1-10.6c0.2-0.9,0.4-1.2,1.3-1.2c9.1,0,18.2,0,27.3,0c0.2,0,0.4,0.1,0.7,0.1
			c-0.8,3.8-1.6,7.5-2.4,11.2c-3.3,14.9-6.6,29.7-9.8,44.6c-0.4,1.7-0.7,3.5-0.6,5.3c0.1,3.1,1.6,4.2,4.9,3.9
			c-0.6,2.6-1.1,5.2-1.7,7.7c-1.3,5.8-2.6,11.7-3.8,17.5c-0.3,1.3-0.9,2.1-2,2.7c-5.5,2.8-11.2,4-17.3,3.5c-1.6-0.1-3.2-0.3-4.7-0.7
			c-5.1-1.2-8.3-4.8-8.9-10c-0.2-2-0.2-4-0.4-6.4c-0.3,0.5-0.4,0.8-0.6,1.1c-8,10.2-18.5,16.1-31.4,17.7c-9,1.1-17.6-0.2-25.2-5.5
			c-8-5.6-12.8-13.5-14.5-23c-3.9-22.1,1.6-41.7,16.6-58.4c7.4-8.3,16.5-14.2,27.5-16.6c15.2-3.3,28.1,0.7,38.7,12.2
			C1256,178.3,1257.3,179.9,1258.8,181.6z M1247.9,210.7c-0.2-1.5-0.2-2.9-0.5-4.4c-1.8-11.4-12.2-16.8-22.5-11.6
			c-10.4,5.2-17.1,19.1-14.7,30.5c1,4.8,3.3,8.9,7.8,11.4c5.7,3.1,11.2,2.1,16.3-1.3C1243.2,229.6,1247.3,221,1247.9,210.7z"/>
		<path d="M756.4,268.7c-7.1-0.2-14.1-0.9-20.7-3.5c-12.3-4.7-20.1-13.6-23-26.4c-4.7-21,0.6-39.7,15-55.6
			c9.2-10.2,21.1-16.1,34.6-18.4c7.1-1.2,14.2-1.5,21.3-0.9c10.3,0.9,19.7,4.1,27.1,11.8c5.3,5.5,8.4,12.1,9.6,19.4
			c4,24.4-3.7,44.6-22.8,60.2c-8.3,6.8-18.1,10.7-28.7,12.2C764.7,268,760.6,268.3,756.4,268.7z M747,221.3c0.2,1.7,0.2,3.2,0.5,4.6
			c2,11,11.3,16.8,21.6,12.3c11.6-5,19-20.6,15.6-32.8c-2.9-10.5-12.9-15-22.5-9.6C752.3,201.4,747.8,210.4,747,221.3z"/>
		<path d="M645.9,268.7c-7.6-0.2-15.1-1-22.1-4c-11.5-4.9-18.8-13.6-21.6-25.7c-4.5-19.6,0-37.3,12.4-52.8
			c9.6-12,22.3-18.8,37.4-21.4c10.2-1.8,20.4-1.9,30.5,0.8c14.7,3.9,23.9,13.5,27.1,28.4c4.1,19.3-0.4,36.7-12.8,51.9
			c-10,12.3-23.2,19.3-38.8,21.7C654,268.1,649.9,268.3,645.9,268.7z M651.6,239.1c0,0.1,0.1,0.3,0.1,0.4c2.5-0.7,5.1-1.1,7.4-2.2
			c11-5.1,18-19.7,15.3-31.5c-2.4-10.3-11.4-15.3-20.9-11.5c-12.1,4.9-19.8,21.2-16,33.6C639.7,234.8,645,239,651.6,239.1z"/>
	</g>
</g>
</svg>
