<svg id="Component_113_3" data-name="Component 113 – 3" xmlns="http://www.w3.org/2000/svg" xmlns:xlink="http://www.w3.org/1999/xlink" width="50" height="50" viewBox="0 0 50 50">
  <defs>
    <clipPath id="clip-path">
      <rect id="Rectangle_997" data-name="Rectangle 997" width="24" height="29.192" fill="none"/>
    </clipPath>
  </defs>
  <rect id="Rectangle_996" data-name="Rectangle 996" width="50" height="50" rx="10" fill="#101010"/>
  <g id="Group_4419" data-name="Group 4419" transform="translate(13 10)">
    <g id="Group_4418" data-name="Group 4418" clip-path="url(#clip-path)">
      <path id="Path_4161" data-name="Path 4161" d="M10.78,6.188c-.109.305-.237.6-.318.9a2.835,2.835,0,0,0-.031,1.18,3.031,3.031,0,0,0,1.077,1.844,2.764,2.764,0,0,0,1.5.654,3,3,0,0,0,2.107-.5A2.884,2.884,0,0,0,16.33,8.576a2.911,2.911,0,0,0-.353-2.442A3.031,3.031,0,0,0,13.99,4.821c-.337-.073-.683-.105-1.024-.156-.41-.061-.82-.125-1.232-.18-.349-.047-.7-.078-1.048-.125-.411-.055-.821-.124-1.232-.179s-.836-.1-1.254-.155c-.49-.066-.978-.143-1.467-.209-.344-.046-.689-.082-1.033-.124-.162-.02-.326-.033-.485-.066a.184.184,0,0,1-.144-.24q.185-.817.382-1.631A9.48,9.48,0,0,1,5.734.666a.958.958,0,0,1,.91-.641C7.382,0,8.121.015,8.859.014c.693,0,1.386,0,2.079,0,1.249,0,2.5-.01,3.748-.011.561,0,1.123-.01,1.683.016a6.732,6.732,0,0,1,2.284.494,6.034,6.034,0,0,1,1.518.861,12.111,12.111,0,0,1,1.038,1A5.227,5.227,0,0,1,22.091,3.7a6.6,6.6,0,0,1,.586,1.779,6.374,6.374,0,0,1,.111,1.55,6.891,6.891,0,0,1-.461,2.126A6.16,6.16,0,0,1,21.306,10.9a8.677,8.677,0,0,1-.661.718,5.906,5.906,0,0,1-2.112,1.3c-.452.155-.924.255-1.39.366-.149.036-.307.031-.467.06a.772.772,0,0,0,.14.034,7.068,7.068,0,0,1,2.219.508,7.635,7.635,0,0,1,3.279,2.437,7.565,7.565,0,0,1,1.358,2.66,11.01,11.01,0,0,1,.24,1.2c.042.266.037.538.066.806a6.322,6.322,0,0,1-.12,1.723,7.584,7.584,0,0,1-1.515,3.426,7.8,7.8,0,0,1-2.911,2.333,7.431,7.431,0,0,1-1.919.606,9.836,9.836,0,0,1-1.674.121q-6.48,0-12.961,0a2.744,2.744,0,0,1-1.92-.772A2.939,2.939,0,0,1,.023,26.6,3.071,3.071,0,0,1,.09,25.509c.131-.589.261-1.179.394-1.768.1-.438.2-.875.3-1.314.134-.594.262-1.189.4-1.782.1-.453.21-.905.314-1.358q.178-.781.352-1.563c.035-.159.08-.185.239-.163.264.037.531.056.795.091s.545.087.818.124.532.06.8.094.527.076.791.11c.191.025.383.043.575.067.269.034.538.072.807.107s.538.068.806.1.546.079.819.117q.264.037.528.07c.284.035.567.067.847.1a6.955,6.955,0,0,0-.39.708,5.649,5.649,0,0,0-.291.915,3.18,3.18,0,0,0-.063.728,3.365,3.365,0,0,0,.194,1.055,3.833,3.833,0,0,0,.561,1.067,3.593,3.593,0,0,0,1.092.965,3.424,3.424,0,0,0,1.192.434,3.6,3.6,0,0,0,1.871-.185,3.961,3.961,0,0,0,1.142-.681,3.4,3.4,0,0,0,.978-1.353,5.037,5.037,0,0,0,.248-.985,3.071,3.071,0,0,0-.194-1.686,3.668,3.668,0,0,0-2.153-2.086,5.045,5.045,0,0,0-1.471-.335c-.311-.027-.618-.091-.927-.132-.377-.05-.755-.089-1.133-.139-.311-.041-.62-.094-.931-.135-.377-.05-.756-.088-1.132-.139-.341-.045-.681-.1-1.022-.149s-.685-.079-1.027-.124-.681-.1-1.022-.147-.682-.081-1.022-.126c-.242-.031-.484-.073-.726-.1q-.453-.058-.908-.107a.2.2,0,0,1-.192-.261c.08-.371.164-.741.246-1.111.149-.672.3-1.344.445-2.015.078-.348.164-.693.242-1.041.133-.594.262-1.189.4-1.783.1-.448.207-.9.308-1.343.131-.579.258-1.159.39-1.738.076-.332.158-.663.234-1,.031-.136.093-.166.237-.137.262.053.53.068.8.1.343.046.685.1,1.027.145.26.035.521.063.782.1.348.047.695.1,1.042.147.26.035.522.061.782.1.348.047.694.1,1.042.148.147.021.294.037.44.057a.058.058,0,0,1,.029.012" transform="translate(0 0)" fill="aqua"/>
    </g>
  </g>
</svg>
