<svg id="Component_119_18" data-name="Component 119 – 18" xmlns="http://www.w3.org/2000/svg" xmlns:xlink="http://www.w3.org/1999/xlink" width="50" height="50" viewBox="0 0 50 50">
  <defs>
    <clipPath id="clip-path">
      <rect id="Rectangle_1010" data-name="Rectangle 1010" width="46" height="19.962" fill="none"/>
    </clipPath>
  </defs>
  <rect id="Rectangle_1009" data-name="Rectangle 1009" width="50" height="50" rx="10" fill="#241e20"/>
  <g id="Group_4433" data-name="Group 4433" transform="translate(2 12.452)">
    <g id="Group_4432" data-name="Group 4432" clip-path="url(#clip-path)">
      <path id="Path_9632" data-name="Path 9632" d="M0,15.441v-3c.058-.025.063.016.071.055v.215H.107v-.241c.023-.425-.021-.851.015-1.276.019-.221.056-.441.067-.662C.2,10.236.3,9.956.306,9.663a1.852,1.852,0,0,1,.039-.309c.065-.342.139-.682.2-1.024.022-.121.067-.238.086-.355.036-.229.019-.232.246-.234H28.964c.142,0,.284,0,.426,0,.109.005.107-.044.075-.12Q28.776,6.011,28.087,4.4c-.338-.787-.67-1.577-1.03-2.355A.937.937,0,0,1,27.579.773c.318-.11.628-.239.952-.337A6.107,6.107,0,0,1,30.36.111a.822.822,0,0,0,.307-.044c-.128,0-.224,0-.319,0-.035,0-.11.024-.08-.065h2.069c.006.064.01.11.106.1a3.113,3.113,0,0,1,.851.123,9.727,9.727,0,0,1,1.3.365,8.959,8.959,0,0,1,1.75.856,8.667,8.667,0,0,1,1.873,1.539,10.694,10.694,0,0,1,1.332,1.824,9.119,9.119,0,0,1,.7,1.551,12.059,12.059,0,0,1,.331,1.226c.027.118.06.156.18.155q2.106-.005,4.213,0a.5.5,0,0,0,.106-.006c.174-.038.261.021.284.191a1.594,1.594,0,0,0,.044.262,4.873,4.873,0,0,1,.161.835,8.037,8.037,0,0,1,.166,1.081,4.468,4.468,0,0,0,.082.495c.047.435.091.871.122,1.308s.052.861.061,1.292c.01.5.009.991,0,1.486,0,.215-.014.432-.033.646-.04.447-.063.895-.11,1.341-.026.252-.043.507-.075.757-.062.473-.154.942-.235,1.413-.058.339-.124.677-.208,1.012-.02.079-.047.1-.116.1-.132,0-.264,0-.4,0H1.524q-.365,0-.73,0a.131.131,0,0,1-.155-.122c-.035-.189-.061-.382-.106-.568-.071-.293-.115-.589-.164-.885-.054-.327-.1-.655-.148-.984-.039-.3-.082-.6-.1-.905-.018-.4-.01-.808-.013-1.213v-.325H.07v.269c0,.058,0,.117-.011.175,0,.026-.006.079-.059.036M37.454,8.586v0c.329,0,.659,0,.988,0,.085,0,.1-.028.1-.1a8.076,8.076,0,0,0-.056-.838,5.785,5.785,0,0,0-.432-1.581,7.385,7.385,0,0,0-.839-1.5A6.636,6.636,0,0,0,35.125,2.71a5.316,5.316,0,0,0-.862-.413,9.494,9.494,0,0,0-1-.317,8.7,8.7,0,0,0-1.245-.185,6.177,6.177,0,0,0-1.5.122,6.3,6.3,0,0,0-1.272.354c-.2.076-.193.071-.108.261.124.278.243.558.36.839s.228.566.346.847c.026.062.062.093.152.067a8.618,8.618,0,0,1,1.12-.268,3.222,3.222,0,0,1,1-.02c.192.031.382.072.575.1a2.934,2.934,0,0,1,.744.193,6.247,6.247,0,0,1,.735.38,4.17,4.17,0,0,1,1.528,1.5,4.765,4.765,0,0,1,.648,2.309c0,.1.04.117.13.116.324-.005.649,0,.973,0m-.433,3.964c0,.044,0,.088,0,.131q0,2.191.008,4.383a1.271,1.271,0,0,0,.025.271.468.468,0,0,0,.9.038A1.12,1.12,0,0,0,38,17.047c0-.789.007-1.577,0-2.366-.015-1.428.04-2.857-.029-4.285-.01-.21-.115-.326-.357-.393a.416.416,0,0,0-.517.153,8.619,8.619,0,0,0-.419.808c-.167.347-.337.694-.512,1.037-.159.312-.327.62-.5.937-.323-.63-.642-1.251-.961-1.873-.143-.277-.285-.555-.432-.83a.421.421,0,0,0-.245-.23.5.5,0,0,0-.689.474c.008,2.219,0,4.438,0,6.658,0,.025,0,.051,0,.076a.473.473,0,0,0,.366.443c.352.029.489-.066.564-.321a1.846,1.846,0,0,0,.041-.506q0-2.063,0-4.125v-.187c.1.246.256.456.368.688.173.357.36.707.546,1.058a.479.479,0,0,0,.795.067,2.906,2.906,0,0,0,.188-.3c.189-.359.373-.721.559-1.082a1.348,1.348,0,0,1,.25-.394M4.387,17.684v0c.233,0,.466,0,.7,0a1.556,1.556,0,0,0,1.141-.572,2.547,2.547,0,0,0,.528-1.078c.066-.232-.043-.481.084-.7-.112-.172-.036-.37-.082-.554a2.414,2.414,0,0,0-.687-1.244c-.05-.046-.054-.055-.015-.111a2.364,2.364,0,0,0,.423-1.174,2.26,2.26,0,0,0-.541-1.783,1.476,1.476,0,0,0-.646-.447A2.348,2.348,0,0,0,4.8,9.978a5.891,5.891,0,0,0-1.247,0,.468.468,0,0,0-.416.466c-.009.187-.012.374-.012.561q0,2.934,0,5.868c0,.087.048.161.033.247a.471.471,0,0,0,.458.562c.258.006.517,0,.775,0m3.4-3.865c0,1.107,0,2.213,0,3.32a.674.674,0,0,0,.091.327.489.489,0,0,0,.576.179.515.515,0,0,0,.306-.542c.006-.748,0-1.5,0-2.244,0-.094.019-.136.122-.134.208,0,.416,0,.623-.007a.15.15,0,0,1,.16.129,1.236,1.236,0,0,0,.064.161q.525,1.179,1.04,2.361a.482.482,0,0,0,.551.3.445.445,0,0,0,.388-.492,1.469,1.469,0,0,0-.117-.393c-.331-.745-.642-1.5-1.006-2.229-.031-.062-.041-.1.022-.152a1.819,1.819,0,0,0,.487-.582,2.284,2.284,0,0,0,.273-.543,4.929,4.929,0,0,0,.107-1.07,2.616,2.616,0,0,0-.4-1.393,1.583,1.583,0,0,0-1.249-.84,13.744,13.744,0,0,0-1.565,0,.475.475,0,0,0-.474.486q0,1.675,0,3.351M21.5,13.806H21.5q0,1.418,0,2.835,0,.288.006.576a.5.5,0,0,0,.487.471c.456-.013.912,0,1.368-.006a1.716,1.716,0,0,0,1.178-.486,1.96,1.96,0,0,0,.557-1.482c.011-1.3,0-2.608,0-3.912a1.872,1.872,0,0,0-.062-.473,1.73,1.73,0,0,0-1.519-1.344,13.725,13.725,0,0,0-1.533-.008.49.49,0,0,0-.482.493c.008,1.112,0,2.224,0,3.335m-5.5-.107c-.027-.624.049-1.432-.037-2.238a1.835,1.835,0,0,0-.59-1.138,5.005,5.005,0,0,0-.73-.426.036.036,0,0,0-.052.013c-.034.047-.072.021-.116.019a3.911,3.911,0,0,0-.74.012,1.507,1.507,0,0,0-.885.551,1.615,1.615,0,0,0-.44,1.065c-.015,1.279-.006,2.558-.006,3.837a.469.469,0,0,1,0,.091,2.2,2.2,0,0,0,.091,1.12,1.7,1.7,0,0,0,2.066,1.168,1.6,1.6,0,0,0,.961-.514,1.974,1.974,0,0,0,.478-1.314c0-.687,0-1.375,0-2.245m4.467,3.519c-.028-.249-.106-.556-.171-.864-.128-.6-.238-1.212-.373-1.815-.153-.687-.28-1.381-.419-2.071-.135-.671-.274-1.342-.4-2.014-.047-.242-.09-.456-.4-.512a.457.457,0,0,0-.516.251,10.094,10.094,0,0,0-.3,1.288c-.118.6-.246,1.2-.363,1.807-.138.707-.29,1.412-.434,2.119-.121.592-.239,1.186-.361,1.778a.6.6,0,0,0,.328.59.481.481,0,0,0,.571-.332c.085-.35.157-.7.218-1.058.023-.132.079-.18.2-.178.355,0,.71.012,1.064,0,.151,0,.2.074.229.2.071.328.138.657.214.984a.464.464,0,1,0,.91-.175M39.192,13.91h0q0,1.463,0,2.927c0,.136.006.273.017.409a.474.474,0,0,0,.466.437q1.323.006,2.646,0a.5.5,0,0,0,.313-.084.471.471,0,0,0,.189-.53.488.488,0,0,0-.459-.328c-.694-.029-1.388-.021-2.082,0-.114,0-.132-.018-.131-.121,0-.571.009-1.142,0-1.714,0-.162.049-.19.195-.187.481.009.963.008,1.445,0a.474.474,0,1,0-.029-.947c-.492-.009-.983-.005-1.475,0-.11,0-.134-.027-.133-.132q.006-1.3,0-2.593c0-.111.033-.13.135-.129.664,0,1.328,0,1.992.005a.557.557,0,0,0,.476-.21.464.464,0,0,0-.218-.7,1.3,1.3,0,0,0-.37-.048c-.654,0-1.308,0-1.962,0a3.785,3.785,0,0,0-.471.008c-.347.044-.472.114-.543.418a1.778,1.778,0,0,0,0,.391q0,1.562,0,3.124m-11.721.236h0c0,1.026,0,2.052,0,3.078a.476.476,0,0,0,.275.418.438.438,0,0,0,.451-.034.556.556,0,0,0,.24-.535c0-1.991,0-3.983-.007-5.974,0-.139.023-.189.176-.182.328.015.658.016.986,0a.444.444,0,0,0,.363-.312.4.4,0,0,0-.064-.431.6.6,0,0,0-.521-.2q-1.368-.007-2.737,0a2.317,2.317,0,0,0-.447.038c-.144.029-.4.316-.386.447a.625.625,0,0,0,.515.462c.319,0,.639,0,.958,0,.134,0,.2.032.2.193-.008,1.011,0,2.022,0,3.033m7.306-5.6h0c.193,0,.385,0,.578,0,.126,0,.18-.038.179-.175a3.35,3.35,0,0,0-.422-1.542A3.635,3.635,0,0,0,32.693,4.9a2.655,2.655,0,0,0-.62-.113c-.237,0-.473.016-.708.024a6.075,6.075,0,0,0-1.015.2.1.1,0,0,0-.072.163,8.184,8.184,0,0,1,.48,1.131c.026.074.07.1.161.072a2.381,2.381,0,0,1,.316-.1,2.42,2.42,0,0,1,1.283.1,2.992,2.992,0,0,1,.876.528A2.224,2.224,0,0,1,34.067,8.4c.014.113.041.161.163.154.182-.01.365,0,.547,0m-3.791,5.222h0q0,1.433,0,2.866c0,.2,0,.4.007.606a.5.5,0,0,0,.382.437.489.489,0,0,0,.471-.206.712.712,0,0,0,.1-.444q0-3.018,0-6.036c0-.182,0-.364-.006-.546a.456.456,0,0,0-.4-.465.444.444,0,0,0-.555.364q0,1.712,0,3.424M32.94,8.557h0a2.411,2.411,0,0,1,.243,0c.116.012.144-.046.126-.143a1.54,1.54,0,0,0-1.045-1.325,1.868,1.868,0,0,0-.918-.053c-.264.043-.226.045-.16.3.092.355.294.435.631.4a.744.744,0,0,1,.726.569c.059.248.059.248.319.246h.076m-1.056.457a.4.4,0,0,0-.466-.434.433.433,0,0,0,.067.863.405.405,0,0,0,.4-.429" fill="#241e20"/>
      <path id="Path_9633" data-name="Path 9633" d="M0,97.92c.023-.011.034,0,.03.022s-.019.011-.03.009Z" transform="translate(0 -85.967)" fill="#241e20"/>
      <path id="Path_9634" data-name="Path 9634" d="M0,97.183c.016-.008.028,0,.028.015s-.012.023-.028.015Z" transform="translate(0 -85.322)" fill="#241e20"/>
      <path id="Path_9635" data-name="Path 9635" d="M0,130.771l.028.008L0,130.8v-.03" transform="translate(0 -114.814)" fill="#241e20"/>
      <path id="Path_9636" data-name="Path 9636" d="M265.5,0c-.007.01-.015.03-.022.029s-.018-.016-.009-.029Z" transform="translate(-233.07)" fill="#241e20"/>
      <path id="Path_9637" data-name="Path 9637" d="M0,129.747c.022-.01.031,0,.028.021s-.017.011-.028.009Z" transform="translate(0 -113.912)" fill="#241e20"/>
      <path id="Path_9638" data-name="Path 9638" d="M246.723,21.415c-.324,0-.649,0-.973,0-.09,0-.126-.021-.13-.116a4.765,4.765,0,0,0-.648-2.309,4.169,4.169,0,0,0-1.528-1.5,6.246,6.246,0,0,0-.735-.38,2.934,2.934,0,0,0-.744-.193c-.193-.024-.383-.065-.575-.1a3.23,3.23,0,0,0-1,.021,8.638,8.638,0,0,0-1.12.268c-.089.026-.126-.005-.152-.067-.118-.282-.229-.566-.346-.847s-.237-.561-.36-.839c-.084-.19-.087-.185.108-.261a6.3,6.3,0,0,1,1.272-.354,6.171,6.171,0,0,1,1.5-.122,8.7,8.7,0,0,1,1.245.185,9.494,9.494,0,0,1,1,.318,5.306,5.306,0,0,1,.862.413,6.635,6.635,0,0,1,2.092,1.862,7.385,7.385,0,0,1,.839,1.5,5.785,5.785,0,0,1,.432,1.581,8.085,8.085,0,0,1,.056.838c0,.076-.016.105-.1.1-.329-.006-.659,0-.988,0v0" transform="translate(-209.269 -12.829)" fill="#fda801"/>
      <path id="Path_9639" data-name="Path 9639" d="M276.889,84.325a1.348,1.348,0,0,0-.25.394c-.186.361-.37.723-.559,1.082a2.871,2.871,0,0,1-.188.3.479.479,0,0,1-.795-.066c-.186-.35-.374-.7-.546-1.058-.112-.232-.266-.442-.368-.688v.187q0,2.063,0,4.125a1.846,1.846,0,0,1-.041.506c-.074.255-.212.35-.564.321a.473.473,0,0,1-.366-.443c0-.025,0-.051,0-.076,0-2.219,0-4.438,0-6.658a.5.5,0,0,1,.689-.474.421.421,0,0,1,.245.23c.147.275.29.553.432.83.32.621.638,1.243.961,1.873.168-.318.337-.625.5-.937.175-.343.344-.69.512-1.037a8.634,8.634,0,0,1,.419-.808.417.417,0,0,1,.517-.153c.242.067.347.183.357.393.07,1.428.014,2.857.029,4.285.008.788,0,1.577,0,2.366a1.121,1.121,0,0,1-.046.325.468.468,0,0,1-.9-.038,1.274,1.274,0,0,1-.025-.271q-.006-2.191-.008-4.382c0-.044,0-.087,0-.131" transform="translate(-239.868 -71.776)" fill="#fefeff"/>
      <path id="Path_9640" data-name="Path 9640" d="M26.836,89.248c-.258,0-.517,0-.775,0a.471.471,0,0,1-.458-.562c.015-.086-.033-.161-.033-.248q.007-2.934,0-5.868c0-.187,0-.374.012-.561A.468.468,0,0,1,26,81.543a5.876,5.876,0,0,1,1.247,0,2.34,2.34,0,0,1,.493.043,1.474,1.474,0,0,1,.646.447,2.26,2.26,0,0,1,.541,1.783,2.364,2.364,0,0,1-.423,1.173c-.039.056-.036.064.015.111a2.413,2.413,0,0,1,.687,1.244c.046.184-.031.383.082.554-.127.222-.018.47-.084.7a2.547,2.547,0,0,1-.528,1.078,1.556,1.556,0,0,1-1.141.572c-.233,0-.466,0-.7,0v0m-.3-4.593h0a2.421,2.421,0,0,0,.617.033.772.772,0,0,0,.735-.61,2.048,2.048,0,0,0-.081-1.143.643.643,0,0,0-.666-.458c-.177,0-.354.008-.531.007-.065,0-.091.017-.085.085.009.1.015.21.015.316,0,.59,0,1.181,0,1.771m0,3.472h-.024s.006.007.009.007a.035.035,0,0,0,.013-.005c-.027.134.026.172.162.164.262-.015.525-.013.788-.014a.44.44,0,0,0,.275-.1,1.486,1.486,0,0,0,.507-1.23,1.779,1.779,0,0,0-.262-.971.571.571,0,0,0-.339-.305,5.873,5.873,0,0,0-1.054-.036.194.194,0,0,0-.114.034c.007.018-.025.055.025.053,0,.1.009.191.009.286q0,1.057,0,2.115" transform="translate(-22.449 -71.564)" fill="#fefeff"/>
      <path id="Path_9641" data-name="Path 9641" d="M63.806,85.474q0-1.675,0-3.351a.475.475,0,0,1,.474-.486,13.746,13.746,0,0,1,1.565,0,1.583,1.583,0,0,1,1.249.84,2.615,2.615,0,0,1,.4,1.393,4.92,4.92,0,0,1-.107,1.07,2.277,2.277,0,0,1-.273.543,1.818,1.818,0,0,1-.487.582c-.063.05-.053.09-.022.152.364.73.675,1.484,1.006,2.229a1.469,1.469,0,0,1,.117.393.445.445,0,0,1-.388.492.483.483,0,0,1-.551-.3q-.518-1.182-1.04-2.361a1.241,1.241,0,0,1-.064-.161.15.15,0,0,0-.16-.129c-.208.008-.415.011-.623.007-.1,0-.123.04-.122.134,0,.748.006,1.5,0,2.244a.515.515,0,0,1-.306.542.489.489,0,0,1-.576-.179.674.674,0,0,1-.091-.327c0-1.107,0-2.213,0-3.32m.973-1.482c0,.434,0,.868,0,1.3,0,.1.031.131.13.128a5.24,5.24,0,0,1,.622,0A.7.7,0,0,0,66.258,85a2.008,2.008,0,0,0-.123-2.2.451.451,0,0,0-.306-.2,8.236,8.236,0,0,0-.934-.029c-.093-.006-.119.02-.118.115.005.434,0,.868,0,1.3" transform="translate(-56.019 -71.655)" fill="#fefeff"/>
      <path id="Path_9642" data-name="Path 9642" d="M176.177,85.468c0-1.112,0-2.224,0-3.335a.49.49,0,0,1,.482-.493,13.755,13.755,0,0,1,1.533.008,1.73,1.73,0,0,1,1.519,1.344,1.872,1.872,0,0,1,.062.473c0,1.3.008,2.608,0,3.912a1.96,1.96,0,0,1-.557,1.482,1.716,1.716,0,0,1-1.178.486c-.456.011-.913-.007-1.368.006a.5.5,0,0,1-.487-.471q-.006-.288-.006-.576,0-1.418,0-2.835h.007m2.621.026h0c0-.622,0-1.244,0-1.865a1.441,1.441,0,0,0-.157-.671.638.638,0,0,0-.384-.33,4.213,4.213,0,0,0-1.024-.047c-.084,0-.116.019-.111.109.009.176.007.353.007.53q0,2.426,0,4.853a.247.247,0,0,1-.018.131.125.125,0,0,0,.118.186c.253,0,.506-.01.759-.011a.75.75,0,0,0,.6-.277,1.049,1.049,0,0,0,.212-.7c.012-.637,0-1.274,0-1.911" transform="translate(-154.673 -71.662)" fill="#fefeff"/>
      <path id="Path_9643" data-name="Path 9643" d="M105.036,84.862c0,.87,0,1.558,0,2.245a1.974,1.974,0,0,1-.478,1.314,1.6,1.6,0,0,1-.961.514,1.7,1.7,0,0,1-2.066-1.168,2.2,2.2,0,0,1-.091-1.12.459.459,0,0,0,0-.091c0-1.279-.01-2.558.006-3.837a1.615,1.615,0,0,1,.44-1.065,1.507,1.507,0,0,1,.885-.551,3.91,3.91,0,0,1,.739-.012c.044,0,.082.028.116-.019a.036.036,0,0,1,.052-.013,5.009,5.009,0,0,1,.73.426,1.835,1.835,0,0,1,.59,1.138c.086.805.01,1.614.037,2.238m-.976.1h0c0-.707.011-1.414,0-2.121a.823.823,0,0,0-.908-.816.789.789,0,0,0-.729.779c-.035,1.348-.005,2.7-.017,4.046a2.561,2.561,0,0,0,.053.585.706.706,0,0,0,.59.56.911.911,0,0,0,.824-.293,1.129,1.129,0,0,0,.186-.647c.01-.7,0-1.394,0-2.091" transform="translate(-89.03 -71.163)" fill="#fefeff"/>
      <path id="Path_9644" data-name="Path 9644" d="M140.847,88.694a.464.464,0,1,1-.91.175c-.076-.327-.144-.656-.215-.984-.026-.123-.078-.2-.229-.2-.355.007-.709,0-1.064,0-.124,0-.18.046-.2.178-.061.355-.133.708-.218,1.058a.48.48,0,0,1-.571.332.6.6,0,0,1-.328-.59c.122-.592.24-1.185.361-1.778.144-.706.3-1.411.434-2.119.118-.6.245-1.2.364-1.807a10.111,10.111,0,0,1,.3-1.288.457.457,0,0,1,.516-.251c.308.056.352.27.4.512.131.672.27,1.343.4,2.014.139.691.266,1.384.419,2.071.135.6.245,1.211.373,1.815.065.308.143.615.171.865m-1.865-4.415a9.193,9.193,0,0,0-.237,1.074c-.081.435-.17.87-.279,1.3-.032.124.009.134.094.135.288,0,.577,0,.865,0,.073,0,.079-.035.061-.1-.044-.166-.085-.333-.119-.5-.077-.382-.147-.765-.224-1.147-.051-.253-.107-.5-.161-.757" transform="translate(-120.375 -71.476)" fill="#fefeff"/>
      <path id="Path_9645" data-name="Path 9645" d="M321.095,85.609q0-1.562,0-3.124a1.78,1.78,0,0,1,0-.391c.071-.3.2-.374.543-.418a3.809,3.809,0,0,1,.471-.008c.654,0,1.308,0,1.962,0a1.3,1.3,0,0,1,.37.048.464.464,0,0,1,.218.7.557.557,0,0,1-.476.21c-.664-.007-1.328,0-1.992-.005-.1,0-.136.018-.136.129q.008,1.3,0,2.593c0,.1.023.133.133.132.492-.008.983-.012,1.475,0a.474.474,0,1,1,.029.947c-.481.007-.963.007-1.444,0-.146,0-.2.025-.2.187.012.571.007,1.142,0,1.713,0,.1.018.124.131.121.694-.017,1.388-.025,2.082,0a.487.487,0,0,1,.459.328.471.471,0,0,1-.189.53.5.5,0,0,1-.313.084q-1.323.005-2.646,0a.474.474,0,0,1-.467-.437c-.011-.136-.017-.272-.017-.409q0-1.463,0-2.927Z" transform="translate(-281.902 -71.699)" fill="#fefeff"/>
      <path id="Path_9646" data-name="Path 9646" d="M213.139,85.875c0-1.011,0-2.022,0-3.033,0-.161-.064-.194-.2-.193-.319,0-.639,0-.958,0a.624.624,0,0,1-.515-.462c-.013-.131.242-.418.386-.447a2.315,2.315,0,0,1,.447-.038q1.368,0,2.737,0a.6.6,0,0,1,.521.2.4.4,0,0,1,.064.431.444.444,0,0,1-.362.312c-.328.017-.658.015-.986,0-.154-.007-.177.043-.176.182.005,1.991,0,3.983.007,5.974a.556.556,0,0,1-.24.535.438.438,0,0,1-.451.034.476.476,0,0,1-.275-.418c0-1.026,0-2.052,0-3.078h0" transform="translate(-185.667 -71.73)" fill="#fefeff"/>
      <path id="Path_9647" data-name="Path 9647" d="M252.507,43.01c-.183,0-.365-.008-.547,0-.122.007-.149-.041-.163-.154a2.224,2.224,0,0,0-.674-1.488,2.989,2.989,0,0,0-.876-.528,2.42,2.42,0,0,0-1.283-.1,2.375,2.375,0,0,0-.316.1c-.091.027-.136,0-.161-.072a8.185,8.185,0,0,0-.48-1.131.1.1,0,0,1,.072-.163,6.079,6.079,0,0,1,1.015-.2c.235-.008.471-.026.708-.024a2.655,2.655,0,0,1,.62.113,3.635,3.635,0,0,1,2.418,1.933,3.352,3.352,0,0,1,.422,1.542c0,.137-.053.178-.179.175-.192-.005-.385,0-.578,0Z" transform="translate(-217.73 -34.46)" fill="#fda801"/>
      <path id="Path_9648" data-name="Path 9648" d="M253.94,85.54q0-1.712,0-3.424a.444.444,0,0,1,.555-.364.457.457,0,0,1,.4.465c.008.182.006.364.006.546q0,3.018,0,6.036a.713.713,0,0,1-.1.444.489.489,0,0,1-.471.206.5.5,0,0,1-.382-.437c-.01-.2-.006-.4-.007-.606q0-1.433,0-2.866Z" transform="translate(-222.954 -71.767)" fill="#fefeff"/>
      <path id="Path_9649" data-name="Path 9649" d="M256.991,58.946h-.076c-.26,0-.26,0-.319-.246a.744.744,0,0,0-.726-.569c-.337.033-.539-.047-.631-.4-.067-.258-.1-.26.16-.3a1.868,1.868,0,0,1,.918.053,1.54,1.54,0,0,1,1.045,1.326c.018.1-.01.155-.127.143-.08-.008-.162,0-.243,0Z" transform="translate(-224.052 -50.39)" fill="#fda801"/>
      <path id="Path_9650" data-name="Path 9650" d="M255.086,70.729a.405.405,0,0,1-.4.429.433.433,0,0,1-.067-.863.4.4,0,0,1,.466.434" transform="translate(-223.202 -61.715)" fill="#fda801"/>
      <path id="Path_9651" data-name="Path 9651" d="M33.241,115.348a.193.193,0,0,1,.114-.034,5.862,5.862,0,0,1,1.054.036.571.571,0,0,1,.339.305,1.779,1.779,0,0,1,.262.971,1.486,1.486,0,0,1-.507,1.229.44.44,0,0,1-.275.1c-.263,0-.526,0-.788.014-.136.008-.189-.03-.162-.164h0q0-1.057,0-2.115c0-.1-.006-.191-.009-.286.005-.024.014-.05-.025-.053" transform="translate(-29.185 -101.238)" fill="#241e20"/>
      <path id="Path_9652" data-name="Path 9652" d="M33.408,91.612q0-.886,0-1.771c0-.105-.006-.211-.015-.316-.006-.068.02-.085.085-.085.177,0,.354-.007.531-.007a.643.643,0,0,1,.666.458,2.048,2.048,0,0,1,.081,1.143.772.772,0,0,1-.735.61,2.426,2.426,0,0,1-.617-.033h0" transform="translate(-29.316 -78.52)" fill="#241e20"/>
      <path id="Path_9653" data-name="Path 9653" d="M33.216,115.636c.039,0,.03.029.025.053-.05,0-.018-.035-.025-.053" transform="translate(-29.16 -101.526)" fill="#fda801"/>
      <path id="Path_9654" data-name="Path 9654" d="M33.394,135.737h0a.035.035,0,0,1-.013.005s-.006,0-.009-.007h.024" transform="translate(-29.298 -119.173)" fill="#fda801"/>
      <path id="Path_9655" data-name="Path 9655" d="M33.507,107.281h0" transform="translate(-29.415 -94.19)" fill="#fda801"/>
      <path id="Path_9656" data-name="Path 9656" d="M71.781,90.9c0-.434,0-.868,0-1.3,0-.1.025-.121.118-.115a8.235,8.235,0,0,1,.934.029.451.451,0,0,1,.306.2,2.008,2.008,0,0,1,.123,2.2.7.7,0,0,1-.728.426,5.242,5.242,0,0,0-.622,0c-.1,0-.131-.027-.13-.128.005-.434,0-.868,0-1.3" transform="translate(-63.02 -78.563)" fill="#241e20"/>
      <path id="Path_9657" data-name="Path 9657" d="M185.45,92.344c0,.637.008,1.274,0,1.911a1.049,1.049,0,0,1-.212.7.75.75,0,0,1-.6.277c-.253,0-.506.007-.759.011a.125.125,0,0,1-.118-.186.247.247,0,0,0,.018-.131q0-2.426,0-4.853c0-.177,0-.354-.007-.53,0-.09.028-.11.111-.109a4.213,4.213,0,0,1,1.024.047.637.637,0,0,1,.384.33,1.441,1.441,0,0,1,.157.671c0,.622,0,1.244,0,1.865h0" transform="translate(-161.325 -78.512)" fill="#241e20"/>
      <path id="Path_9658" data-name="Path 9658" d="M111.248,91.948c0,.7.006,1.394,0,2.091a1.13,1.13,0,0,1-.186.647.911.911,0,0,1-.824.293.706.706,0,0,1-.59-.56,2.561,2.561,0,0,1-.053-.585c.012-1.349-.017-2.7.017-4.046a.789.789,0,0,1,.729-.779.823.823,0,0,1,.908.816c.014.707,0,1.414,0,2.121h0" transform="translate(-96.218 -78.145)" fill="#241e20"/>
      <path id="Path_9659" data-name="Path 9659" d="M148.71,104.927c.054.252.111.5.161.757.077.382.147.765.224,1.147.034.168.075.336.119.5.017.064.011.1-.061.1-.288,0-.577.006-.865,0-.085,0-.125-.011-.094-.135.109-.429.2-.863.279-1.3a9.193,9.193,0,0,1,.237-1.074" transform="translate(-130.102 -92.124)" fill="#241e20"/>
    </g>
  </g>
</svg>
