<svg id="Component_126_1" data-name="Component 126 – 1" xmlns="http://www.w3.org/2000/svg" width="50" height="50" viewBox="0 0 50 50">
  <rect id="Rectangle_1042" data-name="Rectangle 1042" width="50" height="50" rx="10" fill="#e83e3f"/>
  <g id="H2lklm.tif" transform="translate(-38.604 -23.58)">
    <g id="Group_4469" data-name="Group 4469" transform="translate(40.8 39.735)">
      <path id="Path_9757" data-name="Path 9757" d="M40.8,39.74c1.993,0,3.873-.016,5.754.008a15.28,15.28,0,0,1,2.187.186,3.93,3.93,0,0,1,2.558,1.59A6.574,6.574,0,0,1,52.581,45.8a3.031,3.031,0,0,1-1.5,2.623c.218.121.379.2.541.291.089.048.178.081.258.129,1.84,1.017,2.606,5,1.275,6.617a3.5,3.5,0,0,1-2.55,1.122c-1.364.137-2.736.2-4.1.331-.533.048-.783-.089-.92-.646-.815-3.5-1.678-7-2.51-10.49a1.735,1.735,0,0,1,1.59-2.413,1.5,1.5,0,0,1,1.719,1.154c.145.565.2,1.162.387,1.719a.932.932,0,0,0,.613.516c1.743.169,2.284-.226,1.929-2.219a2.226,2.226,0,0,0-2.4-2c-1.073-.008-2.155.056-3.228.048a2.323,2.323,0,0,1-2.187-1.469C41.276,40.636,41.034,40.192,40.8,39.74Zm6.633,9.982c.242,1.291.476,2.534.71,3.777a.53.53,0,0,0,.218.355,1.964,1.964,0,0,0,2.268-.993C51.21,50.714,49.765,49.222,47.433,49.722Z" transform="translate(-40.8 -39.735)" fill="#fff"/>
      <path id="Path_9758" data-name="Path 9758" d="M211.284,95.563a2.77,2.77,0,0,1-3.405.557,2.093,2.093,0,0,1-1.372-1.84c-.339-3.655-.646-7.311-.984-10.966-.048-.484.161-.6.581-.6.71.008,1.42.016,2.13-.008.484-.016.678.161.71.67.169,3.026.371,6.052.573,9.086.024.347.048.686.089,1.025.073.492.234.928.839.92.629-.008.912-.436.993-.984a6.3,6.3,0,0,0-.008-1.17c-.1-2.816-.2-5.624-.3-8.433a1.445,1.445,0,0,1,1.477-1.638,1.39,1.39,0,0,1,1.582,1.509c.065,3.865.1,7.731.161,11.6.008.5-.186.767-.67.71C212.954,95.9,212.244,95.733,211.284,95.563Z" transform="translate(-192.223 -78.757)" fill="#fff"/>
      <path id="Path_9759" data-name="Path 9759" d="M332.056,57.9a10.5,10.5,0,0,1-1.775.581,2.452,2.452,0,0,1-3.1-2.4,30.607,30.607,0,0,1,.323-5.7,2.954,2.954,0,0,1,3.2-2.719,2.431,2.431,0,0,1,2.155,1.251,12.605,12.605,0,0,1,2.025-.742c.783-.145.9.024.815.823-.307,2.719-.613,5.447-.928,8.166-.089.759-.177,1.5-.25,2.259a3.091,3.091,0,0,1-2.227,2.816,5.053,5.053,0,0,1-3.526-.1,2.019,2.019,0,0,1-1.146-2.727,1.363,1.363,0,0,1,.993-.67,2.285,2.285,0,0,1,1.122.6c.121.089.1.363.145.557.1.476.258,1.033.815.952a1.465,1.465,0,0,0,.952-.823A11.5,11.5,0,0,0,332.056,57.9Zm-1.945-3.01a6.993,6.993,0,0,0,.258,1.275.743.743,0,0,0,1.34.178,1.674,1.674,0,0,0,.371-.783c.161-1.38.339-2.768.4-4.156.032-.629.016-1.4-.872-1.557-.557-.1-1.025.484-1.154,1.461C330.313,52.434,330.232,53.58,330.111,54.887Z" transform="translate(-304.055 -47.022)" fill="#fff"/>
      <path id="Path_9760" data-name="Path 9760" d="M431.883,73.284a4,4,0,0,0,.016.9c.073.274.234.718.4.734a1.194,1.194,0,0,0,.872-.355,1.722,1.722,0,0,0-.194-2.211,8.553,8.553,0,0,0-.88-.654,3.8,3.8,0,0,1-1.6-4.672,4.133,4.133,0,0,1,4.656-3.171,2.25,2.25,0,0,1,2.179,2.655,7.992,7.992,0,0,1-.307,1.436,1.325,1.325,0,0,1-1.59.968c-.637-.121-.9-.565-.831-1.412,0-.024.008-.048.008-.073.04-.476.282-1.081-.428-1.2-.686-.113-.872.516-1.041,1.025a1.379,1.379,0,0,0,.379,1.549c.323.3.654.6.993.872a3.422,3.422,0,0,1,1.259,4.414,4.251,4.251,0,0,1-5.019,2.792,1.629,1.629,0,0,1-1.453-1.743c-.121-1.9-.121-1.9,1.783-1.888C431.342,73.252,431.584,73.276,431.883,73.284Z" transform="translate(-397.91 -61.885)" fill="#fff"/>
      <path id="Path_9761" data-name="Path 9761" d="M544.778,58.8c-.226.573-.379.984-.541,1.38-.912,2.219-1.816,4.438-2.744,6.641a1.968,1.968,0,0,1-.613.872,1.229,1.229,0,0,1-.993.1c-.234-.1-.371-.516-.46-.815a1.485,1.485,0,0,1,.073-.718c.557-2.251,1.13-4.5,1.662-6.762a.758.758,0,0,1,.9-.7C542.914,58.829,543.769,58.8,544.778,58.8Z" transform="translate(-499.169 -57.251)" fill="#fff"/>
      <path id="Path_9762" data-name="Path 9762" d="M528.471,181.725a1.268,1.268,0,1,1,1.267-1.259A1.294,1.294,0,0,1,528.471,181.725Z" transform="translate(-487.946 -167.938)" fill="#fff"/>
    </g>
  </g>
</svg>
