<svg id="Component_112_1" data-name="Component 112 – 1" xmlns="http://www.w3.org/2000/svg" xmlns:xlink="http://www.w3.org/1999/xlink" width="50" height="50" viewBox="0 0 50 50">
  <defs>
    <linearGradient id="linear-gradient" x1="0.5" x2="0.5" y2="1" gradientUnits="objectBoundingBox">
      <stop offset="0" stop-color="#f4f4f4"/>
      <stop offset="1" stop-color="#f2f2fd"/>
    </linearGradient>
    <clipPath id="clip-path">
      <rect id="Rectangle_995" data-name="Rectangle 995" width="34.294" height="30" fill="none"/>
    </clipPath>
  </defs>
  <rect id="Rectangle_994" data-name="Rectangle 994" width="50" height="50" rx="10" fill="url(#linear-gradient)"/>
  <g id="Group_4417" data-name="Group 4417" transform="translate(8 10)">
    <g id="Group_4416" data-name="Group 4416" clip-path="url(#clip-path)">
      <path id="Path_4135" data-name="Path 4135" d="M34.262,15.852q.005,2.8.011,5.6c0,.172.013.344.02.515a1.325,1.325,0,0,1-1.85,1.021c-.052-.026-.108-.072-.159-.068a1.6,1.6,0,0,0-1.012,1.125,9.861,9.861,0,0,1-.1,1.239.524.524,0,0,1-.591.456c-.642-.015-1.285-.007-1.927,0a.662.662,0,0,1-.727-.565l0-3.3q0-1.649,0-3.3t0-3.3q.014-1.29.028-2.581c.006-.582.218-.8.808-.81.533-.008,1.065,0,1.6,0,.669,0,.911.239.918.913a4.594,4.594,0,0,0,.026,1.074c.048.187.348.308.534.46.065-.138.208-.29.184-.41A13.9,13.9,0,0,0,31,10.272l-.465-.936-.093-.188a11.675,11.675,0,0,0-1.026-1.6c-.743-.836-1.55-1.619-2.369-2.384a10.688,10.688,0,0,0-3.879-2.212,29.421,29.421,0,0,0-3.783-.945,11.454,11.454,0,0,0-2.255-.192c-.753,0-1.5.115-2.258.177A13.468,13.468,0,0,0,10.6,3.13,14.066,14.066,0,0,0,5.679,6.6a15.049,15.049,0,0,0-2.467,3.78,10.107,10.107,0,0,0-.466,1.079,6.727,6.727,0,0,0-.183.937c-.119.665-.235,1.33-.365,2.064.638-.243.919-.577.823-1.164a3.411,3.411,0,0,1,0-.564c0-.589.258-.85.836-.852.533,0,1.068.027,1.6-.009a.818.818,0,0,1,.891.573q.013,3.063.026,6.125,0,1.931,0,3.862c-.01.8-.021,1.6-.028,2.394-.006.679-.179.879-.851.9-.579.018-1.16.011-1.739,0a.7.7,0,0,1-.732-.72,2.361,2.361,0,0,1,0-.47,1.213,1.213,0,0,0-.646-1.388c-.244-.137-.368-.284-.713-.1A1.175,1.175,0,0,1,.021,21.957q-.009-1.55-.021-3.1c.007-.891,0-1.784.033-2.674a3.173,3.173,0,0,1,.246-.764,2.688,2.688,0,0,0,.1-.387c.089-.555.188-1.11.25-1.668.037-.332.015-.672.019-1.008.257-.786.484-1.583.777-2.356A12.872,12.872,0,0,1,3.792,5.982a12.679,12.679,0,0,1,2.84-2.675,1.285,1.285,0,0,0,.248-.272Q8.053,2.4,9.225,1.761A15.96,15.96,0,0,1,13.342.392a19.578,19.578,0,0,1,5.122-.37l.38.07A14.7,14.7,0,0,1,23.12.985c1.3.5,2.543,1.168,3.811,1.761a17.055,17.055,0,0,1,4.312,4.164,14.9,14.9,0,0,1,2.208,4.907,1.831,1.831,0,0,0,.172.353c.1,1.02.18,2.043.307,3.059a2.023,2.023,0,0,0,.333.623" transform="translate(0 0)"/>
      <path id="Path_4136" data-name="Path 4136" d="M196.365.3l-.38-.07.38.07" transform="translate(-177.522 -0.212)" fill="#f2f2f2"/>
      <path id="Path_4137" data-name="Path 4137" d="M121.572,279.624l-1.713-1.776a1.688,1.688,0,0,1,.4-.09c.811.02,1.622.073,2.433.071.189,0,.378-.174.567-.268a.507.507,0,0,0,.049-.062l1.812,1.888-.26.334a3.011,3.011,0,0,0-.4.288c-.4.4-.8.812-1.318,1.346l-1.571-1.732" transform="translate(-108.567 -251.355)" fill="#ec0116"/>
      <path id="Path_4138" data-name="Path 4138" d="M151.97,272.994l.154.156a.347.347,0,0,0-.075.047l-.1-.184.02-.019" transform="translate(-137.635 -247.276)" fill="#ec0116"/>
      <path id="Path_4139" data-name="Path 4139" d="M147.2,268l.08.013a.672.672,0,0,0,.012.08l-.019.019L147.2,268" transform="translate(-133.334 -242.757)" fill="#ec0116"/>
      <path id="Path_4140" data-name="Path 4140" d="M147.992,268.988l.094.094-.019.019-.094-.095.019-.019" transform="translate(-134.033 -243.647)" fill="#ec0116"/>
      <path id="Path_4141" data-name="Path 4141" d="M148.99,269.988l.094.094-.019.019-.094-.094.019-.019" transform="translate(-134.937 -244.553)" fill="#ec0116"/>
      <path id="Path_4142" data-name="Path 4142" d="M150.989,271.984l.093.1-.02.019L150.97,272Z" transform="translate(-136.747 -246.361)" fill="#ec0116"/>
      <path id="Path_4143" data-name="Path 4143" d="M153.084,274.652l.085.092a.478.478,0,0,0-.066.049l-.094-.095a.346.346,0,0,1,.075-.047" transform="translate(-138.594 -248.778)" fill="#ec0116"/>
      <path id="Path_4144" data-name="Path 4144" d="M154.07,275.634l.09.095a.538.538,0,0,0-.062.049l-.094-.094a.472.472,0,0,1,.066-.049" transform="translate(-139.496 -249.667)" fill="#ec0116"/>
      <path id="Path_4145" data-name="Path 4145" d="M155.064,276.64l.081.081a.511.511,0,0,1-.049.062l-.094-.094a.516.516,0,0,1,.062-.049" transform="translate(-140.4 -250.578)" fill="#ec0116"/>
      <path id="Path_4146" data-name="Path 4146" d="M149.99,270.988l.094.094-.019.019-.094-.094.019-.019" transform="translate(-135.843 -245.459)" fill="#ec0116"/>
      <path id="Path_4147" data-name="Path 4147" d="M90.727,230.345l.66.552,2.836,2.892.106.107v0L94.4,234l.094.095.094.094.094.094.092.095.1.184.094.095.094.095.094.094c-.189.094-.378.267-.567.268-.811,0-1.622-.051-2.433-.071a1.688,1.688,0,0,0-.4.09l-2.912-2.91c0-.042,0-.083-.005-.124l-.006,0,.1-.1-.006.005.2-.2.667-.733.261-.2.109-.106.177-.176.2-.2,0,0,.2-.063" transform="translate(-80.46 -208.645)" fill="#ef011c"/>
      <path id="Path_4148" data-name="Path 4148" d="M90.045,245.929l-.2.2.2-.2" transform="translate(-81.385 -222.761)" fill="#ec0116"/>
      <path id="Path_4149" data-name="Path 4149" d="M88.93,247.971l-.1.1.1-.1" transform="translate(-80.46 -224.61)" fill="#ec0116"/>
      <path id="Path_4150" data-name="Path 4150" d="M88.889,249l.005.124L88.889,249" transform="translate(-80.515 -225.54)" fill="#ec0116"/>
      <path id="Path_4151" data-name="Path 4151" d="M324.406,100.037c-.022.021-.055.064-.065.059a1.083,1.083,0,0,1-.4-1l.465.936" transform="translate(-293.406 -89.765)" fill="#fafafa"/>
      <path id="Path_4152" data-name="Path 4152" d="M146.2,267.014l-.106-.107.106.107" transform="translate(-132.329 -241.762)" fill="#ec0116"/>
      <path id="Path_4153" data-name="Path 4153" d="M116.512,187.537v-1.208h8.521l.563.089q.011.512.021,1.024-.015.707-.03,1.414-4.086,0-8.173,0a2.407,2.407,0,0,0-.482.1h-.42Z" transform="translate(-105.536 -168.775)" fill="#f40025"/>
      <path id="Path_4154" data-name="Path 4154" d="M120.975,213.256a2.408,2.408,0,0,1,.482-.1q4.086-.009,8.173,0c-.121.063-.243.181-.364.181-2.592-.01-5.185-.032-7.777-.053-.171,0-.342-.016-.513-.024" transform="translate(-109.578 -193.072)" fill="#f10000"/>
      <path id="Path_4155" data-name="Path 4155" d="M105.007,230.986l-.2.2.2-.2" transform="translate(-94.938 -209.225)" fill="#ec0116"/>
      <path id="Path_4156" data-name="Path 4156" d="M107.055,230.345l-.2.063.2-.063" transform="translate(-96.788 -208.645)" fill="#ec0116"/>
      <path id="Path_4157" data-name="Path 4157" d="M101.889,234.936l-.109.106.109-.106" transform="translate(-92.192 -212.803)" fill="#ec0116"/>
      <path id="Path_4158" data-name="Path 4158" d="M110.7,85.292c-.044.152-.041.351-.139.448-.974.959-1.965,1.9-2.95,2.847a2.9,2.9,0,0,1-.661.173q-1.316.03-2.633,0c-.1,0-.2-.187-.3-.288l.279-.358q1.647-1.628,3.292-3.258c.43-.427.848-.866,1.293-1.322l1.821,1.763" transform="translate(-94.22 -75.66)" fill="#fc012f"/>
      <path id="Path_4159" data-name="Path 4159" d="M89.38,135.947c.1.1.2.285.3.288q1.316.035,2.633,0a2.9,2.9,0,0,0,.661-.173l-2.119,2.255-.984,1.045-2.016-2.016,1.523-1.4" transform="translate(-79.58 -123.14)" fill="#f80029"/>
      <path id="Path_4160" data-name="Path 4160" d="M207.53,185.121l-.563-.089c.217-.156.421-.234.563.089" transform="translate(-187.469 -167.478)" fill="#ffc5c9"/>
    </g>
  </g>
</svg>
