<svg id="Component_127_1" data-name="Component 127 – 1" xmlns="http://www.w3.org/2000/svg" xmlns:xlink="http://www.w3.org/1999/xlink" width="50" height="50" viewBox="0 0 50 50">
  <defs>
    <clipPath id="clip-path">
      <rect id="Rectangle_1043" data-name="Rectangle 1043" width="14" height="28.704" fill="none"/>
    </clipPath>
  </defs>
  <g id="Rectangle_1029" data-name="Rectangle 1029" fill="#fff" stroke="#e6e6e6" stroke-width="0.7">
    <rect width="50" height="50" rx="10" stroke="none"/>
    <rect x="0.35" y="0.35" width="49.3" height="49.3" rx="9.65" fill="none"/>
  </g>
  <g id="Group_4471" data-name="Group 4471" transform="translate(18 10.648)">
    <g id="Group_4470" data-name="Group 4470" clip-path="url(#clip-path)">
      <path id="Path_9763" data-name="Path 9763" d="M13.977,21.6a5.822,5.822,0,0,1-.147,1.812,6.021,6.021,0,0,1-.966,2.065,7.1,7.1,0,0,1-4.754,3.1,6.621,6.621,0,0,1-4.185-.53,7.012,7.012,0,0,1-2.5-1.865A2.052,2.052,0,0,1,1.308,23.8a2.066,2.066,0,0,1,1.857-1.194,2.441,2.441,0,0,1,2,.786,2.388,2.388,0,0,0,1.711.631A2.2,2.2,0,0,0,8.427,23.5a2.371,2.371,0,0,0,.944-1.472,4.132,4.132,0,0,0,.064-1.41c0-.164-.142-.13-.246-.05a5.383,5.383,0,0,1-3.1.447A6.633,6.633,0,0,1,1.856,18.8a6.939,6.939,0,0,1-1.63-2.879A9.493,9.493,0,0,1,0,14.441c.089-.075.072-.178.072-.276q0-3.66-.008-7.321A2.714,2.714,0,0,1,.279,5.349,6.811,6.811,0,0,1,5.325.526a5.671,5.671,0,0,1,4.442.565.458.458,0,0,0,.57-.023A11.861,11.861,0,0,1,11.88.156a1.433,1.433,0,0,1,2.091.894q0,7.085,0,14.171,0,3.192.009,6.383M4.658,7.014c-.1.108-.067.24-.067.365q0,3.307,0,6.614c0,.124-.027.257.07.364a2.368,2.368,0,0,0,4.715-.086.479.479,0,0,0,.073-.363q0-3.221,0-6.443c0-.124.026-.257-.071-.364a3.186,3.186,0,0,0-.105-.4A2.073,2.073,0,0,0,7.635,5,2.341,2.341,0,0,0,4.658,7.014" transform="translate(0 0.001)" fill="#2669b2"/>
    </g>
  </g>
</svg>
