<svg id="Component_118_17" data-name="Component 118 – 17" xmlns="http://www.w3.org/2000/svg" width="50" height="50" viewBox="0 0 50 50">
  <rect id="Rectangle_1008" data-name="Rectangle 1008" width="50" height="50" rx="10" fill="#cf0a2c"/>
  <g id="layer1" transform="translate(10 -251.026)">
    <g id="g11533" transform="translate(0 260.773)">
      <path id="path4250" d="M30.324,152.133v2.851c0,.81-.4,1.242-1.132,1.242s-1.139-.445-1.139-1.277v-2.813h-1.01v2.848a1.976,1.976,0,0,0,2.135,2.2,2,2,0,0,0,2.156-2.245v-2.81Zm3.717,0-2.194,4.978h1.031l.424-.964.03-.072h2.279l.447,1.036h1.059l-2.174-4.948-.02-.029Zm6.007,0-1.131,3.425-1.1-3.422H36.741l1.735,4.978h.837l1.133-3.27,1.132,3.27h.844l1.731-4.978H43.105L42,155.558l-1.131-3.425Zm9.886,0v4.974h1v-4.974Zm-28.594,0v4.98H22.35v-2.023h2.282v2.023h1.011v-4.98H24.631v2.009H22.35v-2.009Zm23.628,0v4.974h3.761V156.2H45.964v-1.233H47.8v-.907H45.964v-1.02h2.668v-.907Zm-10.5,1.257.72,1.667h0l.049.115H33.707l.048-.115h0Z" transform="translate(-21.113 -126.681)" fill="#fff"/>
      <path id="path4252" d="M33.88,121.909c-.4.035-1.484.282-1.484.282h0a4.231,4.231,0,0,0-3.208,3.961v.49a6.021,6.021,0,0,0,.2,1.321c.815,3.616,4.825,9.558,5.687,10.806.061.061.11.039.11.039a.112.112,0,0,0,.086-.115h0c1.327-13.267-1.393-16.783-1.393-16.783Zm4.386,0s-2.732,3.518-1.4,16.793h0a.114.114,0,0,0,.07.1.109.109,0,0,0,.134-.051h0c.884-1.28,4.871-7.189,5.683-10.791a6.107,6.107,0,0,0,.015-2.925,4.278,4.278,0,0,0-3.048-2.844s-.7-.179-1.453-.284Zm-12.6,3.983s-2.326,2.208-2.442,4.548h0v.355c0,.027,0,.054,0,.081a4.411,4.411,0,0,0,1.52,3c2.288,2.23,7.827,5.045,9.114,5.683a.108.108,0,0,0,.124-.021.1.1,0,0,0,.03-.043v-.059a.076.076,0,0,0,0-.01h0a68.551,68.551,0,0,0-8.348-13.539Zm20.813,0a68.522,68.522,0,0,0-8.331,13.5h0a.129.129,0,0,0,.026.147.137.137,0,0,0,.048.021h.049a.093.093,0,0,0,.027-.012h0c1.322-.656,6.819-3.453,9.1-5.672a4.439,4.439,0,0,0,1.517-3.017c.166-2.582-2.433-4.972-2.433-4.972Zm4.327,7.645s-7.838,4.206-11.891,6.94h0a.122.122,0,0,0-.048.134s.038.07.094.07h0c1.452,0,6.945.009,7.082-.017a5.524,5.524,0,0,0,1.588-.366,5.407,5.407,0,0,0,2.969-2.84,5.509,5.509,0,0,0,.47-2.231v-.055a5.3,5.3,0,0,0-.266-1.638Zm-29.47.02a5.459,5.459,0,0,0,3.159,6.744,5.638,5.638,0,0,0,1.764.387c.138.025,5.484,0,6.917,0a.121.121,0,0,0,.094-.061.079.079,0,0,0,.01-.02v-.055a.154.154,0,0,0-.044-.063h0c-4.051-2.733-11.9-6.928-11.9-6.928Zm11.676,7.806-9.221.323c1,1.783,2.684,3.168,4.438,2.742,1.211-.3,3.953-2.216,4.859-2.862l0,0c.07-.063.045-.114.045-.114a.125.125,0,0,0-.118-.083Zm6.107.007v0a.135.135,0,0,0-.1.071.13.13,0,0,0,.035.124h0a24.148,24.148,0,0,0,4.848,2.867,2,2,0,0,0,.523.078h.2c.864-.03,2.369-.474,3.736-2.823Z" transform="translate(-21.071 -121.909)" fill="#fff"/>
    </g>
  </g>
</svg>
