<svg id="Component_111_1" data-name="Component 111 – 1" xmlns="http://www.w3.org/2000/svg" width="50" height="50" viewBox="0 0 50 50">
  <rect id="Rectangle_993" data-name="Rectangle 993" width="50" height="50" rx="10" fill="#c6002b"/>
  <g id="default---square-logos" transform="translate(3.8 -3.9)">
    <g id="iheart-radio" transform="translate(1.2 13.9)">
      <g id="iHeartRadio_Logo_iHR-Vertical-Color" transform="translate(0 0)">
        <path id="Fill-6" d="M25.061,21.31c0,3.074-1.639,6.066-4.918,8.934a.851.851,0,0,1-.492.2.809.809,0,0,1-.574-.246.733.733,0,0,1,.082-1.066c2.91-2.582,4.385-5.2,4.385-7.828v-.041a7.172,7.172,0,0,0-3.033-5.656.745.745,0,0,1,.779-1.27,8.728,8.728,0,0,1,3.77,6.967Zm-9.8,6.393a.609.609,0,0,1-.369.082.742.742,0,0,1-.369-1.393,5.615,5.615,0,0,0,2.91-4.754,4.537,4.537,0,0,0-2.459-4.057.761.761,0,1,1,.7-1.352A6.17,6.17,0,0,1,18.954,21.6v.041A7.219,7.219,0,0,1,15.266,27.7ZM9.2,25.49a3.279,3.279,0,1,1,3.279-3.279A3.288,3.288,0,0,1,9.2,25.49ZM4.159,27.416a.739.739,0,0,1-.656.369,1.2,1.2,0,0,1-.369-.082A7.153,7.153,0,0,1-.554,21.679v-.041a6.044,6.044,0,0,1,3.279-5.369.761.761,0,0,1,.7,1.352A4.537,4.537,0,0,0,.962,21.679a5.758,5.758,0,0,0,2.91,4.754A.689.689,0,0,1,4.159,27.416ZM-.677,30.2a.809.809,0,0,1-.574.246.756.756,0,0,1-.492-.2c-3.238-2.869-4.918-5.9-4.918-8.934v-.041a8.724,8.724,0,0,1,3.73-6.926.732.732,0,0,1,1.025.246.732.732,0,0,1-.246,1.025,7.314,7.314,0,0,0-2.992,5.656v.041c0,2.582,1.475,5.246,4.385,7.828A.77.77,0,0,1-.677,30.2ZM18.3,10.9a11.016,11.016,0,0,0-9.1,4.918A11.073,11.073,0,0,0,.1,10.9,10.9,10.9,0,0,0-10.8,21.8c0,3.811,2.418,6.557,4.959,9.139l9.877,9.344a.8.8,0,0,0,1.352-.574V32.375a3.811,3.811,0,1,1,7.623,0v7.3a.8.8,0,0,0,1.352.574L24.241,30.9c2.541-2.541,4.959-5.287,4.959-9.139A10.888,10.888,0,0,0,18.3,10.9Z" transform="translate(10.8 -10.9)" fill="#fff" fill-rule="evenodd"/>
      </g>
    </g>
  </g>
</svg>
