<svg id="Component_136_1" data-name="Component 136 – 1" xmlns="http://www.w3.org/2000/svg" width="50" height="50" viewBox="0 0 50 50">
  <rect id="Rectangle_1055" data-name="Rectangle 1055" width="50" height="50" rx="10" fill="#06112f"/>
  <g id="DlLyus.tif" transform="translate(2.004 2.003)">
    <g id="Group_4477" data-name="Group 4477" transform="translate(6.994 6.997)">
      <path id="Path_9781" data-name="Path 9781" d="M23.337,39h-.7a.22.22,0,0,0-.05-.015c-.368-.022-.737-.034-1.1-.067-.339-.03-.679-.07-1.015-.127-.425-.072-.847-.158-1.267-.252a14.327,14.327,0,0,1-2.251-.721,15.387,15.387,0,0,1-1.632-.777,14.517,14.517,0,0,1-1.807-1.157c-.36-.273-.71-.559-1.055-.85-.256-.216-.5-.445-.741-.678-.176-.17-.342-.351-.505-.534-.247-.277-.5-.549-.727-.844q-.509-.67-.979-1.369a13.42,13.42,0,0,1-.93-1.657,15.892,15.892,0,0,1-1.42-4.618c-.044-.293-.071-.588-.1-.883C7.03,24.133,7,23.818,7,23.5c-.007-.449,0-.9.014-1.348.006-.245.025-.489.05-.732.029-.276.064-.552.109-.825.058-.361.117-.722.2-1.079A15.575,15.575,0,0,1,7.994,17.4a14.2,14.2,0,0,1,.882-1.942q.377-.676.8-1.324c.241-.368.507-.72.773-1.071.16-.212.335-.413.512-.611.248-.277.5-.552.759-.817.2-.2.41-.388.62-.575s.435-.391.667-.568c.382-.291.769-.577,1.167-.845a15.254,15.254,0,0,1,2.855-1.5,15.072,15.072,0,0,1,3.345-.929q.684-.1,1.373-.172c.32-.032.643-.043.964-.044q.554,0,1.109.027c.375.021.75.055,1.124.1.286.031.57.079.854.125a14.748,14.748,0,0,1,1.572.357c.072.02.081.051.081.113q0,7.239,0,14.478a3.887,3.887,0,0,1-.018.458c-.035.293-.067.589-.127.877a4.172,4.172,0,0,1-1.266,2.283,4.237,4.237,0,0,1-.857.609,5.49,5.49,0,0,1-2.188.621c-.1.009-.1.007-.1.115V32.2a.281.281,0,0,1,0,.032c-.006.053.009.077.07.071.087-.008.174-.006.261-.009.258-.011.517-.012.774-.037.334-.032.669-.068,1-.127.385-.069.769-.153,1.147-.253a9.1,9.1,0,0,0,2.058-.825,8.689,8.689,0,0,0,2.134-1.631,9.069,9.069,0,0,0,.773-.929,9.261,9.261,0,0,0,1.027-1.835,10.365,10.365,0,0,0,.587-1.88,10.221,10.221,0,0,0,.209-1.389c.023-.307.06-.614.06-.921q.006-5.933,0-11.866v-.092a.317.317,0,0,1,.045.025c.36.317.73.624,1.077.954.3.284.575.59.853.894A14.123,14.123,0,0,1,36.1,13.812a16.075,16.075,0,0,1,1.943,3.728,14.758,14.758,0,0,1,.539,1.822c.073.326.134.654.192.983.04.224.068.45.1.676s.059.458.077.688.023.485.035.727a.209.209,0,0,0,.015.048V23.5a.155.155,0,0,0-.015.041c-.017.276-.026.553-.05.828-.03.342-.061.685-.114,1.024-.065.41-.147.817-.236,1.222a14.642,14.642,0,0,1-.666,2.168,15.837,15.837,0,0,1-.848,1.827,14.165,14.165,0,0,1-1.075,1.708c-.267.358-.546.707-.829,1.053-.18.221-.369.434-.566.64-.213.223-.435.439-.662.648-.272.25-.543.5-.831.731-.372.3-.753.581-1.144.851a15.2,15.2,0,0,1-2.24,1.27,14.933,14.933,0,0,1-2.259.845c-.476.134-.96.243-1.444.349-.27.059-.547.091-.821.131-.179.026-.359.047-.539.065-.238.024-.477.046-.716.062-.185.012-.37.012-.554.018A.262.262,0,0,0,23.337,39Z" transform="translate(-6.994 -6.997)" fill="#fff"/>
    </g>
  </g>
</svg>
