<svg id="Component_109_5" data-name="Component 109 – 5" xmlns="http://www.w3.org/2000/svg" width="50" height="50" viewBox="0 0 50 50">
  <rect id="Rectangle_1028" data-name="Rectangle 1028" width="50" height="50" rx="10" fill="#00e15d"/>
  <g id="joox-icon" transform="translate(3 3)">
    <g id="oWI0rq.tif" transform="translate(3.996 4.16)">
      <g id="Group_4453" data-name="Group 4453">
        <g id="Group_4452" data-name="Group 4452">
          <path id="Path_9696" data-name="Path 9696" d="M45.41,65.175c.046.741.047,1.488.143,2.222A18.042,18.042,0,0,0,73.035,80.312a2.073,2.073,0,0,1,1.6-.31c1.318.253,2.648.444,3.964.708.589.118.658-.084.558-.587-.261-1.31-.457-2.635-.751-3.937a1.828,1.828,0,0,1,.289-1.493A17.5,17.5,0,0,0,81.2,62.143,18.032,18.032,0,0,0,45.41,65.175Z" transform="translate(-45.41 -47.274)" fill="#00e15d"/>
          <path id="Path_9697" data-name="Path 9697" d="M45.41,65.175A18.032,18.032,0,0,1,81.2,62.143a17.5,17.5,0,0,1-2.506,12.55,1.824,1.824,0,0,0-.289,1.493c.294,1.3.49,2.627.751,3.937.1.5.031.7-.558.587-1.316-.263-2.645-.455-3.964-.708a2.078,2.078,0,0,0-1.6.31A18.042,18.042,0,0,1,45.553,67.4C45.457,66.662,45.456,65.916,45.41,65.175Zm25.4,0a7.377,7.377,0,1,0-7.353,7.3A7.311,7.311,0,0,0,70.806,65.176Z" transform="translate(-45.41 -47.274)" fill="#191919"/>
          <path id="Path_9698" data-name="Path 9698" d="M181.094,174.592a7.377,7.377,0,1,1-7.307-7.344A7.327,7.327,0,0,1,181.094,174.592Zm-5.447.047a1.929,1.929,0,1,0-1.994,1.874A1.96,1.96,0,0,0,175.647,174.639Z" transform="translate(-155.698 -156.691)" fill="#eaf6e5"/>
          <path id="Path_9699" data-name="Path 9699" d="M232.128,230.918a1.929,1.929,0,1,1-1.906-1.96A1.966,1.966,0,0,1,232.128,230.918Z" transform="translate(-212.18 -212.97)" fill="#191919"/>
        </g>
      </g>
    </g>
  </g>
</svg>
