<svg id="Component_114_2" data-name="Component 114 – 2" xmlns="http://www.w3.org/2000/svg" xmlns:xlink="http://www.w3.org/1999/xlink" width="50" height="50" viewBox="0 0 50 50">
  <defs>
    <clipPath id="clip-path">
      <rect id="Rectangle_1022" data-name="Rectangle 1022" width="32" height="32.024" fill="#b3529f"/>
    </clipPath>
  </defs>
  <g id="Component_104_4" data-name="Component 104 – 4">
    <rect id="Rectangle_1021" data-name="Rectangle 1021" width="50" height="50" rx="10" fill="#b3529f"/>
    <g id="Group_4448" data-name="Group 4448" transform="translate(9.018 9.004)">
      <g id="Group_4447" data-name="Group 4447" clip-path="url(#clip-path)">
        <path id="Path_9681" data-name="Path 9681" d="M17.724,0l-.617.07,0,.021a1.761,1.761,0,0,0,.209.024,11.016,11.016,0,0,1,2.972.493,15.611,15.611,0,0,1,6.228,3.377,15.888,15.888,0,0,1,5.18,8.97,15.605,15.605,0,0,1,.3,3.1q0,7.148,0,14.3c0,.212,0,.214-.206.178-.512-.09-1.023-.188-1.536-.272-.152-.025-.159-.113-.158-.232q0-6.325,0-12.651c0-.614.011-1.229,0-1.842a13.441,13.441,0,0,0-.844-4.366A14.2,14.2,0,0,0,18.825,2.18a14.21,14.21,0,0,0-3.777-.249A13.541,13.541,0,0,0,9.74,3.358a14.015,14.015,0,0,0-7.062,7.963,13.332,13.332,0,0,0-.8,4.278A14.156,14.156,0,0,0,9.994,28.8a13.613,13.613,0,0,0,3.785,1.163,13.323,13.323,0,0,0,4.208.02c.738-.12,1.463-.318,2.2-.474a.951.951,0,0,1,.355-.016c.905.161,1.809.332,2.713.5a2.435,2.435,0,0,1,.338.073A13.478,13.478,0,0,1,19.7,31.578a15.685,15.685,0,0,1-10.158-.923A15.992,15.992,0,0,1,.1,14.157,15.622,15.622,0,0,1,2.663,7.193,15.779,15.779,0,0,1,8.1,2.111a14.584,14.584,0,0,1,7.1-2.023L14.533,0Z" transform="translate(0)" fill="#b3529f"/>
        <path id="Path_9682" data-name="Path 9682" d="M260.6,263.107l-.615-.116c-.36-.067-.72-.137-1.082-.2-.12-.021-.16-.076-.16-.2q0-6.4,0-12.8a13.067,13.067,0,0,0-.435-3.757,11.081,11.081,0,0,0-4.393-6.127,10.806,10.806,0,0,0-4.7-1.884,11.211,11.211,0,0,0-11.789,6.228,11.209,11.209,0,0,0,7.8,15.805,11.116,11.116,0,0,0,6.423-.547c.065-.025.132-.043.215-.069a1.1,1.1,0,0,1,.019.138c0,.548,0,1.1,0,1.645a.246.246,0,0,1-.2.279,13.673,13.673,0,0,1-3.838.663A12.635,12.635,0,0,1,241,260.42a12.991,12.991,0,0,1-5.924-7.338,12.468,12.468,0,0,1-.611-4.519,13.137,13.137,0,0,1,10.111-12.206,12.561,12.561,0,0,1,4.081-.289,13.083,13.083,0,0,1,11.95,13.089q0,6.934,0,13.868c0,.021,0,.042-.007.082" transform="translate(-231.537 -233.082)" fill="#b3529f"/>
        <path id="Path_9683" data-name="Path 9683" d="M483.609,488.188a.763.763,0,0,1,.018.1q0,.946,0,1.892a.2.2,0,0,1-.144.2,10.85,10.85,0,0,1-2.67.785,10.126,10.126,0,0,1-2.114.091,10.122,10.122,0,0,1-6.539-2.894,10.244,10.244,0,0,1-2.471-3.873,9.7,9.7,0,0,1-.581-3.449,10.039,10.039,0,0,1,2.6-6.7,10.123,10.123,0,0,1,14.4-.74,10.075,10.075,0,0,1,3.138,5.536,10.926,10.926,0,0,1,.2,2.223q0,6.407,0,12.814c0,.393,0,.4-.387.33-.447-.078-.893-.166-1.341-.243-.112-.019-.163-.065-.16-.182,0-.186,0-.373,0-.559,0-4.068-.005-8.137.006-12.205a8.272,8.272,0,0,0-1.709-5.24,7.932,7.932,0,0,0-5.2-3.123,8.051,8.051,0,0,0-8.022,3.208,7.518,7.518,0,0,0-1.59,3.977,8.126,8.126,0,0,0,3.378,7.685,7.719,7.719,0,0,0,3.741,1.5,8.236,8.236,0,0,0,5.158-.963c.09-.05.175-.109.282-.177" transform="translate(-463.283 -465.102)" fill="#b3529f"/>
        <path id="Path_9684" data-name="Path 9684" d="M715.188,715.275q0,.227,0,.454c0,.614-.007,1.228.007,1.842a.465.465,0,0,1-.234.454,7.247,7.247,0,0,1-2.9,1.176,7.262,7.262,0,0,1-8.4-6.095,7.21,7.21,0,0,1,5.4-8.071,7.27,7.27,0,0,1,9.019,7.072q.008,6.349,0,12.7c0,.048-.006.1-.011.166-.246-.044-.476-.084-.705-.127-.323-.06-.644-.137-.969-.175-.182-.021-.218-.088-.218-.256q.006-6.226,0-12.452a5.1,5.1,0,0,0-1.4-3.547,5.162,5.162,0,0,0-2.9-1.63,5.3,5.3,0,0,0-5.935,3.058,5.179,5.179,0,0,0,.729,5.6,5.049,5.049,0,0,0,3.651,1.948,5.292,5.292,0,0,0,4.667-1.926c.056-.065.1-.138.155-.207l.041.011" transform="translate(-694.84 -696.039)" fill="#b3529f"/>
      </g>
    </g>
    <rect id="Rectangle_1030" data-name="Rectangle 1030" width="50" height="50" rx="10" fill="#b3529f"/>
  </g>
  <g id="logo_kuack" transform="translate(8.001 5.932)">
    <path id="Path_9734" data-name="Path 9734" d="M32.41,25.921a7.95,7.95,0,0,0-.668-3.155c-1.658-5.134-7.032-6.978-9.331-11.283,2.834.722,5.561-.241,6.31-2.353.7-1.925-.561-4.2-2.834-5.481a8.23,8.23,0,0,0-5.722-.561c-4.118,1.283-3.208,4.786-2.62,6.23a44.22,44.22,0,0,0,3.743,6.2,19.77,19.77,0,0,0-3.823-.321A19.5,19.5,0,0,0,9.71,16.857a14.692,14.692,0,0,0-4.064,2.674c-.241.241-.508.508-.722.749l-.107.107-.027.027A8.683,8.683,0,0,0,2.6,26.162c.053,5.962,6.765,10.748,15,10.668a19.184,19.184,0,0,0,7.486-1.551c.027,0,.053-.027.08-.027.08-.027.16-.08.241-.107l.16-.08c.027-.027.08-.027.107-.053a15.251,15.251,0,0,0,3.877-2.647v-.027A8.966,8.966,0,0,0,32.41,25.921Z" transform="translate(-0.439 -0.529)" fill="#ef3c25"/>
    <path id="Path_9735" data-name="Path 9735" d="M32,59.846c.053,6.016-6.631,10.962-14.893,11.016C8.817,70.942,2.053,66.129,2,60.113S8.6,49.151,16.892,49.1C25.18,49.017,31.945,53.83,32,59.846Z" transform="translate(0 -34.454)" fill="#ef3c25"/>
    <path id="Path_9736" data-name="Path 9736" d="M2.2,60.007c.053,6.016,6.818,10.748,15.107,10.748A17.445,17.445,0,0,0,29.284,66.29a15.593,15.593,0,0,0-4.385-14.2,16.014,16.014,0,0,0-3.85-2.781,21.084,21.084,0,0,0-3.93-.321C8.83,49.071,2.146,53.991,2.2,60.007Z" transform="translate(-0.147 -34.374)" fill="#faac1b"/>
    <path id="Path_9737" data-name="Path 9737" d="M11.518,68.785a9.645,9.645,0,0,0-2.567,8.957c2.62,3.235,7.46,5.428,13.021,5.374a17.917,17.917,0,0,0,3.422-.294,3.337,3.337,0,0,0,.321-.241,9.9,9.9,0,0,0-14.2-13.8Z" transform="translate(-4.92 -46.709)" fill="#e86f25"/>
    <path id="Path_9738" data-name="Path 9738" d="M34.208,65.879A9.9,9.9,0,0,0,46.56,78.018,9.9,9.9,0,0,0,34.208,65.879Z" transform="translate(-23.332 -46.449)" fill="#b3529f"/>
    <path id="Path_9739" data-name="Path 9739" d="M9.532,33.326A15.6,15.6,0,0,1,5.147,19.048,9.131,9.131,0,0,0,2.1,25.706c.053,5.08,5.107,9.385,11.6,10.508A16.672,16.672,0,0,1,9.532,33.326ZM28.489,8.888c-.829,2.353-4.091,3.342-7.246,2.246-3.182-1.123-5.053-3.93-4.225-6.283s4.091-3.342,7.246-2.219C27.419,3.728,29.317,6.535,28.489,8.888Z" transform="translate(-0.073 -0.073)" fill="#ef3c25"/>
    <path id="Path_9740" data-name="Path 9740" d="M67.007,4.911A6.246,6.246,0,0,0,65.723,3.12a6.5,6.5,0,0,0-1.31-.588C61.231,1.409,58,2.4,57.167,4.751s1.069,5.16,4.225,6.283a6.79,6.79,0,0,0,5.347-.16A6.35,6.35,0,0,0,67.007,4.911Z" transform="translate(-40.275 0)" fill="#faac1b"/>
    <path id="Path_9741" data-name="Path 9741" d="M60.592,8.973a3.877,3.877,0,0,0-2.192,3.5,6.92,6.92,0,0,0,3.984,3.342,6.465,6.465,0,0,0,.963.267,2.9,2.9,0,0,0,.508-.214,3.849,3.849,0,0,0,1.818-5.107A3.791,3.791,0,0,0,60.592,8.973Z" transform="translate(-41.321 -4.784)" fill="#e86f25"/>
    <path id="Path_9742" data-name="Path 9742" d="M74.972,14.716A3.826,3.826,0,0,0,72.111,8.7a3.826,3.826,0,0,0,2.861,6.016Z" transform="translate(-50.861 -4.858)" fill="#b3529f"/>
    <path id="Path_9743" data-name="Path 9743" d="M58.781,10.2a6.388,6.388,0,0,1,.4-6.2,3.783,3.783,0,0,0-2.112,2.192c-.7,1.979.535,4.278,2.834,5.642A6.324,6.324,0,0,1,58.781,10.2Z" transform="translate(-40.204 -1.415)" fill="#ef3c25"/>
  </g>
</svg>
