<svg xmlns="http://www.w3.org/2000/svg" viewBox="0 0 133.46 97.135"><g id="Group_1" data-name="Group 1" transform="translate(-0.742 -0.514)"><path id="Path_1" data-name="Path 1" d="M336.923,104.325a3.343,3.343,0,0,0,2.053-4.646l-5.992-16.454a3.232,3.232,0,0,0-4.555-2.08l-2.692.98,8.447,23.2Z" transform="translate(-229.385 -56.7)" fill="currentColor"/><path id="Path_2" data-name="Path 2" d="M.742,41.517,21.148,97.65l113.054-41L113.795.514Zm21.381,4.965L16.032,48.7,28.271,82.316l15.679-5.7-1.907-5.234-9.586,3.486Zm19.2-6.979-6.141,2.232L47.419,75.356l6.144-2.236Zm6.667,6.544,6.436,17.681c2.06,5.658,7.027,7.107,12.465,5.121,5.1-1.858,7.644-6.307,5.791-11.4L71.172,53.3,65.647,55.31l1.389,3.82a3.16,3.16,0,0,1-2.014,4.31c-2.078.756-3.7-.04-4.528-2.3L54.245,43.975c-.722-1.981-.227-3.709,1.992-4.517a3.152,3.152,0,0,1,4.363,1.99l1.406,3.866L67.532,43.3l-1.612-4.431c-1.816-4.989-6.642-6.49-11.6-4.686C49.027,36.111,46.036,40.671,47.991,46.046ZM72.942,28,66.8,30.232,79.041,63.851l6.14-2.232L81.13,50.491l.723-5.07,9.8,13.841,6.518-2.371L84.452,38.6l1.336-15.275-6,2.181L78.47,43.18Zm15.432-5.544,9.4-3.419c5.006-1.824,9.852-.7,11.793,4.624l6.334,17.4c2.077,5.706-.882,9.773-5.935,11.611l-9.351,3.4Z" fill="currentColor" fill-rule="evenodd"/></g></svg>