<svg id="Component_133_1" data-name="Component 133 – 1" xmlns="http://www.w3.org/2000/svg" width="50" height="50" viewBox="0 0 50 50">
  <rect id="Rectangle_1051" data-name="Rectangle 1051" width="50" height="50" rx="10" fill="#2c3548"/>
  <g id="Group_1" data-name="Group 1" transform="translate(2.275 8.486)">
    <path id="Path_1" data-name="Path 1" d="M329.422,88.558a1.1,1.1,0,0,0,.676-1.531l-1.974-5.42a1.065,1.065,0,0,0-1.5-.685l-.887.323,2.783,7.643Z" transform="translate(-293.498 -72.524)" fill="#fff"/>
    <path id="Path_2" data-name="Path 2" d="M.742,14.022,7.464,32.513,44.708,19.007,37.985.514Zm7.044,1.636-2.007.731L9.811,27.462l5.165-1.878-.628-1.724L11.19,25.008Zm6.325-2.3-2.023.735,4.031,11.076,2.024-.737Zm2.2,2.156,2.12,5.825c.679,1.864,2.315,2.341,4.106,1.687a2.816,2.816,0,0,0,1.908-3.755l-.5-1.367-1.82.662.458,1.258a1.041,1.041,0,0,1-.663,1.42,1.07,1.07,0,0,1-1.492-.758l-2.059-5.655A1.129,1.129,0,1,1,20.461,14l.463,1.274,1.82-.663-.531-1.46a2.76,2.76,0,0,0-3.821-1.544c-1.744.635-2.729,2.137-2.085,3.908Zm8.22-5.945L22.5,10.3l4.033,11.075,2.023-.735-1.335-3.666.238-1.67,3.228,4.56,2.147-.781-4.519-6.026.44-5.032-1.977.718-.434,5.822Zm5.084-1.826,3.1-1.126c1.649-.6,3.246-.231,3.885,1.523l2.087,5.732c.684,1.88-.291,3.22-1.955,3.825l-3.08,1.12Z" fill="#fff" fill-rule="evenodd"/>
  </g>
</svg>
