<svg id="Component_131_1" data-name="Component 131 – 1" xmlns="http://www.w3.org/2000/svg" xmlns:xlink="http://www.w3.org/1999/xlink" width="50" height="50" viewBox="0 0 50 50">
  <defs>
    <clipPath id="clip-path">
      <rect id="Rectangle_1049" data-name="Rectangle 1049" width="41.555" height="15.446" fill="#e8e8e8"/>
    </clipPath>
  </defs>
  <g id="Rectangle_1048" data-name="Rectangle 1048" fill="#00356b" stroke="#e6e6e6" stroke-width="0.7">
    <rect width="50" height="50" rx="10" stroke="none"/>
    <rect x="0.35" y="0.35" width="49.3" height="49.3" rx="9.65" fill="none"/>
  </g>
  <g id="Group_4475" data-name="Group 4475" transform="translate(4.222 17.277)">
    <g id="Group_4474" data-name="Group 4474" transform="translate(0 0)" clip-path="url(#clip-path)">
      <path id="Path_9770" data-name="Path 9770" d="M121.624,3.207q-2.855,0-5.709,0a.2.2,0,0,0-.237.17c-.223.7-.467,1.4-.747,2.081-.119.291-.183.609-.3.907-.054.14,0,.16.129.159.68,0,1.361,0,2.041,0h3.541c.175,0,.349,0,.524,0,.1,0,.124.027.085.126-.127.319-.254.639-.365.964q-.344,1.007-.668,2.021a.248.248,0,0,1-.28.206c-1.969-.005-3.938,0-5.908-.007-.2,0-.309.012-.378.256-.115.407-.258.809-.408,1.207-.5,1.322-.917,2.671-1.39,4a.2.2,0,0,1-.229.157c-1.271,0-2.541,0-3.812,0-.239,0-.242,0-.163-.222.4-1.122.759-2.257,1.158-3.379.663-1.86,1.284-3.734,1.958-5.59.457-1.26.861-2.538,1.322-3.8.282-.769.537-1.549.8-2.325A.159.159,0,0,1,112.772,0c.452,0,.9,0,1.355,0q7.019,0,14.037,0c.139,0,.271.04.409.041.111,0,.074.075.047.123-.089.156-.061.366-.225.487a2.845,2.845,0,0,1-.271.93c-.153.5-.329,1-.53,1.484-.052.126-.126.144-.244.143q-2.864,0-5.727,0" transform="translate(-91.783 0)" fill="#c7c7c7"/>
      <path id="Path_9771" data-name="Path 9771" d="M9.512.2c-.151.443-.294.869-.441,1.294Q8.713,2.526,8.35,3.557c-.14.4-.312.791-.419,1.2-.1.365-.275.7-.379,1.056s-.255.734-.386,1.1-.278.727-.385,1.1c-.166.579-.427,1.123-.593,1.7-.081.282-.207.551-.29.833-.139.473-.331.926-.492,1.391-.065.187-.019.253.179.253q5.518,0,10.6,0c.167,0,.391-.067.484.044s-.08.282-.128.428c-.186.574-.383,1.146-.6,1.707a6.739,6.739,0,0,1-.271.7,1.3,1.3,0,0,0-.124.428c-.006.049-.011.075-.069.076-.154,0-.3.037-.46.037q-7.406,0-14.812,0c-.247,0-.225,0-.172-.236.092-.42.3-.8.419-1.206.185-.62.406-1.232.625-1.841s.422-1.193.639-1.787c.278-.76.523-1.532.789-2.3.242-.7.495-1.39.739-2.087C3.5,5.435,3.733,4.714,3.993,4c.216-.592.385-1.2.611-1.788.213-.553.381-1.121.607-1.668.045-.108.008-.261.117-.321A.809.809,0,0,1,5.717.2Q7.506.2,9.294.2h.218" transform="translate(0 -0.161)" fill="#fff"/>
      <path id="Path_9772" data-name="Path 9772" d="M236.159,39.845q0-2.46,0-4.921c0-.1-.038-.233.037-.275s.163.074.24.126c.484.33.964.665,1.445,1,.3.21.6.432.906.626.18.112.351.239.525.357.273.185.542.378.812.57.316.225.628.458.96.659.237.144.429.342.662.483.386.234.748.5,1.119.754.212.145.428.289.635.443.054.04.059.065,0,.107q-1.107.786-2.211,1.575c-.236.169-.471.339-.707.508q-.738.527-1.477,1.053-1.076.77-2.151,1.542l-.719.515c-.019.013-.036.041-.062.031s-.017-.049-.017-.075q0-2.539,0-5.078Z" transform="translate(-201.989 -29.629)" fill="#fff"/>
      <path id="Path_9773" data-name="Path 9773" d="M222.661,44.636c0-.263.008-.526.008-.789q0-4.672,0-9.344c0-.3,0-.3.3-.3l1.037,0c.063,0,.109-.022.113.1.007.2.007.393.007.589q0,4.642,0,9.284c0,.138,0,.275,0,.413,0,.048,0,.09-.07.085-.439-.03-.878,0-1.317,0a.136.136,0,0,1-.035-.01.048.048,0,0,0-.046-.028" transform="translate(-190.451 -29.259)" fill="#fff"/>
      <path id="Path_9774" data-name="Path 9774" d="M222.448,106.294a.048.048,0,0,1,.046.029c0,.05-.035.048-.064.027s-.009-.043.018-.055" transform="translate(-190.237 -90.917)" fill="#fff"/>
    </g>
  </g>
</svg>
