<svg id="Component_104_5" data-name="Component 104 – 5" xmlns="http://www.w3.org/2000/svg" xmlns:xlink="http://www.w3.org/1999/xlink" width="50" height="50" viewBox="0 0 50 50">
  <defs>
    <clipPath id="clip-path">
      <rect id="Rectangle_1022" data-name="Rectangle 1022" width="32" height="32.024" fill="#5022ff"/>
    </clipPath>
  </defs>
  <rect id="Rectangle_1021" data-name="Rectangle 1021" width="50" height="50" rx="10" fill="#5022ff"/>
  <g id="Group_4448" data-name="Group 4448" transform="translate(9.018 9.004)">
    <g id="Group_4447" data-name="Group 4447" clip-path="url(#clip-path)">
      <path id="Path_9681" data-name="Path 9681" d="M17.724,0l-.617.07,0,.021a1.761,1.761,0,0,0,.209.024,11.016,11.016,0,0,1,2.972.493,15.611,15.611,0,0,1,6.228,3.377,15.888,15.888,0,0,1,5.18,8.97,15.605,15.605,0,0,1,.3,3.1q0,7.148,0,14.3c0,.212,0,.214-.206.178-.512-.09-1.023-.188-1.536-.272-.152-.025-.159-.113-.158-.232q0-6.325,0-12.651c0-.614.011-1.229,0-1.842a13.441,13.441,0,0,0-.844-4.366A14.2,14.2,0,0,0,18.825,2.18a14.21,14.21,0,0,0-3.777-.249A13.541,13.541,0,0,0,9.74,3.358a14.015,14.015,0,0,0-7.062,7.963,13.332,13.332,0,0,0-.8,4.278A14.156,14.156,0,0,0,9.994,28.8a13.613,13.613,0,0,0,3.785,1.163,13.323,13.323,0,0,0,4.208.02c.738-.12,1.463-.318,2.2-.474a.951.951,0,0,1,.355-.016c.905.161,1.809.332,2.713.5a2.435,2.435,0,0,1,.338.073A13.478,13.478,0,0,1,19.7,31.578a15.685,15.685,0,0,1-10.158-.923A15.992,15.992,0,0,1,.1,14.157,15.622,15.622,0,0,1,2.663,7.193,15.779,15.779,0,0,1,8.1,2.111a14.584,14.584,0,0,1,7.1-2.023L14.533,0Z" transform="translate(0)" fill="#5022ff"/>
      <path id="Path_9682" data-name="Path 9682" d="M260.6,263.107l-.615-.116c-.36-.067-.72-.137-1.082-.2-.12-.021-.16-.076-.16-.2q0-6.4,0-12.8a13.067,13.067,0,0,0-.435-3.757,11.081,11.081,0,0,0-4.393-6.127,10.806,10.806,0,0,0-4.7-1.884,11.211,11.211,0,0,0-11.789,6.228,11.209,11.209,0,0,0,7.8,15.805,11.116,11.116,0,0,0,6.423-.547c.065-.025.132-.043.215-.069a1.1,1.1,0,0,1,.019.138c0,.548,0,1.1,0,1.645a.246.246,0,0,1-.2.279,13.673,13.673,0,0,1-3.838.663A12.635,12.635,0,0,1,241,260.42a12.991,12.991,0,0,1-5.924-7.338,12.468,12.468,0,0,1-.611-4.519,13.137,13.137,0,0,1,10.111-12.206,12.561,12.561,0,0,1,4.081-.289,13.083,13.083,0,0,1,11.95,13.089q0,6.934,0,13.868c0,.021,0,.042-.007.082" transform="translate(-231.537 -233.082)" fill="#5022ff"/>
      <path id="Path_9683" data-name="Path 9683" d="M483.609,488.188a.763.763,0,0,1,.018.1q0,.946,0,1.892a.2.2,0,0,1-.144.2,10.85,10.85,0,0,1-2.67.785,10.126,10.126,0,0,1-2.114.091,10.122,10.122,0,0,1-6.539-2.894,10.244,10.244,0,0,1-2.471-3.873,9.7,9.7,0,0,1-.581-3.449,10.039,10.039,0,0,1,2.6-6.7,10.123,10.123,0,0,1,14.4-.74,10.075,10.075,0,0,1,3.138,5.536,10.926,10.926,0,0,1,.2,2.223q0,6.407,0,12.814c0,.393,0,.4-.387.33-.447-.078-.893-.166-1.341-.243-.112-.019-.163-.065-.16-.182,0-.186,0-.373,0-.559,0-4.068-.005-8.137.006-12.205a8.272,8.272,0,0,0-1.709-5.24,7.932,7.932,0,0,0-5.2-3.123,8.051,8.051,0,0,0-8.022,3.208,7.518,7.518,0,0,0-1.59,3.977,8.126,8.126,0,0,0,3.378,7.685,7.719,7.719,0,0,0,3.741,1.5,8.236,8.236,0,0,0,5.158-.963c.09-.05.175-.109.282-.177" transform="translate(-463.283 -465.102)" fill="#5022ff"/>
      <path id="Path_9684" data-name="Path 9684" d="M715.188,715.275q0,.227,0,.454c0,.614-.007,1.228.007,1.842a.465.465,0,0,1-.234.454,7.247,7.247,0,0,1-2.9,1.176,7.262,7.262,0,0,1-8.4-6.095,7.21,7.21,0,0,1,5.4-8.071,7.27,7.27,0,0,1,9.019,7.072q.008,6.349,0,12.7c0,.048-.006.1-.011.166-.246-.044-.476-.084-.705-.127-.323-.06-.644-.137-.969-.175-.182-.021-.218-.088-.218-.256q.006-6.226,0-12.452a5.1,5.1,0,0,0-1.4-3.547,5.162,5.162,0,0,0-2.9-1.63,5.3,5.3,0,0,0-5.935,3.058,5.179,5.179,0,0,0,.729,5.6,5.049,5.049,0,0,0,3.651,1.948,5.292,5.292,0,0,0,4.667-1.926c.056-.065.1-.138.155-.207l.041.011" transform="translate(-694.84 -696.039)" fill="#5022ff"/>
    </g>
  </g>
  <rect id="Rectangle_1030" data-name="Rectangle 1030" width="50" height="50" rx="10" fill="#5022ff"/>
  <g id="mixcloud-284" transform="translate(-32.87 -37.98)">
    <g id="Group_4454" data-name="Group 4454" transform="translate(40.1 57.979)">
      <path id="Path_9700" data-name="Path 9700" d="M40.1,58.014c.593-.061,1.189-.017,1.782-.026.536-.009,1.072.009,1.6-.009a.256.256,0,0,1,.3.24c.427,2.048.85,4.1,1.281,6.143.214,1.011.449,2.013.662,3.024.057.257.235.1.357.135s.17-.017.2-.152c.222-1.115.462-2.226.693-3.342q.471-2.229.937-4.462c.1-.462.209-.915.3-1.377a.213.213,0,0,1,.244-.2c1.089,0,2.179,0,3.272-.009.218,0,.183.131.183.257v3.037c0,2.126,0,4.252.009,6.379,0,.27-.07.335-.335.318-.423-.026-.85-.013-1.272,0-.166,0-.227-.039-.227-.213,0-2.688,0-5.377.009-8.065a4.169,4.169,0,0,1,.274-1.059c.044-.161,0-.187-.144-.192-.41-.017-.4-.022-.5.405-.436,1.943-.88,3.886-1.316,5.83-.235,1.046-.457,2.091-.675,3.141-.026.131-.083.161-.2.161q-1.529-.007-3.059,0c-.1,0-.174,0-.2-.144-.209-1.011-.44-2.017-.662-3.024q-.451-2.026-.906-4.056c-.161-.719-.314-1.442-.488-2.157-.07-.292-.335-.122-.505-.131s-.083.126-.052.209a6.656,6.656,0,0,1,.261,2.327q-.013,3.34,0,6.679c0,.253-.065.318-.318.3-.5-.026-1.006-.017-1.512-.022Q40.107,62.97,40.1,58.014Z" transform="translate(-40.1 -57.979)" fill="#f2b7b4"/>
      <path id="Path_9706" data-name="Path 9706" d="M98.51,58.22a6.476,6.476,0,0,1,1.046.71c1.22.863,2.418,1.752,3.629,2.627a.721.721,0,0,0,.806-.091q2.176-1.569,4.361-3.133a.327.327,0,0,1,.222-.1c0,.623,0,1.242,0,1.86a.308.308,0,0,1-.161.266q-1.921,1.34-3.839,2.684a.368.368,0,0,0-.061.074q1.6,1.124,3.2,2.253a1.112,1.112,0,0,0,.166.126c.671.248.762.771.7,1.39-.035.335,0,.68-.009,1.024,0,.022,0,.039-.009.087a3.128,3.128,0,0,1-.8-.518c-1.133-.793-2.253-1.608-3.385-2.405-.244-.174-.431-.427-.789-.431a1.023,1.023,0,0,0-.654.222q-2.131,1.542-4.261,3.076a.758.758,0,0,1-.161.065c0-.649,0-1.277,0-1.9,0-.161.126-.231.222-.3,1.224-.867,2.457-1.725,3.686-2.588.039-.03.074-.065.126-.109-.627-.444-1.255-.893-1.882-1.333-.654-.457-1.316-.911-1.969-1.372a.341.341,0,0,1-.183-.288C98.514,59.488,98.51,58.869,98.51,58.22Z" transform="translate(-73.061 -58.115)" fill="#f2b7b4"/>
      <path id="Path_9707" data-name="Path 9707" d="M76.8,69.159c-1.586,0-3.168,0-4.754,0-.257,0-.322-.074-.309-.318.022-.41.013-.823,0-1.233,0-.17.031-.248.231-.248q4.83.007,9.655,0c.161,0,.209.048.2.2-.009.449-.013.9,0,1.351,0,.192-.044.248-.248.248-1.6-.009-3.194,0-4.784,0Z" transform="translate(-57.952 -63.272)" fill="#f2b7b4"/>
    </g>
  </g>
</svg>
