<svg id="Component_134_1" data-name="Component 134 – 1" xmlns="http://www.w3.org/2000/svg" width="50" height="50" viewBox="0 0 50 50">
  <g id="Rectangle_1052" data-name="Rectangle 1052" fill="#ff066c" stroke="#e6e6e6" stroke-width="0.7">
    <rect width="50" height="50" rx="10" stroke="none"/>
    <rect x="0.35" y="0.35" width="49.3" height="49.3" rx="9.65" fill="none"/>
  </g>
  <g id="HN3qxM.tif" transform="translate(0.757 -5.772)">
    <g id="Group_4476" data-name="Group 4476" transform="translate(0.743 14.667)">
      <path id="Path_9779" data-name="Path 9779" d="M24.22,14.669q6.681,0,13.356.005a13.242,13.242,0,0,1,4,.573,8.158,8.158,0,0,1,5.675,5.892,13.02,13.02,0,0,1,.462,2.93q.032.78.032,1.561c0,3.668.005,7.336-.005,11a13.671,13.671,0,0,1-.589,4.135,8.13,8.13,0,0,1-5.728,5.59,12.781,12.781,0,0,1-3.663.52q-13.52,0-27.046,0a12.211,12.211,0,0,1-4.358-.754,8.108,8.108,0,0,1-5.085-5.553,12.754,12.754,0,0,1-.52-3.663q-.008-6.123,0-12.246a12.113,12.113,0,0,1,.764-4.385A8.115,8.115,0,0,1,7.18,15.168a13.587,13.587,0,0,1,3.726-.494Q17.547,14.658,24.22,14.669ZM42.374,31.257v-7a4.743,4.743,0,0,0-1.481-3.53,5.134,5.134,0,0,0-1.561-1.067,7.5,7.5,0,0,0-5.844-.18,5.317,5.317,0,0,0-3.36,3.514q-1.847,5.8-3.705,11.6c-.361,1.125-.717,2.251-1.078,3.371a1.126,1.126,0,0,1-1.125.828,1.168,1.168,0,0,1-1.163-.828c-.016-.042-.027-.09-.042-.138Q21.86,34.209,20.7,30.6q-1.226-3.83-2.447-7.66a5.282,5.282,0,0,0-2.394-3.01A6.719,6.719,0,0,0,12.6,19a7.2,7.2,0,0,0-3.6.69,4.957,4.957,0,0,0-2.967,4.73q.008,7.031,0,14.062c0,.074.005.154,0,.228-.005.106.042.159.149.149.058-.005.111,0,.17,0h4.708c.058,0,.111-.005.17,0,.106.005.159-.042.154-.149V25.753a2.617,2.617,0,0,1,.09-.812.825.825,0,0,1,1-.584.987.987,0,0,1,.579.388,3.286,3.286,0,0,1,.472.993q2.166,6.736,4.332,13.478A6.126,6.126,0,0,0,21.173,43a6.938,6.938,0,0,0,4.454.515,6.113,6.113,0,0,0,4.921-4.268c.7-2.076,1.343-4.167,2.012-6.253q1.186-3.679,2.368-7.357a2.553,2.553,0,0,1,.51-.971.9.9,0,0,1,.95-.287.837.837,0,0,1,.595.722,3.209,3.209,0,0,1,.053.674V38.445c0,.074.005.154,0,.228-.011.127.027.2.17.186a1.291,1.291,0,0,1,.143,0h4.708c.35,0,.324.037.324-.318Q42.372,34.9,42.374,31.257Z" transform="translate(-0.743 -14.667)" fill="#ff016c"/>
      <path id="Path_9780" data-name="Path 9780" d="M47.041,35.064v7.288c0,.35.027.318-.324.318H42.009a1.291,1.291,0,0,0-.143,0c-.143.021-.18-.058-.17-.186.005-.074,0-.149,0-.228V29.586a3.154,3.154,0,0,0-.053-.674.837.837,0,0,0-.595-.722.9.9,0,0,0-.95.287,2.629,2.629,0,0,0-.51.971q-1.186,3.679-2.368,7.357c-.669,2.086-1.316,4.178-2.012,6.253a6.12,6.12,0,0,1-4.921,4.268,6.934,6.934,0,0,1-4.454-.515,6.141,6.141,0,0,1-3.323-3.785q-2.166-6.736-4.332-13.478a3.053,3.053,0,0,0-.472-.993,1,1,0,0,0-.579-.388.817.817,0,0,0-1,.584,2.635,2.635,0,0,0-.09.812V42.517c.005.106-.048.154-.154.149-.058-.005-.111,0-.17,0H11.008c-.058,0-.111-.005-.17,0-.106.005-.154-.042-.149-.149.005-.074,0-.149,0-.228q0-7.031,0-14.062a4.962,4.962,0,0,1,2.967-4.73,7.211,7.211,0,0,1,3.6-.69,6.719,6.719,0,0,1,3.259.934,5.24,5.24,0,0,1,2.394,3.01q1.218,3.83,2.447,7.66,1.155,3.615,2.314,7.225c.016.042.027.09.042.138a1.174,1.174,0,0,0,1.163.828,1.142,1.142,0,0,0,1.125-.828c.366-1.12.722-2.245,1.078-3.371q1.855-5.8,3.705-11.6a5.317,5.317,0,0,1,3.36-3.514,7.476,7.476,0,0,1,5.844.18,5.134,5.134,0,0,1,1.561,1.067,4.792,4.792,0,0,1,1.481,3.53Q47.044,31.556,47.041,35.064Z" transform="translate(-5.409 -18.474)" fill="#fffeff"/>
    </g>
  </g>
</svg>
