<svg id="Component_122_1" data-name="Component 122 – 1" xmlns="http://www.w3.org/2000/svg" width="50" height="50" viewBox="0 0 50 50">
  <g id="Component_121_6" data-name="Component 121 – 6">
    <rect id="Rectangle_1006" data-name="Rectangle 1006" width="50" height="50" rx="10"/>
  </g>
  <g id="musicisland" transform="translate(-35.284 -8.898)">
    <g id="nwj3Wa.tif" transform="translate(42.208 21.398)">
      <g id="g10" transform="translate(0)">
        <path id="path4" d="M283.782,379.5h.556a.907.907,0,0,1,.121.58c0,.725-.008,1.451.008,2.176,0,.169-.1.411.089.516.161.081.3-.1.443-.193a8.93,8.93,0,0,1,4.408-1.338,8.535,8.535,0,0,1,5.053,1.475.5.5,0,0,0,.774-.089c1.04-1.048,2.1-2.079,3.159-3.111.193.081.089.25.089.371q.012,5.73.008,11.468c-.024.089-.04.177-.056.266a8.881,8.881,0,0,1-14.031,5.65c-.314-.226-.467-.226-.677.1a3.54,3.54,0,0,1-2.112,1.547c-.661.169-.806.056-.814-.6V383.578a5.257,5.257,0,0,1,.081-1.007c.314-1.813,1.015-2.8,2.9-3.071Zm.685,10.606a5.161,5.161,0,0,0,5.166,5.255,5.2,5.2,0,1,0-.008-10.4A5.165,5.165,0,0,0,284.467,390.106Z" transform="translate(-262.009 -379.492)" fill="#fff"/>
        <path id="path6" d="M138.728,379.408a5.409,5.409,0,0,1,4.312,3.957,3.824,3.824,0,0,1,.161,1.088c-.008,4.6,0,9.212,0,13.822,0,.613-.1.693-.7.572a3.9,3.9,0,0,1-2.974-3.57c-.008-3.329,0-6.657-.008-9.986a4.5,4.5,0,0,0-.056-.733,1.5,1.5,0,0,0-1.781-1.418,1.615,1.615,0,0,0-1.41,1.668c-.008,1.692,0,3.385,0,5.085v8.366c0,.653-.008.661-.677.669-.814,0-1.636-.008-2.45.008-.371.008-.556-.1-.556-.532.008-4.65-.04-9.3.024-13.959a5.191,5.191,0,0,1,4.231-4.989c.073-.016.153-.04.226-.056.556.008,1.1.008,1.66.008Z" transform="translate(-125.732 -379.4)" fill="#fff"/>
        <path id="path8" d="M53.8,379.5a6.248,6.248,0,0,1,1.515.524c.21.121.33.234.073.435a4.742,4.742,0,0,0-1.547,2.41c-.1.339-.226.443-.613.387a1.572,1.572,0,0,0-1.894,1.7c-.008,4.433,0,8.873,0,13.306,0,.733,0,.741-.733.75-.8.008-1.6-.008-2.4.016-.387.008-.548-.121-.548-.532.016-4.755-.064-9.518.048-14.281a4.873,4.873,0,0,1,3.03-4.263,5.7,5.7,0,0,1,1.4-.451Z" transform="translate(-47.639 -379.492)" fill="#fff"/>
      </g>
    </g>
    <g id="g35" transform="translate(41.858 42.884)">
      <path id="path13" d="M46.242,648.51c-.024-.475-.056-1.048-.048-1.467h-.016c-.113.395-.258.822-.427,1.289l-.6,1.652h-.33l-.548-1.62c-.161-.476-.3-.919-.395-1.322h-.008c-.008.427-.032.991-.064,1.5L43.719,650H43.3l.234-3.4h.556l.58,1.644c.145.419.258.79.347,1.145h.016c.089-.347.21-.717.355-1.145l.6-1.644h.556l.21,3.4H46.33Z" transform="translate(-43.3 -646.552)" fill="#fff"/>
      <path id="path15" d="M104.343,646.7v2.015c0,.758.338,1.088.79,1.088.508,0,.83-.33.83-1.088V646.7h.443v1.983c0,1.048-.548,1.475-1.289,1.475-.693,0-1.217-.395-1.217-1.451v-2h.443Z" transform="translate(-99.016 -646.644)" fill="#fff"/>
      <path id="path17" d="M151.9,648.917a1.547,1.547,0,0,0,.79.226c.451,0,.709-.234.709-.58,0-.314-.185-.5-.637-.677-.556-.193-.895-.484-.895-.967a.971.971,0,0,1,1.1-.919,1.509,1.509,0,0,1,.75.169l-.121.355a1.316,1.316,0,0,0-.645-.161c-.467,0-.637.274-.637.508,0,.314.21.476.677.653.572.226.87.5.87,1,0,.524-.387.975-1.193.975a1.773,1.773,0,0,1-.87-.218Z" transform="translate(-143.056 -646)" fill="#fff"/>
      <path id="path19" d="M194.535,646.7v3.4H194.1v-3.4Z" transform="translate(-181.946 -646.644)" fill="#fff"/>
      <path id="path21" d="M218.571,649.437a2.172,2.172,0,0,1-.895.161A1.585,1.585,0,0,1,216,647.881a1.686,1.686,0,0,1,1.773-1.781,1.731,1.731,0,0,1,.806.153l-.1.355a1.6,1.6,0,0,0-.685-.145,1.265,1.265,0,0,0-1.33,1.4,1.237,1.237,0,0,0,1.306,1.37,1.719,1.719,0,0,0,.717-.145Z" transform="translate(-202.081 -646.092)" fill="#fff"/>
      <path id="path23" d="M264.535,646.7v3.4H264.1v-3.4Z" transform="translate(-246.305 -646.644)" fill="#fff"/>
      <path id="path25" d="M286.5,648.917a1.547,1.547,0,0,0,.79.226c.451,0,.709-.234.709-.58,0-.314-.185-.5-.637-.677-.556-.193-.895-.484-.895-.967a.971.971,0,0,1,1.1-.919,1.509,1.509,0,0,1,.75.169l-.121.355a1.316,1.316,0,0,0-.645-.161c-.467,0-.637.274-.637.508,0,.314.21.476.677.653.572.226.87.5.87,1,0,.524-.387.975-1.193.975a1.773,1.773,0,0,1-.87-.218Z" transform="translate(-266.808 -646)" fill="#fff"/>
      <path id="path27" d="M328.608,646.7h.435v3.03h1.451v.371H328.6v-3.4Z" transform="translate(-305.607 -646.644)" fill="#fff"/>
      <path id="path29" d="M365.206,649.029l-.355,1.072H364.4l1.152-3.4h.532l1.161,3.4h-.467l-.363-1.072Zm1.112-.347-.33-.975c-.073-.226-.129-.427-.177-.621H365.8c-.048.2-.1.411-.169.612l-.33.983Z" transform="translate(-338.521 -646.643)" fill="#fff"/>
      <path id="path31" d="M415.2,650v-3.4h.475l1.088,1.717a9.817,9.817,0,0,1,.612,1.1l.008-.008c-.04-.451-.048-.87-.048-1.394V646.6h.411V650H417.3l-1.072-1.725a10.815,10.815,0,0,1-.637-1.136l-.016.008c.024.427.032.838.032,1.4V650Z" transform="translate(-385.227 -646.552)" fill="#fff"/>
      <path id="path33" d="M465.8,646.372a6.293,6.293,0,0,1,.935-.073,1.933,1.933,0,0,1,1.378.427,1.541,1.541,0,0,1,.475,1.217,1.782,1.782,0,0,1-.492,1.322,2.094,2.094,0,0,1-1.5.492,7.393,7.393,0,0,1-.8-.04Zm.435,3.006a3.4,3.4,0,0,0,.443.024,1.31,1.31,0,0,0,1.451-1.443,1.216,1.216,0,0,0-1.378-1.314,2.1,2.1,0,0,0-.516.048Z" transform="translate(-431.749 -646.276)" fill="#fff"/>
    </g>
  </g>
</svg>
