<svg id="Component_108_2" data-name="Component 108 – 2" xmlns="http://www.w3.org/2000/svg" width="50" height="50" viewBox="0 0 50 50">
  <rect id="Rectangle_990" data-name="Rectangle 990" width="50" height="50" rx="10" fill="#344bff"/>
  <path id="path835" d="M32.471,5.932a7.464,7.464,0,0,0-1.041.049h-.05l-.05-.049A15.83,15.83,0,0,0,19.037,0,15.653,15.653,0,0,0,6.742,5.98l-.05.049h-.05A7.463,7.463,0,0,0,5.6,5.98H3.421V9.773l-.05.049a5.7,5.7,0,0,0,0,10.405h.1v.1a15.459,15.459,0,0,0,15.566,15.17A15.459,15.459,0,0,0,34.6,20.324v-.1l.049-.049a5.856,5.856,0,0,0,3.371-5.2,5.748,5.748,0,0,0-3.371-5.2L34.6,9.724V5.932ZM10.807,7.2a11.77,11.77,0,0,1,16.459,0l.1.1-.149.1a19.657,19.657,0,0,0-1.686,1.07l-.05.049-.05-.049A14.356,14.356,0,0,0,19.086,6.9,14.356,14.356,0,0,0,12.741,8.46l-.05.049-.05-.049a16.189,16.189,0,0,0-1.686-1.07l-.3-.1ZM30.34,20.178a11.329,11.329,0,0,1-22.656,0V10.551l.149.049c1.983.486,3.867,2.626,4.313,3.16a9.594,9.594,0,0,1,6.891-2.626,9.815,9.815,0,0,1,6.891,2.626c.446-.535,2.28-2.674,4.313-3.16l.149-.049v9.627Z" transform="translate(5.988 7.253)" fill="#fff"/>
</svg>
