<svg id="Component_115_64" data-name="Component 115 – 64" xmlns="http://www.w3.org/2000/svg" width="50" height="50" viewBox="0 0 50 50">
  <rect id="Rectangle_1008" data-name="Rectangle 1008" width="50" height="50" rx="10" fill="#2d7bc8"/>
  <g id="white-logos" transform="translate(-17.2 -26.8)">
    <g id="rdio_1_" transform="translate(22.2 43.8)">
      <g id="Group_4463" data-name="Group 4463" transform="translate(0 0)">
        <path id="path22_1_" d="M314.661,56.906V45.341h-3.289V56.906ZM311.3,44.3V41.8h3.368v2.512H311.3Z" transform="translate(-290.422 -41.8)" fill="#fff"/>
        <path id="path24_1_" d="M29.678,88.551a4.015,4.015,0,0,0-1.526-.216,3.573,3.573,0,0,0-3.685,2.541V88.551H21.2V100.1h3.275V95.827c0-2.627,1.209-3.937,3.2-4.059a6.576,6.576,0,0,1,2-3.217" transform="translate(-21.2 -84.982)" fill="#fff"/>
        <path id="path26_1_" d="M388.8,90.713c-1.684.05-3.721-1.274-4.505-1.77-.072-.043-.086-.086-.166-.13s-.166-.086-.252-.13v4.858h0a2.625,2.625,0,0,1-.461,1.331l-.022.036a3.475,3.475,0,0,1-4,1.49,2.086,2.086,0,0,1-1.116-3.267l.022-.036a3.475,3.475,0,0,1,4-1.49,2.386,2.386,0,0,1,.338.144V88.237a6.7,6.7,0,0,0-1.77-.237,6.059,6.059,0,0,0-6.269,6.009v.043a6.253,6.253,0,0,0,12.494-.043v-.043a5.363,5.363,0,0,0-.05-.763c1.871-.482,2.641-2.425,1.756-2.49" transform="translate(-349.166 -84.675)" fill="#fff"/>
        <path id="path28_1_" d="M531.274,235.909H530.9V235.7h.943v.209h-.324v.907h-.245v-.907" transform="translate(-494.217 -221.745)" fill="#fff"/>
        <path id="path30_1_" d="M546.3,235.7h.338l.266.777h0l.252-.777h.338v1.116h-.245v-.784h0l-.259.784H546.8l-.252-.777h-.007v.777H546.3V235.7" transform="translate(-508.509 -221.745)" fill="#fff"/>
        <path id="path32_1_" d="M127.141,50.206l-.022.036a2.086,2.086,0,0,0,1.116,3.267,3.478,3.478,0,0,0,4-1.49l.022-.036a2.086,2.086,0,0,0-1.116-3.267,3.48,3.48,0,0,0-4,1.49Zm5.311,6.7V55.229a4.231,4.231,0,0,1-3.6,1.871c-2.692,0-5.254-2.109-5.254-5.966v-.043c0-3.858,2.519-5.966,5.254-5.966a4.456,4.456,0,0,1,3.6,1.72V41.8h3.289V56.914h-3.289Z" transform="translate(-116.23 -41.8)" fill="#fff"/>
      </g>
    </g>
  </g>
</svg>
