<svg id="Component_106_3" data-name="Component 106 – 3" xmlns="http://www.w3.org/2000/svg" width="50" height="50" viewBox="0 0 50 50">
  <rect id="Rectangle_1025" data-name="Rectangle 1025" width="50" height="50" rx="10" fill="#fd0460"/>
  <g id="resso" transform="translate(-43.211 -56.337)">
    <g id="sUWxcS_1_" transform="translate(53.211 64.337)">
      <g id="Group_4451" data-name="Group 4451" transform="translate(0)">
        <path id="Path_9687" data-name="Path 9687" d="M77.47,88.631c1.057.65,2.012,1.219,2.967,1.829a2.953,2.953,0,1,1-3.149,4.978c-1.666-1.016-3.332-2.032-4.978-3.068a.825.825,0,0,0-1.036,0c-2.5,1.544-5.019,3.068-7.538,4.613a6.849,6.849,0,0,1-10.505-5.811,58.379,58.379,0,0,1,.142-6.258,6.747,6.747,0,0,1,7.234-5.73,8.869,8.869,0,0,1,3.82,1.463c2.3,1.422,4.592,2.8,6.888,4.226a.733.733,0,0,0,.914,0c1.26-.792,2.54-1.565,3.8-2.357a1.413,1.413,0,0,0,.02-2.6c-4.877-3.007-9.774-5.974-14.63-8.981a1.458,1.458,0,0,0-2.276,1.26,30.341,30.341,0,0,1,0,3.6c0,.2-.264.569-.447.589A9.392,9.392,0,0,0,53.514,79c-.02.02-.081.02-.224.041-.02-.2-.061-.427-.061-.63,0-2.377-.041-4.775,0-7.152A6.644,6.644,0,0,1,57.009,65.1a6.855,6.855,0,0,1,7.254.63c1.869,1.219,3.779,2.337,5.689,3.495,2.194,1.341,4.389,2.7,6.6,4.044,1.28.792,2.621,1.524,3.861,2.4a6.822,6.822,0,0,1-.264,11.2C79.319,87.493,78.466,88.022,77.47,88.631Zm-11.3,0c-1.544-.955-3.007-1.849-4.47-2.743-.183-.1-.345-.224-.528-.3A1.374,1.374,0,0,0,59.2,86.823q-.03,1.768,0,3.536a1.368,1.368,0,0,0,2.154,1.2c.691-.386,1.361-.813,2.032-1.239C64.283,89.789,65.177,89.241,66.173,88.631Z" transform="translate(-53.211 -64.337)" fill="#fff"/>
      </g>
    </g>
  </g>
</svg>
