<svg id="Component_103_3" data-name="Component 103 – 3" xmlns="http://www.w3.org/2000/svg" xmlns:xlink="http://www.w3.org/1999/xlink" width="50" height="50" viewBox="0 0 50 50">
  <defs>
    <clipPath id="clip-path">
      <rect id="Rectangle_1020" data-name="Rectangle 1020" width="33.672" height="33.732" fill="#fff"/>
    </clipPath>
  </defs>
  <rect id="Rectangle_1019" data-name="Rectangle 1019" width="50" height="50" rx="10" fill="red"/>
  <g id="Group_4444" data-name="Group 4444" transform="translate(8.164 8.134)">
    <g id="Group_4443" data-name="Group 4443" clip-path="url(#clip-path)">
      <path id="Path_9680" data-name="Path 9680" d="M16.166,0h.2c.022.068.08.049.127.05.558.013,1.115.007,1.674.04.672.04,1.345.052,2.018.106.816.065,1.63.14,2.441.257A25.656,25.656,0,0,1,25.2.917a14.468,14.468,0,0,1,3.642,1.374,6.4,6.4,0,0,1,1.61,1.229,7.84,7.84,0,0,1,1.029,1.449A13.245,13.245,0,0,1,32.67,7.992a23.157,23.157,0,0,1,.488,2.339q.251,1.5.376,3c.064.763.086,1.531.115,2.3a24.987,24.987,0,0,1-.031,2.768c-.06.814-.054,1.635-.124,2.45-.032.367-.065.735-.108,1.1-.089.751-.222,1.5-.352,2.241a17.965,17.965,0,0,1-.59,2.382,13.249,13.249,0,0,1-.977,2.274,6.545,6.545,0,0,1-1.189,1.6,7.425,7.425,0,0,1-1.834,1.267,15.022,15.022,0,0,1-3.5,1.225c-.551.123-1.1.258-1.657.342-.642.1-1.291.165-1.939.23s-1.312.135-1.969.179c-.674.046-1.353.041-2.03.038a40.509,40.509,0,0,1-4.806-.182c-.572-.07-1.148-.117-1.715-.213-.775-.131-1.552-.26-2.315-.453a17.258,17.258,0,0,1-2.892-.969,7.08,7.08,0,0,1-2.55-1.82,9.96,9.96,0,0,1-1.878-3.712A25.368,25.368,0,0,1,.554,23.7Q.339,22.515.223,21.324c-.049-.5-.112-1-.125-1.5-.014-.552-.079-1.106-.086-1.66-.01-.849-.023-1.7,0-2.546.027-.9.072-1.8.156-2.693q.122-1.3.345-2.6c.129-.743.275-1.481.468-2.21A13.25,13.25,0,0,1,2.249,4.865,6.552,6.552,0,0,1,4.1,2.749,11.6,11.6,0,0,1,7.841,1.1a21.944,21.944,0,0,1,3-.6C11.6.4,12.354.249,13.116.21c.808-.041,1.612-.156,2.426-.116A1.489,1.489,0,0,0,16.166,0m13.24,12.843a13.164,13.164,0,0,0-2.22.047c-.588.051-1.183.014-1.77.068-.354.033-.707.02-1.059.044-.652.043-1.3.1-1.954.149-.169.012-.341-.009-.509.006q-1.057.1-2.118.1c-.06,0-.154.029-.141-.085.016-.144-.077-.253-.109-.382q-.319-1.285-.66-2.565c-.266-1-.544-2-.812-3-.292-1.091-.579-2.183-.868-3.275-.011-.043.019-.117-.061-.11-.049,0-.073.05-.088.107-.084.3-.175.6-.245.906-.263,1.134-.6,2.248-.88,3.378-.19.767-.407,1.527-.609,2.291-.226.854-.449,1.709-.674,2.563-.032.12-.08.194-.238.182-.361-.029-.723-.018-1.086-.039-.966-.056-1.933-.083-2.9-.157-.611-.047-1.226-.085-1.838-.1-.819-.021-1.632-.138-2.452-.115a.81.81,0,0,1-.2-.009,4.478,4.478,0,0,0-1.092-.019c.293.216.591.408.888.6.988.642,1.973,1.286,2.963,1.924q2.029,1.308,4.065,2.6a.325.325,0,0,1,.163.466c-.48,1.219-.948,2.442-1.423,3.663q-.855,2.2-1.714,4.394c-.109.279-.21.561-.315.841.693-.5,1.353-1.03,2.006-1.563.59-.482,1.162-.987,1.763-1.455.641-.5,1.261-1.022,1.9-1.52s1.291-1,1.884-1.563c.095-.09.159-.041.238.024q.933.763,1.87,1.52c.795.642,1.594,1.278,2.386,1.923.954.779,1.9,1.57,2.859,2.342.117.094.213.258.414.263-.03-.086-.052-.154-.078-.221q-1.064-2.748-2.128-5.5c-.424-1.1-.844-2.2-1.271-3.3-.042-.108-.034-.161.067-.226,1.254-.809,2.5-1.626,3.757-2.435,1.12-.723,2.245-1.438,3.367-2.158.31-.2.615-.4.922-.607" transform="translate(0)" fill="#fff"/>
    </g>
  </g>
</svg>
