<svg id="Component_132_1" data-name="Component 132 – 1" xmlns="http://www.w3.org/2000/svg" width="50" height="50" viewBox="0 0 50 50">
  <rect id="Rectangle_1050" data-name="Rectangle 1050" width="50" height="50" rx="10" fill="#1eccb0"/>
  <g id="Online_Songs_on_JioSaavn__Download_Play_Latest_Music_for_Free-0" data-name="Online Songs on JioSaavn_ Download &amp; Play Latest Music for Free-0" transform="translate(2 2)">
    <path id="Path_9775" data-name="Path 9775" d="M0,23A23,23,0,1,0,23,0,23.068,23.068,0,0,0,0,23Z" fill="#1eccb0"/>
    <path id="Path_9776" data-name="Path 9776" d="M16.425,26.806a10.328,10.328,0,0,0-3.45-3.594,16.56,16.56,0,0,0-4.6-2.013h0a.508.508,0,0,0-.575.575c0,.144,0,.288.144.288a14.2,14.2,0,0,0,7.906,5.606h.431a.141.141,0,0,0,.144-.144l.144-.144v-.288c0-.144,0-.288-.144-.288Z" transform="translate(3.413 9.276)" fill="#fff"/>
    <path id="Path_9777" data-name="Path 9777" d="M33.826,16.406v-.144A13.4,13.4,0,0,0,29.657,9.65a14.291,14.291,0,0,0-6.9-3.45h-.144a.508.508,0,0,0-.575.575v.144a44.929,44.929,0,0,1-2.444,23.432c0,.144-.144.144-.144.288s-.144.144-.288.144h-.288a.141.141,0,0,1-.144-.144l-.144-.144v-.288s-.144-1.006-.144-1.438A56.241,56.241,0,0,0,12.263,9.075a.141.141,0,0,0-.144-.144l-.144-.144H11.4a14.762,14.762,0,0,0-4.6,6.038v.431a.309.309,0,0,0,.288.288,22.31,22.31,0,0,1,7.619,7.906,22.7,22.7,0,0,1,3.019,10.494.528.528,0,0,0,.144.431.445.445,0,0,0,.288.144c.288,0,.719.144,1.006.144a.528.528,0,0,0,.431-.144c.144-.144.144-.144.144-.288a23.486,23.486,0,0,1,4.744-10.35,23.823,23.823,0,0,1,9.056-6.9c.144,0,.144-.144.288-.144C33.826,16.55,33.826,16.55,33.826,16.406Z" transform="translate(2.975 2.713)" fill="#fff"/>
    <path id="Path_9778" data-name="Path 9778" d="M28.419,21.075a.508.508,0,0,0-.575-.575H27.7a20.775,20.775,0,0,0-11.356,6.9.577.577,0,0,0,.431,1.006h0a15.416,15.416,0,0,0,6.613-2.013,13.285,13.285,0,0,0,4.888-4.888.528.528,0,0,0,.144-.431Z" transform="translate(7.088 8.969)" fill="#fff"/>
  </g>
</svg>
