<svg id="Component_114_1" data-name="Component 114 – 1" xmlns="http://www.w3.org/2000/svg" xmlns:xlink="http://www.w3.org/1999/xlink" width="50" height="50" viewBox="0 0 50 50">
  <defs>
    <linearGradient id="linear-gradient" x1="0.767" y1="0.251" x2="0.012" y2="1" gradientUnits="objectBoundingBox">
      <stop offset="0" stop-color="#25f"/>
      <stop offset="1" stop-color="#0af"/>
    </linearGradient>
    <clipPath id="clip-path">
      <path id="Path_4163" data-name="Path 4163" d="M15.179,20a2.284,2.284,0,0,1-.119-3.274c.06-.06,1.429-1.548,2.619-2.619A9.283,9.283,0,0,1,29.7,13.989,9.6,9.6,0,0,1,33.1,20.656a8.936,8.936,0,0,1-2.381,6.786c-1.9,2.083-5.3,5.357-5.476,5.476a2.41,2.41,0,0,1-1.607.655,2.321,2.321,0,0,1-1.607-3.988c.06-.06,3.452-3.274,5.238-5.238a4.756,4.756,0,0,0,1.19-3.393A4.822,4.822,0,0,0,26.667,17.5a4.74,4.74,0,0,0-5.893.06c-1.012.952-2.262,2.262-2.321,2.321a2.325,2.325,0,0,1-1.7.753A2.293,2.293,0,0,1,15.179,20m-4.4,5.476a9.6,9.6,0,0,1-3.393-6.667,9.257,9.257,0,0,1,2.381-6.786c1.9-2.083,5.3-5.357,5.476-5.476a2.315,2.315,0,1,1,3.214,3.333c-.06.06-3.452,3.274-5.238,5.238a4.756,4.756,0,0,0-1.19,3.393,4.822,4.822,0,0,0,1.786,3.452,4.74,4.74,0,0,0,5.893-.06c1.012-.952,2.262-2.262,2.321-2.321a2.316,2.316,0,0,1,3.393,3.155c-.06.06-1.429,1.548-2.619,2.619a9.309,9.309,0,0,1-12.024.119M0,20A20,20,0,1,0,20,0h-.109A19.968,19.968,0,0,0,0,20" transform="translate(0 -0.001)" fill="url(#linear-gradient)"/>
    </clipPath>
  </defs>
  <g id="Rectangle_999" data-name="Rectangle 999" fill="#fff" stroke="#e6e6e6" stroke-width="0.7">
    <rect width="50" height="50" rx="10" stroke="none"/>
    <rect x="0.35" y="0.35" width="49.3" height="49.3" rx="9.65" fill="none"/>
  </g>
  <g id="Group_4423" data-name="Group 4423" transform="translate(5 4.999)">
    <g id="Group_4422" data-name="Group 4422" transform="translate(0 0.001)" clip-path="url(#clip-path)">
      <rect id="Rectangle_1000" data-name="Rectangle 1000" width="40" height="40" transform="translate(0 0)" fill="url(#linear-gradient)"/>
    </g>
  </g>
</svg>
