<svg height="512" viewBox="0 0 176 176" width="512" xmlns="http://www.w3.org/2000/svg"><g id="Layer_2" data-name="Layer 2"><g id="_22.soundcloud" data-name="22.soundcloud"><rect id="background" fill="#fa4201" height="176" rx="16.33" width="176"/><g id="icon" fill="#fff"><path d="m34.68 105.24a.45.45 0 0 1 -.44.42.46.46 0 0 1 -.44-.43l-.8-6 .8-6.11a.45.45 0 0 1 .44-.43.45.45 0 0 1 .44.43l1 6.11z"/><path d="m38.77 108.89a.47.47 0 0 1 -.46.44.48.48 0 0 1 -.46-.44l-1.08-9.67 1.08-9.88a.49.49 0 0 1 .46-.44.48.48 0 0 1 .46.44l1.23 9.88z"/><path d="m43.19 110.52a.57.57 0 0 1 -.55.54.56.56 0 0 1 -.56-.54l-1-11.29 1-11.72a.56.56 0 0 1 .56-.54.57.57 0 0 1 .55.54l1.16 11.72z"/><path d="m47.64 110.88a.65.65 0 0 1 -1.3 0l-1-11.65 1-12a.65.65 0 0 1 1.3 0l1.1 12z"/><path d="m52.12 111a.74.74 0 0 1 -1.47 0l-.92-11.74.92-11.17a.74.74 0 0 1 1.47 0l1 11.18z"/><path d="m56.64 111a.85.85 0 0 1 -.83.83.86.86 0 0 1 -.81-.83l-.85-11.74.85-18.2a.87.87 0 0 1 .84-.83.85.85 0 0 1 .83.82l1 18.19z"/><path d="m61.13 111a.93.93 0 0 1 -1.85 0l-.81-11.7.81-22.3a.93.93 0 0 1 1.85 0l.87 22.3z"/><path d="m65.79 110.79a1 1 0 0 1 -2 0l-.79-11.54.75-24.25a1 1 0 0 1 2 0l.85 24.21z"/><path d="m70.42 110.72a1.11 1.11 0 0 1 -2.22 0l-.7-11.48.7-25a1.11 1.11 0 0 1 2.22 0l.78 25z"/><path d="m75.08 110.62a1.21 1.21 0 0 1 -2.41 0l-.67-11.37.63-24.38a1.22 1.22 0 0 1 1.21-1.2 1.21 1.21 0 0 1 1.21 1.2l.72 24.38z"/><path d="m79.78 110.55a1.3 1.3 0 0 1 -1.3 1.29 1.31 1.31 0 0 1 -1.31-1.28l-.58-11.31.58-23.48a1.32 1.32 0 0 1 1.31-1.29 1.3 1.3 0 0 1 1.3 1.29l.66 23.49z"/><path d="m84.57 109.36v1.1a1.45 1.45 0 0 1 -.42 1 1.37 1.37 0 0 1 -2-.1 1.33 1.33 0 0 1 -.33-.83s-.54-11.21-.54-11.23l.53-27.67v-.33a1.4 1.4 0 0 1 .64-1.16 1.31 1.31 0 0 1 .76-.23 1.34 1.34 0 0 1 .76.24 1.42 1.42 0 0 1 .63 1.15l.58 28z"/><path d="m89.23 110.32a1.49 1.49 0 0 1 -3 0l-.3-5.45-.31-5.6.61-30.33v-.15a1.48 1.48 0 0 1 .56-1.15 1.45 1.45 0 0 1 .93-.34 1.49 1.49 0 0 1 .76.21 1.55 1.55 0 0 1 .74 1.27l.66 30.48z"/><path d="m129.48 111.82h-37.48a1.62 1.62 0 0 1 -1.47-1.56v-42.94c0-.79.29-1.2 1.31-1.59a23.88 23.88 0 0 1 32.43 20.14 13.51 13.51 0 1 1 5.24 25.95z"/></g></g></g></svg>