<svg xmlns="http://www.w3.org/2000/svg" xmlns:xlink="http://www.w3.org/1999/xlink" version="1.1" id="contra_sans_book" x="0px" y="0px" viewBox="0 0 841.89 595.28" enable-background="new 0 0 841.89 595.28" xml:space="preserve"><g><g><path fill="#0977C9" d="M95.165,499.01c0,5.086,3.377,7.15,8.164,7.977c5.063,0.961,11.965,1.65,18.155,2.891    c9.293,1.918,16.899,5.633,16.899,17.043c0,4.533-2.538,10.036-8.023,13.609c-5.774,3.713-13.234,4.674-20.136,4.674    c-7.037,0-19.847-1.922-26.742-4.537v-9.351c7.037,2.202,22.66,5.229,26.601,5.229c8.447,0,17.88-1.787,17.88-9.074    c0-6.734-8.87-8.251-12.247-8.664c-4.223-0.548-14.643-1.926-18.584-3.16c-6.614-2.199-12.388-6.189-12.388-14.848    c0-13.201,13.515-19.111,26.89-19.111c7.036,0,13.515,1.238,20.128,3.439v9.35c-7.036-2.477-12.388-3.989-19.565-3.989    C106.142,490.487,95.165,492.414,95.165,499.01z"/><path fill="#0977C9" d="M171.887,481.688c19.565,0,30.12,13.062,30.12,32.034c0,17.731-11.118,31.898-30.12,31.898    c-19.007,0-29.984-14.167-29.984-31.898C141.903,495.986,152.739,481.688,171.887,481.688z M172.028,536.956    c14.073,0,19.707-12.237,19.707-23.368c0-11.553-4.365-23.101-19.29-23.101c-14.919,0-20.27,11.962-20.27,23.101    C152.175,524.719,157.949,536.956,172.028,536.956z"/><path fill="#0977C9" d="M267.329,518.121c0,16.357-11.542,26.947-29.139,26.947c-17.599,0-29.139-10.59-29.139-26.947v-35.608    h9.85v35.608c0,11,8.171,17.871,19.289,17.871c11.119,0,19.283-6.871,19.283-17.871v-35.608h9.856V518.121z"/><path fill="#0977C9" d="M287.035,506.71v37.532h-9.856v-61.729h9.017v9.208h0.275c7.326-5.908,16.751-10.174,28.583-10.174    c6.754,0,13.234,1.789,16.893,6.742c2.955,3.984,3.518,8.934,3.518,15.119v40.834h-9.857v-41.521    c0-11.822-8.587-12.233-12.951-12.233C302.102,490.487,287.035,495.986,287.035,506.71z"/><path fill="#0977C9" d="M391.064,484.162v-24.858h9.856v84.938h-9.151v-9.484h-0.275c-3.525,6.463-12.395,10.725-19.431,10.725    c-23.23,0-28.152-16.912-28.152-31.761c0-18.56,12.246-32.175,31.112-32.175C380.932,481.547,385.72,482.513,391.064,484.162z     M391.064,493.098c-6.049-1.646-11.683-2.61-16.329-2.61c-13.092,0-20.551,9.485-20.551,23.101    c0,9.066,1.691,22.957,17.879,22.957c10.28,0,15.906-6.049,17.457-8.799c1.544-2.889,1.544-6.053,1.544-9.076V493.098z"/><path fill="#0977C9" d="M451.881,501.07c0-5.084-2.954-10.583-12.951-10.583c-3.096,0-16.893,1.374-16.893,12.1v41.655h-9.85    v-61.729h9.01v7.289h0.276c5.351-6.19,15.347-8.255,20.136-8.255c8.445,0,15.2,3.99,17.738,8.255    c4.498-5.089,11.964-8.255,21.108-8.255c7.466,0,13.517,2.891,16.194,5.641c4.224,4.533,4.781,8.109,4.781,18.697v38.357h-9.85    V501.07c0-5.084-2.961-10.583-12.959-10.583c-3.095,0-16.886,1.374-16.886,12.1v41.655h-9.856V501.07z"/><path fill="#0977C9" d="M538.459,481.688c19.572,0,30.121,13.062,30.121,32.034c0,17.731-11.119,31.898-30.121,31.898    c-19.006,0-29.984-14.167-29.984-31.898C508.475,495.986,519.312,481.688,538.459,481.688z M538.594,536.956    c14.08,0,19.713-12.237,19.713-23.368c0-11.553-4.363-23.101-19.282-23.101c-14.927,0-20.276,11.962-20.276,23.101    C518.748,524.719,524.521,536.956,538.594,536.956z"/><path fill="#0977C9" d="M633.901,518.121c0,16.357-11.542,26.947-29.139,26.947c-17.599,0-29.14-10.59-29.14-26.947v-35.608h9.855    v35.608c0,11,8.165,17.871,19.284,17.871c11.118,0,19.29-6.871,19.29-17.871v-35.608h9.849V518.121z"/><path fill="#0977C9" d="M651.922,499.01c0,5.086,3.378,7.15,8.165,7.977c5.069,0.961,11.964,1.65,18.161,2.891    c9.287,1.918,16.893,5.633,16.893,17.043c0,4.533-2.537,10.036-8.022,13.609c-5.774,3.713-13.233,4.674-20.136,4.674    c-7.037,0-19.848-1.922-26.742-4.537v-9.351c7.035,2.202,22.66,5.229,26.602,5.229c8.447,0,17.879-1.787,17.879-9.074    c0-6.734-8.869-8.251-12.247-8.664c-4.223-0.548-14.643-1.926-18.583-3.16c-6.615-2.199-12.382-6.189-12.382-14.848    c0-13.201,13.509-19.111,26.884-19.111c7.037,0,13.516,1.238,20.129,3.439v9.35c-7.037-2.477-12.388-3.989-19.566-3.989    C662.9,490.487,651.922,492.414,651.922,499.01z"/><path fill="#0977C9" d="M708.932,514.271c0,11.136,5.775,22.685,19.854,22.685c11.542,0,21.257-4.947,28.293-7.149v9.348    c-6.619,2.2-14.221,6.466-28.44,6.466c-19.002,0-29.979-13.888-29.979-31.21c0-17.738,10.836-32.723,29.979-32.723    c10.702,0,18.586,4.125,23.653,10.86c4.224,5.636,6.473,13.063,6.473,21.724H708.932z M747.788,506.16    c-1.411-8.662-6.896-15.673-18.585-15.673c-11.543,0-17.732,7.287-19.424,15.673H747.788z"/></g><g><path fill="#0977C9" d="M767.604,491.427c-4.973,0-8.845-3.993-8.845-8.845c0-4.851,3.921-8.895,8.895-8.895    s8.844,3.994,8.844,8.846S772.578,491.427,767.604,491.427z M767.651,475.193c-4.184,0-7.34,3.316-7.34,7.387    s3.133,7.34,7.294,7.34c4.185,0,7.34-3.314,7.34-7.386C774.945,478.465,771.812,475.193,767.651,475.193z M769.687,483.564    l2.149,3.154h-2.264l-1.875-2.836h-1.531v2.836h-1.944v-8.805h3.91c2.104,0,3.453,1.076,3.453,2.905    C771.585,482.26,770.807,483.151,769.687,483.564z M768.062,479.631h-1.896v2.584h1.943c0.982,0,1.509-0.527,1.509-1.281    C769.618,480.064,769.023,479.631,768.062,479.631z"/></g></g><g><g><path fill="#0A5786" d="M532.009,286.278c5.517-21.379-38.019-45.775-126.839-68.732c-59.123-15.281-98.781-29.801-95.651-55.461    c0.244-1.996-6.361,0.622-6.361,0.622c-0.596,3.6-5.991,10.7-2.391,23c6.794,23.208,42.509,35.118,102.452,50.229    c63.337,16.926,116.475,33.911,119.772,54.078C524.699,300.466,530.673,291.452,532.009,286.278z"/><path fill="#0A5786" d="M537.872,277.57c5.776-13.503,2.903-17.838-1.37-24.006c-4.239-6.252-11.362-12.408-21.773-18.812    c-20.281-12.774-52.825-25.964-102.698-40.733c-42.405-11.917-101.484-28.293-76.655-46.095c0,0-12.642,3.273-12.648,3.279    c-14.055,11.243-5.153,25.766,20.008,36.395c18.636,7.874,43.14,14.928,66.924,21.222c40.755,11.184,70.497,21.872,91.094,32.202    c17.135,8.432,27.31,16.441,32.052,23.909c3.944,6.21,4.02,10.109,4.212,12.463"/><path fill="#0A5786" d="M505.714,309.468l12.989-9.068c2.127-22.255-54.584-39.205-109.789-53.157    c-38.363-9.225-64.916-17.285-83.432-25.709c-18.485-8.547-28.965-17.85-31.752-28.535c-2.645-10.139-0.035-17.314,3.771-24.178    l-8.911,10.42l-3.702,8.638c-2.249,7.129-2.138,15.749-0.271,21.84c7.349,22.971,45.754,39.08,127.768,55.597    c32.47,7.056,53.776,13.92,69.178,19.927C495.802,290.734,517.305,301.677,505.714,309.468z"/></g><path fill="#0A5786" d="M309.29,318.441c4.366,1.463,7.057,1.759,14.013,3.095c-5.172-5.861,37.283-10.139,52.708-10.792v-11.022   C338.819,299.556,304.682,310.157,309.29,318.441z"/><path fill="#0A5786" d="M376.01,266.177c-89.604-3.863-87.853,30.478-87.766,31.521l2.164,13.526   c1.558-31.26,53.139-33.129,85.602-34.101V266.177z"/><path fill="#0A5786" d="M294.346,310.699c1.105,1.074,3.732,3.458,7.578,5.32c2.068-14.483,40.689-21.981,74.086-22.537v-10.514   C311.689,282.815,293.648,300.847,294.346,310.699z"/></g><g><g><path fill="#0977C9" d="M293.989,333.193l-2.314-13.651c17.242,43.808,210.692,47.843,247.058-26.881    c0.167-0.342-1.638,12.796-1.638,12.796c-34.937,88.16-230.187,71.952-242.807,29.1    C294.169,334.153,294.067,333.604,293.989,333.193"/><path fill="#0977C9" d="M295.725,344.18c17.976,46.357,198.572,52.551,237.811-21.952c1.173-2.259,2.402-5.505,3.196-7.981    l-2.046,15.105c-31.272,95.194-222.922,72.097-236.411,31.227L295.725,344.18z"/></g><path fill="#0977C9" d="M288.242,297.765c5.479,38.699,245.997,34.102,252.869-33.175c0.283,6.994-0.209,14.406-2.23,21.063   c-42.587,74.999-237.442,64.909-248.472,25.782L288.242,297.765z"/><path fill="#0977C9" d="M518.376,143.979c-8.935-1.97-56.885-17.004-56.885-17.004c-89.094-28.683-118.829-4.639-118.829-4.639   c-3.224,2.873-18.668,15.868-18.668,15.868c26.719-19.369,77.239-14.941,134.675,4.045c42.333,13.994,63.014,16.648,66.536,17.06   L518.376,143.979z"/><path fill="#0977C9" d="M508.39,121.511c-11.25-5.63-49.796-16.875-49.796-16.875c-80.637-22.596-108.101,9.04-108.101,9.04   c-0.741,0.78,0,0,0,0c31.003-19.347,86.453-3.272,105.473,1.722c16.676,4.379,50.001,15.834,57.969,18.591L508.39,121.511z"/><g><path fill="#0977C9" d="M283.204,200.033c-0.005-0.178-0.004-0.357-0.007-0.535C283.194,199.81,283.203,199.996,283.204,200.033z"/><path fill="#0977C9" d="M528.909,167.478c-3.509,0.383-19.299-0.233-84.515-19.351c-84.86-24.878-116.037-9.897-131.738,1.549    c0,0-29.979,21.123-29.46,49.821c0.024-6.572,1.023-72.442,160.862-23.708c33.383,10.177,84.673,23.249,91.212,5.946    L528.909,167.478z"/></g></g></svg>