<svg id="Component_112_2" data-name="Component 112 – 2" xmlns="http://www.w3.org/2000/svg" xmlns:xlink="http://www.w3.org/1999/xlink" width="50" height="50" viewBox="0 0 50 50">
  <defs>
    <linearGradient id="linear-gradient" x1="0.612" y1="0.5" x2="0.12" y2="1" gradientUnits="objectBoundingBox">
      <stop offset="0" stop-color="#1883d8"/>
      <stop offset="1" stop-color="#045ba2"/>
    </linearGradient>
  </defs>
  <rect id="Rectangle_1033" data-name="Rectangle 1033" width="50" height="50" rx="10" fill="url(#linear-gradient)"/>
  <g id="Soundmouse-0" transform="translate(-271.871 -87.384)">
    <g id="Group_4459" data-name="Group 4459" transform="translate(283.191 101.953)">
      <g id="Group_4458" data-name="Group 4458" transform="translate(0 0)">
        <path id="Path_9719" data-name="Path 9719" d="M324.193,174.586c.585-2.267-4.032-4.855-13.452-7.29-6.27-1.621-10.476-3.161-10.145-5.882.026-.212-.675.066-.675.066a3.577,3.577,0,0,0-.254,2.439c.721,2.461,4.508,3.725,10.866,5.327,6.717,1.8,12.353,3.6,12.7,5.735C323.418,176.091,324.051,175.135,324.193,174.586Z" transform="translate(-297.806 -159.912)" fill="#dcdcdc"/>
        <path id="Path_9720" data-name="Path 9720" d="M339.592,161.674c.613-1.432.308-1.892-.145-2.546a7.432,7.432,0,0,0-2.309-2c-2.151-1.355-5.6-2.754-10.892-4.32-4.5-1.264-10.763-3-8.13-4.889l-1.341.348c-1.491,1.192-.547,2.733,2.122,3.86a56.842,56.842,0,0,0,7.1,2.251,54.681,54.681,0,0,1,9.661,3.415,8.328,8.328,0,0,1,3.4,2.536,2.489,2.489,0,0,1,.447,1.322" transform="translate(-312.583 -147.924)" fill="#dcdcdc"/>
        <path id="Path_9721" data-name="Path 9721" d="M306.807,183.738l1.378-.962c.226-2.36-5.789-4.158-11.644-5.638a51.717,51.717,0,0,1-8.849-2.727c-1.96-.906-3.072-1.893-3.368-3.026a3.2,3.2,0,0,1,.4-2.564l-.945,1.105-.393.916a4.186,4.186,0,0,0-.029,2.316c.779,2.436,4.853,4.145,13.551,5.9a47.884,47.884,0,0,1,7.337,2.113C305.755,181.751,308.036,182.911,306.807,183.738Z" transform="translate(-283.208 -166.605)" fill="#dcdcdc"/>
      </g>
      <path id="Path_9722" data-name="Path 9722" d="M308.916,301.706a10.49,10.49,0,0,0,1.486.328c-.549-.622,3.954-1.075,5.59-1.145V299.72C312.047,299.7,308.427,300.827,308.916,301.706Z" transform="translate(-306.149 -283.621)" fill="#dcdcdc"/>
      <path id="Path_9723" data-name="Path 9723" d="M297.54,265.906c-9.5-.41-9.317,3.232-9.308,3.343l.229,1.435c.165-3.315,5.636-3.514,9.079-3.617Z" transform="translate(-287.697 -253.365)" fill="#dcdcdc"/>
      <path id="Path_9724" data-name="Path 9724" d="M294.329,285.908a3.125,3.125,0,0,0,.8.564c.219-1.536,4.315-2.331,7.857-2.39v-1.115C296.168,282.951,294.255,284.863,294.329,285.908Z" transform="translate(-293.148 -268.645)" fill="#dcdcdc"/>
    </g>
    <g id="Group_4462" data-name="Group 4462" transform="translate(283.189 96.499)">
      <g id="Group_4460" data-name="Group 4460" transform="translate(0.9 20.804)">
        <path id="Path_9725" data-name="Path 9725" d="M291.92,296.954l-.245-1.448c1.829,4.646,22.345,5.074,26.2-2.851.018-.036-.174,1.357-.174,1.357-3.705,9.35-24.413,7.631-25.751,3.086-.013-.043-.023-.1-.032-.145" transform="translate(-291.675 -292.654)" fill="#fff"/>
        <path id="Path_9726" data-name="Path 9726" d="M295.725,317.422c1.906,4.917,21.06,5.573,25.222-2.328a6.05,6.05,0,0,0,.339-.846l-.217,1.6c-3.317,10.1-23.643,7.646-25.073,3.312Z" transform="translate(-295.295 -311.957)" fill="#fff"/>
      </g>
      <path id="Path_9727" data-name="Path 9727" d="M288.242,268.108c.581,4.1,26.09,3.617,26.819-3.518a6.863,6.863,0,0,1-.237,2.234c-4.517,7.954-25.182,6.884-26.352,2.734Z" transform="translate(-287.706 -246.763)" fill="#fff"/>
      <path id="Path_9728" data-name="Path 9728" d="M344.61,116.2c-.948-.209-6.033-1.8-6.033-1.8-9.449-3.042-12.6-.492-12.6-.492-.342.3-1.98,1.683-1.98,1.683,2.834-2.054,8.192-1.585,14.283.429a38.04,38.04,0,0,0,7.057,1.809Z" transform="translate(-319.666 -111.163)" fill="#fff"/>
      <path id="Path_9729" data-name="Path 9729" d="M366.945,99.152a55.013,55.013,0,0,0-5.281-1.79c-8.552-2.4-11.465.959-11.465.959h0c3.288-2.052,9.169-.347,11.186.183,1.769.464,5.3,1.679,6.148,1.972Z" transform="translate(-343.061 -96.499)" fill="#fff"/>
      <g id="Group_4461" data-name="Group 4461" transform="translate(0 4.044)">
        <path id="Path_9730" data-name="Path 9730" d="M283.2,199.555c0-.019,0-.038,0-.057C283.2,199.531,283.2,199.551,283.2,199.555Z" transform="translate(-283.196 -192.618)" fill="#fff"/>
        <path id="Path_9731" data-name="Path 9731" d="M309.25,138.112c-.372.041-2.047-.025-8.963-2.052-9-2.639-12.307-1.05-13.972.164,0,0-3.18,2.24-3.124,5.284,0-.7.108-7.683,17.061-2.514,3.54,1.079,8.98,2.466,9.674.631Z" transform="translate(-283.189 -134.628)" fill="#fff"/>
      </g>
    </g>
  </g>
</svg>
