<svg id="Component_100_5" data-name="Component 100 – 5" xmlns="http://www.w3.org/2000/svg" width="50" height="50" viewBox="0 0 50 50">
  <rect id="Rectangle_951" data-name="Rectangle 951" width="50" height="50" rx="10" fill="#0e112c"/>
  <g id="Spotify_Icon_RGB_Green" transform="translate(8 8)">
    <g id="Group_4372" data-name="Group 4372" transform="translate(0 0)">
      <g id="Group_4371" data-name="Group 4371">
        <path id="Path_3175" data-name="Path 3175" d="M17.462.459a17,17,0,1,0,17,17A17,17,0,0,0,17.462.459Zm7.8,24.521a1.06,1.06,0,0,1-1.458.353c-3.993-2.44-9.018-2.99-14.935-1.638a1.059,1.059,0,1,1-.471-2.065c6.476-1.48,12.03-.842,16.513,1.894A1.056,1.056,0,0,1,25.258,24.98Zm2.081-4.629a1.326,1.326,0,0,1-1.823.436A22.32,22.32,0,0,0,8.574,18.807,1.325,1.325,0,1,1,7.8,16.271,24.793,24.793,0,0,1,26.9,18.53,1.323,1.323,0,0,1,27.339,20.351Zm.179-4.821C22.038,12.276,13,11.977,7.766,13.565a1.59,1.59,0,0,1-.924-3.043c6.005-1.823,15.989-1.47,22.3,2.274a1.59,1.59,0,1,1-1.622,2.735Z" transform="translate(-0.462 -0.459)" fill="#00ff89"/>
      </g>
    </g>
  </g>
</svg>
