<svg id="Component_102_1" data-name="Component 102 – 1" xmlns="http://www.w3.org/2000/svg" width="49.998" height="50" viewBox="0 0 49.998 50">
  <path id="Path_3191" data-name="Path 3191" d="M37.7,50H12.295A12.3,12.3,0,0,1,0,37.7V12.295A12.3,12.3,0,0,1,12.295,0H37.7A12.3,12.3,0,0,1,50,12.295V37.7A12.293,12.293,0,0,1,37.7,50Z"/>
  <g id="Group_4399" data-name="Group 4399">
    <path id="Path_3192" data-name="Path 3192" d="M20.776,21.28V19.768a11.135,11.135,0,0,0-1.585-.136,11.752,11.752,0,0,0-6.738,21.4A11.739,11.739,0,0,1,20.776,21.28Z" fill="#25f4ee"/>
    <path id="Path_3193" data-name="Path 3193" d="M21.061,38.394a5.375,5.375,0,0,0,5.362-5.139V7.633H31.1a8.708,8.708,0,0,1-.136-1.621h-6.4v25.6A5.376,5.376,0,0,1,19.2,36.785a5.457,5.457,0,0,1-2.477-.618,5.372,5.372,0,0,0,4.334,2.228ZM39.845,16.326V14.9A8.748,8.748,0,0,1,35,13.44a8.868,8.868,0,0,0,4.842,2.886Z" fill="#25f4ee"/>
  </g>
  <path id="Path_3194" data-name="Path 3194" d="M35.005,13.442a8.812,8.812,0,0,1-2.192-5.821H31.1a8.857,8.857,0,0,0,3.9,5.821ZM19.191,26.036a5.375,5.375,0,0,0-2.477,10.131,5.361,5.361,0,0,1,4.347-8.507,5.638,5.638,0,0,1,1.585.249V21.393a11.122,11.122,0,0,0-1.585-.124h-.285v4.954A5.432,5.432,0,0,0,19.191,26.036Z" fill="#fe2c55"/>
  <path id="Path_3195" data-name="Path 3195" d="M39.845,16.326V21.28a15.191,15.191,0,0,1-8.878-2.886V31.408A11.776,11.776,0,0,1,19.191,43.16a11.648,11.648,0,0,1-6.737-2.13,11.752,11.752,0,0,0,20.359-8V20.053A15.226,15.226,0,0,0,41.7,22.9V16.525A9.133,9.133,0,0,1,39.845,16.326Z" fill="#fe2c55"/>
  <path id="Path_3196" data-name="Path 3196" d="M30.967,31.41V18.4a15.2,15.2,0,0,0,8.89,2.848V16.29A8.885,8.885,0,0,1,35,13.442a8.869,8.869,0,0,1-3.9-5.821H26.422V33.255A5.375,5.375,0,0,1,16.7,36.19a5.374,5.374,0,0,1,2.477-10.129,5.515,5.515,0,0,1,1.585.247V21.281A11.794,11.794,0,0,0,12.441,41.17a11.651,11.651,0,0,0,6.749,1.994A11.779,11.779,0,0,0,30.967,31.41Z" fill="#fff"/>
</svg>
