<svg id="Component_102_2" data-name="Component 102 – 2" xmlns="http://www.w3.org/2000/svg" xmlns:xlink="http://www.w3.org/1999/xlink" width="50" height="50" viewBox="0 0 50 50">
  <defs>
    <clipPath id="clip-path">
      <rect id="Rectangle_1017" data-name="Rectangle 1017" width="48" height="48" transform="translate(0 0)" fill="none"/>
    </clipPath>
  </defs>
  <rect id="Rectangle_1018" data-name="Rectangle 1018" width="50" height="50" rx="10" fill="#fefd00"/>
  <g id="Group_4442" data-name="Group 4442" transform="translate(1 1)">
    <g id="Group_4441" data-name="Group 4441" clip-path="url(#clip-path)">
      <path id="Path_9675" data-name="Path 9675" d="M27.839,19.551c0-4.365-.006-8.729.01-13.094,0-.382-.1-.462-.467-.459q-3.623.026-7.247,0c-.425,0-.547.08-.546.532q.024,13.694,0,27.388a8.063,8.063,0,0,0,1.109,4.29,7.549,7.549,0,0,0,6.239,3.759c1.67.145,3.363.023,5.045.039.305,0,.392-.076.39-.388q-.021-3.223,0-6.447c0-.322-.1-.385-.4-.38-.9.016-1.8-.006-2.7,0a1.486,1.486,0,0,1-.884-.35c-.69-.476-.533-1.215-.538-1.848-.032-4.348-.017-8.7-.016-13.044M29.9,23.046l7.924-4.75L29.9,13.551ZM12.782,18.19q0-1.9,0-3.791c0-.2.042-.4-.284-.39-.731.018-1.463.014-2.194,0-.238,0-.27.111-.27.305q0,3.89,0,7.781c0,.243.077.313.313.308.681-.013,1.364-.025,2.044,0,.351.015.4-.123.4-.428-.015-1.263-.006-2.527-.006-3.791m4.807.005c0-1.266-.011-2.532.007-3.8,0-.311-.082-.4-.391-.39-.665.023-1.332.019-2,0-.285-.007-.408.042-.406.374q.022,3.847,0,7.694c0,.27.08.333.333.328.683-.015,1.366-.022,2.048,0,.329.012.418-.086.413-.415-.02-1.265-.008-2.531-.008-3.8" transform="translate(-0.001 0)" fill="#feff00"/>
      <path id="Path_9676" data-name="Path 9676" d="M204.143,73.52c0,4.348-.015,8.7.017,13.044,0,.633-.153,1.372.538,1.848a1.486,1.486,0,0,0,.884.35c.9-.01,1.8.012,2.7,0,.295-.005.4.058.4.38q-.022,3.223,0,6.447c0,.312-.085.391-.39.388-1.682-.016-3.375.107-5.045-.039a7.549,7.549,0,0,1-6.239-3.759,8.065,8.065,0,0,1-1.109-4.29q.02-13.694,0-27.388c0-.452.121-.536.546-.532q3.623.033,7.247,0c.366,0,.468.077.467.459-.016,4.365-.01,8.729-.01,13.094" transform="translate(-176.305 -53.968)"/>
      <path id="Path_9677" data-name="Path 9677" d="M299,145.006v-9.5l7.924,4.746L299,145.006" transform="translate(-269.098 -121.96)"/>
      <path id="Path_9678" data-name="Path 9678" d="M103.05,144.277c0,1.263-.008,2.527.006,3.791,0,.305-.049.443-.4.428-.68-.029-1.363-.017-2.044,0-.236,0-.314-.065-.313-.308q.012-3.89,0-7.781c0-.194.032-.309.27-.305.731.012,1.463.017,2.194,0,.326-.008.284.191.284.39q0,1.9,0,3.791" transform="translate(-90.269 -126.086)"/>
      <path id="Path_9679" data-name="Path 9679" d="M150.788,144.265c0,1.266-.012,2.532.008,3.8.005.329-.085.427-.413.415-.682-.025-1.366-.018-2.048,0-.253.006-.334-.057-.333-.328q.017-3.847,0-7.694c0-.332.121-.381.406-.374.666.017,1.333.022,2,0,.309-.011.4.079.391.39-.018,1.265-.007,2.531-.007,3.8" transform="translate(-133.2 -126.069)"/>
    </g>
  </g>
</svg>
