<svg id="Component_124_15" data-name="Component 124 – 15" xmlns="http://www.w3.org/2000/svg" xmlns:xlink="http://www.w3.org/1999/xlink" width="50" height="50" viewBox="0 0 50 50">
  <defs>
    <clipPath id="clip-path">
      <rect id="Rectangle_1041" data-name="Rectangle 1041" width="30.001" height="43.617" fill="none"/>
    </clipPath>
  </defs>
  <rect id="Rectangle_1040" data-name="Rectangle 1040" width="50" height="50" rx="10" fill="#5f1ce0"/>
  <g id="Group_4468" data-name="Group 4468" transform="translate(10 3.191)">
    <g id="Group_4467" data-name="Group 4467" clip-path="url(#clip-path)">
      <path id="Path_9753" data-name="Path 9753" d="M47.786,31.762a12.59,12.59,0,0,1-3.289-.453,13.5,13.5,0,0,1-2.307-.893c-1.04-.493-2.086-.974-3.124-1.472-.481-.231-.951-.485-1.422-.735A5.019,5.019,0,0,1,34.9,24.03a5.442,5.442,0,0,1,.113-1.745c.119-.447.1-.918.264-1.356.139-.383.109-.805.255-1.179.14-.358.11-.742.241-1.1a10.272,10.272,0,0,0,.33-1.391,7.026,7.026,0,0,0,.192-.93,2.381,2.381,0,0,1,.178-.753A2.071,2.071,0,0,0,36.588,15a1.455,1.455,0,0,1,.139-.551.464.464,0,0,0,.041-.182,3.216,3.216,0,0,1,.228-1c.079-.189.026-.4.095-.6.159-.467.176-.972.327-1.438.12-.372.108-.764.241-1.126a10.452,10.452,0,0,0,.332-1.393,7.376,7.376,0,0,0,.189-.93,1.77,1.77,0,0,1,.19-.752.768.768,0,0,0,.05-.338.5.5,0,0,1,.57-.53.4.4,0,0,1,.326.212,4.116,4.116,0,0,1,.277.489c.864,1.818,1.787,3.608,2.678,5.412a1.359,1.359,0,0,0,.32.459.364.364,0,0,0,.617-.161c.291-.68.417-1.412.672-2.1.146-.4.284-.8.4-1.2.229-.807.518-1.595.762-2.4.282-.924.6-1.837.878-2.762s.6-1.844.89-2.768c.085-.267.137-.545.226-.811a.644.644,0,0,1,.487-.511.377.377,0,0,1,.432.175A2,2,0,0,1,48.171.7q.367,1.158.731,2.317.6,1.9,1.2,3.8c.31.977.636,1.95.936,2.93.252.823.551,1.63.775,2.462a2.772,2.772,0,0,0,.123.319.409.409,0,0,0,.395.3.426.426,0,0,0,.437-.279c.786-1.708,1.649-3.378,2.5-5.053.19-.373.348-.762.564-1.124a.479.479,0,0,1,.491-.244A.431.431,0,0,1,56.7,6.5c.09.361.17.724.251,1.087.25,1.123.5,2.247.745,3.371s.5,2.247.749,3.37.493,2.245.747,3.366.474,2.231.72,3.344c.112.507.234,1.012.328,1.523a5.9,5.9,0,0,1-.029,2.059,4.794,4.794,0,0,1-1.342,2.607,5.712,5.712,0,0,1-1.6,1.147c-1.515.737-3.026,1.483-4.555,2.191a11.448,11.448,0,0,1-2.695.916,12.194,12.194,0,0,1-2.238.278m-.165-7.576H40.959a1.636,1.636,0,0,0-.28.023.25.25,0,0,0-.23.186.239.239,0,0,0,.145.255c.164.092.328.184.5.27.969.5,1.967.929,2.946,1.4a8.049,8.049,0,0,0,3.883.853A6.77,6.77,0,0,0,50,26.8c.794-.294,1.564-.65,2.325-1.021.517-.252,1.029-.514,1.562-.732a5.258,5.258,0,0,0,.561-.279c.147-.082.3-.179.274-.38-.018-.145-.16-.2-.444-.2H47.621M43.076,20.84c.46,0,.92,0,1.38,0,.348,0,.456-.115.441-.456a2.744,2.744,0,0,0-.412-1.3A2.138,2.138,0,0,0,44,18.518a1.38,1.38,0,0,0-1.95.1,2.537,2.537,0,0,0-.819,1.837.323.323,0,0,0,.281.358,1.154,1.154,0,0,0,.279.028c.429,0,.857,0,1.286,0m8.9,0h.471c.3,0,.608.007.911,0,.363-.011.483-.151.46-.513a2.67,2.67,0,0,0-.2-.85,2.1,2.1,0,0,0-1-1.157,1.261,1.261,0,0,0-1.31.044,2.577,2.577,0,0,0-1.144,2.094c-.012.2.054.275.247.346a.874.874,0,0,0,.31.038h1.257" transform="translate(-32.494 -0.001)" fill="#e24400"/>
      <path id="Path_9754" data-name="Path 9754" d="M2.042,466.584a.425.425,0,0,1-.578-.28,2.683,2.683,0,0,1-.157-.437c-.2-.8-.475-1.578-.717-2.365a1.854,1.854,0,0,1-.066-.3c-.052-.378.036-.512.382-.632.661-.23,1.339-.411,2.009-.61s1.367-.412,2.05-.617c.816-.245,1.64-.47,2.444-.759.435-.156.9-.245,1.339-.4.646-.221,1.309-.386,1.955-.612.335-.117.7-.183,1.04-.3.611-.212,1.241-.361,1.852-.577.436-.154.895-.266,1.343-.4.5-.148,1.014-.272,1.505-.452.561-.206,1.143-.339,1.707-.539.426-.151.875-.259,1.313-.39.964-.29,1.935-.563,2.889-.884.644-.217,1.3-.373,1.946-.6.444-.159.921-.255,1.372-.409.562-.192,1.137-.343,1.7-.529.5-.165,1.011-.294,1.513-.456a.392.392,0,0,1,.119-.01.461.461,0,0,1,.521.393q.31,1.107.671,2.2c.087.264.173.529.248.8.084.3.013.434-.261.582a2.231,2.231,0,0,1-.441.152c-.975.289-1.942.607-2.919.89-1.211.351-2.411.74-3.623,1.089-.817.235-1.628.5-2.443.748-.7.21-1.381.467-2.1.627-.2.044-.39.14-.588.2q-1.853.561-3.706,1.122c-.894.272-1.787.55-2.681.824q-1.673.512-3.347,1.021c-.367.112-.733.23-1.1.342-.825.251-1.651.5-2.476.751-.765.234-1.528.474-2.293.709-.14.043-.283.075-.424.11" transform="translate(-0.475 -423.016)" fill="#050607"/>
      <path id="Path_9755" data-name="Path 9755" d="M11.918,457.245c-.56.133-1.074.314-1.6.463-1.28.367-2.54.8-3.826,1.148-.468.126-.926.3-1.393.437a1.189,1.189,0,0,1-.662-.014,15.165,15.165,0,0,0-1.483-.453,3.186,3.186,0,0,1-.492-.157c-.546-.183-1.1-.34-1.651-.51-.168-.052-.33-.121-.5-.168-.338-.094-.36-.334-.277-.608.223-.733.459-1.462.667-2.2.089-.315.194-.624.3-.931.085-.238.112-.247.37-.239a.5.5,0,0,1,.186.018c.328.15.694.176,1.027.326a4.043,4.043,0,0,0,.676.21c.733.181,1.439.447,2.166.644.447.121.88.286,1.331.394.27.065.531.165.8.247l1.928.595c.373.115.747.23,1.121.342.337.1.676.2,1.014.3a.483.483,0,0,1,.291.155" transform="translate(0 -423.002)" fill="#050607"/>
      <path id="Path_9756" data-name="Path 9756" d="M275.538,565.325c-.647-.228-1.317-.377-1.964-.605-.441-.156-.9-.245-1.348-.4-.633-.215-1.288-.367-1.92-.582-.419-.143-.851-.238-1.265-.4-.429-.169-.887-.265-1.33-.4-.8-.241-1.594-.487-2.39-.733-.018-.005-.031-.025-.048-.04a.136.136,0,0,1,.1-.1,16.053,16.053,0,0,0,1.816-.514c.953-.282,1.906-.567,2.852-.873.557-.18,1.125-.32,1.681-.5a1.36,1.36,0,0,0,.138-.063.954.954,0,0,1,.752-.049c.35.13.714.217,1.069.329.449.142.9.3,1.346.434.261.079.526.163.794.231.369.094.732.209,1.093.33a.339.339,0,0,1,.205.477c-.148.474-.305.948-.435,1.424-.157.573-.333,1.138-.507,1.7-.108.353-.286.451-.639.327" transform="translate(-247.153 -521.759)" fill="#050607"/>
    </g>
  </g>
</svg>
