<svg width="48" height="48" viewBox="0 0 48 48" fill="none" xmlns="http://www.w3.org/2000/svg">
<g clip-path="url(#clip0_17116_4903)">
<path d="M38.4 0H9.6C4.29807 0 0 4.29807 0 9.6V38.4C0 43.7019 4.29807 48 9.6 48H38.4C43.7019 48 48 43.7019 48 38.4V9.6C48 4.29807 43.7019 0 38.4 0Z" fill="#0F0F10"/>
<path fill-rule="evenodd" clip-rule="evenodd" d="M28.7725 28.3393L23.5218 18.7962H26.6133L28.7725 23.1345L30.933 18.7962H34.0246L28.7711 28.3393H28.7725ZM10.3894 28.3393L5.13867 18.7962H8.23022L10.3894 23.1345L12.5499 18.7962H15.6415L10.388 28.3393H10.3894ZM19.5795 20.8214C20.4978 20.8317 21.2753 21.5293 21.426 22.4736H17.733C17.9767 21.4397 18.633 20.8214 19.5795 20.8214ZM24.1767 23.4649C24.219 20.7729 22.1612 18.5538 19.5809 18.5068C16.9992 18.5538 14.9415 20.7729 14.9852 23.4649C14.9528 26.1672 17.026 28.3863 19.619 28.4201H19.6612C21.5964 28.4773 23.3373 27.1996 23.933 25.2801H21.1654C20.826 25.7868 20.2528 26.0703 19.6612 26.0247C18.5922 26.0247 17.9105 25.2581 17.6964 24.2066H24.1246C24.1598 23.9598 24.1781 23.7131 24.1781 23.4634L24.1767 23.4649ZM38.1218 25.7795C36.9697 25.7662 36.0457 24.7823 36.0584 23.5809C36.0584 23.5413 36.0612 23.5046 36.064 23.4649C35.9908 22.2665 36.864 21.2326 38.0133 21.1562C38.0485 21.1533 38.0866 21.1533 38.1218 21.1504C39.2739 21.1636 40.1978 22.1476 40.188 23.3489C40.188 23.3856 40.1852 23.4253 40.1823 23.4649C40.2556 24.6633 39.3823 25.6972 38.233 25.7736C38.195 25.7765 38.1598 25.7795 38.1218 25.7795ZM38.1218 18.5068C35.495 18.5068 33.3668 20.7259 33.3668 23.4649C33.3668 26.2039 35.495 28.423 38.1218 28.423C40.7485 28.423 42.8767 26.2039 42.8767 23.4649C42.8767 20.7259 40.7485 18.5068 38.1218 18.5068Z" fill="white"/>
</g>
<defs>
<clipPath id="clip0_17116_4903">
<rect width="48" height="48" fill="white"/>
</clipPath>
</defs>
</svg>
