<svg id="Component_120_48" data-name="Component 120 – 48" xmlns="http://www.w3.org/2000/svg" width="50" height="50" viewBox="0 0 50 50">
  <rect id="Rectangle_1011" data-name="Rectangle 1011" width="50" height="50" rx="10" fill="#29cc53"/>
  <g id="Group_4" data-name="Group 4" transform="translate(-1114.554 -227.694)">
    <g id="Group_3" data-name="Group 3" transform="translate(1118.554 247.145)">
      <path id="Path_13" data-name="Path 13" d="M1226.874,283.694h0a.784.784,0,0,0-.776.769v5.565h.809a.785.785,0,0,0,.776-.782v-5.554Z" transform="translate(-1218.014 -280.961)" fill="#fff"/>
      <g id="Group_2" data-name="Group 2" transform="translate(0 2.733)">
        <path id="Path_14" data-name="Path 14" d="M1119.629,283.694a.972.972,0,0,1,.895.592l2.189,5.158c.144.34.219.545.308.585H1121.3c-.088-.04-.163-.245-.307-.585l-2.44-5.75Z" transform="translate(-1118.554 -283.694)" fill="#fff"/>
        <path id="Path_15" data-name="Path 15" d="M1156.826,290.03c.391-.091.639-.593,1.331-2.223l1.745-4.113h-1.075a.972.972,0,0,0-.895.592l-1.494,3.52c-.692,1.63-.94,2.132-1.331,2.223Z" transform="translate(-1152.359 -283.694)" fill="#fff"/>
      </g>
      <circle id="Ellipse_3" data-name="Ellipse 3" cx="0.972" cy="0.972" r="0.972" transform="translate(7.905 0)" fill="#fff"/>
      <path id="Path_16" data-name="Path 16" d="M1265.6,284.718a3.167,3.167,0,0,0-2.268-.871,3.249,3.249,0,0,0-3.2,3.134,3.029,3.029,0,0,0,.889,2.221,3.316,3.316,0,0,0,2.329.945,3.411,3.411,0,0,0,1.714-.471.835.835,0,0,0,.691.47h.809v-3.11a3.183,3.183,0,0,0-.965-2.32Zm-2.252,3.956a1.819,1.819,0,0,1-1.35-.635,1.568,1.568,0,0,1-.324-1.355,1.756,1.756,0,0,1,1.354-1.326,1.652,1.652,0,0,1,1.384.317,1.752,1.752,0,0,1,.65,1.325v.1a1.547,1.547,0,0,1-.36.944,1.819,1.819,0,0,1-1.352.635Z" transform="translate(-1249.486 -281.102)" fill="#fff"/>
    </g>
    <path id="Path_17" data-name="Path 17" d="M1605.677,249.866a2.87,2.87,0,0,0-1.274.289v-2.233h.008v-.793h-.81v.012a.78.78,0,0,0-.784.77V256.2h.81a.781.781,0,0,0,.776-.781v-2.754a1.281,1.281,0,0,1,2.559,0v2.753c0,.01,0,.02,0,.03v.757h.81V256.2a.79.79,0,0,0,.775-.781v-2.754A2.84,2.84,0,0,0,1605.677,249.866Z" transform="translate(-447.861)" fill="#fff"/>
    <path id="Path_18" data-name="Path 18" d="M1554.834,265.974a.745.745,0,0,0-.011-.116.828.828,0,0,0-.825-.644.623.623,0,0,1-.629-.615v-2.656h.652a.78.78,0,0,0,.787-.768h.006v-.793H1554v.008h-.635v-1.056h.01v-.793h-.81v0a.808.808,0,0,0-.512.192.776.776,0,0,0-.274.589v5.455a2.022,2.022,0,0,0,1.958,1.987h1.094v-.793Z" transform="translate(-400.663 -10.554)" fill="#fff"/>
    <path id="Path_19" data-name="Path 19" d="M1459.559,284.718a3.167,3.167,0,0,0-2.268-.871,3.248,3.248,0,0,0-3.2,3.134,3.029,3.029,0,0,0,.889,2.221,3.316,3.316,0,0,0,2.329.945,3.41,3.41,0,0,0,1.714-.471.836.836,0,0,0,.692.47h.809v-3.11a3.184,3.184,0,0,0-.965-2.32Zm-2.252,3.956a1.819,1.819,0,0,1-1.35-.635,1.567,1.567,0,0,1-.324-1.355,1.756,1.756,0,0,1,1.354-1.326,1.652,1.652,0,0,1,1.383.317,1.752,1.752,0,0,1,.65,1.325v.1a1.545,1.545,0,0,1-.36.944,1.818,1.818,0,0,1-1.351.635Z" transform="translate(-310.313 -33.957)" fill="#fff"/>
    <path id="Path_20" data-name="Path 20" d="M1362.968,284.782a3.334,3.334,0,0,0-2.953-.452,3.16,3.16,0,0,0-2.193,3.02v5.317a.752.752,0,0,0,.234.546.807.807,0,0,0,.564.223h.016a.8.8,0,0,0,.771-.807v-5.292a1.59,1.59,0,0,1,1.007-1.5,1.7,1.7,0,0,1,1.7.26,1.585,1.585,0,0,1,.559,1.555,1.686,1.686,0,0,1-1.687,1.3h-.181a.785.785,0,0,0-.793.776c0,.014,0,.028,0,.042v.734h1.042a3.206,3.206,0,0,0,3.235-3.168A3.161,3.161,0,0,0,1362.968,284.782Z" transform="translate(-221.282 -34.256)" fill="#fff"/>
  </g>
</svg>
