<svg id="Component_105_2" data-name="Component 105 – 2" xmlns="http://www.w3.org/2000/svg" xmlns:xlink="http://www.w3.org/1999/xlink" width="50" height="50" viewBox="0 0 50 50">
  <defs>
    <clipPath id="clip-path">
      <rect id="Rectangle_1023" data-name="Rectangle 1023" width="32" height="31.875" transform="translate(0 0)" fill="none"/>
    </clipPath>
  </defs>
  <rect id="Rectangle_1024" data-name="Rectangle 1024" width="50" height="50" rx="10" fill="#292929"/>
  <g id="Group_4450" data-name="Group 4450" transform="translate(9 9.06)">
    <g id="Group_4449" data-name="Group 4449" transform="translate(0 0.003)" clip-path="url(#clip-path)">
      <path id="Path_9685" data-name="Path 9685" d="M31.042,10.487a16.712,16.712,0,0,1,.927,6.439,16.9,16.9,0,0,1-.951,4.488,15.154,15.154,0,0,1-1.962,3.729,16.081,16.081,0,0,1-2.207,2.495,16.421,16.421,0,0,1-3.863,2.64,15.871,15.871,0,0,1-4.265,1.391,17.6,17.6,0,0,1-3.231.208,14.907,14.907,0,0,1-6.156-1.441,15.873,15.873,0,0,1-5.118-3.713A16.376,16.376,0,0,1,1.1,21.736,18.213,18.213,0,0,1,.068,17.75a15.449,15.449,0,0,1-.038-2.415A14.641,14.641,0,0,1,1.653,8.789,15.844,15.844,0,0,1,12.579.256,8.61,8.61,0,0,1,14.327,0c.19,0,.253.056.252.249-.007,1.416-.012,2.833,0,4.249,0,.293-.215.282-.361.309a13.042,13.042,0,0,0-2.084.548,11.5,11.5,0,0,0-3.049,1.7A11.234,11.234,0,0,0,5.31,12.449a10.511,10.511,0,0,0-.5,4.483A11.223,11.223,0,0,0,7,22.589a11.059,11.059,0,0,0,3.721,3.193,10.574,10.574,0,0,0,3.127,1.144,11.062,11.062,0,0,0,6.2-.6,11.313,11.313,0,0,0,4.29-2.936,10.858,10.858,0,0,0,2.635-5.2,11.042,11.042,0,0,0,.044-4.267.265.265,0,0,1,.087-.312c1.268-1,2.527-2.019,3.789-3.031a1.542,1.542,0,0,1,.153-.093" transform="translate(0 -0.002)" fill="#fb0"/>
      <path id="Path_9686" data-name="Path 9686" d="M1303.292,23.41A16.074,16.074,0,0,1,1310,26.432a24.079,24.079,0,0,1,2.045,1.892c.132.129.183.228.068.407q-1.208,1.881-2.394,3.776c-.177.284-.245.268-.436,0a10.73,10.73,0,0,0-3.443-3.1.906.906,0,0,0-.161-.053c0,2.251.005,4.482,0,6.712,0,1.226.062,2.454-.062,3.677a5.157,5.157,0,0,1-1.335,2.989,5.447,5.447,0,0,1-2.952,1.689,5.146,5.146,0,0,1-4.542-1.113,5.353,5.353,0,0,1-1.419-1.765,4.93,4.93,0,0,1-.558-3.038,5.583,5.583,0,0,1,1.2-2.832,5.191,5.191,0,0,1,1.829-1.458,5.613,5.613,0,0,1,4.984.118c.07.035.137.076.206.114.179.1.3.108.272-.157-.015-.172,0-.347,0-.521V23.41" transform="translate(-1284.228 -23.22)" fill="#dd1915"/>
    </g>
  </g>
</svg>
