<svg id="Component_105_1" data-name="Component 105 – 1" xmlns="http://www.w3.org/2000/svg" width="50" height="50" viewBox="0 0 50 50">
  <rect id="Rectangle_958" data-name="Rectangle 958" width="50" height="50" rx="10" fill="#f8f8f8"/>
  <path id="Path_3201" data-name="Path 3201" d="M29.382,3.287A3.759,3.759,0,0,0,26.738.642C24.39,0,15,0,15,0S5.609,0,3.262.618A3.835,3.835,0,0,0,.618,3.287,39.606,39.606,0,0,0,0,10.5a39.46,39.46,0,0,0,.618,7.216,3.759,3.759,0,0,0,2.644,2.644C5.634,21,15,21,15,21s9.39,0,11.738-.618a3.759,3.759,0,0,0,2.644-2.644A39.607,39.607,0,0,0,30,10.527,37.593,37.593,0,0,0,29.382,3.287Zm0,0" transform="translate(10.239 14.665)" fill="red"/>
  <path id="Path_3202" data-name="Path 3202" d="M204.969,111.336l7.684-4.426-7.684-4.426Zm0,0" transform="translate(-182.653 -81.743)" fill="#fff"/>
</svg>
