<svg id="Component_125_1" data-name="Component 125 – 1" xmlns="http://www.w3.org/2000/svg" width="50" height="50" viewBox="0 0 50 50">
  <g id="Component_118_18" data-name="Component 118 – 18">
    <g id="Component_110_4" data-name="Component 110 – 4">
      <g id="Rectangle_1029" data-name="Rectangle 1029" fill="#fff" stroke="#e6e6e6" stroke-width="0.7">
        <rect width="50" height="50" rx="10" stroke="none"/>
        <rect x="0.35" y="0.35" width="49.3" height="49.3" rx="9.65" fill="none"/>
      </g>
    </g>
  </g>
  <path id="Youtube_shorts_icon" d="M19.115.817a7.18,7.18,0,0,1,9.648,2.96,7.031,7.031,0,0,1-2.993,9.545L22.9,14.831a7.146,7.146,0,0,1,6.064,3.77,7.029,7.029,0,0,1-2.993,9.545l-15.3,8.04a7.18,7.18,0,0,1-9.648-2.96A7.031,7.031,0,0,1,4.014,23.68l2.87-1.509A7.146,7.146,0,0,1,.819,18.4,7.031,7.031,0,0,1,3.812,8.857l15.3-8.04Zm-8.26,11.99,9.262,5.718-9.262,5.691V12.807Z" transform="translate(10.004 5.999)" fill="#f40407" fill-rule="evenodd"/>
</svg>
