<svg id="Layer_1" data-name="Layer 1" xmlns="http://www.w3.org/2000/svg" viewBox="0 0 500 176.69"><defs><style>.cls-1{fill:#fd0000;}.cls-2{fill:#fef9f9;}</style></defs><g id="Layer_1-2" data-name="Layer 1-2"><path class="cls-1" d="M276.72,518.32c-3.24-1.92-6.12-3.6-9.12-5.28-8.53-4.92-15-12.12-16.69-21.84-2.64-15.61-.24-28.81,16.33-38.77,20.88-12.48,42-24.36,63.12-36.48,20.65-11.77,47.89,1.92,51,25.56A34.54,34.54,0,0,1,363.61,477c-2.76,1.56-5.64,3.24-8.76,5.16,3.12,1.8,5.76,3.49,8.52,5.05,22,12.36,24.84,41.52,5.52,57.6-3.84,3.12-8.4,5.4-12.72,7.92-18.12,10.57-36.37,21.13-54.61,31.45a34.8,34.8,0,0,1-35.16-60C269.88,522.4,273.12,520.48,276.72,518.32Zm22.2,8.28,45.37-26.28-45.37-26.17Z" transform="translate(-250 -411.65)"/><path d="M480.86,562.13V434.55h19.81v46.8c.6-1,1.44-2.28,2.4-3.6,6.6-8.88,21-10.44,28-2.64a21.74,21.74,0,0,1,4.32,8.64,36.16,36.16,0,0,1,1.2,9.49c.12,22.32,0,44.64,0,67a11.09,11.09,0,0,1-.12,1.93H516.15V495.64a24.9,24.9,0,0,0-.84-6.6c-1-3.36-3.6-4.81-7.08-4.21a8.4,8.4,0,0,0-7.2,8.77v68.53Z" transform="translate(-250 -411.65)"/><path d="M417,527.32h18.6c0,2.76-.12,5.64,0,8.4a29.26,29.26,0,0,0,1.08,6.48c1.32,4.68,4.32,6.72,8.88,6.48s7.32-2.76,8.28-7.32c2-10.8-1.08-20.16-8.88-27.84-5.28-5.16-10.92-10-16.32-15-13.2-12.24-15.12-27.61-11.4-44.17,1.92-8.52,7.92-13.8,16.32-16.08a44.44,44.44,0,0,1,20.64-.6c8.88,1.92,14.52,7.08,16.92,16,1.8,6.72,1.68,13.44.84,20.4l-18.12,1.2c-.36-4.8-.6-9.48-1-14a20.35,20.35,0,0,0-.48-2.64c-1.2-4.44-3.6-6.36-7.92-6.24s-7.44,2-8.4,6.36c-2.16,9.36-.6,17.76,6.48,24.72,6.12,6,12.24,11.89,18.48,17.77C475.22,514.6,476.9,531,471.74,548.8c-2.16,7.32-7.44,11.76-14.88,13.69a46.85,46.85,0,0,1-22,.6c-10.68-2.16-16.44-8.17-18.12-19A52.71,52.71,0,0,1,417,527.32Z" transform="translate(-250 -411.65)"/><path d="M544.35,517.6c.72-8.4,1.08-16.68,2.28-25a36.94,36.94,0,0,1,4-11.05c2.76-5.52,7.56-8.76,13.57-10.2a40.8,40.8,0,0,1,17-.36c10.32,1.92,15.84,8.88,17.88,18.61a106.24,106.24,0,0,1,2,18.48c.24,11.16.72,22.32-1.32,33.36A40,40,0,0,1,597,550.6a19.59,19.59,0,0,1-13.68,11.77,41,41,0,0,1-20.88,0c-10-2.65-14.41-10.33-15.85-19.57C545.19,534.52,545,526,544.35,517.6Zm36.49-.24h-.48c0-6.72.24-13.44-.12-20.16a32.55,32.55,0,0,0-1.92-9,5.77,5.77,0,0,0-10.8,0,28.44,28.44,0,0,0-1.8,8.28c-.24,13.8-.24,27.6,0,41.28a29.31,29.31,0,0,0,1.92,8.52,5,5,0,0,0,5.28,3.36,5.34,5.34,0,0,0,5.4-3.24,15.17,15.17,0,0,0,1.56-5.16C580.36,533.44,580.6,525.4,580.84,517.36Z" transform="translate(-250 -411.65)"/><path d="M698.57,534.64h17a69.26,69.26,0,0,0,1.8,10,7.52,7.52,0,0,0,8.4,5.4c5.88-.84,9-6.36,6-11.76a31.19,31.19,0,0,0-7.2-8.16c-5.28-4.56-10.92-8.64-16.21-13.2-9.72-8.76-11.52-19.8-8.4-31.93,1.8-7.08,6.84-11.28,13.81-13.08a41,41,0,0,1,20.16-.36c8.52,2,13.32,7.56,14.76,17.29.6,4.08.6,8.28.84,12.84l-8.88.48-8.28.36c-.48-4.08-.72-7.92-1.44-11.76-.84-4.2-3.24-6-7.32-5.77-5,.24-7.44,3.25-7.08,8.29a13.45,13.45,0,0,0,5.28,10.2c5.52,4.44,11.16,8.64,16.68,13.08,5.16,4.2,10,9,10.92,15.84a58.35,58.35,0,0,1,0,15.84c-1.2,7.44-6.24,12.24-13.56,14.53a40.08,40.08,0,0,1-22.56.36c-8.53-2.29-13.81-8.29-14.53-17.17C698.33,542.32,698.57,538.72,698.57,534.64Z" transform="translate(-250 -411.65)"/><path d="M679.73,488.08c0,18-.12,35.64,0,53.28,0,6.6,1.44,7.56,8,6.48,1.32-.24,2.52-.6,4.2-1,.84,4.32,1.68,8.64,2.52,13.08-8.16,3.25-16.2,4.69-24.72,3a9.58,9.58,0,0,1-8-7.69,68.48,68.48,0,0,1-1.68-13.08c-.12-17-.12-34-.12-50.88v-2.88h-7.2V472.35c2,0,4-.12,5.88,0s2.4-.48,2.52-2.28c.6-7.56,1.44-15,2.16-22.56a11.91,11.91,0,0,1,.36-1.8h15v26.64h13.68v15.73Z" transform="translate(-250 -411.65)"/><path d="M648.05,470.67c-.36,7.92-.6,15.61-1,23.17a105.12,105.12,0,0,0-10.69.12,11.33,11.33,0,0,0-5,2.28,6.22,6.22,0,0,0-2.64,5.52c.12,19.2,0,38.4,0,57.6v2.77H609.28v-90h15.48c.6,6.48,1.2,13,1.8,19.33H627a41.31,41.31,0,0,1,1.68-6.61,48.84,48.84,0,0,1,5-9.6C637.12,470.67,642.17,469.47,648.05,470.67Z" transform="translate(-250 -411.65)"/><path class="cls-2" d="M298.92,526.6V474.15l45.37,26.17Z" transform="translate(-250 -411.65)"/></g></svg>